<svg xmlns="http://www.w3.org/2000/svg" id="Layer_1" width="1200" height="349.68" viewBox="0 0 1200 349.68"><polygon points="302.48 0 100.84 0 0 174.8 100.8 349.52 302.48 349.68 403.28 174.84 302.48 0" fill="#28ba00" stroke-width="0"></polygon><polygon points="289.24 248.04 237.56 248.04 237.56 185.76 248.28 171.84 248.36 171.28 201.84 201.48 155.2 171.28 155.2 171.88 165.2 185.76 165.2 248.04 113.56 248.04 113.56 103.36 144.92 103.36 202.16 144.68 259.4 103.36 289.24 103.36 289.24 248.04" fill="#fff" stroke-width="0"></polygon><path d="m468.32,130.92h31.32l2.4,7.52c4.8-6.56,13.88-10.24,24.44-10.24,12.64,0,20.8,4,25.08,11.36,5.44-6.72,14.88-11.36,26.36-11.36,22.68,0,30.2,12.32,30.2,37.56v55.28h-37.24v-55.16c0-4.88-2.24-7.28-6.72-7.28-3.52,0-7.36,2.32-7.36,7.28v55.16h-37.24v-55.16c0-4.04-2.24-7.28-6.72-7.28-5,0-7.36,2.48-7.36,7.28v55.16h-37.2v-90.12h.04,0Z" fill="#001b36" stroke-width="0"></path><path d="m613.52,175.96c0-34.52,22.36-47.8,50.48-47.8s48.24,13.28,48.24,47.8-22.68,47.76-50.64,47.76-48.08-13.08-48.08-47.76h0Zm61.72,0c0-12.2-3.44-18.68-12.36-18.68s-12.16,6.48-12.16,18.68,3.24,18.68,12.16,18.68,12.36-6.36,12.36-18.68h0Z" fill="#001b36" stroke-width="0"></path><path d="m761.12,175.44c0-34.48,22.4-47.76,50.48-47.76s48.24,13.28,48.24,47.76-22.68,47.8-50.64,47.8-48.08-13.12-48.08-47.8h0Zm61.68,0c0-12.16-3.44-18.68-12.32-18.68s-12.16,6.52-12.16,18.68,3.24,18.68,12.16,18.68,12.32-6.36,12.32-18.68Z" fill="#001b36" stroke-width="0"></path><path d="m702.68,249.12v-26.36c2.56,1.76,5.76,2.72,8.92,2.72,4.16,0,6.56-1.76,6.56-6.4v-88.16h37.24v88c0,22.84-12.48,34.2-35.16,34.2-8,0-15.2-2.4-17.56-4Zm15.32-140c0-9.52,7.92-15.72,18.52-15.72s18.88,6.16,18.88,15.72-8.08,15.56-18.88,15.56-18.52-5.84-18.52-15.56Z" fill="#001b36" stroke-width="0"></path><path d="m871.84,191.16v-31.96h-9.92v-16.96l30.08-31.8h17.04v20.44h18.84v28.28h-18.84v27.16c0,5.12,2.08,7.64,6.56,7.64,5.44,0,8.8-2.08,11.36-5.12v27.96c-3.84,3.52-10.4,6.88-24.12,6.88-22.68,0-31-13.4-31-32.56v.04h0Z" fill="#001b36" stroke-width="0"></path><path d="m930.16,175.96c0-34.04,22.52-47.8,47.32-47.8s44.72,9.32,44.72,45.04c0,2.88-.84,10.44-1.16,11.52h-52.52c.8,5.12,4.8,8.8,21.4,8.8,13.44,0,18.8-1.36,24.4-4.08v27.64c-5.12,3.52-13.84,6.64-32.56,6.64-35,0-51.6-15.52-51.6-47.76h0Zm61.24-11.04v-.64c0-5.44-4.24-11.4-12.4-11.4s-11.96,6.6-12.12,12.04h24.52Z" fill="#001b36" stroke-width="0"></path><path d="m1025.68,175.96c0-33.24,20.44-47.8,46.84-47.8,15,0,24.6,3.84,28.92,7.04v30.36c-6.4-4.16-12.28-5.92-20.6-5.92-11.84,0-16.96,5.28-16.96,16.48s5.28,16.12,16.96,16.12c8.32,0,14.4-2.08,20.76-6.08v29.88c-4.32,3.52-14.56,7.68-28.6,7.68-28.28,0-47.32-14.24-47.32-47.76h0Z" fill="#001b36" stroke-width="0"></path><path d="m1108.6,98.64h37.24v37.04c4.8-4.64,12.28-7.52,22.68-7.52,22.84,0,31.48,12.32,31.48,37.56v55.28h-37.24v-54.84c0-3.28-2.88-7.6-8.44-7.6-4,0-8.48,2.76-8.48,7.6v54.84h-37.24v-122.36h0Z" fill="#001b36" stroke-width="0"></path></svg>