<svg xmlns="http://www.w3.org/2000/svg" id="Layer_1" width="1200.01" height="257.09" viewBox="0 0 1200.01 257.09"><path d="m566.34,136.41c0-25.92-20.25-46.83-46.14-46.83s-45.81,20.61-46.14,46.83c0,25.59,20.58,46.5,46.14,46.5s46.14-20.94,46.14-46.5Zm-19.26-.33c0,15.27-11.94,27.57-26.88,27.57s-26.88-12.3-26.88-27.57,11.94-27.57,26.88-27.57,26.88,12.3,26.88,27.57h0Z" fill="#597cff" fill-rule="evenodd" stroke-width="0"></path><path d="m686.49,136.41c0-25.92-20.25-46.83-46.14-46.83s-45.81,20.61-46.14,46.83c0,25.59,20.58,46.5,46.14,46.5s46.14-20.94,46.14-46.5Zm-19.26-.33c0,15.27-11.94,27.57-26.88,27.57s-26.88-12.3-26.88-27.57,11.94-27.57,26.88-27.57,26.88,12.3,26.88,27.57h0Z" fill="#597cff" fill-rule="evenodd" stroke-width="0"></path><path d="m50.79,132.75c11.94,3,17.25,13.29,17.25,20.61,0,14.94-10.95,27.9-28.89,27.9H1.98c-.99,0-1.98-.99-1.98-1.98v-87.03c0-.99.99-1.98,1.98-1.98h34.53c16.26,0,26.88,9.63,26.88,25.26,0,5.97-3.33,13.62-12.6,17.28v-.06Zm-16.26-6.63c4.98,0,8.31-3.99,8.31-9.3,0-5.64-3-9.63-8.64-9.63h-14.94v18.93s15.27,0,15.27,0Zm-15.27,37.86v-22.26h17.94c6.96,0,10.29,5.97,10.29,10.95,0,5.64-3.33,11.28-9.63,11.28h-18.6s0,.03,0,.03Z" fill="#597cff" fill-rule="evenodd" stroke-width="0"></path><path d="m120.51,92.22v86.7c0,.99-.99,1.98-1.98,1.98h-15.27c-.99,0-1.98-.99-1.98-1.98v-86.7c0-.99.99-1.98,1.98-1.98h15.27c.99,0,1.98.99,1.98,1.98Z" fill="#597cff" stroke-width="0"></path><path d="m221.76,115.14c-.66.66-1.98.66-2.67,0-4.98-4.98-11.28-7.98-18.6-7.98-15.27,0-27.21,12.96-27.21,28.89s11.94,28.89,27.21,28.89c9.63,0,21.9-5.97,21.9-15.6h-22.23c-.99,0-1.98-.99-1.98-1.98v-11.64c0-.99.99-1.98,1.98-1.98h42.48c.99,0,1.98.99,1.98,1.98-.66,32.55-18.6,46.83-44.16,46.83s-46.47-20.94-46.47-46.5,20.58-46.83,46.47-46.83c13.29,0,24.9,4.98,32.52,13.29.66.99.66,2.34-.33,3l-10.95,9.63h.06Z" fill="#597cff" stroke-width="0"></path><path d="m288.81,154.68c.99,0,1.65.66,1.98,1.65.99,4.98,5.64,9.3,13.29,9.3s13.29-3.66,13.29-9.63c0-3.99-1.65-7.65-10.95-10.29l-10.95-3.33c-19.92-6.3-23.58-17.94-23.58-26.25,0-16.29,13.95-27.24,31.2-27.24s29.55,9.63,30.54,25.59c0,1.32-.99,2.34-1.98,2.34h-15.27c-.99,0-1.65-.66-1.98-1.65-.66-4.98-4.65-8.64-11.61-8.64s-11.61,3.66-11.61,8.97c0,2.34.99,6.63,9.63,9.3l10.95,3.33c21.9,6.3,25.23,18.6,24.9,27.57-.33,17.94-16.59,26.58-32.52,26.58-18.93,0-31.86-10.62-32.85-25.92,0-1.32.99-2.34,1.98-2.34h15.6v.66h-.06Z" fill="#597cff" stroke-width="0"></path><path d="m446.82,161.34c.99.66,1.32,1.98.66,3-7.98,10.95-21.24,18.27-37.17,18.27-25.89,0-45.48-20.94-45.48-46.5s19.59-46.83,45.48-46.83c15.27,0,28.56,6.99,36.51,17.61.66.99.33,2.34-.66,3l-12.27,8.64c-.99.66-1.98.33-2.67-.33-4.98-6.3-12.27-10.29-20.91-10.29-15.27,0-26.22,12.63-26.22,28.56s10.95,28.23,26.22,28.23c8.64,0,16.59-4.32,21.57-10.95.66-.99,1.98-.99,2.67-.33l12.27,7.98v-.06Z" fill="#597cff" stroke-width="0"></path><path d="m713.07,90.24h64.38c.99,0,2.01.99,2.01,1.98v13.29c0,.99-.99,1.98-2.01,1.98h-22.56v71.43c0,.99-.99,1.98-1.98,1.98h-15.27c-.99,0-1.98-.99-1.98-1.98v-71.1h-22.56c-.99,0-2.01-.99-2.01-1.98v-13.29c-.33-1.32.66-2.34,2.01-2.34l-.03.03h0Z" fill="#597cff" stroke-width="0"></path><path d="m823.92,154.68c.99,0,1.65.66,2.01,1.65.99,4.98,5.64,9.3,13.29,9.3s13.29-3.66,13.29-9.63c0-3.99-1.65-7.65-10.95-10.29l-10.95-3c-19.92-6.3-23.58-17.94-23.58-26.25,0-16.29,13.95-27.24,31.2-27.24s29.55,9.63,30.54,25.59c0,1.32-.99,2.34-2.01,2.34h-15.27c-.99,0-1.65-.66-2.01-1.65-.66-4.98-4.65-8.64-11.61-8.64s-11.61,3.66-11.61,8.97c0,2.34.99,6.63,9.63,9.3l10.95,3.33c21.9,6.3,25.23,18.6,24.9,27.57-.33,17.94-16.59,26.58-32.52,26.58-18.93,0-31.86-10.62-32.88-25.92,0-1.32.99-2.34,2.01-2.34h15.6v.33h-.03,0Z" fill="#597cff" stroke-width="0"></path><path d="m1092.49,27.78c0-14.28-11.61-25.92-25.89-25.92-9.3,0-11.61,5.97-20.58,5.97-4.98,0-9.3-2.67-11.61-6.99-.66-1.32-2.64-.99-3,.33-.33,1.65-.33,3.33-.33,4.98,0,15.6,12.6,28.23,27.9,28.23,4.98,0,9.96-1.32,13.95-3.66v2.34c0,9.63,7.95,17.61,17.58,17.61h2.34v-22.92h-.33s-.03.03-.03.03Z" fill="#597cff" stroke-width="0"></path><path d="m1116.73,91.89c4.32,2.67,8.31,5.64,11.28,9.3,4.32,4.98,6.63,10.95,5.64,16.95,0,13.95-8.97,26.25-22.59,33.9-9.63,5.31-21.57,8.64-34.86,8.64-10.62,0-20.91-1.98-29.55-5.97,10.62,9.3,26.55,14.94,44.16,14.94,4.65,0,8.97-.33,13.29-.99-4.32,7.32-9.96,13.62-16.59,18.93,0,.39.12.66.21.9.06.15.12.3.12.45,3.99,14.61,3.33,66.45-3.33,68.1-5.97,1.65-29.88-38.19-35.85-54.15h-4.32c-7.29,0-13.95-.99-20.25-3-.33-.18-.66-.24-.99-.33s-.66-.18-.99-.33c-27.54-9.3-47.79-35.55-47.79-66.78,0-4.98.66-9.96,1.65-15.27.33-.33.33-.66.33-.99v-.33c0-.18.09-.33.18-.51.09-.18.18-.33.18-.51,0-.39.12-.66.21-.9.06-.15.12-.3.12-.45.33-.33.33-.66.33-.99,0-.18.09-.33.15-.51.09-.18.18-.33.18-.51s.09-.33.18-.51c.09-.18.15-.33.15-.51.22-.22.33-.44.33-.66,0-.78.21-1.38.45-2.07.06-.18.15-.39.21-.6,5.97-18.6,17.91-37.53,31.86-53.16-.54,1.35-.84,2.67-1.14,3.84l-.18.81c-1.65,13.62,17.25,27.57,42.15,30.9,3.66.33,7.29.66,10.62.66,17.61,0,32.19-5.97,36.51-15.27.06-.12.12-.27.18-.39,5.1-10.89,17.7-37.8,41.31-37.8,14.7,0,24.66,5.22,32.82,9.48,5.64,2.97,10.41,5.46,15.33,5.46,6.3,0,9.63-2.34,10.95-9.96,3.69,19.62-9.54,21.18-24.63,22.95-10.68,1.26-22.32,2.61-29.49,10.62-3.45,3.63-5.58,7.89-7.65,12.09-1.89,3.84-3.78,7.65-6.63,10.83-4.32-2.67-8.97-4.65-14.28-6.3h.03,0Zm-112.2,52.5c10.95,2.67,22.23-5.97,25.56-19.59,3.33-13.29-2.97-26.25-13.95-29.22-10.95-2.67-22.23,5.97-25.56,19.59s2.97,26.58,13.95,29.22Z" fill="#597cff" fill-rule="evenodd" stroke-width="0"></path><path d="m1022.43,198.87c-9.63-.66-18.93-3.33-26.88-7.32,1.98,16.29,5.97,32.55,9.96,33.21,3.66.66,12.27-11.64,19.26-25.26l-2.34-.66v.03h0Z" fill="#597cff" stroke-width="0"></path><path d="m978.96,107.19c1.32-13.62,5.64-27.9,12.6-41.19-15.27,0-27.54,12.3-27.54,27.57,0,9.63,4.98,18.27,12.27,22.92.66-3,1.65-6.3,2.64-9.3h.03,0Z" fill="#597cff" stroke-width="0"></path></svg>