<svg xmlns="http://www.w3.org/2000/svg" xmlns:xlink="http://www.w3.org/1999/xlink" id="Layer_1" width="1200" height="326.07" viewBox="0 0 1200 326.07"><defs><radialGradient id="radial-gradient" cx="1186.49" cy="279.05" fx="1186.49" fy="279.05" r="6.51" gradientTransform="translate(-67311.73 15892.78) scale(56.97 -56.99)" gradientUnits="userSpaceOnUse"><stop offset="0" stop-color="#54aebc"></stop><stop offset="1" stop-color="#245bb5"></stop></radialGradient></defs><path d="m323.88,188.61v-51.69c0-16.35,8.37-24.45,25.14-24.45h29.52c16.89,0,25.26,8.13,25.26,24.33,0,.96,0,1.38-.12,1.8l-22.53,2.73v-.96c0-6.33-2.34-8.52-9.18-8.52h-16.2c-6.87,0-9.18,2.19-9.18,8.67v44.52c0,6.45,2.34,8.67,9.18,8.67h16.2c6.87,0,9.18-2.19,9.18-8.52v-.96l22.53,2.73c.12.42.12.81.12,1.8,0,16.2-8.37,24.33-25.26,24.33h-29.52c-16.77,0-25.14-8.13-25.14-24.45v-.06.03h0Zm121.8-55.38v18.69h40.8v19.38h-40.8v21.03h46.59v19.38h-69.24v-97.83h69.24v19.38h-46.59v-.03h0Zm146.82-19.38v97.83h-22.14l-37.5-60.45v60.45h-22.65v-97.83h21.96l37.65,60.45v-60.45s22.68,0,22.68,0Zm97.32,19.38h-28.71v78.45h-22.65v-78.45h-28.71v-19.38h80.1v19.38h-.03,0Zm40.05,0v18.69h40.8v19.38h-40.8v21.03h46.59v19.38h-69.24v-97.83h69.24v19.38h-46.59v-.03h0Zm100.11,43.02h-12.78v35.46h-22.65v-97.83h52.05c16.77,0,25.14,8.13,25.14,24.45v13.59c0,12.78-5.22,20.49-15.66,23.22l25.68,36.54h-26.49l-25.26-35.46h-.03v.03h0Zm-12.78-19.38h22.65c6.87,0,9.18-2.19,9.18-8.67v-6.33c0-6.45-2.34-8.64-9.18-8.64h-22.65v23.64Zm149.64,35.46v19.38h-67.59v-97.83h22.65v78.45h44.94,0Zm17.4-78.45h22.65v97.83h-22.65v-97.83Zm125.64,0v97.83h-22.14l-37.5-60.45v60.45h-22.65v-97.83h21.96l37.65,60.45v-60.45h22.68Zm43.53,19.38v18.69h40.8v19.38h-40.8v21.03h46.59v19.38h-69.24v-97.83h69.24v19.38h-46.59v-.03h0Z" fill="#070935" stroke-width="0"></path><path d="m116.52,232.86v35.37-35.34h0v-.03h0ZM279.42,23.28V0h-127.98c-18.39,0-35.58,8.67-46.56,23.31h174.54v-.03h0Zm-139.62,301.62c3.75.75,7.62,1.17,11.64,1.17h127.98v-23.13h-139.62v21.96Zm-46.59-231.66h-35.01c-32.16,0-58.2,26.04-58.2,58.2v23.19c0,18.39,8.79,35.64,23.31,46.56v-69.75c0-15.21,9.75-28.11,23.31-32.91v102.72c0,18.54,8.73,35.67,23.31,46.56V116.52h23.31v151.35c0,19.02,9.15,35.94,23.31,46.56V116.52h139.65c12.84,0,23.28-10.44,23.28-23.28H93.21h0Zm-34.62-23.73l.6.45h220.23v-23.28H104.82c-18.27,0-35.1,8.31-46.23,22.86h0v-.03h0Zm81.21,210.03h139.62v-23.13h-139.62v23.13Zm139.62-46.59c0-12.84-10.44-23.28-23.28-23.28h-116.34v23.28h139.62Z" fill="url(#radial-gradient)" stroke-width="0"></path></svg>