<svg xmlns="http://www.w3.org/2000/svg" id="Layer_1" width="1200" height="475.09" viewBox="0 0 1200 475.09"><path d="m347.83,415.83c-14.07,40.17,43.44,19.53,68.4,7.11-40.23,28.89-86.55,59.19-163.26,50.7C371.98,200.58,318.32-5.06,64.37,6.37c236.94-41.76,381.08,125.04,283.5,409.46" fill="#178dcb" stroke-width="0"></path><path d="m237.14,101.7C-22.66,115.62,10.43,429.51,253.22,381.84l-33.51,89.67c-269.49,4.8-321.71-371.63,17.43-369.71" fill="#383938" stroke-width="0"></path><path d="m482.05,263.94v-126.48c0-4.08,1.44-7.59,4.32-10.47,2.73-2.79,6.57-4.41,10.47-4.32h40.65c21.6,0,37.77,5.76,48.48,17.28,10.71,12.09,15.99,29.91,15.99,53.34,0,12.63-1.92,23.91-5.76,34.08-4.41,10.41-10.17,18.33-17.28,23.85-5.76,4.47-12.33,7.83-19.29,9.84-6.57,1.92-16.56,2.88-30,2.88h-47.58,0Zm28.32-25.44h23.43c13.35,0,23.28-3.6,29.52-10.65,6-6.57,9.03-18.09,9.03-34.47s-2.88-27.51-8.64-34.89c-5.43-7.35-14.25-11.04-26.25-11.04h-27.12v91.11-.09l.03.03h0Zm164.31-29.52c-3.84,1.92-9.21,3.69-15.99,5.37-6.33,1.35-9.45,2.07-9.45,2.07-4.95,1.35-8.49,3.21-10.65,5.37-1.92,3.03-2.88,6-2.88,9.03,0,4.08,1.2,7.35,3.69,9.84,2.49,2.25,6,3.27,10.71,3.27,7.68,0,13.68-2.16,18.09-6.57s6.57-10.32,6.57-18v-10.32l-.09-.09v.03h0Zm6.57,50.46c-5.67,2.97-11.91,4.89-18.24,5.61-6.39.63-12.09.96-17.04.96-9.84,0-18.48-2.64-25.83-8.01-7.44-5.37-11.13-14.16-11.13-26.49,0-11.52,3.36-19.68,9.99-24.63,6.72-4.89,15.27-8.16,25.68-9.84,1.35,0,3.03-.24,4.95-.63s4.08-.72,6.57-1.05c12.09-1.68,18.09-5.19,18.09-10.65,0-4.08-2.16-6.72-6.39-8.01-3.75-1.11-7.77-1.77-11.67-1.83-3.51,0-6.96.48-10.23,1.59-3.03,1.11-5.19,3.12-6.57,6.15h-27.51c.96-8.25,5.13-15.75,11.52-20.97,7.35-6.33,17.91-9.45,31.59-9.45,15.36,0,26.88,2.64,34.47,7.83,8.01,5.43,11.91,13.11,11.91,22.95v37.44c0,10.95-2.01,19.53-6,25.59-3.93,6.15-8.64,10.65-14.16,13.35h0v.09h0Zm123.18,4.47h-14.4c-4.17,0-7.44-1.29-10.08-3.84-2.55-2.64-3.93-6-3.93-10.08v-55.83c0-6.57-2.01-11.37-5.91-14.4-3.84-2.97-8.49-4.56-13.35-4.47-4.8,0-9.45,1.53-13.11,4.47-3.84,3.03-5.76,7.83-5.76,14.4v69.75h-28.71v-64.08c0-18.63,4.89-31.11,14.55-37.35,9.6-6.24,20.79-9.84,32.25-10.23,12.09,0,23.13,3.12,33.27,9.45,10.08,6.33,15.21,19.05,15.21,38.25v64.08-.09l-.03-.03h0Zm8.25,0v-112.56c0-9.84,2.55-17.28,7.83-22.17,4.89-4.71,12.96-6.96,24.24-6.96,2.73,0,4.95.15,6.57.39,3.03,0,5.37.15,6.96.39v22.65h-7.35c-3.84,0-6.57.57-8.25,1.68-1.35,1.05-2.07,3.27-2.07,6.57v7.44h17.67v6.15c0,4.17-1.35,7.44-4.08,10.08-2.73,2.55-5.91,3.93-9.45,3.93h-4.08v82.56h-27.93l-.09-.15h.03Zm64.86-9.84c-5.76-4.95-9.84-11.52-12.33-19.92-2.49-8.49-3.69-17.28-3.69-26.07,0-7.44.96-14.79,3.12-22.17,2.01-7.35,5.19-13.53,9.6-18.48,7.11-8.16,16.32-13.05,27.51-14.55,11.28-1.53,21.36-.63,30.39,2.64,10.32,4.08,18,11.28,22.95,21.36,4.65,9.03,6.96,19.59,6.96,31.59,0,8.79-.96,16.32-2.88,22.56-1.92,6.33-4.41,11.67-7.35,16.08-6.57,8.97-14.97,14.55-25.05,16.8-8.88,2.49-18.24,2.73-27.27.63-9.21-2.07-16.56-5.61-21.99-10.47h.03,0Zm19.68-72.3c-5.76,6.33-8.31,15.75-7.77,28.17.57,12.39,2.88,21.12,6.96,26.07,1.68,2.25,4.56,3.99,8.64,5.52,3.99,1.53,8.4,1.68,12.48.48,4.23-1.29,8.07-4.32,11.37-9.27,3.27-4.95,5.04-12.87,5.37-23.85,0-9.93-1.59-17.28-4.71-22.17-3.21-4.95-6.81-8.07-10.89-9.45-3.99-1.35-8.31-1.44-12.33-.24-4.08,1.29-7.11,2.88-9.03,4.71h-.09v.03h0Zm73.11,82.14v-52.95c0-10.65,1.59-19.59,4.71-26.88,3.12-7.2,7.44-13.05,12.87-17.43,5.19-4.08,11.28-7.11,18.24-9.03,7.05-1.92,14.25-2.88,21.6-2.88h4.08v29.13h-9.45c-8.01,0-13.83,1.92-17.67,5.76-3.84,3.84-5.76,9.84-5.76,18.09v56.22h-28.71.09v-.03Zm116.64,0c-9.75.57-19.59.39-29.37-.39-10.56-.81-15.75-7.53-15.75-20.07v-120.72h14.79c3.6,0,6.72,1.35,9.45,4.08,2.73,2.73,4.08,6.09,4.08,9.84v18.48h16.8v5.76c0,4.08-1.35,7.44-4.08,10.08-2.64,2.55-6.15,3.93-9.84,3.93h-2.88v60.78c0,4.65,2.73,6.96,8.16,6.96h8.64v21.36-.09h0Zm74.7-78.39c-4.17-5.76-9.69-8.64-16.8-8.64-7.68,0-13.59,2.73-17.67,8.16-4.08,5.43-6.15,12.96-6.15,22.65v56.22h-27.93V122.64h14.01c3.84,0,7.11,1.35,9.84,4.08,2.73,2.73,4.08,6.09,4.08,9.84v32.49c4.89-8.16,11.91-13.44,20.97-15.6,9.03-2.25,17.67-1.68,25.83,1.59,7.68,3.27,14.07,8.49,19.29,15.6,5.19,7.11,7.83,16.95,7.83,29.61v63.6h-27.51v-56.64c0-4.08-.33-7.92-1.05-11.28-.72-3.45-2.31-6.96-4.71-10.47v.09l-.03-.03h0Z" fill="#178dcb" stroke-width="0"></path><path d="m559.48,300.24l47.43,130.56h-28.41l-8.73-26.97h-50.88l-8.31,26.97h-28.47l43.29-121.83c2.25-5.85,6.57-8.73,12.87-8.73h21.27-.09.03,0Zm550.82,97.2h25.83c.15,5.04,2.16,8.88,5.67,11.43,3.84,2.49,8.88,3.75,15.21,3.75,4.56,0,8.49-.87,11.76-2.64,3.03-1.77,4.56-4.17,4.56-7.2,0-4.56-5.37-8.01-15.93-10.23-4.56-.81-7.92-1.53-10.23-2.31-13.44-3.27-22.41-7.2-26.97-11.76-5.04-4.56-7.59-10.65-7.59-18.24,0-9.69,3.69-17.61,11.04-23.91,7.59-5.85,17.43-8.73,29.61-8.73,13.2,0,23.67,2.88,31.53,8.73,7.35,6.33,11.28,14.55,11.76,24.63h-16.32c-4.8,0-8.49-2.07-10.95-6.39-1.05-1.05-2.01-2.01-3.03-3.03-3.03-2.25-7.2-3.45-12.57-3.45-5.04,0-8.79.81-11.37,2.25-2.25,1.53-3.36,3.84-3.36,6.81,0,3.99,6.57,7.53,19.68,10.23,1.53.48,2.88.87,3.99,1.11s2.16.39,3.21.39c12.87,3.27,21.84,7.11,26.97,11.37,4.8,4.56,7.2,10.65,7.2,18.24,0,11.13-4.08,19.77-12.15,25.83-7.59,5.52-18.96,8.31-34.17,8.31s-25.11-2.88-32.25-8.73c-7.35-5.76-11.04-14.31-11.04-25.44v-1.11l-.09.09h0Zm-60.78,33.36v-48.96c0-9.84,1.44-18.15,4.32-24.87,2.97-6.72,6.87-12.09,11.91-16.08,5.04-3.93,10.71-6.72,16.89-8.31,6.48-1.77,13.2-2.64,19.92-2.64h3.84v26.97h-8.79c-7.35,0-12.81,1.77-16.32,5.28-3.51,3.51-5.28,9.12-5.28,16.71v51.99h-26.55l.09-.09h-.03,0Zm-85.74-9.03c-5.28-4.56-9.12-10.71-11.43-18.39-2.31-7.83-3.45-15.93-3.45-24.09,0-6.81.96-13.68,2.88-20.49,1.83-6.81,4.89-12.48,8.88-17.04,6.57-7.59,15.03-12.09,25.44-13.44,10.41-1.44,19.77-.57,28.08,2.4,9.6,3.84,16.65,10.41,21.27,19.77,4.32,8.31,6.48,18.09,6.48,29.19,0,8.07-.87,15.03-2.64,20.88s-4.08,10.8-6.81,14.88c-6.09,8.31-13.83,13.53-23.13,15.51-8.25,2.25-16.89,2.49-25.2.63-8.49-1.92-15.27-5.19-20.31-9.69h0l-.09-.15.03.03h0Zm18.24-66.78c-5.28,5.76-7.68,14.49-7.2,26.01.48,11.52,2.64,19.53,6.48,24.09,1.53,2.01,4.17,3.75,8.01,5.13,3.75,1.35,7.68,1.53,11.61.33,3.93-1.11,7.44-3.93,10.47-8.49s4.65-11.91,4.89-21.99c0-9.12-1.44-15.99-4.32-20.49-2.97-4.56-6.24-7.44-9.99-8.73-3.69-1.29-7.68-1.35-11.43-.24-3.75,1.2-6.57,2.64-8.31,4.41h-.15l-.06-.03h0Zm-131.82,42.48h25.83c.24,5.04,2.07,8.88,5.67,11.43,3.75,2.49,8.88,3.75,15.21,3.75,4.56,0,8.49-.87,11.76-2.64,3.03-1.77,4.56-4.17,4.56-7.2,0-4.56-5.28-8.01-15.93-10.23-4.56-.81-7.92-1.53-10.23-2.31-13.44-3.27-22.41-7.2-26.97-11.76-5.04-4.56-7.59-10.65-7.59-18.24,0-9.69,3.69-17.61,11.04-23.91,7.59-5.85,17.43-8.73,29.61-8.73,13.2,0,23.67,2.88,31.53,8.73,7.35,6.33,11.28,14.55,11.76,24.63h-16.32c-4.8,0-8.49-2.07-10.95-6.39-1.05-1.05-2.01-2.01-3.03-3.03-3.03-2.25-7.2-3.45-12.57-3.45s-8.88.81-11.43,2.25c-2.25,1.53-3.45,3.84-3.45,6.81,0,3.99,6.57,7.53,19.77,10.23,1.53.48,2.88.87,3.99,1.11s2.16.39,3.21.39c12.87,3.27,21.84,7.11,26.88,11.37,4.8,4.56,7.2,10.65,7.2,18.24,0,11.13-3.99,19.77-12.15,25.83-7.53,5.52-18.96,8.31-34.08,8.31s-25.2-2.88-32.25-8.73c-7.35-5.76-11.04-14.31-11.04-25.44v-1.11.09h-.03Zm-37.29-67.59h13.68c3.51,0,6.57,1.29,9.12,3.75,2.49,2.49,3.75,5.61,3.75,9.12v88.08h-26.55v-100.95Zm0-29.61h13.68c3.51,0,6.57,1.29,9.12,3.84s3.75,5.52,3.75,9.12v8.01h-26.55v-20.97Zm-43.53,130.56h-26.97l-35.28-100.95h28.08l20.16,70.95,17.85-61.83c2.01-6.09,6.09-9.12,12.09-9.12h19.77l-35.67,100.95h-.03Zm-95.1-130.86h12.96c3.51,0,6.57,1.35,9.12,3.99s3.75,5.61,3.75,8.88v74.07c0,18-5.13,30.09-15.6,36.39-10.17,6.24-21.84,9.51-33.75,9.51-6.57,0-13.11-1.11-19.29-3.27-6.33-2.07-11.43-5.61-15.21-10.41-7.35-9.36-11.04-22.08-11.04-38.31s3.69-28.71,11.04-38.31c7.59-9.84,17.28-14.79,29.19-14.79,6.39,0,11.91,1.29,16.71,3.75,4.89,2.88,9.12,6.96,12.15,11.76v-43.2l-.09-.09.06.03h0Zm-43.29,79.68c0,10.17,1.92,17.85,5.67,23.19,3.84,5.28,9.21,7.92,16.32,7.92s12.15-2.64,15.93-7.92c3.51-5.37,5.37-13.05,5.37-23.19,0-9.12-1.92-16.32-5.67-21.6-4.08-5.04-9.51-7.59-16.32-7.59s-11.67,2.64-15.51,8.01l-5.67,21.21h-.09l-.03-.03h0Zm-86.64-53.1l-18.24,55.44h36.48l-18.24-55.44Z" fill="#383938" stroke-width="0"></path></svg>