<svg xmlns="http://www.w3.org/2000/svg" id="Layer_1" width="1200" height="196.28" viewBox="0 0 1200 196.28"><rect width="3.75" height="63.87" fill="#e9c88b" stroke-width="0"></rect><rect x="3.75" width="3.75" height="63.87" fill="#ffb013" stroke-width="0"></rect><rect x="7.53" width="3.75" height="63.87" fill="#f38e1d" stroke-width="0"></rect><rect x="11.28" width="3.75" height="63.87" fill="#eb7a22" stroke-width="0"></rect><rect x="15.06" width="3.72" height="63.87" fill="#f19319" stroke-width="0"></rect><rect x="18.81" width="3.75" height="63.87" fill="#f4a314" stroke-width="0"></rect><rect x="22.56" width="3.75" height="63.87" fill="#f8b40d" stroke-width="0"></rect><rect x="26.34" width="3.75" height="63.87" fill="#ffd403" stroke-width="0"></rect><rect x="30.09" width="3.75" height="63.87" fill="#f8b30e" stroke-width="0"></rect><rect x="33.87" width="3.75" height="63.87" fill="#e76528" stroke-width="0"></rect><rect x="37.62" width="3.75" height="63.87" fill="#e86d26" stroke-width="0"></rect><rect x="41.37" width="3.75" height="63.87" fill="#f6ac12" stroke-width="0"></rect><rect x="45.15" width="3.81" height="63.87" fill="#ed811f" stroke-width="0"></rect><rect x="48.9" width="3.72" height="63.87" fill="#e04b32" stroke-width="0"></rect><rect x="52.65" width="3.75" height="63.87" fill="#e66928" stroke-width="0"></rect><rect x="56.43" width="3.75" height="63.87" fill="#e97525" stroke-width="0"></rect><rect x="60.18" width="7.53" height="63.87" fill="#e97225" stroke-width="0"></rect><rect x="67.71" width="3.75" height="63.87" fill="#e87126" stroke-width="0"></rect><rect x="71.46" width="3.75" height="63.87" fill="#e87126" stroke-width="0"></rect><rect x="75.24" width="3.72" height="63.87" fill="#e25330" stroke-width="0"></rect><rect x="78.99" width="3.81" height="63.87" fill="#e55f2b" stroke-width="0"></rect><rect x="82.77" width="3.75" height="63.87" fill="#f08f1a" stroke-width="0"></rect><rect x="86.52" width="3.75" height="63.87" fill="#e15130" stroke-width="0"></rect><rect x="90.27" width="3.75" height="63.87" fill="#ce074d" stroke-width="0"></rect><rect x="94.05" width="3.75" height="63.87" fill="#da3c3a" stroke-width="0"></rect><rect x="97.8" width="3.75" height="63.87" fill="#f4a015" stroke-width="0"></rect><rect x="101.58" width="3.75" height="63.87" fill="#ed831e" stroke-width="0"></rect><rect x="105.33" width="3.81" height="63.87" fill="#d51d42" stroke-width="0"></rect><rect x="109.14" width="3.72" height="63.87" fill="#d0044a" stroke-width="0"></rect><rect x="112.89" width="3.81" height="63.87" fill="#d20f46" stroke-width="0"></rect><rect x="116.64" width="7.5" height="63.87" fill="#d31245" stroke-width="0"></rect><rect x="124.14" width="7.53" height="63.87" fill="#d10649" stroke-width="0"></rect><rect x="131.67" width="3.75" height="63.87" fill="#da2f3b" stroke-width="0"></rect><rect x="135.42" width="3.81" height="63.87" fill="#e87025" stroke-width="0"></rect><rect x="139.23" width="3.72" height="63.87" fill="#ec8020" stroke-width="0"></rect><rect x="142.95" width="3.75" height="63.87" fill="#e04833" stroke-width="0"></rect><rect x="146.7" width="3.75" height="63.87" fill="#d31344" stroke-width="0"></rect><rect x="150.48" width="3.72" height="63.87" fill="#d00948" stroke-width="0"></rect><rect x="154.23" width="22.65" height="63.87" fill="#d31145" stroke-width="0"></rect><rect x="176.88" width="3.69" height="63.87" fill="#d31845" stroke-width="0"></rect><rect x="180.57" width="3.75" height="63.87" fill="#d31845" stroke-width="0"></rect><rect x="184.32" width="3.75" height="63.87" fill="#ea7623" stroke-width="0"></rect><rect x="188.1" width="3.75" height="63.87" fill="#f5a412" stroke-width="0"></rect><rect x="191.85" width="3.75" height="63.87" fill="#e04f30" stroke-width="0"></rect><rect x="195.66" width="7.56" height="63.87" fill="#d00849" stroke-width="0"></rect><rect x="203.16" width="26.34" height="63.87" fill="#d31145" stroke-width="0"></rect><rect x="229.5" width="3.72" height="63.87" fill="#d31644" stroke-width="0"></rect><rect x="233.22" width="3.75" height="63.87" fill="#dd3c36" stroke-width="0"></rect><rect x="237" width="3.75" height="63.87" fill="#e76729" stroke-width="0"></rect><rect x="240.75" width="3.75" height="63.87" fill="#e45a2d" stroke-width="0"></rect><rect x="244.5" width="3.75" height="63.87" fill="#d61f40" stroke-width="0"></rect><rect x="248.28" width="3.75" height="63.87" fill="#d00749" stroke-width="0"></rect><rect x="252.03" width="3.81" height="63.87" fill="#d20d46" stroke-width="0"></rect><rect x="255.87" width="18.84" height="63.87" fill="#d31145" stroke-width="0"></rect><rect x="274.68" width="7.41" height="63.87" fill="#d10948" stroke-width="0"></rect><rect x="282.12" width="3.81" height="63.87" fill="#df4234" stroke-width="0"></rect><rect x="285.93" width="3.72" height="63.87" fill="#ef8b1b" stroke-width="0"></rect><rect x="289.62" width="3.81" height="63.87" fill="#ea7623" stroke-width="0"></rect><rect x="293.16" width="4.02" height="63.84" fill="#d7253f" stroke-width="0"></rect><rect x="297.18" width="3.75" height="63.84" fill="#d10a47" stroke-width="0"></rect><rect x="300.93" width="22.53" height="63.84" fill="#d31145" stroke-width="0"></rect><rect x="323.52" width="3.75" height="63.84" fill="#d41743" stroke-width="0"></rect><rect x="327.24" width="3.84" height="63.84" fill="#df4634" stroke-width="0"></rect><rect x="331.11" width="3.75" height="63.84" fill="#ee8a1c" stroke-width="0"></rect><rect x="334.83" width="3.75" height="63.84" fill="#e86a27" stroke-width="0"></rect><rect x="338.61" width="3.75" height="63.84" fill="#da2b3d" stroke-width="0"></rect><rect x="342.39" width="3.69" height="63.84" fill="#e14b32" stroke-width="0"></rect><rect x="346.08" width="3.72" height="63.84" fill="#eb7a22" stroke-width="0"></rect><rect x="349.8" width="3.75" height="63.84" fill="#ea8426" stroke-width="0"></rect><rect x="353.61" width="3.81" height="63.84" fill="#eda523" stroke-width="0"></rect><rect x="357.39" width="3.69" height="63.84" fill="#fac70d" stroke-width="0"></rect><rect x="361.08" width="3.81" height="63.84" fill="#fac70d" stroke-width="0"></rect><rect x="364.89" width="3.72" height="63.84" fill="#e79f2d" stroke-width="0"></rect><rect x="368.61" width="3.75" height="63.84" fill="#d67c49" stroke-width="0"></rect><rect x="372.42" width="3.75" height="63.84" fill="#d3754d" stroke-width="0"></rect><rect x="376.14" width="7.56" height="63.84" fill="#e08f39" stroke-width="0"></rect><rect x="383.73" width="3.72" height="63.84" fill="#bc4274" stroke-width="0"></rect><rect x="387.45" width="3.75" height="63.84" fill="#cc645a" stroke-width="0"></rect><rect x="391.26" width="3.75" height="63.84" fill="#de873f" stroke-width="0"></rect><rect x="394.98" width="3.75" height="63.84" fill="#b8377c" stroke-width="0"></rect><rect x="398.79" width="3.72" height="63.84" fill="#a81596" stroke-width="0"></rect><rect x="402.51" width="3.9" height="63.84" fill="#ab1b92" stroke-width="0"></rect><rect x="406.41" width="3.66" height="63.84" fill="#a81597" stroke-width="0"></rect><rect x="410.04" width="3.75" height="63.84" fill="#af258a" stroke-width="0"></rect><rect x="413.79" width="3.81" height="63.84" fill="#e39533" stroke-width="0"></rect><rect x="417.6" width="3.72" height="63.84" fill="#eba526" stroke-width="0"></rect><rect x="421.32" width="3.72" height="63.84" fill="#b6347e" stroke-width="0"></rect><rect x="425.04" width="3.81" height="63.84" fill="#a71596" stroke-width="0"></rect><rect x="428.88" width="18.87" height="63.84" fill="#ad208e" stroke-width="0"></rect><rect x="447.75" width="7.41" height="63.84" fill="#aa1b92" stroke-width="0"></rect><rect x="455.13" width="3.81" height="63.84" fill="#c25068" stroke-width="0"></rect><rect x="458.97" width="3.72" height="63.84" fill="#db8440" stroke-width="0"></rect><rect x="462.69" width="3.72" height="63.84" fill="#d67949" stroke-width="0"></rect><rect x="466.41" width="3.81" height="63.84" fill="#ba3d78" stroke-width="0"></rect><rect x="470.25" width="33.66" height="63.84" fill="#ac1d91" stroke-width="0"></rect><rect x="503.91" width="4.05" height="63.84" fill="#aa1993" stroke-width="0"></rect><rect x="507.99" width="3.6" height="63.84" fill="#aa1993" stroke-width="0"></rect><rect x="511.59" width="3.84" height="63.84" fill="#a208a0" stroke-width="0"></rect><rect x="515.43" width="3.66" height="63.84" fill="#c55465" stroke-width="0"></rect><rect x="519.12" width="3.72" height="63.84" fill="#edab22" stroke-width="0"></rect><rect x="522.84" width="3.75" height="63.84" fill="#d87f45" stroke-width="0"></rect><rect x="526.62" width="3.9" height="63.84" fill="#ae228c" stroke-width="0"></rect><rect x="530.52" width="3.81" height="63.84" fill="#a6119a" stroke-width="0"></rect><rect x="534.33" width="3.72" height="63.84" fill="#ac1e8f" stroke-width="0"></rect><rect x="538.08" width="26.22" height="63.84" fill="#ad208e" stroke-width="0"></rect><rect x="564.3" width="3.72" height="63.84" fill="#ab1f8f" stroke-width="0"></rect><rect x="568.02" width="3.75" height="63.84" fill="#a40f9b" stroke-width="0"></rect><rect x="571.8" width="3.75" height="63.84" fill="#c23178" stroke-width="0"></rect><rect x="575.55" width="3.81" height="63.84" fill="#df7d43" stroke-width="0"></rect><rect x="579.36" width="3.72" height="63.84" fill="#ab935a" stroke-width="0"></rect><rect x="583.08" width="3.75" height="63.84" fill="#536ea3" stroke-width="0"></rect><rect x="586.83" width="3.75" height="63.84" fill="#385cbc" stroke-width="0"></rect><rect x="590.61" width="3.69" height="63.84" fill="#4761b1" stroke-width="0"></rect><rect x="594.33" width="3.81" height="63.84" fill="#4c65ac" stroke-width="0"></rect><rect x="598.11" width="15.12" height="63.84" fill="#4a63ae" stroke-width="0"></rect><rect x="613.23" width="3.75" height="63.84" fill="#3f5db8" stroke-width="0"></rect><rect x="617.01" width="3.69" height="63.84" fill="#4862b0" stroke-width="0"></rect><rect x="620.64" width="3.84" height="63.84" fill="#8a8a72" stroke-width="0"></rect><rect x="624.48" width="3.75" height="63.84" fill="#bfab40" stroke-width="0"></rect><rect x="628.26" width="3.75" height="63.84" fill="#999464" stroke-width="0"></rect><rect x="632.01" width="3.72" height="63.84" fill="#566aa3" stroke-width="0"></rect><rect x="635.7" width="3.81" height="63.84" fill="#4560b3" stroke-width="0"></rect><rect x="639.51" width="3.75" height="63.84" fill="#4761b1" stroke-width="0"></rect><rect x="643.26" width="7.53" height="63.84" fill="#4862b0" stroke-width="0"></rect><rect x="650.79" width="3.81" height="63.84" fill="#425eb6" stroke-width="0"></rect><rect x="654.57" width="3.72" height="63.84" fill="#5168a7" stroke-width="0"></rect><rect x="658.35" width="3.72" height="63.84" fill="#848878" stroke-width="0"></rect><rect x="662.07" width="3.75" height="63.84" fill="#9f995f" stroke-width="0"></rect><rect x="665.82" width="3.75" height="63.84" fill="#757e86" stroke-width="0"></rect><rect x="669.6" width="3.75" height="63.84" fill="#4d65aa" stroke-width="0"></rect><rect x="673.35" width="3.75" height="63.84" fill="#576aa2" stroke-width="0"></rect><rect x="677.07" width="3.81" height="63.84" fill="#7e837e" stroke-width="0"></rect><rect x="680.88" width="3.75" height="63.84" fill="#b0a24f" stroke-width="0"></rect><rect x="684.63" width="3.72" height="63.84" fill="#e3c41c" stroke-width="0"></rect><rect x="688.41" width="3.75" height="63.84" fill="#ffce01" stroke-width="0"></rect><rect x="692.16" width="3.81" height="63.84" fill="#fcbd08" stroke-width="0"></rect><rect x="695.97" width="3.72" height="63.84" fill="#f9b50c" stroke-width="0"></rect><rect x="699.72" width="3.72" height="63.84" fill="#f7ab0f" stroke-width="0"></rect><rect x="703.41" width="11.25" height="63.84" fill="#f5a013" stroke-width="0"></rect><rect x="714.69" width="3.84" height="63.84" fill="#ef8519" stroke-width="0"></rect><rect x="718.5" width="3.75" height="63.84" fill="#ec6e1e" stroke-width="0"></rect><rect x="722.25" width="3.75" height="63.84" fill="#f08618" stroke-width="0"></rect><rect x="726.03" width="3.81" height="63.84" fill="#f7ad0e" stroke-width="0"></rect><rect x="729.81" width="3.75" height="63.84" fill="#f5a112" stroke-width="0"></rect><rect x="733.59" width="3.75" height="63.84" fill="#ec731e" stroke-width="0"></rect><rect x="737.34" width="3.72" height="63.84" fill="#eb6d20" stroke-width="0"></rect><rect x="741.06" width="18.84" height="63.84" fill="#eb6e1f" stroke-width="0"></rect><rect x="759.9" width="3.72" height="63.84" fill="#ea6720" stroke-width="0"></rect><rect x="763.68" width="3.75" height="63.84" fill="#ec741d" stroke-width="0"></rect><rect x="767.43" width="3.81" height="63.84" fill="#f49f13" stroke-width="0"></rect><rect x="771.21" width="3.72" height="63.84" fill="#f8af0e" stroke-width="0"></rect><rect x="774.93" width="3.69" height="63.84" fill="#f18917" stroke-width="0"></rect><rect x="778.65" width="18.84" height="63.84" fill="#eb6e1f" stroke-width="0"></rect><rect x="797.46" width="3.81" height="63.84" fill="#ec751d" stroke-width="0"></rect><rect x="801.24" width="3.75" height="63.84" fill="#f29514" stroke-width="0"></rect><rect x="805.02" width="3.75" height="63.84" fill="#f8b00d" stroke-width="0"></rect><rect x="808.83" width="3.75" height="63.84" fill="#f18a18" stroke-width="0"></rect><rect x="812.58" width="3.75" height="63.84" fill="#f39614" stroke-width="0"></rect><rect x="816.3" width="3.75" height="63.84" fill="#f9b70b" stroke-width="0"></rect><rect x="820.05" width="3.75" height="63.84" fill="#f18e16" stroke-width="0"></rect><rect x="823.83" width="3.75" height="63.84" fill="#f69c10" stroke-width="0"></rect><rect x="827.61" width="3.72" height="63.84" fill="#fac30d" stroke-width="0"></rect><rect x="831.36" width="3.75" height="63.84" fill="#f0b61f" stroke-width="0"></rect><rect x="835.11" width="3.81" height="63.84" fill="#eba528" stroke-width="0"></rect><rect x="838.92" width="3.72" height="63.84" fill="#e89d2e" stroke-width="0"></rect><rect x="842.64" width="3.72" height="63.84" fill="#d3714f" stroke-width="0"></rect><rect x="846.54" width="3.6" height="63.84" fill="#b32f83" stroke-width="0"></rect><rect x="850.17" width="3.75" height="63.84" fill="#a5109a" stroke-width="0"></rect><rect x="853.92" width="3.81" height="63.84" fill="#b8377d" stroke-width="0"></rect><rect x="857.73" width="3.72" height="63.84" fill="#d5764c" stroke-width="0"></rect><rect x="861.45" width="3.75" height="63.84" fill="#dc873e" stroke-width="0"></rect><rect x="865.2" width="3.75" height="63.84" fill="#c35267" stroke-width="0"></rect><rect x="868.92" width="3.81" height="63.84" fill="#ae238b" stroke-width="0"></rect><rect x="872.73" width="7.53" height="63.84" fill="#a6109a" stroke-width="0"></rect><rect x="880.26" width="3.75" height="63.84" fill="#d4764c" stroke-width="0"></rect><rect x="884.04" width="3.72" height="63.84" fill="#eead21" stroke-width="0"></rect><rect x="887.76" width="3.75" height="63.84" fill="#ca5d5e" stroke-width="0"></rect><rect x="891.54" width="7.5" height="63.84" fill="#a50f9b" stroke-width="0"></rect><rect x="899.07" width="3.75" height="63.84" fill="#af248b" stroke-width="0"></rect><rect x="902.82" width="3.75" height="63.84" fill="#c85b60" stroke-width="0"></rect><rect x="906.57" width="3.75" height="63.84" fill="#d87c46" stroke-width="0"></rect><rect x="910.35" width="3.72" height="63.84" fill="#d77a49" stroke-width="0"></rect><rect x="914.07" width="3.75" height="63.84" fill="#d77a49" stroke-width="0"></rect><rect x="917.88" width="3.75" height="63.84" fill="#d67749" stroke-width="0"></rect><rect x="921.63" width="3.75" height="63.84" fill="#d6734c" stroke-width="0"></rect><rect x="925.38" width="3.75" height="63.84" fill="#d47f49" stroke-width="0"></rect><rect x="929.16" width="3.75" height="63.84" fill="#d8a832" stroke-width="0"></rect><rect x="932.91" width="3.72" height="63.84" fill="#e4c41d" stroke-width="0"></rect><rect x="936.63" width="3.75" height="63.84" fill="#b2a54b" stroke-width="0"></rect><rect x="940.44" width="3.75" height="63.84" fill="#627198" stroke-width="0"></rect><rect x="944.16" width="3.75" height="63.84" fill="#4560b3" stroke-width="0"></rect><rect x="947.97" width="3.75" height="63.84" fill="#4560b3" stroke-width="0"></rect><rect x="951.72" width="3.75" height="63.84" fill="#4c64ac" stroke-width="0"></rect><rect x="955.53" width="3.72" height="63.84" fill="#435eb4" stroke-width="0"></rect><rect x="959.25" width="3.81" height="63.84" fill="#3d5bb9" stroke-width="0"></rect><rect x="963.06" width="3.72" height="63.84" fill="#7c827e" stroke-width="0"></rect><rect x="966.78" width="3.81" height="63.84" fill="#bca944" stroke-width="0"></rect><rect x="970.53" width="3.75" height="63.84" fill="#bca944" stroke-width="0"></rect><rect x="974.28" width="3.72" height="63.84" fill="#617297" stroke-width="0"></rect><rect x="978.03" width="41.37" height="63.84" fill="#4a63ae" stroke-width="0"></rect><rect x="1019.43" width="7.53" height="63.84" fill="#4761b2" stroke-width="0"></rect><rect x="1026.96" width="3.75" height="63.84" fill="#627298" stroke-width="0"></rect><rect x="1030.68" width="3.72" height="63.84" fill="#908e6c" stroke-width="0"></rect><rect x="1034.4" width="3.84" height="63.84" fill="#999464" stroke-width="0"></rect><rect x="1038.24" width="3.81" height="63.84" fill="#6a7791" stroke-width="0"></rect><rect x="1042.05" width="7.41" height="63.84" fill="#425eb5" stroke-width="0"></rect><rect x="1049.49" width="30.24" height="63.84" fill="#4a63ae" stroke-width="0"></rect><rect x="1079.73" width="3.69" height="63.84" fill="#4c64ac" stroke-width="0"></rect><rect x="1083.42" width="3.69" height="63.84" fill="#4762b1" stroke-width="0"></rect><rect x="1087.11" width="3.81" height="63.84" fill="#3b5abc" stroke-width="0"></rect><rect x="1090.92" width="3.75" height="63.84" fill="#5a6c9f" stroke-width="0"></rect><rect x="1094.67" width="3.81" height="63.84" fill="#beaa40" stroke-width="0"></rect><rect x="1098.48" width="3.72" height="63.84" fill="#cbb235" stroke-width="0"></rect><rect x="1102.2" width="3.81" height="63.84" fill="#647396" stroke-width="0"></rect><rect x="1105.95" width="3.75" height="63.84" fill="#2a50cc" stroke-width="0"></rect><rect x="1109.76" width="3.72" height="63.84" fill="#425eb6" stroke-width="0"></rect><rect x="1113.45" width="3.81" height="63.84" fill="#777f85" stroke-width="0"></rect><rect x="1117.23" width="3.72" height="63.84" fill="#baa845" stroke-width="0"></rect><rect x="1121.01" width="3.75" height="63.84" fill="#848677" stroke-width="0"></rect><rect x="1124.76" width="3.75" height="63.84" fill="#3659c0" stroke-width="0"></rect><rect x="1128.54" width="3.81" height="63.84" fill="#58759f" stroke-width="0"></rect><rect x="1132.32" width="3.72" height="63.84" fill="#b9a346" stroke-width="0"></rect><rect x="1136.04" width="3.75" height="63.84" fill="#ed831f" stroke-width="0"></rect><rect x="1139.82" width="3.75" height="63.84" fill="#e02b37" stroke-width="0"></rect><rect x="1143.57" width="18.81" height="63.84" fill="#d20f46" stroke-width="0"></rect><rect x="1162.41" width="3.72" height="63.84" fill="#d82b3c" stroke-width="0"></rect><rect x="1166.13" width="3.81" height="63.84" fill="#e76828" stroke-width="0"></rect><rect x="1169.94" width="3.75" height="63.84" fill="#f9b10e" stroke-width="0"></rect><rect x="1173.72" width="3.69" height="63.84" fill="#ffd403" stroke-width="0"></rect><rect x="1177.38" width="3.84" height="63.84" fill="#e87323" stroke-width="0"></rect><rect x="1181.22" width="7.5" height="63.84" fill="#d3034b" stroke-width="0"></rect><rect x="1188.72" width="3.75" height="63.84" fill="#da1047" stroke-width="0"></rect><rect x="1192.47" width="3.75" height="63.84" fill="#cc2e56" stroke-width="0"></rect><rect x="1196.25" width="3.75" height="63.84" fill="#ca99a6" stroke-width="0"></rect><path d="m1012.86,95.37h33.6c4.32,18.48,8.64,36.9,12.93,55.29,1.05-.27,2.07-.48,3.12-.75,4.5-17.97,9.06-35.91,13.74-54.51h32.85v89.82c1.35.24,2.76.42,4.11.63,9.3-30.12,18.57-60.24,28.05-90.84h27.3c11.4,30.42,18.96,62.97,28.77,97.17h-22.86c-2.22-5.19-4.62-10.8-7.59-17.73h-26.1c-1.77,5.04-3.75,10.8-6.24,17.97h-46.41v-62.1c-.9,0-1.8.03-2.67.09-5.22,20.43-10.5,40.89-15.87,61.92-6.27.3-11.01.54-17.07.84-5.34-20.46-10.5-40.17-15.6-59.88-.72,0-1.44,0-2.13.03v58.95c-8.01.39-14.28.63-21.78,1.02v-97.89h-.09l-.06-.03Zm133.05,59.82c7.41-.57,11.97-.93,18.87-1.47-3.42-9.09-6.18-16.35-8.91-23.58-1.14.33-2.25.63-3.39.99-1.92,7.08-3.84,14.13-6.54,24.09h-.03v-.03Z" stroke-width="0"></path><path d="m472.56,192.63h-22.35c-2.04-6.09-3.99-11.88-6.21-18.51h-28.26c-2.37,5.88-4.65,11.55-7.44,18.36h-51.27c-7.8-17.97-15.15-34.92-22.5-51.87-.93.15-1.83.27-2.79.42v51c-7.38.45-13.17.78-20.4,1.23v-97.68h26.52c7.71,17.58,15.84,36.12,24,54.66,1.02-.12,2.07-.24,3.09-.39v-54.12h21.45v88.29c.9.09,1.8.12,2.76.18,9-29.58,17.97-59.13,27.09-89.07h28.98c8.91,31.71,17.94,63.84,27.42,97.5h-.09Zm-35.16-38.22c-2.19-11.37-3.99-20.61-5.76-29.88-1.08-.03-2.13-.12-3.24-.15-2.85,9.51-5.76,19.02-9.06,30.03h18.09-.03Z" stroke-width="0"></path><path d="m156.3,188.28c-1.98-5.37-3.72-10.02-5.76-15.45,5.01-3,9.66-5.82,14.1-8.49,7.68,7.26,16.35,9.54,26.07,6.87,3.66-7.71-.33-11.28-7.17-13.95-6.36-2.46-12.93-4.86-18.51-8.64-12.72-8.64-16.89-20.64-13.23-34.23,3.51-12.99,14.07-21.54,28.77-22.98,3.72-.39,7.5-.03,11.37-.03,5.43,3.3,10.68,6.57,15.66,9.6,3.6-2.22,6.87-5.94,10.2-6.03,26.85-.48,53.67-.27,83.13-.27,1.89,32.7.54,64.89.84,98.4h-22.83v-75.27h-23.07v74.22c-7.83.45-13.65.78-21.54,1.23v-77.19c-13.53,1.23-24.9,2.28-36.24,3.36-8.4.12-16.44-15.36-26.28.69,6.66,14.7,22.35,14.85,32.94,21.24,12.15,15.51,10.68,30.66,1.35,46.8-15.57,10.41-31.83,11.07-49.8.15h.03l-.03-.03Z" stroke-width="0"></path><path d="m884.46,192.48h-21.03v-96.81h27.06c7.95,18.39,16.05,37.14,24.15,55.89.78-.03,1.53-.12,2.34-.15v-55.8c7.71-.42,13.74-.75,21.3-1.17v97.44h-29.07c-7.08-16.41-14.46-33.39-21.78-50.4-.99.09-1.95.18-2.94.27v50.7h0l-.03.03Z" stroke-width="0"></path><path d="m720.39,192.24h-28.59c-7.02-18.51-14.13-36.99-21.24-55.41-6.21,18.96.12,37.08-4.77,55.17h-18.84v-96.48h27.27c7.44,17.61,14.79,35.07,22.17,52.47,1.29-.3,2.55-.63,3.84-.93v-51.45c7.44-.33,13.29-.6,20.13-.9v97.53h.09-.06Z" stroke-width="0"></path><path d="m627.9,187.8c-38.82,18.87-65.82,2.22-66.87-39.66-.48-19.41,1.53-37.5,19.44-49.98,18.27-12.72,42.57-7.98,53.22,11.76,11.31,21,14.52,42.51,1.35,64.26-2.55,4.26-4.65,8.79-7.17,13.62h.03Zm-24.84-75.24c-19.65,9.78-23.43,36.48-10.56,59.46,18.21,2.82,23.55-.75,24.72-17.61.63-9.33.12-18.78.12-28.59-4.89-4.56-9.36-8.73-14.25-13.29h0l-.03.03Z" stroke-width="0"></path><path d="m510.96,193.08h-22.35v-74.76c-8.64-1.32-14.64-2.22-21.39-3.24v-19.83h87.45v95.4h-21.33v-73.32h-22.38v75.75h0Z" stroke-width="0"></path><path d="m8.13,192.12v-96.3c21.96-.33,46.02-8.43,62.1,12.72,19.68,25.83,14.82,52.65-5.07,78.78-17.04,8.49-36.24,5.67-57.03,4.83v-.03Zm22.35-77.31v59.4c8.13-1.65,14.61-2.94,20.85-4.2,6.57-16.26,7.08-31.38.18-48.6-5.82-1.8-12.57-3.96-21.06-6.57h.03v-.03Z" stroke-width="0"></path><path d="m947.13,95.1h55.35c.3,6.66.57,12.57.87,20.04-11.13.63-20.91,1.17-32.25,1.8-.6,4.41-1.23,8.88-2.1,15.15,10.5.75,19.56,1.38,30.09,2.13.39,6.36.75,12.24,1.2,19.44-10.32.78-19.41,1.47-29.76,2.25-.39,5.19-.69,9.78-1.14,16.29,11.67.57,22.02,1.05,33.72,1.62.39,5.91.69,11.16,1.14,18.24h-57.09v-97.02l-.03.06Z" stroke-width="0"></path><path d="m110.19,155.76v16.5c11.01.6,21.39,1.2,33.48,1.83.48,5.43.93,10.62,1.59,17.64h-57.51v-96.15h53.52v19.5c-10.17.75-19.89,1.47-30.72,2.28-.3,4.74-.57,8.79-.99,14.76,10.41.9,20.04,1.74,30.78,2.67.54,6.21,1.02,11.58,1.65,18.87-10.65.72-20.31,1.35-31.8,2.13h0v-.03Z" stroke-width="0"></path><path d="m827.7,165.3c-8.01,24.93-17.52,32.34-37.44,30.78-19.83-1.59-30.57-12.45-33.87-33.51-2.82-18.27-2.07-36.12,4.56-52.77,21.36-28.11,56.85-24.33,65.67,11.91-6.21,1.8-12.54,3.6-19.11,5.49-4.26-4.77-8.28-9.24-12.18-13.65-15.57,8.88-20.49,21.33-16.98,41.49,2.34,13.29,5.19,16.14,19.38,18.33,2.91-4.14,6.06-8.61,9.93-14.1,6.06,1.8,12.42,3.72,20.04,6.03h-.03.03Z" stroke-width="0"></path><path d="m853.02,193.17h-21.48v-97.86h21.48v97.86Z" stroke-width="0"></path></svg>