<svg xmlns="http://www.w3.org/2000/svg" id="Layer_1" width="1200" height="1200" viewBox="0 0 1200 1200"><path d="m1200,600c0,331.37-268.63,600-600,600h0C268.63,1200,0,931.37,0,600h0C0,268.63,268.63,0,600,0h0c331.37,0,600,268.63,600,600h0Z" fill="#b1d236" stroke-width="0"></path><path d="m1133.14,600c0,294.45-238.69,533.14-533.14,533.14h0c-294.45,0-533.14-238.69-533.14-533.14h0c0-294.45,238.69-533.14,533.14-533.14h0c294.45,0,533.14,238.69,533.14,533.14h0Z" fill="#090406" stroke-width="0"></path><path d="m369.76,480.05v-100.69c0-.52.38-.96.9-1.02,21.29-2.67,45.45-3.45,66.75.19.52.08.78.4.78.93l.04,343.6c0,.49-.24.82-.72.95-35.17,10.34-71.57,14.85-109.2,13.51-81.56-2.89-125.36-54.52-122.24-134.5,1.29-33.09,14.03-67.32,37.88-90.48,33.99-33,79.39-40.84,125.21-31.99.4.08.6-.08.6-.49h0Z" fill="#fff" stroke-width="0"></path><path d="m580.73,631.68c-27.62-7.78-63.28-15.65-77.81-41.12-8.79-15.39-9.49-38.1-5.82-54.99,8.6-39.69,47.77-57.07,84.94-58.91,29.28-1.45,57.63,2.91,85.03,13.07.37.14.55.42.52.82-1.64,17.04-6.17,33.24-13.61,48.63-.2.41-.5.53-.93.36-9.56-3.88-19.44-6.94-29.62-9.16-17.02-3.73-65.22-8.55-59.07,23.73,1.8,9.44,11,13.04,20.69,16.22,10.92,3.57,21.88,6.99,32.89,10.27,38.88,11.57,59.08,32.86,57.89,75.01-1.5,53.37-52.1,79.88-99.21,81.79-30.49,1.24-57.64-1.7-86.37-13.06-.36-.14-.53-.41-.49-.81,1.72-17.73,6.31-34.7,13.78-50.89.18-.4.48-.52.89-.38,26.82,8.97,53.63,16.98,82.06,9.19,11.57-3.17,22.77-11.23,22.7-24.62-.1-16.25-15.37-21.46-28.45-25.14h0Z" fill="#fff" stroke-width="0"></path><path d="m752.56,632.87c-24.88-18.32-36.35-43.02-34.41-74.07,2.96-47.59,42.25-75.58,86.55-80.78,35.59-4.18,69.16,2.63,97.53,24.85.34.26.64.23.91-.12,14.92-19.14,35.3-23.55,57.99-23.58.52,0,.95.36,1.03.87,2.93,18.33,2.95,36.69.05,55.05-.06.4-.3.59-.7.59h-37.8c-.29,0-.53.23-.53.53,0,.08.01.16.05.23,2.68,5.72,4.58,11.64,5.31,18.06,4.12,35.42-11.33,67.83-43.26,84.63-29.71,15.63-65.51,17.43-97.71,10.08-.43-.11-.83-.04-1.2.2-7.02,4.5-10.71,11.37-11.07,20.64-.61,15.91,11.11,18.83,24.57,19.02,37.28.54,62.52,1.08,75.73,1.65,34.31,1.48,66.53,15.74,74.59,52.05,5.49,24.78.91,46.31-13.75,64.6-31.06,38.69-91.61,47.14-137.51,44.58-33.88-1.89-81.72-9.68-89.08-51.07-5.89-33.12,9.23-56.17,36.36-72.83.42-.25.42-.5.01-.77-20.37-13.21-26.2-30.55-22.55-54.22,2.56-16.63,14.96-29.2,28.87-39.24.42-.3.43-.61.01-.93h0Z" fill="#fff" stroke-width="0"></path><path d="m808.19,606.16c-21.05-6.46-24.6-34.66-21.51-52.38,3.27-18.68,12.55-30.43,32.05-31.96,21.88-1.72,37.6,5.23,42.49,28.25,3.41,16.07,1.92,40.83-11.99,51.58-10.77,8.32-28.66,8.3-41.05,4.51Z" fill="#090406" stroke-width="0"></path><path d="m322.58,679.42c-47.95-8.09-50.88-65.12-41.86-101.38,6.26-25.16,24.98-45.21,51.7-47.48,12.43-1.06,24.65.02,36.63,3.25.47.13.71.43.71.93v141.88c0,.37-.18.61-.53.72-14.58,4.53-31.72,4.59-46.65,2.08h0Z" fill="#090406" stroke-width="0"></path><path d="m838.34,801.65c-20.32,2.15-67.82,4.98-69.23-26.21-1.09-24.57,13.37-34.76,35.64-34.49,17.41.2,34.82.53,52.24.95,15.39.37,28.81,5.69,29.86,23.16,1.51,25.2-28.43,34.47-48.51,36.6h0Z" fill="#090406" stroke-width="0"></path></svg>