<svg xmlns="http://www.w3.org/2000/svg" id="Layer_1" width="1199.99" height="114.2" viewBox="0 0 1199.99 114.2"><g id="Layer_2"><g id="Layer_1-2"><path d="m1149.29,10.77c-3.96,0-7.47,0-10.43.42l-7.47.71v46.58h14.76c4.68,0,9.36-.23,14.01-.71,3.98-.35,7.86-1.41,11.47-3.13,3.17-1.56,5.83-3.99,7.67-7.01,2.11-3.82,3.09-8.16,2.84-12.51.17-4.17-.81-8.32-2.84-11.97-1.8-3.11-4.35-5.72-7.42-7.59-3.21-1.9-6.75-3.17-10.43-3.75-4.04-.69-8.12-1.04-12.22-1.04m44.04,24.4c.38,7.04-1.93,13.96-6.46,19.35-4.61,4.9-10.48,8.44-16.97,10.22,1.67,2.09,3.88,4.92,6.55,8.34s5.42,7.47,8.34,11.72,5.59,8.67,8.34,13.3c2.56,4.25,4.88,8.65,6.92,13.18h-11.43c-2.21-4.17-4.59-8.34-7.13-12.51s-5.21-8.34-7.88-12.18-5.25-7.59-7.8-10.93l-6.71-8.84c-3.34.33-6.71.5-10.05.5h-17.6v44.08h-10.72V4.52c4.35-1.18,8.81-1.94,13.3-2.29,5.09-.46,9.76-.71,14.05-.71,15.01,0,26.27,2.84,33.91,8.34,7.82,5.98,12.1,15.5,11.39,25.31h-.05Zm-135,21.69c.11-6.68-.84-13.34-2.84-19.73-1.66-5.43-4.38-10.48-8.01-14.85-3.41-4.04-7.68-7.24-12.51-9.38-10.54-4.28-22.33-4.28-32.86,0-4.83,2.13-9.11,5.34-12.51,9.38-3.62,4.37-6.35,9.42-8.01,14.85-1.99,6.38-2.95,13.04-2.84,19.73-.11,6.68.84,13.34,2.84,19.73,1.66,5.44,4.38,10.5,8.01,14.89,3.41,4.04,7.69,7.26,12.51,9.43,10.51,4.39,22.35,4.39,32.86,0,4.82-2.17,9.1-5.39,12.51-9.43,3.62-4.39,6.35-9.45,8.01-14.89,2.01-6.38,2.98-13.04,2.88-19.73,0,0-.04,0-.04,0Zm11.34,0c.12,8.41-1.29,16.78-4.17,24.69-2.43,6.65-6.21,12.73-11.09,17.85-4.59,4.7-10.14,8.37-16.26,10.76-12.66,4.84-26.66,4.84-39.33,0-6.13-2.39-11.67-6.06-16.26-10.76-4.78-5.15-8.46-11.23-10.8-17.85-2.88-7.91-4.29-16.27-4.17-24.69-.13-8.39,1.29-16.73,4.17-24.61,2.44-6.62,6.22-12.67,11.09-17.77,4.59-4.7,10.14-8.37,16.26-10.76,12.66-4.84,26.66-4.84,39.33,0,6.13,2.39,11.67,6.06,16.26,10.76,4.87,5.1,8.65,11.15,11.09,17.77,2.8,7.89,4.13,16.23,3.92,24.61h-.04ZM927.84,2.64v9.09h-34.91v99.67h-10.68V11.73h-34.91V2.47l80.49.17h0Zm-146.84,111.14c-6.7.06-13.35-1.22-19.56-3.75-5.98-2.49-11.34-6.25-15.72-11.01-4.66-5.19-8.25-11.26-10.55-17.85-2.69-7.82-3.99-16.05-3.84-24.31-.16-8.28,1.26-16.52,4.17-24.27,2.46-6.62,6.2-12.68,11.01-17.85,4.52-4.76,10.01-8.48,16.1-10.93,6.04-2.46,12.5-3.72,19.02-3.71,3.74-.03,7.48.23,11.18.79,5.24.7,10.36,2.1,15.22,4.17,1.45.56,2.85,1.26,4.17,2.09l-3.54,9.63c-3.17-1.86-6.51-3.41-9.97-4.63-4.83-1.66-9.91-2.44-15.01-2.29-6.13-.13-12.21,1.05-17.85,3.46-4.97,2.21-9.36,5.55-12.8,9.76-3.57,4.41-6.22,9.48-7.8,14.93-1.78,6.24-2.65,12.7-2.59,19.18-.08,6.61.79,13.2,2.59,19.56,1.53,5.42,4.13,10.48,7.63,14.89,3.38,4.08,7.66,7.3,12.51,9.43,5.26,2.27,10.95,3.4,16.68,3.29,5.84.12,11.68-.54,17.35-1.96,3.68-1.01,7.25-2.4,10.63-4.17l2.96,9.09c-1.18.75-2.44,1.37-3.75,1.83-1.81.67-4.06,1.38-6.76,2.13-3.12.79-6.28,1.39-9.47,1.79-3.98.49-8,.73-12.01.71h0Zm-159.6-2.38V2.47h62.89v9.26h-52.26v37.91h46.54v9.09h-46.54v43.41h56.09v9.26h-66.73,0ZM495.45,2.47c3.17,9.31,6.21,18.14,9.13,26.48s5.84,16.39,8.63,24.23c2.79,7.84,5.71,15.43,8.67,22.94,2.96,7.51,6.09,15.06,9.43,22.73,3.25-7.53,6.37-15.06,9.34-22.56,3-7.51,5.92-15.14,8.8-22.98s5.8-15.89,8.67-24.27c2.88-8.38,5.88-17.27,9.05-26.57h11.34c-4.84,13.72-9.13,25.77-12.97,36.16s-7.42,19.85-10.88,28.19-6.42,16.1-9.43,23.19-6.09,14.22-9.34,21.44h-9.88c-3.25-7.21-6.42-14.39-9.47-21.44s-6.09-14.85-9.38-23.19-6.84-17.77-10.68-28.15-8.34-22.44-12.97-36.16l11.93-.04h0Zm-147.3,101.88c6.9.4,13.77-1.22,19.77-4.67,4.86-3.39,7.56-9.1,7.09-15.01.13-3.47-.66-6.91-2.29-9.97-1.5-2.67-3.56-4.97-6.05-6.76-2.67-1.93-5.57-3.52-8.63-4.71l-10.22-4.17c-4.13-1.62-8.16-3.46-12.09-5.5-3.32-1.71-6.39-3.85-9.13-6.38-2.44-2.29-4.4-5.04-5.76-8.09-1.37-3.4-2.03-7.05-1.96-10.72-.5-8.16,2.96-16.06,9.3-21.23,7.57-5.16,16.64-7.64,25.77-7.05,2.89,0,5.77.21,8.63.63,2.69.38,5.35.94,7.97,1.67,2.3.61,4.55,1.36,6.76,2.25,1.79.71,3.49,1.6,5.09,2.67l-3.75,8.97c-3.41-2.25-7.15-3.94-11.09-5-4.57-1.3-9.3-1.94-14.05-1.92-3.2-.02-6.39.33-9.51,1.04-2.68.6-5.22,1.72-7.47,3.29-2.09,1.49-3.79,3.47-4.96,5.76-1.28,2.59-1.91,5.45-1.83,8.34-.06,2.9.6,5.76,1.92,8.34,1.28,2.36,3.08,4.39,5.25,5.96,2.46,1.82,5.12,3.36,7.92,4.59l9.93,4.17c4.17,1.75,8.34,3.54,12.18,5.34,3.61,1.68,6.96,3.86,9.97,6.46,2.88,2.42,5.19,5.44,6.8,8.84,1.81,3.99,2.68,8.34,2.54,12.72.55,8.66-3.33,17.02-10.3,22.19-8.3,5.32-18.06,7.9-27.9,7.38-3.84.03-7.67-.23-11.47-.79-3.14-.44-6.25-1.1-9.3-1.96-2.37-.69-4.7-1.52-6.96-2.5-1.88-.88-3.34-1.58-4.17-2.21l3.46-9.3c1.04.63,2.46,1.38,4.17,2.21,2.05.94,4.15,1.77,6.3,2.46,2.74.83,5.52,1.48,8.34,1.96,3.23.49,6.49.73,9.76.71h-.03Zm-132.33,7.05V2.47h62.1v9.26h-51.42v38.41h45.62v9.26h-45.62v52.01h-10.68Z" fill="#1d2251" stroke-width="0"></path><polygon points="133.91 57.35 96 114.2 106.51 114.2 144.42 57.35 106.51 .51 96 .51 133.91 57.35" fill="#55a746" stroke-width="0"></polygon><polygon points="109.89 57.35 72.02 114.2 82.53 114.2 120.4 57.35 82.53 .51 72.02 .51 109.89 57.35" fill="#55a746" stroke-width="0"></polygon><polygon points="85.91 57.35 48 114.2 58.51 114.2 96.42 57.35 58.51 .51 48 .51 85.91 57.35" fill="#55a746" stroke-width="0"></polygon><polygon points="61.89 56.94 24.02 113.78 34.53 113.78 72.4 56.94 34.53 .09 24.02 .09 61.89 56.94" fill="#55a746" stroke-width="0"></polygon><polygon points="37.91 56.94 0 113.78 10.51 113.78 48.42 56.94 10.51 .09 0 .09 37.91 56.94" fill="#55a746" stroke-width="0"></polygon></g></g></svg>