<svg xmlns="http://www.w3.org/2000/svg" id="Layer_1" data-name="Layer 1" viewBox="0 0 1494.22 1000"><path d="m1494.17,563.31c-23.29-1.16-46.52-2.9-69.79-4.3-53.09-3.19-106.17-6.47-159.24-9.83-42.91-2.72-85.84-5.1-128.75-7.97-24.95-1.68-49.94-2.82-74.9-4.54-8.41-.58-14.99-.25-23.32.31-11.99.81-32.74,1.96-62.25,3.44-34.59,1.74-69.15,3.81-103.74,5.55-288.27,14.53-576.54,29.08-864.82,43.43-3.05.15-5.45.08-7.19-.21" vector-effect="non-scaling-stroke" fill="none" stroke="#d9d4d2" stroke-width="2"></path><path d="m.17,0h1494v563.31c-23.29-1.16-46.52-2.9-69.79-4.3-53.09-3.19-106.17-6.47-159.24-9.83-42.91-2.72-85.84-5.1-128.75-7.97-24.95-1.68-49.94-2.82-74.9-4.54-8.41-.58-14.99-.25-23.32.31-11.99.81-32.74,1.96-62.25,3.44-34.59,1.74-69.15,3.81-103.74,5.55-288.27,14.53-576.54,29.08-864.82,43.43-3.05.15-5.45.08-7.19-.21V0Z" fill="#dcdbd6" stroke-width="0"></path><path d="m1494.17,563.31v436.69H.17v-410.81c1.74.29,4.14.36,7.19.21,288.28-14.35,576.55-28.9,864.82-43.43,34.59-1.74,69.15-3.81,103.74-5.55,29.51-1.48,50.26-2.63,62.25-3.44,8.33-.56,14.91-.89,23.32-.31,24.96,1.72,49.95,2.86,74.9,4.54,42.91,2.87,85.84,5.25,128.75,7.97,53.07,3.36,106.15,6.64,159.24,9.83,23.27,1.4,46.5,3.14,69.79,4.3Z" fill="#d6cdce" stroke-width="0"></path></svg>