<svg xmlns="http://www.w3.org/2000/svg" id="Layer_1" width="996" height="1200" viewBox="0 0 996 1200"><path d="m836.02,324.67c.45,10.26,1.46,20.55,1.26,30.81-.94,45.84-8.04,90.67-22.08,134.46-9.82,30.61-22.4,59.94-37.78,88-11.03,20.15-24.43,38.92-38.52,57.14-12.59,16.29-25.57,32.1-41.12,45.74-27.5,24.11-75.02,12.93-87.19-21.39-5.37-15.13-5.56-31.4,4.67-46.14,8.01-11.55,17.28-22.01,26.31-32.64,38.38-45.18,65.5-95.94,77.89-154.12,8.63-40.48,11.15-81.13,6.03-122.52-2.99-24.26-7.81-47.92-15.58-70.82-9.67-28.46-22.82-55.46-39.61-80.53-13.25-19.78-27.64-38.65-43.69-56.25-9.87-10.83-16.39-23.05-18.89-38-4.18-25.1,14.49-50.27,38.65-56.43,22.33-5.69,40.55,1.14,57.19,16.59,16.42,15.26,28.91,33.38,42.33,50.99,13.53,17.73,25.27,36.4,35.73,56.01,18.67,34.96,32.89,71.66,42.5,110.08,7.32,29.2,10.41,59.02,11.92,89.02h-.02Z" fill="#412b2a" stroke-width="0"></path><path d="m215.23,1074.03c-.05,9.03-.1,18.03-.12,27.05-.15,4.35-.27,8.7-.42,13.08-7.1-2.4-12.19-8.11-18.74-11.42-2.42-1.21-4.65-2.77-7.99.1,11.2,8.8,24.16,15.03,29.87,28.86-9.84,4.77-19.29,9.35-27.72,13.45h-12.17c.02-17.14.07-34.27.1-51.41.57-.4,1.11-.79,1.68-1.21-.54-.42-1.06-.84-1.61-1.26-2.55-8.16-5.09-16.32-7.64-24.48-.02-1.38-.69-2.3-2.03-2.7-3.76-11.4-12.73-20.45-14.61-32.66,2.3.1,4.13-.59,4.18-3.21.02-2.65-1.81-3.31-4.1-3.16-.2-9.99-.37-19.98-.59-29.94-.07-3.09.79-6.55-2.79-8.51,1.26-7.59,1.83-15.38,4.01-22.7,2.25-7.57,5.42-14.71,1.11-22.65-3.96,14.22-6.85,28.61-9.64,43.02-.35,1.76,1.14,2.89,2.57,3.78-2.2,4.48-3.04,9.25-2.79,14.19.45,8.38-2.08,16-5.32,23.59-3.81,8.9-7.12,17.98-4.99,28.04.89,4.23-1.38,8.18-3.12,11.62-5.39,10.51-8.16,22.01-12.91,32.76-2.89,6.53-6.58,14.71-.35,21.31-1.83,6.63-3.36,12.09-4.87,17.56l.07-.12c-.27,1.34-.54,2.67-.82,4.01-5.88-.37-11.18,1.71-15.82,4.9-2.97,2.05-5.69,2.82-9,1.71-1.29-1.01-2.6-2-4.38-3.39.27-8.14.05-16.52,1.36-25.15,1.66-10.85,1.9-22.33.4-33.18-1.61-11.5-1.41-22.87-1.63-34.32-.22-10.26-.62-20.28-4.01-30.29-2.7-7.99-1.76-16.91-3.46-25.37-.94-4.75-2-9.57-2.87-14.39-2.42-13.43-.67-26.58,1.81-39.81,1.58-8.41,2-17.01,3.41-25.44,1.9-11.55-3.41-21.61-6.21-32.14-.99-3.71-2.2-7.69-.67-10.81,7.24-14.71,4.75-29.77,1.46-44.51-2.45-11.08-2.08-21.96-1.93-33.01.07-5.34,0-10.68,0-16.69-18.52-17.38-21.02-40.28-19.95-64.29-5.07-5.17-7.74-11.4-10.01-18.05-5.64-16.62-11.32-33.23-18.1-49.4-4.3-10.29-4.6-21.46-8.68-31.7-1.01-2.55-.59-5.59-2.65-7.96-8.18-9.57-9.52-21.26-9.99-33.18,2.72.64,5.42,1.29,8.09,1.9,2.47-3.44,5.76-6.33,3.36-10.95.42-.45.87-.89,1.34-1.31,3.59,4.55,2.67,11.94,9.74,15.18,2.57-5.81,11.15-4.9,12.34-12.19,1.95,1.34,3.93,2.65,6.4,4.33-2.74,8.93-6.58,17.38-11.62,25.32-.25-2-.27-3.98-2.84-4.72-3.09-.89-6.08-2.15-9.12-3.24-1.24-1.71-2.52-3.19-4.67-1.21.35,2.08,2.03,2.2,3.49,2.65,1.78,7.37,7.39,7.07,13.11,6.6,5.88,14.29,10.98,28.98,17.95,42.73,4.95,9.77,11.03,18.94,14.29,29.47,2.65,8.48,10.85,11.89,15.73,17.75,3.26,20.87,19.39,32.56,31.6,46.91-.32,1.61-.96,3.29,1.06,4.3.35,11.7,6.31,20.77,12.61,27.69,2.82,4.35-.91,9.1,4.38,11.05,2.84-4.72.77-9.62,1.11-14.32,7.02,5.37,12.81,12.51,21.73,15.13.12,17.11.25,34.22.37,51.33-4.25,23.74-5.29,46.91,11.97,67.43,5.66-5.27,8.6-12.07,12.68-17.31,1.56-8.26-1.73-15.11-3.41-22.2-3.93-16.62-10.63-32.71-8.48-50.42.99-8.23-.12-16.42-3.68-23.98-1.9-4.08-.99-8.04-.89-12.09,2.84-1.48,6.7,1.11,9.17-2.27-.77-3.51-1.53-7.07-2.3-10.61,4.01-1.46,4.6,5.64,9.62,3.66-.87-5.07-4.03-7.02-7.57-8.33-2.42,1.53-1.95,3.21-1.95,4.77-1.78-2.15-3.51-4.38-5.37-6.45-.74-.84-1.51-.59-1.9.49-1.93,3.24,2.62,5.74,1.24,9.4-2.82-1.36-5.59-2.67-8.36-4.01-7-3.04-14.42-4.48-21.91-5.61-1.04-1.26-2.05-2.52-3.09-3.76-.37-6.06,2.15-13.65-7.74-14.69-.82.35-1.61.72-2.42,1.06-.07-.67-.05-1.34.1-2-.91-7.2-3.02-14.09-5.54-20.87l.74-.77c3.81,2.35,7.59,5.02,11.99.74-1.14-4.62-7.22-1.66-8.58-5.79-.4-1.21-.69-2.23,0-3.51,3.14-1.93,7.32.45,10.93-2.37.82-2.25,2.03-4.85,2.7-7.59,3.12-13.13,5.42-15.16,18.94-16,1.63-.1,3.29,0,4.92.02,3.14,1.04,3.66,3.61,3.71,6.45-.15,3.88-4.99,6.68-1.71,12.29,2.77,2.32,4.7,7.94,10.88,8.18.54.64.69,1.36.49,2.15-.07.96-.15,1.9-.22,2.87-4.67-.17-9.35-.32-14.02-.49-.79-.94-1.53-2.03-2.77-.52.52.57,1.04,1.16,1.56,1.73,1.93,3.14,4.85,4.3,8.36,4.13,2.3-.12,3.98.62,4.85,2.84-.05,4.87-2.52,8.73-5.19,12.51-8.63,2.05-15.4-6.16-25.32-4.62,7.94,6.65,15.58,10.39,24.97,9.64v-.07c.52,1.58-1.31,5.34,3.09,3.26,4.77-7.07,9.07-14.34,10.53-22.92,2.2-.52,3.71-1.48,2.47-4.52-1.81-.25-3.76-.54-5.74-.82-.05-.77-.05-1.56-.05-2.32,2-.12,3.98-.25,5.98-.35,2.57-5.02.47-11.2,4.97-15.16,5.79-1.19,9.37-4.38,10.53-10.39-4.85-1.29-5.98,3.21-9.07,3.71,3.41-16.69,7.05-33.38,12.83-49.43,2.42-6.73,2.45-12.51-.82-18.82-2.79-5.42-4.85-11.23-7.37-16.79-1.53-3.41-3.16-6.7-1.09-10.31,3.44-3.09,6.16.89,8.38.89,6.01-2.67,2.99-11.08,9.72-12.36.15,4.08.15,8.18.54,12.21.15,1.48,1.31,1.78,2.13.1,2.27-.54,4.99.59,7.22-2.32.1-5.04,1.04-10.66-1.11-16.17-3.12-.59-5.88-1.11-8.68-1.63.1-3.21,2-5.12,5.24-6.68,4.95,2.27,7.79,6.06,7.49,11.99.1,2.52.17,5.02.27,7.54,0,2.57-1.43,5.64,2.4,7.05,3.66-1.83,2.1-4.55,1.36-7.1.15-1.43.32-2.89.47-4.33,5.91,7.57,5.17,16.52,5.39,24.92-1.41,7.76-7.29,12.09-12.51,18.22,0,14.07-.37,28.88.1,43.64.52,15.73-2.74,30.83-6.03,46.02-4.48,20.67-13.28,40.08-17.38,60.85-.12.62-1.19,1.01-1.81,1.53-.67,0-1.29-.17-1.81-.59-2.05-12.36-4.55-18.22-10.51-23.09,2.18,7.86,3.91,14.79,6.03,21.59.82,2.62,2.57,4.97,3.91,7.42.17,1.51.35,3.02.52,4.52-.59,9.87.47,19.58,2.32,29.28,4.23,22.01,1.83,44.24,2.32,65.67-1.43,5.98-8.43,9.37-5.17,16.07-1.66.3-3.41.77-4.01,2.42-4.03,11.52-12.17,17.93-23.96,19.63-17.9-2.72-34.57-13.77-52.54-7.29-9.03-.02-14.66-6.53-24.06-9.35,3.14,5.91,6.06,8.6,8.7,10.71,7.94,3.54,15.63,3.76,23.47,3.34,8.21-.45,16.32.2,24.16,3.14,12.19,4.6,24.38,6.16,36.42-.49,1.06-.59,2.1-1.26,4.57-2.74,1.95-.91,1.58-6.11,5.81-7.07,5.24-.1,6.18,4.9,6.11,7.57-.3,11.18,5.12,21.09,6.13,31.87-.25,1.51.47,2.37,1.88,2.79h0c.32,2.62-.99,5.86,2.74,7.15l.05.07c0,1.43.74,2.3,2.1,2.7v.05c0,2.03.12,4.01,2.42,4.92.27,3.98.52,7.99.79,11.97-.35,1.51.4,2.37,1.68,2.92.07,3.24.17,6.45.25,9.69.84,8.26-2.35,16.91,2.32,24.8.96,9.84,1.93,19.66,2.89,29.5-.25,2.77-1.34,5.76,1.88,7.69.1,4.1.17,8.18.27,12.29-4.4,3.46-1.78,8.23-2.32,12.39h-.02Zm-100.07-311.6c-4.33,14.74-13.4,23.07-20.99,31.25-1.19,10.29-.15,18.67,8.11,26.53,1.43-9.69-6.8-16.76-2.32-25.39,6.78-8.51,18.89-14.71,15.23-32.39h-.02Zm-35.63,10.83c10.36-1.21,12.54-4.3,22.82-30.27-6.65,1.83-7.27,1.71-7.89,3.88-2.82,9.99-8.51,18.27-14.93,26.38h0Zm52.67,153.35c-6.28,4.15-9.42,10.63-12.66,17.06-4.85,9.58-6.61,15.92-5.29,19.04,7.17-11.62,14.14-22.85,17.95-36.08v-.02Zm-49.26-188.79c-12.64-3.77-21.29-4.5-25.94-2.18,8.63,4.95,17.09,5.81,25.94,2.18Zm65.67-59.96c-3.46,2.72-6.95,1.61-7.91,7.67,3.41-1.93,6.55-1.43,7.91-7.67Zm10.46,68.02c-.1.22-.37.52-.32.69.1.3.52.77.62.72.84-.4.99-.94.4-1.41-.15-.12-.45,0-.69,0Zm-54.5,77l.59.4.1-.64-.67.22-.02.02Z" fill="#eb656c" stroke-width="0"></path><path d="m631.03,339.11c-.49,31.85-1.95,54.25-7.76,76.36-9.05,34.3-24.45,65.23-46.73,92.75-5.42,6.7-10.68,13.55-16.59,19.78-14.66,15.48-32.32,24.21-54.05,19.93-35.98-7.1-54.94-46.58-35.73-80.83,6.5-11.6,15.92-20.89,24.33-30.93,16.49-19.68,22.87-43.25,26.98-67.55,4.48-26.46,1.19-52.4-8.68-77.44-6.23-15.82-15.36-29.82-26.33-42.73-8.51-10.01-17.01-19.9-21.49-32.74-9.62-27.52,4.95-57.04,30.59-66.74,20.62-7.79,39.34-4.4,56.35,9.69,28.68,23.76,46.86,54.67,60.58,88.57,13.11,32.39,19.86,66.02,18.59,91.88h-.05Z" fill="#412b2a" stroke-width="0"></path><path d="m575.28,762.35c11.52,2.25,14.32,12.39,14.93,20.94.89,12.12,3.41,24.11,3.09,36.32-.17,1.85-.15,3.63,1.81,4.67,1.46,3.56-1.16,6.7-.59,10.63,2.62,18.47.52,37.19,3.39,55.83,3.14,20.33,6.97,40.16,17.48,58.11,1.26,2.18,2.35,4.1,2.65,6.7,1.11,10.14,4.28,19.86,7.24,29.55,3.34,10.88,3.44,21.71,1.21,32.69-7.17-1.19-15.16.91-21.09-5.22.59-3.59,5.09-1.83,6.48-4.92h-16.81c-3.12-.05-6.23-.12-9.35-.17-5.61.82-11.79-3.36-16.91,1.9-6.92-1.83-13.97-2.25-21.12-2.27-2.97,0-6.48,1.19-8.75-2.1-.3-.4-.3-.79,0-1.19h3.66c2.1-17.16,4.15-34.12,6.21-51.08,1.56-.12,3.34.35,4.43-1.71,0-.99.4-2.35-.05-3.34-8.93-19.24-17.78-38.5-27.05-57.56-3.63-7.47-6.03-15.16-6.95-23.32-.94-8.28-4.08-15.92-6.68-23.74-2.42,12.91.15,25.62,4.45,37.19,7.69,20.6,17.46,40.43,26.58,60.46,1.83,4.03,5.32,7.32,5.42,12.14-1.48.4-3.29,0-4.72,2.62-.22,11.13-5.88,22.4-4.99,34.67-.45,4.03-1.04,8.01-3.81,11.28-4.06,1.01-5.71-3.07-8.83-4.1-.49-1.93-.72-3.78-3.09-4.75-6.31-2.6-12.46-5.49-18.57-8.23.35-1.38.62-2.47.77-2.97-11.18-2.74-18.47-11.52-27.84-16.25-1.98-4.52-3.76-8.6-5.54-12.68,7.37-13.08,14.71-26.16,22.08-39.24,4.3-5.71,3.73-11.5.27-17.33.89-9.1-2.18-17.83-2.67-26.8,4.48-2.57,1.68-6.85,2.45-10.31-.35-11.25.84-22.55-.67-33.68-1.93-.37-3.12-.59-4.3-.82-5.17-7.59-4.1-16.89-6.75-25.2-.12-.35,1.68-1.31,2.57-2l5.91,5.69c3.93,12.07,12.66,27.12,18.99,32.74.25-8.06-5.81-20.25-17.11-34.37-2.37-4.92-2.94-10.95-8.56-13.85.05-4.1-2.13-7.24-5.54-8.75-8.93-3.98-16.44-10.16-24.58-15.31-7.24-4.57-16.05-7.84-19.73-16.76l2.97-5.93v-15.36c-5.09,2.79-7.62,6.35-9.96,10.09-1.51.45-2.57.99-.67,2.4.4,2.15.74,4.35,3.24,5.22l-.17,2.67c-8.28-.32-12.04-9.05-19.66-10.63-.69-5.86-5.79-5.61-9.72-6.95-8.11-1.61-9.2-9.62-13.08-14.91-4.5-6.11-7.81-13.06-11.65-19.63,1.09-.52,3.14-1.06,3.14-1.56-.15-8.43,7.07-12.36,10.9-18.32,6.21-1.11,9.69,3.04,13.62,6.73,14,13.06,27.45,26.95,44.09,36.67,15.55,9.07,32.71,14.04,50.74,15.65.94,1.85,1.06,4.25,3.41,5.17-.52,3.19-.69,6.28,2.27,8.51-.05,7.24.37,14.24,10.19,18.84-2.65-6.31,5.96-9.92.15-15.38-.02-2.25-.3-4.38-2.5-5.69.42-1.06.84-2.13,1.36-3.41,8.36,2.23,16.62,2.72,24.75.87,2.25,2.7,2.89,6.18,5.04,7.52,4.62,2.23,7.62-1.46,11.23-1.21,7.15,4.72,11.72,12.98,20.92,14.64l-.02-.07Zm-85.75.15c-1.41,2.5.12,4.99,0,7.47.64,6.75,4.95,4.48,9.35,4.2.3-4.5,2.35-8.78-4.3-9.4-.96-3.68,2.5-9.92-5.49-9.57-4.99-5.39-5.04-13.82-12.19-20.42.62,12.36,5.04,20.65,12.49,27.59l.17.12h-.02Zm75.07,226.07c15.92-12.93,22.85-28.73,19.71-42.23-5.46,3.96-1.85,10.26-4.5,14.59-5.39,9.05-12.64,17.06-15.18,27.64h-.02Zm-69.16-239.5c-.37-4.75-.02-9.87-5.54-13.7-.96,6.78,2.42,10.26,5.54,13.7Z" fill="#ee6d7b" stroke-width="0"></path><path d="m771.85,1063.57c-9.3.05-12.02-7.17-12.44-13.82-1.06-17.09-.37-33.83,8.9-49.68,4.9-8.36,11.18-17.21,10.34-28.11,1.11-2.92,3.24-5.49,3.12-8.88,2.32-.96,2.25-3.24,2.79-5.17,2.47-1.95,3.63-4.55,3.66-7.67,1.61-2.77,3.49-5.46,2.55-10.01-2.32-.59-5.17-1.68-6.97-4.5-1.73-2.72-1.93-7.02-7.2-7.76.3,5.56,3.78,9.15,5.76,13.23,1.46,3.02,2.82,5.69,1.88,9.05-.96,2.52-1.9,5.02-2.87,7.54l-1.19,4.08c-3.19,2.42-6.28,4.9-4.97,9.62-.37.2-.84.3-1.06.59-9.15,12.14-21.51,20.03-35.01,26.43-11.1,5.27-20.7,12.93-31.38,19.83-8.43,15.5-15.5,31.75-15.7,50.32-.07,6.18-3.54,11.6-5.74,17.28-3.78,9.79-8.68,19.26-8.95,30.09-7.44.62-4.18,6.16-4.6,10.01-2.25,1.58-4.5,3.16-6.18,4.33-10.73-5.96-18.72-13.67-23.56-24.38-.45-.99-1.76-1.61-2.65-2.37.79-5.09-5.79-7.22-4.99-12.34,4.4.22,6.4-2.08,7.54-6.21,3.51-12.73,3.66-25.37-.35-38,1.53-.42,3.31-.3,4.77-2.6.2-2.92.25-6.58.72-10.21,1.63-12.46,5.86-24.36,7.67-36.87,1.11-7.67,4.4-15.28,10.81-21.36,19.88-18.84,39.17-38.28,58.7-57.46,2.57-2.55,4.75-5.91,9.15-5.39,5.93-.96,11.89-1.95,18.1-2.97,5.32-5.64,12.24-8.85,19.48-11.4,3.56-1.24,6.87-2.45,8.14-6.45,1.88-.49,3.34-1.51,4.15-3.31,2.55-1.26,3.51-4.6,6.63-5.14,9.67,2.89,15.95,10.93,23.44,16.05,6.85-.87,12.91-2.03,19.24-.62,3.31,2.15,6.7,4.38,10.29,6.7,5.56-.64,11.35,1.68,16.67-1.76,3.93-.35,7.89-1.41,11.89.22,3.86,7.39,1.78,15.7,3.61,23.39-.94,1.95.96,2.37,1.83,3.36-.89,4.75-.32,10.39-7.05,11.57-5.79-.37-6.73,4.57-7.15,8.06-.94,7.99-3.91,15.7-3.24,23.89-.32,10.46-7.2,17.18-14.47,22.85-6.01,4.67-11.65,10.21-19.71,12.96.2,5.71-1.9,10.53-5.66,14.98-4.06,4.8-2,10.93-2.15,16.59,10.56,13.85,21.09,27.59,31.5,41.49.54.74-.1,2.37-.2,3.59-5.86-1.51-9.32-8.6-16.86-6.53,8.28,5.74,14.17,15.13,25.72,15.6.62.59,1.24,1.19,1.85,1.78-4.08,5.34-8.18,10.68-11.47,15.01-5.54,3.36-10.48,2.57-15.21,3.02h-13.6c-5.07-5.71-12.76-8.95-14.19-17.48.05-2,.82-4.2-.77-5.86-7.17-7.64-12.96-16.54-21.04-23.42-1.46.96-2.45,1.61-3.44,2.25-5.51.15-9.64-1.24-8.9-8.01,1.53-.3,3.19-.35,4.03-2.5-.17-3.59-2.03-5.84-5.79-6.87-2.23,4.28,2.77,6.11,1.76,9.4l.02-.05Zm33.01-157.31c-5.79,3.61-6.4,9.1-6.95,14.74-.57,5.93-7.15,9.72-6.5,17.73,11.18-9.07,11.94-20.99,13.43-32.47h.02Zm-7.02,166.43c12.04,16.81,15.06,18.62,28.56,16.69-11.4-3.09-16.79-12.61-28.56-16.69Zm-4.92-171.03c.42-3.44,1.19-6.48-4.13-4.18-.07,2.55,1.41,3.56,4.13,4.18Zm2.1,1.71c-1.04.72-1.09,1.46-.05,2.23,1.09-.72,1.04-1.48.05-2.23Z" fill="#f19aa5" stroke-width="0"></path><path d="m288.67,566.79l-1.04,11.08c0,2.52,0,2.2.69,6.73.27,43.2.62,86.42.82,129.62.17,36.99-.99,74.06.59,111,1.78,41.81,1.51,83.63,2.82,125.44,1.51,48.66,2.05,97.42,1.61,146.16-.17,18,1.83,36.05,1.36,54.57-2.15,3.61-4.97,7-8.46,8.58-5.14.42-7.49-3.14-10.71-4.3-4.01-4.92-4.65-10.53-4.62-16.39.07-22.62.02-45.22.1-67.85.2-65.43.27-130.85.67-196.28.12-21.73,1.41-43.47,1.51-65.2.42-81.03.57-162.06.82-243.09v-9.52c.12-5.76.22-11.5.35-17.26,0-.32.05-.74.05-.96,0-.64.35-1.01.35-1.63,0-3.36-.05-6.38-.05-10.09s.67-6.6.67-10.01c.02-4.1-.3-4.82-.27-8.93,0-2.32.79-5.96.59-7.54l-.59-11.03v-41.27c.07-13.25.15-26.53.22-39.78v-2.32c-.05-11.62-.12-23.24-.17-34.84,0-.77,0-1.53.02-2.3,0-39.64-.05-79.25-.07-118.89,0-1.78.05-2.89.05-4.48l-.27-20.4c0-4.03-.02-5.86.05-9.52-.37-11.1-1.46-21.31-.54-32.02,2.89-3.36,0-8.06,2.67-11.6,3.68,2.72,3.93,6.5,3.83,10.63-.1,4.43.3,8.88.49,13.3.07,37.81-.32,75.61.32,113.4.77,44.31,2.5,88.6,3.71,132.88.57,20.92.96,41.84,1.46,62.78-.37,17.48-.74,34.94-1.06,50.47-1.73,4.77-7.59,2.32-7.07,7.17,2.97,1.66,5.74-2.4,8.38.72l.77,3.02-.02-.02Z" fill="#423839" stroke-width="0"></path><path d="m843.98,700.66c-1.93-.2-4.13.22-5.51-3.04,1.98-3.51,6.03-7.02,5.07-12.31,1.09-.07,2.18-.15,3.16-.22-.4-3.21-.74-6.18-1.09-9.12.15-3.16-.35-6.13-1.83-9.07-1.04-2.08-1.16-4.65,1.83-5.84,5.66,1.36,9.35-4.18,15.18-4.35,2.72,7.15,9.57,6.65,15.97,7.12-.67,2.6-1.19,4.52-1.68,6.43-4.25,1.68-2.62,5.07-2.3,8.06.57,5.66.77,11.52,6.82,14.24,5.76-.84,6.9-7.49,12.07-8.33,4.52,2.74,3.21,7.17,3.31,11.15-5.29,3.49-8.04,4.43-11.94,3.96-.2,1.09-.42,2.18-.62,3.29-8.38,2.65-12.68,10.36-19.04,15.53-.37.3,0,1.56.05,2.35-3.88,2.42-8.14,2.4-12.46,1.9-1.21-3.16.59-7.64-4.92-9.69-.62,4.57-2.05,8.78,3.41,11.32,5.61,4.01,12.07.17,17.93,1.93.42.69.84,1.41,1.34,2.25-.35,3.86-7.57,3.54-5.76,8.88,3.16,2.25,4.85-2.67,8.33-1.29,1.38,1.81,3.12,4.13,5.86,5.32,6.43,6.31,8.31-3.78,12.91-3.76,2.3,1.98,1.09,4.67,1.78,6.87-3.71,9.96-3.88,20.47-4.48,30.78-7.34,12.07-12.64,24.63-12.73,38.85-16.42-.02-32.84-.05-49.23-.1.25-7.22.49-14.42.77-21.64,9.92-12.04,13.5-26.46,15.5-41.47,2.7-5.49,4.82-11.08,3.14-19.83-4.9,7.34-5.27,13.35-6.28,19.11-3.54,13.06-6.85,26.16-14.66,37.56-1.88,2.74-3.29,5.76-1.95,9.25-.52,4.25-1.04,8.53-1.56,12.78-12.44-.3-24.85-.57-37.29-.87,1.31-5.19,6.6-9.57,3.56-17.31-4.6,5.84-6.82,10.93-6.28,17.11-17.73,1.51-35.46.96-53.21.37l-5.24-7.1c.3-1.19.57-2.37.94-3.91,13.43-1.76,25.25-8.16,37.29-13.85,4.77-2.25,7.29-6.87,8.46-11.62,4.82-19.9,16.27-35.26,32.61-46.86,4.6-3.26,5.19-9.49,12.56-12.14,9.49.62,20.5-2.15,31.45-5.29.45-.15.91-.22,1.41-.25,1.68,3.61,4.06,3.83,9.87.91,1.43-.32,2.92-.57,3.12-2.52-1.88-1.73-3.29-.87-4.6.82l-4.01.54c-3.68-3.16,3.76-5.27.67-8.58-2.87-1.41-5.24.37-7.71,1.66h.02Zm10.48,40.55c2.18,2.77,4.1,2.57,6.06.2-.87-2.67-2.65-2.18-4.08-2.45-.99-4.48-2.13-8.85-9.15-12.09,2.42,6.48,3.34,11.05,7.17,14.34h0Zm-65.3,33.53c-.1,3.12-3.88,6.28.37,10.39,2.1-3.59,4.25-6.26,3.19-10.16,1.48-8.58,1.76-17.14-.12-28.09-5.29,10.43-3.46,19.26-3.41,27.87h-.02Zm65.97-97.77c3.44,3.63,6.06,5.02,10.01,2.65-2.47-3.73-5.09-4.85-10.01-2.65Z" fill="#f19aa5" stroke-width="0"></path><path d="m336.86,298.58c8.18-3.63,16.15-7.37,25.17-9.32,26.58-5.79,55.59,11.23,64.46,38.82,6.95,21.56,5.37,42.36-11.08,59.54-18.12,18.94-40.03,26.26-65.65,17.83-6.92-2.27-13.3-6.26-18.42-11.79-1.04-3.49-2.5-6.97.15-10.68,1.73-1.93,5.66-.2,7.1-3.78.52-3.54-1.04-5.88-4.67-6.78-4.57,1.29-6.87,4.18-7.47,8.68-.37,2.74-2.55,2.65-4.65,2.32-5.42-7.94-9.03-16.42-8.43-26.31.25-4.08.37-8.21,0-12.26-1.19-12.46,1.58-23.54,10.63-32.61,4.77.62,6.03,3.71,5.22,7.86-.82,4.2.05,7.2,4.57,8.36,3.91-6.06,3.46-10.09-2.27-22.11-.37-2.7,2-3.66,2.67-5.56l.3-.32c.82-.64,1.63-1.29,2.45-1.9l-.07.02Z" fill="#412b2a" stroke-width="0"></path><path d="m524.46,997.77c-2.87,6.23-9.45,6.82-14.66,9.25-17.04,7.89-34.27,15.36-51.43,22.95-4.92,2.18-9.07,5.46-13.13,8.7-.52,7.02,1.81,13.33,3.29,19.56,2.3,9.69,2,18.99-2.4,27.55-8.09,15.68-11.6,32.91-18,49.13-.87,2.18-.3,5.12-3.49,5.88-5.27-1.24-8.75,2.7-12.96,4.4-3.02-.94-5.96-1.88-8.93-2.82,4.65-30.76,7.42-61.62,8.11-92.77.35-15.43,4.08-30.69,10.61-46.16,14.54-11.15,29.57-23.64,43.07-37.83,1.51-1.58,2.79-2.89,5.02-2.89,4.23,7.74,13.65,9.3,18.84,15.21,9.84,11.2,22.7,15.63,36,19.86h.05Z" fill="#ee6d7b" stroke-width="0"></path><path d="m898.48,717.79c5.64.64,9.94,4.25,13.65,7.74,10.29,9.64,23.14,14.37,36.45,21.22,3.07,6.28,5.42,13.87.87,21.31,1.71,7.02,3.96,13.13,5.54,19.46,1.81,7.2,3.54,15.28,12.02,18.87,2.42,1.04,2.25,4.13,1.46,6.65l-.67.1v.67c-1.19-.54-2.35-1.09-3.51-1.61-4.75-2.99-9.82-4.33-15.16-1.9-4.8,2.2-8.51.87-11.84-2.1-.05-8.88,4.75-16.69,2.97-25.52-1.46.64-2.5.77-2.77,1.29-3.56,6.65-1.85,14.47-4.28,21.24-4.01,2.45-9.77-2.32-12.26,3.63-3.44-.27-5.69,1.41-7.1,4.38-.87.77-1.71,1.53-2.57,2.3-1.36,1.14-2.74,2.27-4.1,3.39h-15.43c-1.85-6.01-7.64-4.01-12.17-5.19-1.51-13.97,6.45-24.7,12.66-36.27-1.48-10.14,3.71-19.76,2.55-30.02,1.24-9.89,2.47-19.78,3.71-29.67v.05Z" fill="#f19aa5" stroke-width="0"></path><path d="m922.81,847.48c.49,7.47-1.61,14.71-3.34,21.71-4.55,18.5-1.9,36.47,1.83,54.5,1.36,6.58.79,12.86.42,18.4-5.37,4.77-10.36,2.87-15.13,2.99-7.02-5.91-13.95-11.65-20.77-17.48-1.71-1.46-3.56-1.93-5.66-1.9-.82-4.15-1.61-8.28-2.42-12.44.25-.25.77-.57.72-.72-.17-.57-.52-1.11-.79-1.66,1.16-21.34-4.97-42.43-2.13-63.82,1.21-1.24,1.31-2.55.15-3.88.27-2.99.57-5.98.84-8.98,2.27-3.02.59-6.73,1.76-9.94h16.57c6.43,2.79,9.1,8.48,14.86,9.49,4.6,4.33,11.99,6.01,13.08,13.7l.02.02Z" fill="#f19aa5" stroke-width="0"></path><path d="m642.61,1047.05c3.98,12.64,3.86,25.25.35,38-1.14,4.13-3.14,6.43-7.54,6.21h0c-.15-1.38-.89-2.27-2.25-2.62-.1-.74-.25-1.46-.4-2.18.42-3.59-1.31-5.17-4.77-5.07-6.9-5.61-13.4-11.62-21.31-15.95-5.98-3.26-8.31-9.69-11.6-15.31-7.57-12.88-15.82-25.34-21.56-39.24,2.3-.25,4.6-.49,6.87-.74,9.87,2.27,19.29,5.98,28.58,9.89,3.91,1.63,7.84,1.98,11.87,2.47,2.52,12.41,10.29,20.13,21.81,24.5l-.05.02Z" fill="#ee6d7b" stroke-width="0"></path><path d="m509.85,688.69c1.76-5.37,6.7-8.01,9.4-11.57,6.78-2.65,12.61-.3,18.15.84,4.03-4.6-1.73-8.04-.02-13.15,5.56-8.23,15.11-5.81,23.54-6.28,3.46,1.51,5.61,3.88,7.34,7.27v14.54c-1.61,4.92-6.23,5.19-8.88,8.88-1.09,5.34-1.98,11.42,1.06,17.18,2.6,4.92,3.14,10.04,3.04,15.43-.15,9.4,4.4,18.37,2.65,27.92-5.27-2.1-8.88-7.42-15.03-7.81-1.71-2.79-4.52-1.46-6.9-1.83-.37-.62-.54-1.29-.54-2-.07-1.73-.96-2.62-2.7-2.7-1.88-1.09-2-3.16-2.72-4.9,1.61-.57,2.94-1.38,2.67-3.41-.96-1.63-2.6-1.73-4.23-1.78.22-1.66.47-3.29.69-4.95,2.62-.27,4.33-1.38,3.86-4.35-.47-3.12-2.87-2.97-5.17-2.89l-4.6-2.67-.17-2.74c.07-.82.3-1.58.62-2.32,3.34-5.86,2.94-7.47-2.47-9.89-.96,0-1.93.02-2.89.05l.12.1c-2.97-8.7-9.72-8.28-16.81-6.97v.02Zm31.87-10.06c2.42,4.27,5.65,5.91,9.67,4.92-2.08-4.01-4.87-5.88-9.67-4.92Z" fill="#ee6d7b" stroke-width="0"></path><path d="m627.82,1122.54c.35-2.62-.05-5.32,3.36-6.85,3.21-1.43,5.76-4.1,7.15-7.57,6.9,11.32,15.08,21.39,27.64,27.42,2.05-.79,4.3-1.66,6.53-2.5,3.61,1.76,2.05,5.29,2.72,8.06l.27,4.4c-2.47.47-5.46-.84-7.22,1.93-.59,2.32,1.43,3.56,1.85,5.37-13.95-1.04-27.62,2.45-41.49,2.72-1.98.02-4.15.47-5.84,1.43-11.75,6.78-23.81,7.57-36.94,1.88-2.87-2.23-2.74-5.74-1.56-10.06,1.43-1.36,2.94-3.96,5.02-4.55,10.41-2.87,18.32-9.62,26.66-15.85,1.88-1.41,4.48-1.81,6.75-2.7.84,2.08,2.5,2.77,4.6,2.74,7.71,1.26,13.5,9.15,22.85,6.95-6.78-5.88-14.02-9.35-22.2-10.85.1-.67.05-1.34-.17-1.98h.02Z" fill="#f19aa5" stroke-width="0"></path><path d="m849.25,654.94c-1.38-2.97-1.06-5.54,2.03-7.76,3.19-1.88,6.7-.79,10.61.47,1.36-2.4,2.74-4.85,4.52-7.96,4.82-1.29,10.76-1.46,14.81-5.56,5.46.89,9.32,4.08,13.7,5.91,2.35,3.46,4.62,6.82,7.34,10.83-.77,8.51.89,16.76,7.05,24.31,5.27,6.45,2.6,14.93,3.04,22.58-2.92,6.11-8.06,8.98-14.32,10.31-2.5-2.77-3.34-6.01-2.77-9.67,7.22-9.03,5.56-14.91-5.27-19.24-4.85.37-5.27,7.57-10.78,6.6-2.05-2.18-.89-5.71-3.41-7.59-.02-1.36-.05-2.74-.07-4.1,6.9-4.35,5.37-11.25,6.33-17.43-5.54-1.81-9,4.15-13.15,1.9-4.45-1.31-4.1-6.75-8.88-7.71-3.24,1.24-7.02,2.67-10.78,4.1v.02Z" fill="#f19aa5" stroke-width="0"></path><path d="m944.42,848.4c-1.38,8.33,1.9,16.2,2.99,24.21.99,7.29,1.29,14.59,2.05,21.96,3.12,7.39,8.01,13.33,15.23,17.16,5.93,3.14,9.05,9.35,14.14,13.28,5.56,4.25,4.13,12.29,9.64,15.63.07,1.48.2,2.32.15,3.14-.96,14.86.74,29.38,6.31,43.22,2.1,5.24.91,9.59-1.88,13.87-.99,1.51-2.7,1.63-5.74.62-3.44-19.53-4.15-40.18-8.68-60.26-2.77-5.91-10.34-8.98-9.62-17.61-9.25.42-12.21-7.64-18.17-11.42-6.35-4.03-5.44-12.44-11.08-16.44v-33.43c-5.88-3.29-2.72-13.13-10.98-15.55.74-3.24-3.76-4.15-3.19-7.39,1.29-1.95,1.9-4.25,1.73-6.73l.15-3.12c3.71-.89,4.65,1.83,5.79,4.38,1.31,2.92,2.62,5.84,6.63,5.56-.07.54-.1,1.09-.05,1.63-.07,3.46,5.54,3.39,4.57,7.39v-.1Z" fill="#5085af" stroke-width="0"></path><path d="m334.12,300.81c-.67,1.9-3.04,2.87-2.67,5.56,5.74,12.04,6.18,16.05,2.27,22.11-4.52-1.16-5.39-4.15-4.57-8.36.82-4.18-.45-7.24-5.22-7.86,1.95-3.61-1.04-6.65-1.24-9.49-1.16-15.9-6.06-30.71-11.23-45.47-2.87-8.14-4.99-16.57-9.84-24.03-7.27-11.18-14.66-22.43-15.53-36.37-1.58-.22-2.79-.4-3.98-.54-.17-4.43-.59-8.88-.49-13.3.1-4.1-.15-7.89-3.83-10.63-2.67,3.54.22,8.23-2.67,11.6.74-9.69-5.61-18.08-5.14-27.69,5.44.87,10.88.77,16.32-.05.47,7.1-2.7,14.27.52,21.34,4.38,9.64,6.55,20.2,10.48,29.77,4.35,10.53,9.4,20.99,13.62,31.65,3.86,9.72,7.67,19.46,10.9,29.47,3.54,10.88,5.96,22.4,12.24,32.32h.05Zm-56.1-133.13c.89,1.34,1.78,1.58,2.7,0-.89-1.51-1.78-1.41-2.7,0Z" fill="#5085af" stroke-width="0"></path><path d="m321.78,383.44c2.1.3,4.28.42,4.65-2.32.59-4.52,2.89-7.39,7.47-8.68,3.63.89,5.19,3.21,4.67,6.78-1.43,3.59-5.37,1.85-7.1,3.78-2.65,3.71-1.19,7.2-.15,10.68-7.89.45-3.66,10.24-9.49,12.29,1.14,10.43-8.48,18.72-5.37,29.77-5.19,5.04-5.42,11.57-5.24,18.2.3,11.87-.57,23.49-3.73,35.09-1.58,5.76-.2,12.24-.91,18.32-2.03,17.33-2.99,35.06-14.19,49.16-1.16,4.18,2.42,6.5,2.42,9.82-.37.47-.79.91-1.26,1.31-1.61-.2-3.24-.4-4.85-.59-.3-1.16-.59-2.32-.82-3.24-2.62-3.12-10.76,2.42-13.72.77-.49-4.85,10.71-3.91,12.44-8.65.32-15.53.69-33.01,1.06-50.47-.12,5.81-.2,9.94-.32,15.23-.2,9.1-.59,19.01-.59,28.04,2.99-.1,6.38-1.61,6.68-2.74,3.68-14.12,7.57-28.21,8.01-42.95.49-16.72-1.68-33.63,2.77-50.07,1.83-6.8,2.37-13.65,2.67-21.76,7.37-4.33,3.66-12.54,5.14-19.29,6.16-8.56,8.88-18.15,9.72-28.36l.05-.1Z" fill="#5085af" stroke-width="0"></path><path d="m226.9,1140.57c12.29,4.45,24.87,8.46,32.56,20.3-2.32,5.17-7.44,5.66-11.67,7.22-5.84-.54-10.93-4.72-16.96-1.88-.15,1.09-.3,2.27-.45,3.44-3.78-.35-6.5-2.7-9.57-4.62-2.99-1.9-6.58-4.08-9.89-4.06-12.66.07-22.82-5.91-32.99-12.19h12.91c1.36,1.56,2.35,2.7,3.26,3.73,8.95-2.5,16.94-6.18,23.09-13.11,3.41.4,6.55.79,9.72,1.16h-.02Z" fill="#eb656c" stroke-width="0"></path><path d="m424.59,1142.84c1.83,6.95,3.66,13.9,5.59,21.17-22.92,4.72-45.45,1.31-68.05,5.51-2.27-.87-3.86-2.94-3.19-7.32,8.78-5.98,19.46-7.99,30.83-9.92,3.21-2.74,6.87-5.86,10.53-8.95,3.19,4.8,8.18,6.16,12.91,7.27,5.34-.99,7.71-5.32,11.37-7.76Z" fill="#ee6d7b" stroke-width="0"></path><path d="m862.5,1103.18c.35.74.91,1.46,1.04,2.23,1.83,12.76,4.28,25.39,7.24,37.04-10.9,15.5-12.68,16.49-23.86,13.3-2.6-11.45-8.43-22.38-8.65-34.79,4.45-.64,9.03-.79,12.96-3.39,3.76-4.8,7.52-9.59,11.28-14.42v.02Z" fill="#f19aa5" stroke-width="0"></path><path d="m507.08,695.69c-.25-2.13.05-3.98,2.3-4.97,5.29,3.26,11.1,4.72,17.28,4.95l-.12-.1c1.24,7-2.6,13.4-2.57,20.89,4.01,1.68,10.09,1.56,9.45,8.38-5.22,4.43,1.66,8.14,1.63,12.49-11.4.67-21.54-.54-30.98-5.66.05-1.19.1-2.4.17-3.59.05-1.51.1-3.02.15-4.52,2.23-2.15,6.08-2.62,6.68-6.31-2.18-3.61-5.37-.69-7.89-1.61-4.15-.52-5.74-4.1-9.05-7.07,4.06-2.87,7.67-5.44,11.3-8.01,2.3.15,4.72.62,5.88-2.18-.12-3.02-2.47-2.4-4.25-2.67l.02-.02Z" fill="#ee6d7b" stroke-width="0"></path><path d="m376.03,678.33c-7.86-5.66-14-13.5-23.32-17.51-3.41-1.48-6.58-5.04-6.73-9.72-.02-4.01-.07-8.04-.1-12.04,3.16-.89,4.77-4.52,9.05-4.87,3.16,1.01,7,2.23,11.23,3.59,4.97,12.41,16.94,20.37,21.76,33.13-5.42.17-7.32,5.96-11.92,7.42h.02Z" fill="#ee6d7b" stroke-width="0"></path><path d="m98.43,1187.87c-4.06-4.87-4.85-10.58-4.6-16.72.25-6.01,0-12.04,0-18.05,7.15-2.77,13.92-8.63,22.08-2.52,4.65,11.15,9.77,22.2,6.4,34.81-4.7-4.77-7.47,3.26-11.42,1.58-4.25,1.56-8.7-4.67-12.46.89Z" fill="#eb656c" stroke-width="0"></path><path d="m944.42,848.4c.96-4.01-4.67-3.93-4.57-7.39,2.03.4,4.62,2.15,4.7-2l-.07.05c2.18.54,3.16-.1,2.45-2.45l.1-.1c10.04-3.91,11.87-8.9,7.24-19.63,2.57-5.49,6.53-.82,9.79-1.36,2.4,2.52,5.39,3.51,8.8,3.36,5.79,1.38,6.68,6.6,8.95,11.42-4.25,7.86-4.95,18.03-14.86,23.29h-13.06c-2.87-.42-4.92-5.37-9.49-5.22l.02.02Z" fill="#f19aa5" stroke-width="0"></path><path d="m400.66,727.86c3.93,1.34,9.03,1.09,9.72,6.95-1.21,7.37,4.77,11.77,7.44,17.48,6.45,13.8,16.07,25.39,28.53,34.05,6.78,4.7,10.56,10.83,13.65,17.93,1.46,3.34,3.29,6.5,4.95,9.77l-1.41,9.94c-1.83-3.46-5.04-3.29-8.26-3.14-.15-.77-.32-1.53-.52-2.3,4.06-4.33-.79-8.26-.07-14.04-9.35-8.85-18.99-18.57-29.33-27.52-6.5-5.64-11.42-12.54-13.97-20.08-2.15-6.33-6.7-9.74-10.76-15.11v-13.95l.02.02Z" fill="#5085af" stroke-width="0"></path><path d="m113.14,711.04c-4.43-.72-4.85-6.08-8.41-6.7-1.93-5.74-.37-10.04,2.45-14.07,1.78-.27,3.73-.32,3.88-3.12-.69-.57-1.51-1.21-2.32-1.88.02-.77.2-1.48.49-2.2,3.14.25,4.4-1.43,4.45-4.33,5.91-13.6,18.47-16.81,31.13-19.21,3.54-.67,8.23.62,8.48,6.21-.2,1.19-.42,2.37-.69,4.06-7.52,1.24-15.13,2.57-20.62,7.71-9,4.01-3.21,13.85-8.11,19.21-3.24,1.14-5.59-2.45-8.78-.49-1.85,1.78-3.04,4.28-3.59,7.05.84,2.4,1.63,4.67,2.42,6.97l-.74.77-.05.02Z" fill="#eb656c" stroke-width="0"></path><path d="m345.89,639.07c.02,4.01.07,8.04.1,12.04-7.32-1.16-11.87-6.68-13.95-12.46-4.67-13.01-13.18-24.11-17.33-37.21-1.61-5.09-7.24-5.46-9.77-10.06-4.25-7.74-12.98-17.61-15.21-26.28.47-.4,2.42-1.76,2.79-2.25,1.58.42,5.37,3.19,6.95,4.7,6.16,9.54,12.04,19.06,18.82,28.11,7.12,9.52,12.54,20.33,17.88,31.06,2.32,4.67,3.19,10.85,9.72,12.34v.02Z" fill="#5085af" stroke-width="0"></path><path d="m504.09,731.67c9.45,5.12,19.58,6.33,30.98,5.66,0-4.35-6.85-8.06-1.63-12.49l.79.64c.47,2.37,2,3.91,4.03,5.04.72,1.73.84,3.81,2.72,4.9.89.89,1.81,1.78,2.7,2.7,0,.72.15,1.38.54,2,.05,2.03.02,4.03,2.62,4.67,2.52.62,3.68-.62,4.28-2.84,6.16.4,9.77,5.71,15.03,7.81,2.74,4.4,9.12,6.18,9.15,12.59-9.17-1.66-13.75-9.92-20.92-14.64-3.59-.25-6.6,3.44-11.23,1.21-2.15-1.34-2.79-4.82-5.04-7.52-8.14,1.85-16.39,1.36-24.75-.87-.52,1.31-.94,2.37-1.36,3.41.2,2.32-.77,4.75.67,6.97.64-.45,1.24-.87,1.83-1.29,5.81,5.46-2.79,9.07-.15,15.38-9.82-4.6-10.24-11.62-10.19-18.84-.27-2.97,1.46-6.48-2.27-8.51-2.35-.91-2.47-3.31-3.41-5.17,1.88-.27,3.78-.54,5.66-.82l-.05-.02Z" fill="#7e272b" stroke-width="0"></path><path d="m595.11,824.27c-1.95-1.04-1.98-2.82-1.81-4.67,4.06.69,4.95-3.83,8.85-5.19,11.23,2.23,22.43-2.08,33.65-5.24,10.48-2.97,20.99-2.03,31.55-2.42,5.81-.22,12.21,2.05,17.06-3.71.57-.69,3.71.77,5.64,1.24,0,5.02,4.67,9.72.94,14.98-.77-1.61-.52-3.73-2.52-4.7-2.25,1.76-1.04,4.15-1.11,6.31l-.54,1.01c-4.55-2-7.05-6.48-10.71-9.47-16.17-1.16-31.7-.57-47.18,4.77-10.85,3.73-21.81,8.48-33.88,7.15l.05-.05Z" fill="#5085af" stroke-width="0"></path><path d="m186.01,905.67c-4.23.94-3.86,6.16-5.81,7.07-2.47,1.48-3.49,2.15-4.57,2.74-12.04,6.65-24.23,5.12-36.42.49-7.81-2.94-15.95-3.61-24.16-3.14-7.86.42-15.55.2-23.47-3.34-2.62-2.1-5.56-4.82-8.7-10.71,9.4,2.82,15.03,9.32,24.06,9.35,17.98-6.48,34.64,4.6,52.54,7.29,11.79-1.71,19.95-8.11,23.96-19.63.59-1.68,2.35-2.15,4.01-2.42,2.35,4.43-2.42,8.01-1.46,12.29h.02Z" fill="#7e272b" stroke-width="0"></path><path d="m226.9,1140.57c-3.14-.37-6.31-.74-9.72-1.16-6.13,6.92-14.12,10.61-23.09,13.11-.91-1.04-1.9-2.18-3.26-3.73h-12.91c-1.43-.49-2.89-.99-5.49-1.88,2.6-.84,4.03-1.31,5.46-1.78h12.17c8.43-4.08,17.88-8.65,27.72-13.45-5.71-13.85-18.67-20.05-29.87-28.86,3.36-2.84,5.56-1.31,7.99-.1,6.55,3.31,11.65,9.03,18.74,11.42.77.72,1.51,1.43,2.27,2.15,3.29,8.11,8.51,15.43,9.94,24.28h.05Z" fill="#7e272b" stroke-width="0"></path><path d="m463.56,824.02l1.41-9.94c2.35.4,4.7.79,6.87,1.16,4.87,6.13,7.17,14.12,15.23,16.79,0,.57-.02,1.14,0,1.71-1.31,7.67.54,15.11,1.36,22.65-6.48-1.66-8.85-8.26-14.76-11.99-4.23-.94-9.72-1.04-14.02-4.57,1.71-.27,3.44-.57,5.14-.84,5.07-2.55,2.4-5.76,1.04-9.15-4.38-.32-9.25-3.24-10.68,3.86-5.98.27-6.33-2.65-3.96-7.05,4.18-.64,9.2,2.67,12.39-2.62h-.02Zm13.28,12.78c-3.36.22-5.42.79-5.76,5.17,2.2-1.9,5.86.74,5.76-5.17Z" fill="#ee6d7b" stroke-width="0"></path><path d="m286.35,156.23c-5.44.82-10.88.94-16.32.05-4.57-6.9-2.87-13.18,1.98-19.46,4.52-1.85,9.25-1.88,14.44-.45,2.99,6.68,7.07,13.18-.12,19.86h.02Z" fill="#49413f" stroke-width="0"></path><path d="m524.46,997.77c-13.3-4.23-26.16-8.68-36-19.86-5.19-5.91-14.64-7.47-18.84-15.21,1.09-3.39-4.35-8.51,2.72-10.34,1.78,4.08,3.56,8.16,5.54,12.68,9.37,4.75,16.67,13.5,27.84,16.25-.12.49-.4,1.58-.77,2.97,6.11,2.72,12.26,5.64,18.57,8.23,2.35.96,2.57,2.84,3.09,4.75-.74.05-1.46.22-2.15.49v.02Z" fill="#7e272b" stroke-width="0"></path><path d="m875.55,847.06c-2.84,21.39,3.29,42.48,2.13,63.82-.12.79-.1,1.58.07,2.37.82,4.15,1.61,8.28,2.42,12.44-.25.79-.64,1.51-1.19,2.13-.96.02-1.95.05-2.92.07-1.85-7.69.25-16-3.61-23.39-4.01-1.63-7.96-.57-11.89-.22-.05-1.16-.12-2.32-.17-3.51l1.01-.27,1.04.1c1.26-.07,2.52-.15,3.78-.22,1.9-.49,3.83-.99,5.64-1.46,1.85-5.14.12-10.06.64-14.91-.07-3.39,1.58-6.97-1.09-10.09-1.61-7.59-1.81-15.18.17-22.75,2.05-2.27,1.04-4.95.96-7.49.2-3.16.4-6.35.59-9.52,1.14,0,2.27.05,3.41.07-.27,2.99-.57,5.98-.84,8.98-.05,1.29-.1,2.6-.15,3.88l-.02-.02Z" fill="#160000" stroke-width="0"></path><path d="m691.05,819.2c3.73-5.24-.94-9.96-.94-14.98,1.68.25,3.39.47,5.07.72.27,5.46-2.1,11.47,3.19,17.14,1.9-6.23,1.29-11.32.62-16.47-1.38-.3-2.55-.54-3.71-.77-.47-2.27-.79-4.5,2.23-5.32,3.66,1.31,7.32,2.65,11.7,4.23-1.01,4.28,2.1,8.98-1.95,13.06-.1-3.88,1.51-8.04-1.43-12.21-2.32,4.35-1.61,8.31-1.63,12.17-3.36,3.93.2,4.2,2.7,5.02-.42,1.63,3.61,3.19.07,4.87-4.65.45-4.99,3.59-4.55,7.22-6.18.22-9.27-5.93-14.61-6.21-.4-2.6-.64-4.23-.91-5.84l.54-1.01c1.78.77,2.74-.3,3.63-1.61h0Z" fill="#f19aa5" stroke-width="0"></path><path d="m113.88,710.28c-.79-2.27-1.58-4.57-2.42-6.97.54-2.77,1.73-5.27,3.59-7.05,3.19-1.95,5.54,1.61,8.78.49,4.9-5.37-.87-15.21,8.11-19.21,5.49-5.17,13.13-6.48,20.62-7.71.3-1.68.49-2.87.69-4.06,1.21-.05,2.42-.1,3.63-.12-.2,1.31.3,1.9,1.63,1.61-1.26,2.84-2.5,5.71-3.76,8.56-1.63,0-3.29-.12-4.92-.02-13.53.82-15.82,2.87-18.94,16-.64,2.74-1.88,5.34-2.7,7.59-3.61,2.82-7.76.45-10.93,2.37-.72,1.29-.42,2.3,0,3.51,1.34,4.13,7.44,1.19,8.58,5.79-4.4,4.3-8.18,1.61-11.99-.74l.02-.02Z" fill="#7e272b" stroke-width="0"></path><path d="m895.29,698.41c-.57,3.66.25,6.9,2.77,9.67,1.61,3.16-.27,6.5.45,9.72-1.24,9.89-2.47,19.78-3.71,29.67-1.61-.49-2.3-1.81-2.87-3.24-.69-2.2.54-4.87-1.78-6.87-4.6,0-6.48,10.06-12.91,3.76.17-1.14.35-2.25.52-3.39,7.27.59,7.76-6.4,11.28-10.01,6.53-1.61,1.14-4.87,1.04-7.42,4.65-2.6,6.16-6.08,3.51-11.1-2.52-4.8-6.03-6.06-10.88-3.66-.07-.96-.17-1.95-.25-2.92.2-1.09.42-2.2.62-3.29,3.91.45,6.68-.47,11.94-3.96.1,1.01.2,2.03.3,3.04h-.02Z" fill="#160000" stroke-width="0"></path><path d="m670.15,1152.81c-.45-1.81-2.45-3.04-1.85-5.37,1.73-2.77,4.75-1.46,7.22-1.93,3.59-.17,7.17-.37,9.32-.47,4.7-2.74,8.14-4.75,11.57-6.75,6.16,1.09.99,7.89,5.64,9.17-2.08,3.46-4.9,4.25-7.34,5.51-7.42.07-14.84.12-22.23.2-.77-.07-1.53-.2-2.27-.37h-.05Z" fill="#ee6d7b" stroke-width="0"></path><path d="m672.5,1133.05c-2.23.87-4.45,1.71-6.53,2.5-12.56-6.06-20.75-16.12-27.64-27.42-.17-1.9-.12-3.71,2.08-4.55.91.79,2.2,1.38,2.65,2.37,4.85,10.71,12.83,18.4,23.56,24.38,1.68-1.16,3.93-2.74,6.18-4.33,2.05-.3,3.68-3.96,6.23-.82.37,4.77-5.04,4.7-6.55,7.84l.02.02Z" fill="#160000" stroke-width="0"></path><path d="m37.38,567.09c-1.19,7.27-9.77,6.38-12.34,12.19-7.07-3.24-6.16-10.63-9.74-15.18-.22-2.13-.2-4.08,1.95-4.01,5.02,1.09,3.91,5.93,7.49,9.05v-11.72c.59-.54,1.29-.94,2.05-1.19,4.95,2.77.59,8.98,4.38,12.39,2.67-3.88-1.58-9.42,3.59-12.26,3.02,3.04,2.42,6.97,2.62,10.73h0Z" fill="#7e272b" stroke-width="0"></path><path d="m672.5,1133.05c1.51-3.16,6.92-3.09,6.55-7.84-2.55-3.14-4.18.49-6.23.82.42-3.86-2.84-9.4,4.6-10.01,5.69,4.9,10.29,10.78,15.01,16.59-2.6,2.45-5.17,4.87-7.99,7.54-2.94.32-6.06.64-9.17.99-.67-2.77.89-6.28-2.72-8.06l-.05-.02Z" fill="#ee6d7b" stroke-width="0"></path><path d="m849.25,654.94c3.78-1.43,7.57-2.87,10.78-4.1,4.77.96,4.43,6.4,8.88,7.71,4.15,2.25,7.62-3.73,13.15-1.9-.96,6.18.54,13.11-6.33,17.43-.22-1.26-.42-2.55-.64-3.81.49-1.93,1.01-3.86,1.68-6.43-6.4-.49-13.23,0-15.97-7.12-5.86.17-9.52,5.71-15.18,4.35-.77-3.21,1.31-4.75,3.63-6.11v-.02Z" fill="#160000" stroke-width="0"></path><path d="m148.52,988.01c-1.43-.89-2.92-2.03-2.57-3.78,2.77-14.42,5.69-28.78,9.64-43.02,4.28,7.94,1.14,15.08-1.11,22.65-2.18,7.32-2.74,15.11-4.01,22.7-.59.54-1.24,1.04-1.93,1.46h-.02Z" fill="#7e272b" stroke-width="0"></path><path d="m706.85,821.77c-2.47-.84-6.03-1.09-2.7-5.02,1.01,0,2.05.02,3.07.05,4.06-4.08.91-8.78,1.95-13.06-4.38-1.58-8.04-2.89-11.7-4.23.42-.62.91-1.83,1.24-1.78,7.76,1.11,15.85.47,23.19,4.03l5.24,7.1c-1.61,4.2-3.51.35-5.29.2-1.71-2.7-3.66-5.14-7.1-6.26-1.04,5.54-2.05,10.98-3.09,16.39-1.61.87-3.24,1.73-4.85,2.57h.02Z" fill="#160000" stroke-width="0"></path><path d="m230.37,1169.67c.15-1.16.32-2.35.45-3.44,6.03-2.87,11.13,1.34,16.96,1.88,4.23-1.58,9.35-2.05,11.67-7.22h4.03c.07,6.48-3.68,9.77-8.98,11.94-7.67,1.56-14.76-2.42-22.28-2.32-.67-.15-1.29-.42-1.85-.82v-.02Z" fill="#7e272b" stroke-width="0"></path><path d="m780.78,1071.56c.99-.64,1.98-1.31,3.44-2.25,8.09,6.87,13.9,15.8,21.04,23.42,1.56,1.66.82,3.86.77,5.86-10.34-7.22-17.38-17.51-25.25-27.03h0Z" fill="#160000" stroke-width="0"></path><path d="m24.74,557.42v11.72c-3.59-3.12-2.47-7.99-7.49-9.05-2.15-.07-2.18,1.88-1.95,4.01-.45.42-.89.87-1.34,1.31-2.97.35-5.07-4.85-8.51-1.43-1.01,3.19,3.78,4.08,2.65,7.39-1.95.22-3.93.42-5.91.64-3.34-2.92-1.81-6.78-2.03-10.43,7.57-5.29,16.2-4.06,24.6-4.15h-.02Z" fill="#eb656c" stroke-width="0"></path><path d="m927.33,832.55c.17,2.47-.45,4.75-1.73,6.73-.57,3.26,3.93,4.15,3.19,7.39-1.88,1.09-3.86,1.46-5.98.79-1.09-7.69-8.46-9.37-13.08-13.7-.62-2-3.81-3.31-1.51-6.21,1.36.45,2.74.91,4.13,1.38,1.06,1.56,1.95,3.34,4.1,3.68,1.43-2.4,2.7-4.9,5.74-5.56.54,1.36,1.63,2,3.04,2.25-.79,2.35-5.54,1.78-4.55,5.71,2.84.17,4.8-1.06,6.65-2.5v.02Z" fill="#160000" stroke-width="0"></path><path d="m862.5,1103.18c-3.76,4.8-7.52,9.62-11.28,14.42-3.93,2.6-8.51,2.74-12.96,3.39-2.62-.59-4.75-1.63-4.5-4.87,4.75-.45,9.67.35,15.21-3.02,3.31-4.33,7.39-9.67,11.47-15.01,3.31.67,2.45,2.99,2.03,5.12l.02-.02Z" fill="#160000" stroke-width="0"></path><path d="m860.47,974.75c-.67-8.18,2.3-15.9,3.24-23.89.42-3.51,1.34-8.46,7.15-8.06-.32,2.5-.67,4.99-.99,7.47-2.94,3.54-2.97,7.74-2.82,11.99-1.11,4.72.62,10.95-6.58,12.46v.02Z" fill="#160000" stroke-width="0"></path><path d="m118.5,1190.12c-.27,2.79-.52,5.59-.77,8.21-3.96,2.03-7.62,1.71-11.65,1.56-3.49-2.42-7.57-4.65-6.7-10.29,6.33,1.29,12.71,1.51,19.11.52Z" fill="#eb656c" stroke-width="0"></path><path d="m376.03,678.33c4.6-1.48,6.5-7.27,11.92-7.42.69.84,1.36,1.68,2.05,2.55-3.83,5.96-11.08,9.89-10.9,18.32,0,.49-2.05,1.04-3.14,1.56-2.67-1.36-2.35-3.61-1.83-5.96.67-2.99,1.29-6.01,1.93-9.03l-.02-.02Z" fill="#7e272b" stroke-width="0"></path><path d="m167.66,702.76c-6.18-.25-8.11-5.86-10.88-8.18-3.29-5.61,1.56-8.43,1.71-12.29,4.8,5.96,8.33,13.82,9.2,20.5l-.02-.02Z" fill="#7e272b" stroke-width="0"></path><path d="m858.62,1096.28c-11.55-.49-17.43-9.87-25.72-15.6,7.54-2.08,11,5.02,16.86,6.53,2.1,3.86,9.49,2.57,8.85,9.1v-.02Z" fill="#160000" stroke-width="0"></path><path d="m115.91,1150.58c-8.16-6.11-14.93-.25-22.08,2.52h.02c-.2-1.66-1.04-2.45-2.77-1.9-1.56-.72-2.7-1.71-2.5-3.63,3.31,1.11,6.03.35,9-1.71,4.65-3.19,9.94-5.27,15.82-4.9,1.38,3.07,3.46,5.93,2.47,9.62h.02Z" fill="#7e272b" stroke-width="0"></path><path d="m204.85,568.87c2.77.52,5.56,1.04,8.68,1.63,2.15,5.51,1.21,11.1,1.11,16.17-2.23,2.94-4.95,1.78-7.22,2.32-1.06-5.54,2.74-11.72-2.18-16.76-.12-1.11-.27-2.23-.4-3.36Z" fill="#eb656c" stroke-width="0"></path><path d="m488.41,856.36c-.82-7.52-2.67-14.98-1.36-22.65,2.35.67,2.05,2.94,2.97,4.55,3.66,6.4.12,14.27,4.4,20.45-.77,3.44,2.05,7.74-2.45,10.31-3.83-3.46-2-8.56-3.59-12.66h.02Z" fill="#7e272b" stroke-width="0"></path><path d="m675.22,1141.11c3.12-.35,6.23-.67,9.17-.99,2.82-2.65,5.42-5.09,7.99-7.54,3.63.27,5.19,2.03,3.98,5.69-3.44,2-6.87,4.01-11.57,6.75-2.15.1-5.74.3-9.32.47l-.27-4.4.02.02Z" fill="#7e272b" stroke-width="0"></path><path d="m424.59,1142.84c-3.68,2.45-6.06,6.78-11.37,7.76-4.72-1.14-9.72-2.5-12.91-7.27l2.45-.96c2.97.94,5.91,1.85,8.93,2.82,4.2-1.71,7.71-5.64,12.96-4.4.12.69.12,1.38-.05,2.08v-.02Z" fill="#7e272b" stroke-width="0"></path><path d="m2.19,572.01c1.98-.22,3.98-.45,5.91-.64,1.14-3.31-3.66-4.2-2.65-7.39,3.46-3.41,5.54,1.78,8.51,1.43,2.4,4.62-.89,7.52-3.36,10.95-2.67-.64-5.39-1.26-8.09-1.9-.12-.82-.22-1.63-.35-2.45h.02Z" fill="#7e272b" stroke-width="0"></path><path d="m455.11,833.69c1.43-7.1,6.33-4.18,10.68-3.86,1.36,3.39,4.03,6.6-1.04,9.15-1.41-3.63-4.62-1.95-7.12-2.42-.84-.96-1.68-1.9-2.52-2.87Z" fill="#7e272b" stroke-width="0"></path><path d="m118.5,1190.12c-6.4.99-12.76.77-19.11-.52-.3-.59-.62-1.16-.96-1.73,3.76-5.56,8.18.67,12.46-.89,3.96,1.68,6.73-6.35,11.42-1.58-1.26,1.56-2.52,3.14-3.78,4.7l-.02.02Z" fill="#7e272b" stroke-width="0"></path><path d="m526.66,695.66c-6.18-.2-11.99-1.68-17.28-4.95-.02-.72.12-1.41.47-2.03,7.12-1.31,13.85-1.73,16.81,6.97Z" fill="#7e272b" stroke-width="0"></path><path d="m232.25,1170.49c7.52-.1,14.61,3.86,22.28,2.32-.37,2.25-1.93,3.36-4.45,4.28-3.71-.89-7.84-2.35-12.29-1.93-3.21.3-5.42-1.09-5.56-4.67h.02Z" fill="#eb656c" stroke-width="0"></path><path d="m183.06,683.45c3.09-.49,4.23-5.02,9.07-3.71-1.16,6.01-4.75,9.2-10.53,10.39-1.53-2.67.07-4.65,1.46-6.68Z" fill="#7e272b" stroke-width="0"></path><path d="m503.17,715.67c2.52.89,5.71-2,7.89,1.61-.57,3.68-4.45,4.15-6.68,6.31-.91-.1-1.85-.17-2.77-.27-3.91-3.44.82-5.12,1.53-7.62l.02-.02Z" fill="#7e272b" stroke-width="0"></path><path d="m843.98,700.66c2.47-1.29,4.85-3.07,7.71-1.66,3.09,3.31-4.35,5.39-.67,8.58-1.46.07-2.92.15-4.38.22-.47.02-.94.1-1.41.25,1.71-2.84-1.95-4.75-1.26-7.39Z" fill="#160000" stroke-width="0"></path><path d="m34.75,556.36c-5.17,2.84-.91,8.41-3.59,12.26-3.78-3.41.57-9.64-4.38-12.39,3.91-5.17,4.4-5.14,7.96.12h0Z" fill="#eb656c" stroke-width="0"></path><path d="m781.77,963.08c.15,3.36-2,5.93-3.12,8.88-1.14-.17-2.27-.32-3.39-.49-1.31-4.75,1.76-7.22,4.97-9.62.54.4,1.04.82,1.53,1.26v-.02Z" fill="#160000" stroke-width="0"></path><path d="m212.49,1012.16c-4.67-7.91-1.48-16.54-2.32-24.8,4.9,7.89,1.53,16.54,2.32,24.8Z" fill="#eb656c" stroke-width="0"></path><path d="m535.42,1001.38c2.77-3.26,3.36-7.24,3.81-11.28,4.13,4.65,2.52,9.17-.3,13.65-.3.4-.27.79,0,1.19-1.83-.54-3.51-1.24-3.54-3.59l.02.02Z" fill="#7e272b" stroke-width="0"></path><path d="m108.71,685.3c.82.64,1.63,1.31,2.32,1.88-.12,2.79-2.1,2.82-3.88,3.12-2.15-.37-4.7.69-6.43-1.95,1.66-3.59,5.46-1.76,7.99-3.02v-.02Z" fill="#7e272b" stroke-width="0"></path><path d="m672.43,1153.18c7.42-.07,14.84-.12,22.23-.2-7.84,3.51-13.6,3.56-22.23.2Z" fill="#f19aa5" stroke-width="0"></path><path d="m972.85,818.88c-3.41.15-6.4-.82-8.8-3.36.05-1.11.12-2.2.17-3.31,1.16.54,2.32,1.09,3.51,1.61.42.12.82.27,1.21.47,2.97.12,4.65,1.31,3.91,4.57v.02Z" fill="#160000" stroke-width="0"></path><path d="m463.56,824.02c-3.19,5.29-8.21,1.98-12.39,2.62.07-.64,0-1.24-.25-1.85,1.46-1.31,2.92-2.6,4.38-3.91,3.21-.15,6.43-.32,8.26,3.14Z" fill="#7e272b" stroke-width="0"></path><path d="m867.05,962.29c-.17-4.25-.12-8.46,2.82-11.99,3.83,5.09,3.39,7.02-2.82,11.99Z" fill="#f19aa5" stroke-width="0"></path><path d="m205.24,572.23c4.92,5.04,1.11,11.23,2.18,16.76-.82,1.68-1.98,1.38-2.13-.1-.4-4.06-.4-8.16-.54-12.21.17-1.48.35-2.97.49-4.43v-.02Z" fill="#412b2a" stroke-width="0"></path><path d="m214.37,571.09c5.24,5.37,1.19,11.94,2.3,17.83-.87,1.78-2.1,1.46-2.27-.12-.42-4.3-.42-8.65-.57-13.01.17-1.58.37-3.14.54-4.72v.02Z" fill="#412b2a" stroke-width="0"></path><path d="m209.27,567.66c6.03,6.18,1.36,13.75,2.67,20.55-1.01,2.05-2.45,1.71-2.62-.15-.49-4.97-.47-9.99-.67-14.98.2-1.81.42-3.63.62-5.44v.02Z" fill="#412b2a" stroke-width="0"></path><path d="m494.67,895.83c3.44,5.84,4.03,11.62-.27,17.33.1-5.79.2-11.55.27-17.33Z" fill="#f19aa5" stroke-width="0"></path><path d="m112.74,737.97c-2.03-1.01-1.38-2.7-1.06-4.3,2.45-.17,5.19.91,7-1.78-.15.67-.17,1.34-.1,2,.07,1.9.69,3.93-1.14,5.29-1.63-.42-3.16-.82-4.67-1.21h-.02Z" fill="#7e272b" stroke-width="0"></path><path d="m580.35,1010.19c-2.3.25-4.6.49-6.87.74-1.56-.52-3.12-1.04-4.67-1.56,5.12-5.29,11.3-1.09,16.91-1.9-.91,2.62-3.49,1.98-5.37,2.74v-.02Z" fill="#7e272b" stroke-width="0"></path><path d="m216.94,1116.29c-.77-.72-1.51-1.43-2.27-2.15.15-4.35.27-8.7.42-13.08,4.62,4.57,1.76,10.09,1.85,15.21v.02Z" fill="#eb656c" stroke-width="0"></path><path d="m153.86,1025.02c2.3-.15,4.13.52,4.1,3.16-.02,2.62-1.88,3.31-4.18,3.21-.82-2.13-.72-4.25.07-6.38Z" fill="#7e272b" stroke-width="0"></path><path d="m455.3,820.88c-1.46,1.31-2.92,2.6-4.38,3.91-1.53-.69-2.87-1.51-2.47-3.68,1.31-2.57,4.3-1.43,6.35-2.52.2.77.37,1.53.52,2.3h-.02Z" fill="#ee6d7b" stroke-width="0"></path><path d="m215.23,1074.03c.54-4.18-2.08-8.95,2.32-12.39-.67,4.15,1.93,8.93-2.32,12.39Z" fill="#eb656c" stroke-width="0"></path><path d="m845.59,675.93c.35,2.97.72,5.91,1.09,9.12-.99.07-2.08.15-3.16.22,1.63-2.92-2.74-7.15,2.08-9.35Z" fill="#160000" stroke-width="0"></path><path d="m627.33,1128.43c-2.1.05-3.76-.67-4.6-2.74.96-2.25,3.12-2.55,5.09-3.14.2.64.25,1.31.17,1.98-.22,1.29-.45,2.6-.64,3.88l-.02.02Z" fill="#160000" stroke-width="0"></path><path d="m627.94,1081.4c3.49-.1,5.19,1.48,4.77,5.07-3.34-.05-4.9-1.76-4.77-5.07Z" fill="#f19aa5" stroke-width="0"></path><path d="m113.68,678.78c-.07,2.89-1.31,4.6-4.45,4.33-1.04-4.06.45-5.49,4.45-4.33Z" fill="#7e272b" stroke-width="0"></path><path d="m507.08,695.69c1.78.27,8.16.15,8.28,3.16-1.16,2.82-7.64,1.85-9.94,1.71.54-1.63,1.09-3.24,1.63-4.87h.02Z" fill="#7e272b" stroke-width="0"></path><path d="m188.01,771.92c.52.42,1.14.62,1.81.59-.12,3.36,3.02,7.34-1.85,9.82-.17-1.51-.35-3.02-.52-4.52.2-1.95.37-3.93.57-5.88Z" fill="#7e272b" stroke-width="0"></path><path d="m274.82,557.29v9.52c-4.4-3.16-4.15-6.35,0-9.52Z" fill="#5085af" stroke-width="0"></path><path d="m217.29,1049.35c-3.21-1.93-2.13-4.92-1.88-7.69,3.16,1.93,1.98,4.95,1.88,7.69Z" fill="#eb656c" stroke-width="0"></path><path d="m202.87,955.12c-3.78-1.31-2.42-4.57-2.77-7.2,3.68,1.34,2.35,4.6,2.77,7.2Z" fill="#eb656c" stroke-width="0"></path><path d="m457.63,836.53c2.47.47,5.71-1.21,7.12,2.42-1.71.27-3.44.57-5.14.84-1.31-.69-2.99-1.16-1.98-3.26Z" fill="#412b2a" stroke-width="0"></path><path d="m876.07,927.9c.96-.02,1.95-.05,2.92-.07.72,1.51,1.14,2.89-1.11,3.44-.84-.99-2.77-1.41-1.83-3.36h.02Z" fill="#160000" stroke-width="0"></path><path d="m167.93,707.78c.07-.96.15-1.9.22-2.87.84.25,1.66.47,2.5.72,0,.77,0,1.56.05,2.32-.49.57-.99,1.14-1.48,1.73-.45-.62-.87-1.26-1.31-1.88l.02-.02Z" fill="#7e272b" stroke-width="0"></path><path d="m207.44,962.83c-2.32-.91-2.45-2.92-2.42-4.97,2.82.69,2.52,2.87,2.42,4.97Z" fill="#eb656c" stroke-width="0"></path><path d="m501.64,723.28c.91.1,1.85.17,2.77.27-.05,1.51-.1,3.02-.15,4.52-2.15-.91-2.47-2.79-2.62-4.8h0Z" fill="#eb656c" stroke-width="0"></path><path d="m633.14,1088.64c1.36.35,2.1,1.21,2.25,2.6-1.38-.32-2.2-1.14-2.25-2.6Z" fill="#f19aa5" stroke-width="0"></path><path d="m178.09,1091.24c.54.42,1.06.84,1.61,1.26-.57.4-1.11.79-1.68,1.21,0-.82.05-1.66.05-2.47h.02Z" fill="#ee6d7b" stroke-width="0"></path><path d="m336.86,298.58c-.82.64-1.63,1.29-2.45,1.9-.02-1.73.69-2.5,2.45-1.9Z" fill="#97aeb9" stroke-width="0"></path><path d="m158.54,667.25c-1.36.3-1.85-.3-1.63-1.61.54.54,1.09,1.06,1.63,1.61Z" fill="#eb656c" stroke-width="0"></path><path d="m276.01,369.3c0,.77,0,1.53-.02,2.3-.27-.54-.59-1.09-.74-1.66-.02-.12.49-.42.77-.64Z" fill="#97aeb9" stroke-width="0"></path><path d="m209.92,977.67c-1.31-.54-2.03-1.43-1.68-2.92,1.21.59,1.83,1.53,1.68,2.92Z" fill="#eb656c" stroke-width="0"></path><polygon points="114.25 1136.96 114.15 1137.08 114.55 1136.98 114.25 1136.96" fill="#7e272b" stroke-width="0"></polygon><path d="m968.95,814.3c-.4-.2-.79-.37-1.21-.47v-.67l.67-.1c.27.37.45.79.54,1.24Z" fill="#412b2a" stroke-width="0"></path><path d="m205.02,957.89c-1.38-.4-2.15-1.29-2.15-2.74,1.34.45,2.1,1.31,2.15,2.74Z" fill="#eb656c" stroke-width="0"></path><path d="m200.1,948c-1.46-.42-2.2-1.34-1.95-2.89,1.26.57,1.95,1.48,1.95,2.89Z" fill="#eb656c" stroke-width="0"></path><path d="m168.43,1064.06c1.34.4,2,1.31,2.03,2.7-1.29-.45-2.1-1.24-2.03-2.7Z" fill="#eb656c" stroke-width="0"></path><path d="m91.08,1151.23c1.73-.54,2.57.25,2.77,1.93-1.41.05-2.3-.62-2.77-1.93Z" fill="#7e272b" stroke-width="0"></path><path d="m276.16,406.44v2.32c-.3-.57-.62-1.11-.82-1.71-.02-.1.54-.4.84-.62h-.02Z" fill="#97aeb9" stroke-width="0"></path><path d="m161.13,770.29c-.1,4.06-1.04,8.01.89,12.09,3.56,7.57,4.67,15.75,3.68,23.98-2.13,17.7,4.55,33.8,8.48,50.42,1.68,7.1,4.97,13.95,3.41,22.2-4.08,5.24-7,12.04-12.68,17.31-17.26-20.52-16.22-43.69-11.97-67.43.89.07,1.76.12,2.65.2.05,9.42.84,18.92-.05,28.24-1.09,11.6,3.21,20.92,9,30.31,8.65-7.05,9.35-14.61,6.4-24.53-6.23-20.99-12.93-42.11-10.39-64.61.54-4.87.05-9.77-4.35-13.2-.4-2-.25-3.86.89-5.64,1.21-1.9,1.24-3.63-1.24-4.62l-.37-.57c1.04-2.13,2.25-4.08,4.43-5.24.42.35.84.72,1.24,1.11l-.02-.02Z" fill="#7e272b" stroke-width="0"></path><path d="m112.74,737.97c1.53.4,3.04.79,4.67,1.21,1.83-1.36,1.21-3.39,1.14-5.29.82-.35,1.61-.72,2.42-1.06-.47,6.5,3.61,10.61,7.74,14.69,1.04,1.26,2.05,2.52,3.09,3.76-.3,2.13-.62,4.25-.91,6.4-1.29,0-2.55.49-2.72,1.73-.27,1.88.89,2.92,2.77,3.07l-.1-.1c-.35,4.7,1.71,9.62-1.11,14.32-5.29-1.95-1.56-6.7-4.38-11.05-6.28-6.92-12.26-16-12.61-27.69v.02Zm12.78,15.85c-.25-.27-.47-.72-.74-.74-.27,0-.54.42-.82.64.37.27.74.54,1.11.82.15-.25.3-.49.45-.72Z" fill="#7e272b" stroke-width="0"></path><path d="m115.14,762.4c3.66,17.68-8.46,23.89-15.23,32.39-4.48,8.63,3.76,15.7,2.32,25.39-8.26-7.86-9.27-16.25-8.11-26.53,7.59-8.16,16.67-16.52,20.99-31.25h.02Z" fill="#7e272b" stroke-width="0"></path><path d="m130.89,757.7c.3-2.13.62-4.25.91-6.4,7.49,1.14,14.91,2.6,21.91,5.61l-.59.62c-4.43-1.46-4.3,4.18-7.44,4.75-1.95-3.68-5.02-4.45-9.15-3.81,1.58,2.5,1.56,5.49,4.75,5.79,1.51-.67,2.99-1.31,4.45-1.98.12,1.48-.12,3.07,1.19,4.15,1.48-.4,2.94-.79,4.38-1.16-1.16,4.23-.69,7.71,4.2,9.17l.37.57c-.67,1.41-1.81,2.18-3.29,2.52-8.93-2.62-14.71-9.77-21.73-15.13l.1.1c0-1.61-.02-3.21-.05-4.8Z" fill="#7e272b" stroke-width="0"></path><path d="m79.51,773.26c6.43-8.11,12.14-16.39,14.93-26.38.62-2.15,1.24-2.03,7.89-3.88-10.31,25.99-12.49,29.05-22.82,30.27h0Z" fill="#7e272b" stroke-width="0"></path><path d="m132.18,926.61c-3.81,13.23-10.78,24.45-17.95,36.08-1.34-3.12.43-9.46,5.29-19.04,3.24-6.43,6.38-12.88,12.66-17.06v.02Z" fill="#7e272b" stroke-width="0"></path><path d="m153.71,756.91c2.77,1.34,5.51,2.65,8.36,4.01,1.38-3.66-3.16-6.16-1.24-9.4.4-1.09,1.16-1.34,1.9-.49,1.85,2.1,3.59,4.3,5.37,6.45l-.1-.1c.77,3.54,1.53,7.1,2.3,10.61-2.47,3.39-6.33.79-9.17,2.27-.4-.4-.82-.74-1.24-1.11.47-4.65-2.2-6.18-6.26-6.35-.17-1.76-.35-3.51-.49-5.29l.59-.62-.02.02Z" fill="#7e272b" stroke-width="0"></path><path d="m82.95,737.82c-8.88,3.63-17.31,2.77-25.94-2.18,4.67-2.32,13.31-1.6,25.94,2.18Z" fill="#7e272b" stroke-width="0"></path><path d="m152.58,777.53c1.48-.35,2.62-1.11,3.29-2.52,2.5.99,2.47,2.72,1.24,4.62-1.14,1.78-1.31,3.63-.89,5.64-.2,14.59-.42,29.18-.62,43.79-.89-.07-1.76-.12-2.65-.2-.12-17.11-.25-34.22-.37-51.33Z" fill="#7e272b" stroke-width="0"></path><path d="m160.74,727.98c2.67-3.78,5.14-7.64,5.19-12.51,2.52-1.31,4.92-3.16,8.06-2.18-1.46,8.58-5.76,15.87-10.53,22.92-.3-1.78-1.09-3.09-3.09-3.26v.07c.12-1.68.25-3.36.37-5.02v-.02Z" fill="#7e272b" stroke-width="0"></path><path d="m160.74,727.98c-.12,1.68-.25,3.36-.35,5.02-9.4.74-17.01-2.99-24.97-9.64,9.92-1.53,16.72,6.68,25.32,4.62Z" fill="#7e272b" stroke-width="0"></path><path d="m188.01,771.92c-.2,1.95-.37,3.93-.57,5.88-1.34-2.47-3.09-4.8-3.91-7.42-2.13-6.8-3.86-13.7-6.03-21.59,5.93,4.9,8.43,10.73,10.51,23.09v.02Z" fill="#7e272b" stroke-width="0"></path><path d="m173.99,713.27c-3.14-.99-5.54.87-8.06,2.18-.87-2.23-2.55-2.97-4.85-2.84-3.51.17-6.45-.99-8.36-4.13.42-.4.82-.79,1.21-1.21,4.67.17,9.35.32,14.02.49.45.62.87,1.26,1.31,1.88.49-.57.99-1.14,1.48-1.73,1.98.27,3.93.57,5.74.82,1.24,3.02-.27,4.01-2.47,4.52l-.02.02Z" fill="#7e272b" stroke-width="0"></path><path d="m20.19,588.77c3.04,1.09,6.03,2.35,9.12,3.24,2.57.74,2.62,2.72,2.84,4.72l-.05.05c-5.71.47-11.35.77-13.11-6.6.37-.49.77-.96,1.19-1.43v.02Z" fill="#7e272b" stroke-width="0"></path><path d="m128.74,747.54c-4.13-4.08-8.21-8.18-7.74-14.69,9.89,1.06,7.34,8.65,7.74,14.69Z" fill="#7e272b" stroke-width="0"></path><path d="m168.13,757.48c0-1.53-.47-3.21,1.95-4.77,3.56,1.34,6.7,3.29,7.57,8.33-5.02,1.98-5.61-5.12-9.62-3.66l.1.1Z" fill="#7e272b" stroke-width="0"></path><path d="m217.83,581.72c1.26,0,2.5-.05,3.76-.05.74,2.55,2.3,5.27-1.36,7.1-3.81-1.41-2.4-4.48-2.4-7.05h0Z" fill="#eb656c" stroke-width="0"></path><path d="m148.6,677.86c-1.36,6.23-4.5,5.74-7.91,7.67.96-6.06,4.45-4.95,7.91-7.67Z" fill="#7e272b" stroke-width="0"></path><path d="m19,590.21c-1.46-.45-3.14-.57-3.49-2.65,2.15-1.98,3.46-.49,4.67,1.21-.42.45-.82.94-1.19,1.43Z" fill="#7e272b" stroke-width="0"></path><path d="m160.37,732.93c2,.17,2.79,1.51,3.09,3.26-4.4,2.08-2.57-1.71-3.09-3.26Z" fill="#7e272b" stroke-width="0"></path><path d="m159.08,745.88c.25,0,.54-.1.69,0,.59.47.45.99-.4,1.41-.07.05-.52-.45-.62-.72-.05-.17.2-.47.32-.69Z" fill="#7e272b" stroke-width="0"></path><polygon points="104.56 822.88 105.23 822.66 105.15 823.3 104.56 822.88" fill="#ee6d7b" stroke-width="0"></polygon><path d="m152.7,708.5c-.52-.57-1.04-1.16-1.56-1.73,1.24-1.51,1.98-.42,2.77.52-.4.42-.79.82-1.21,1.21h0Z" fill="#7e272b" stroke-width="0"></path><path d="m548.94,952.84c-.1-4.82-3.59-8.11-5.42-12.14-9.15-20.03-18.92-39.86-26.58-60.46-4.33-11.57-6.9-24.28-4.45-37.19,2.62,7.84,5.76,15.45,6.68,23.74.91,8.16,3.31,15.85,6.95,23.32,9.3,19.06,18.12,38.33,27.05,57.56.45.99.05,2.35.05,3.34-1.09,2.05-2.87,1.58-4.43,1.71l.15.15v-.02Z" fill="#7e272b" stroke-width="0"></path><path d="m564.57,988.57c2.55-10.58,9.79-18.59,15.18-27.64,2.67-4.33-.96-10.63,4.5-14.59,3.14,13.48-3.78,29.28-19.71,42.23h.02Z" fill="#7e272b" stroke-width="0"></path><path d="m626.48,1017.78c.17,1.09.32,2.18.52,3.46-2.27.49-4.23.91-6.21,1.34-4.03-.49-7.96-.84-11.87-2.47-9.3-3.91-18.69-7.62-28.58-9.89,1.88-.77,4.45-.12,5.37-2.74,3.12.05,6.23.12,9.35.17,2.89,2.82,6.5,4.08,10.34,4.92,5.93,6.13,13.92,4.06,21.09,5.22Z" fill="#7e272b" stroke-width="0"></path><path d="m538.93,1003.78c2.82-4.5,4.43-9.03.3-13.65-.89-12.26,4.77-23.54,4.99-34.67,1.43-2.62,3.24-2.23,4.72-2.62l-.15-.15c-2.05,16.96-4.13,33.9-6.21,51.08h-3.66Z" fill="#7e272b" stroke-width="0"></path><path d="m493.09,801.1c11.3,14.12,17.36,26.31,17.11,34.37-6.33-5.61-15.06-20.65-18.99-32.74.62-.54,1.26-1.09,1.88-1.63Z" fill="#7e272b" stroke-width="0"></path><path d="m487.08,832.01c3.24-1.85,2.25-4.99,2.37-7.79,1.19.22,2.37.45,4.3.82,1.51,11.13.32,22.45.67,33.68-4.3-6.18-.74-14.04-4.4-20.45-.91-1.61-.62-3.88-2.97-4.55v-1.71h.02Z" fill="#ee6d7b" stroke-width="0"></path><path d="m489.35,762.38c-7.44-6.95-11.87-15.23-12.49-27.59,7.17,6.58,7.2,15.01,12.19,20.42.4,2.37,1.14,4.75.3,7.17h0Z" fill="#7e272b" stroke-width="0"></path><path d="m427.63,735.18c2.35-3.73,4.87-7.29,9.96-10.09v15.36c-2.6.05-2.72-2.52-3.98-3.81-2.3,1.41-3.49,3.44-3.44,6.13-2.47-.87-2.84-3.07-3.24-5.22.22-.79.45-1.58.67-2.4l.02.02Z" fill="#7e272b" stroke-width="0"></path><path d="m494.54,764.77c6.65.64,4.6,4.92,4.3,9.4-4.4.3-8.7,2.55-9.35-4.2,1.63.07,2.89,2.72,5.17.42-.12-1.66-.27-3.51-.42-5.37l.32-.27-.02.02Z" fill="#ee6d7b" stroke-width="0"></path><path d="m495.43,749.05c-3.12-3.44-6.5-6.92-5.54-13.7,5.51,3.83,5.19,8.95,5.54,13.7Z" fill="#7e272b" stroke-width="0"></path><path d="m485.27,797.04c-1.06-3.21-1.95-6.43-.74-9.79,5.61,2.92,6.18,8.95,8.56,13.85-.62.54-1.26,1.09-1.88,1.63l-5.91-5.69h-.02Z" fill="#7e272b" stroke-width="0"></path><path d="m605.39,1012.56c-3.83-.84-7.44-2.1-10.34-4.92h16.81c-1.38,3.09-5.88,1.36-6.48,4.92h0Z" fill="#ee6d7b" stroke-width="0"></path><path d="m430.21,742.79c-.05-2.7,1.11-4.72,3.44-6.13,1.26,1.29,1.38,3.86,3.98,3.81l-2.97,5.93c-1.53-.32-3.07-.62-4.62-.94l.17-2.67h0Z" fill="#eb656c" stroke-width="0"></path><path d="m489.35,762.38c.84-2.42.1-4.8-.3-7.17,8.01-.35,4.52,5.88,5.49,9.57l-.32.27c-1.68-.67-2.42-3.02-4.72-2.55l-.17-.12h.02Z" fill="#ee6d7b" stroke-width="0"></path><path d="m489.5,762.5c2.27-.47,3.04,1.88,4.72,2.55.15,1.85.3,3.71.42,5.37-2.27,2.3-3.54-.35-5.17-.42.15-2.5-1.38-4.99,0-7.47l.02-.02Z" fill="#7e272b" stroke-width="0"></path><path d="m501.84,737.65c3.73,2.03,2,5.54,2.27,8.51-2.97-2.25-2.79-5.34-2.27-8.51Z" fill="#ee6d7b" stroke-width="0"></path><path d="m514.47,749.64c-.59.42-1.19.84-1.83,1.29-1.41-2.23-.45-4.65-.67-6.97,2.2,1.31,2.45,3.44,2.5,5.69h0Z" fill="#ee6d7b" stroke-width="0"></path><path d="m427.63,735.18c-.22.79-.45,1.58-.67,2.4-1.9-1.38-.84-1.95.67-2.4Z" fill="#eb656c" stroke-width="0"></path><path d="m860.37,900.75c.05,1.16.12,2.32.17,3.51-5.32,3.44-11.1,1.09-16.67,1.76-3.59-2.32-7-4.55-10.29-6.7-6.31-1.41-12.36-.22-19.24.62-7.49-5.14-13.77-13.15-23.44-16.05-3.12.54-4.06,3.88-6.63,5.14-.77-.74-1.53-1.48-2.3-2.23,5.42-5.56,10.11-12.29,16.44-16.44,9.49-6.23,14.59-15.13,19.19-23.98,1.46-6.18-.69-12.19,2.5-17.46,1.06.1,2.15.2,3.21.3,1.76,22.58-9.74,38.05-28.36,50.44,8.04,5.22,15.43,9.52,20.55,16.12,8.31-.62,16.05-2.03,23.54,1.06,3.41,1.41,5.32,5.19,9.17,5.93,4.03-.67,7.86-2.57,12.09-2.03h.05Z" fill="#160000" stroke-width="0"></path><path d="m734.44,913.18c-.49-2.27.59-3.81,2.4-4.97,5.02.59,10.43-.1,13.92-3.09,8.23-7.05,18.69-9.35,27.64-14.64.59.62,1.19,1.26,1.76,1.88-1.24,4.01-4.57,5.22-8.14,6.45-7.24,2.55-14.17,5.76-19.48,11.4-6.23,1.01-12.17,1.98-18.1,2.97h0Z" fill="#160000" stroke-width="0"></path><path d="m804.89,906.26c-1.51,11.5-2.25,23.39-13.43,32.47-.64-8.01,5.93-11.79,6.5-17.73.54-5.66,1.16-11.13,6.95-14.74h-.02Z" fill="#160000" stroke-width="0"></path><path d="m797.86,1072.69c11.75,4.08,17.16,13.6,28.56,16.69-13.48,1.93-16.52.12-28.56-16.69Z" fill="#160000" stroke-width="0"></path><path d="m784.26,950.22c.94-3.36-.4-6.03-1.88-9.05-1.98-4.06-5.46-7.67-5.76-13.23,5.24.77,5.44,5.07,7.2,7.76,1.81,2.82,4.65,3.91,6.97,4.5.94,4.55-.94,7.24-2.55,10.01h-3.98Z" fill="#160000" stroke-width="0"></path><path d="m771.85,1063.55c1.01-3.26-4.01-5.09-1.76-9.37,3.76,1.01,5.61,3.29,5.79,6.87-.84,2.15-2.5,2.2-4.03,2.5Z" fill="#160000" stroke-width="0"></path><path d="m784.26,950.22h3.98c-.05,3.12-1.19,5.71-3.66,7.67-1.06-.05-2.1-.1-3.16-.15.96-2.52,1.9-5.02,2.87-7.54l-.02.02Z" fill="#160000" stroke-width="0"></path><path d="m792.92,901.66c-2.72-.62-4.23-1.63-4.13-4.18,5.32-2.3,4.57.74,4.13,4.18Z" fill="#160000" stroke-width="0"></path><path d="m781.4,957.77c1.06.05,2.1.1,3.16.15-.54,1.93-.47,4.2-2.79,5.17-.49-.45-.99-.87-1.53-1.26l1.19-4.08-.02.02Z" fill="#160000" stroke-width="0"></path><path d="m784.31,889.05c-.82,1.81-2.27,2.82-4.15,3.31-.59-.62-1.19-1.26-1.76-1.88,1.21-1.24,2.42-2.45,3.61-3.68.77.74,1.53,1.48,2.3,2.23v.02Z" fill="#160000" stroke-width="0"></path><path d="m795.05,903.37c.99.74,1.04,1.51-.05,2.23-1.04-.77-.99-1.51.05-2.23Z" fill="#160000" stroke-width="0"></path><path d="m781.52,816.5c-2.82-3.41-6.38-1.56-9.72-1.43h-38.23c-1.83.91-2.65,4.7-6.23,3.93-.07-3.41-1.43-5.14-5.09-4.03-.12-1.98-.27-3.98-.4-5.96,1.78.15,3.68,4.01,5.29-.2,17.73.62,35.48,1.14,53.21-.37.91.07,1.83.15,2.72.22,12.44.3,24.85.57,37.29.87.42,1.51.84,3.02,1.29,4.57,1.48-.15,2.62-.25,3.78-.37,16.42.02,32.84.05,49.23.1,1.66,1.09,3.24.42,4.87-.12,4.52,1.19,10.31-.79,12.17,5.19h15.43c.3,2.13-.27,4.82,3.21,4.85l2.5.32c-.15.72-.15,1.41.07,2.1-.2.91-.37,1.85-.57,2.77-1.38-.47-2.79-.94-4.13-1.38-2.3,2.89.89,4.2,1.51,6.21-5.76-1.04-8.43-6.7-14.86-9.49h-16.57c-.37-1.43-.77-2.89-1.19-4.48-1.34.12-2.4.22-3.49.35-16.37-1.48-32.76-.54-49.13-.59-.79-.67-1.58-1.36-2.65-2.27-.67,1.53-1.24,2.84-1.81,4.15-12.71-2.84-25.59-4.25-38.55-4.95l.02.02Z" fill="#5085af" stroke-width="0"></path><path d="m879.54,813.73c-1.61.52-3.21,1.21-4.87.12.07-14.24,5.37-26.78,12.73-38.85.57-10.31.77-20.82,4.48-30.78.57,1.43,1.26,2.74,2.87,3.24,1.16,10.24-4.03,19.88-2.55,30.02-6.21,11.57-14.17,22.3-12.66,36.27v-.02Z" fill="#160000" stroke-width="0"></path><path d="m821.92,796.77c-1.31-3.51.07-6.5,1.95-9.25,7.81-11.37,11.15-24.5,14.66-37.56,1.04.22,2.1.47,3.14.69-2,15.01-5.61,29.42-15.5,41.47-3.02.07-2.32,3.59-4.28,4.65h.02Z" fill="#160000" stroke-width="0"></path><path d="m895.29,698.41c-.1-1.01-.2-2.03-.3-3.04-.1-4.01,1.21-8.43-3.31-11.15-5.14.84-6.28,7.49-12.07,8.33-6.08-2.7-6.26-8.56-6.82-14.24,1.01-.05,2-.1,3.02-.15,2.52,1.88,1.38,5.42,3.41,7.59,5.54.96,5.96-6.26,10.78-6.6,10.83,4.33,12.49,10.21,5.27,19.24l.02.02Z" fill="#160000" stroke-width="0"></path><path d="m877.71,737.72c-.17,1.14-.35,2.25-.52,3.39-2.74-1.16-4.48-3.49-5.86-5.32-3.49-1.38-5.14,3.54-8.33,1.29-1.81-5.34,5.42-5.02,5.76-8.88-.49-.84-.91-1.56-1.34-2.25.45-.64,1.04-1.16,1.71-1.53,7.81,2.99,14.47.02,20.87-4.13.12,2.52,5.49,5.79-1.04,7.42-4.9,1.11-9.79,2.2-14.79,3.34,1.31,2.5,2.4,4.6,3.51,6.68h.02Z" fill="#160000" stroke-width="0"></path><path d="m789.16,774.71c-.02-8.6-1.85-17.43,3.41-27.87,1.88,10.95,1.61,19.51.12,28.09-1.19-.07-2.37-.15-3.56-.22h.02Z" fill="#160000" stroke-width="0"></path><path d="m882.4,702.61c.07.96.17,1.95.25,2.92-6.21,4.48-9.07,12.98-17.56,14.76-.54.15-1.11.22-1.68.2-.02-.82-.42-2.05-.05-2.35,6.35-5.17,10.66-12.86,19.04-15.53h0Z" fill="#160000" stroke-width="0"></path><path d="m821.92,796.77c1.95-1.06,1.26-4.57,4.28-4.65-.25,7.22-.49,14.42-.77,21.64-1.16.12-2.3.22-3.78.37-.45-1.58-.87-3.07-1.29-4.57.52-4.25,1.04-8.53,1.56-12.78h0Z" fill="#160000" stroke-width="0"></path><path d="m783.1,808.69c-.91-.07-1.83-.15-2.72-.22-.54-6.16,1.68-11.25,6.28-17.11,3.04,7.74-2.25,12.12-3.56,17.31v.02Z" fill="#160000" stroke-width="0"></path><path d="m841.7,750.66c-1.04-.22-2.1-.47-3.14-.69,1.01-5.79,1.38-11.77,6.28-19.11,1.68,8.75-.45,14.32-3.14,19.83v-.02Z" fill="#160000" stroke-width="0"></path><path d="m863.44,720.49c.57,0,1.14-.05,1.68-.2l4.03,4.13c-.69.37-1.26.89-1.71,1.53-5.86-1.76-12.31,2.08-17.93-1.93.47-.57.96-1.11,1.48-1.63,4.33.52,8.58.52,12.46-1.9h-.02Z" fill="#160000" stroke-width="0"></path><path d="m854.46,741.21c-3.83-3.29-4.75-7.86-7.17-14.34,7.02,3.24,8.14,7.62,9.15,12.09l-1.98,2.25h0Z" fill="#160000" stroke-width="0"></path><path d="m849.49,724.03c-5.49-2.55-4.03-6.75-3.41-11.32,5.49,2.05,3.68,6.53,4.92,9.69-.52.52-1.01,1.06-1.48,1.63h-.02Z" fill="#160000" stroke-width="0"></path><path d="m789.16,774.71c1.19.07,2.37.15,3.56.22,1.06,3.91-1.09,6.58-3.19,10.16-4.23-4.1-.45-7.27-.37-10.39h0Z" fill="#160000" stroke-width="0"></path><path d="m855.13,676.95c4.95-2.2,7.54-1.06,10.01,2.65-3.98,2.37-6.6.99-10.01-2.65Z" fill="#160000" stroke-width="0"></path><path d="m846.65,707.8l4.38-.22,4.01-.54c.25.79.74,1.36,1.48,1.71-5.81,2.89-8.16,2.67-9.87-.91v-.02Z" fill="#160000" stroke-width="0"></path><path d="m875.8,678.16c-1.01.05-2,.1-3.02.15-.32-2.99-1.95-6.35,2.3-8.06.22,1.26.42,2.55.64,3.81.02,1.36.05,2.74.07,4.1Z" fill="#160000" stroke-width="0"></path><path d="m855.03,707.01c1.29-1.68,2.72-2.55,4.6-.82-.2,1.98-1.68,2.2-3.12,2.52-.74-.35-1.24-.91-1.48-1.71h0Z" fill="#160000" stroke-width="0"></path><path d="m856.44,738.94c1.43.27,3.21-.25,4.08,2.45-1.93,2.37-3.86,2.6-6.06-.2l1.98-2.25h0Z" fill="#160000" stroke-width="0"></path><path d="m964.22,812.2c-.05,1.11-.12,2.2-.17,3.31-3.24.54-7.22-4.15-9.79,1.36-1.51-.05-3.02-.1-4.52-.15-8.31-2.08-16.62-4.13-24.95-6.21-1.29-.54-2.6-1.11-3.88-1.66,2.5-5.96,8.23-1.19,12.26-3.63,2.42-6.78.69-14.59,4.28-21.24.27-.52,1.31-.62,2.77-1.29,1.78,8.83-3.02,16.64-2.97,25.52,3.34,2.94,7.05,4.3,11.84,2.1,5.32-2.45,10.39-1.11,15.16,1.9l-.02-.02Z" fill="#160000" stroke-width="0"></path><path d="m920.9,808.84c1.29.54,2.6,1.11,3.88,1.66-3.07,1.56-6.13,3.12-9.2,4.67-.59-.64-1.19-1.29-1.81-1.95,1.43-2.99,3.66-4.67,7.1-4.38h.02Z" fill="#160000" stroke-width="0"></path><path d="m910.34,823.8c-3.49-.02-2.92-2.72-3.21-4.85,1.36-1.14,2.74-2.27,4.1-3.39.62.67,1.21,1.34,1.83,2-1.06,2.03-3.34,3.51-2.72,6.26v-.02Z" fill="#160000" stroke-width="0"></path><path d="m911.26,815.54c.87-.77,1.71-1.53,2.57-2.3.59.64,1.19,1.29,1.81,1.95-.84.79-1.68,1.56-2.52,2.35-.62-.67-1.21-1.34-1.83-2h-.02Z" fill="#160000" stroke-width="0"></path><path d="m873.65,820.14c1.06-.1,2.15-.2,3.49-.35.42,1.58.79,3.04,1.19,4.48-1.16,3.21.52,6.92-1.76,9.94-1.14,0-2.27-.05-3.41-.07.17-4.67.35-9.32.49-14h0Z" fill="#160000" stroke-width="0"></path><path d="m875.55,847.06c.05-1.29.1-2.6.15-3.88,1.16,1.34,1.04,2.65-.15,3.88Z" fill="#160000" stroke-width="0"></path><path d="m877.76,913.26c-.17-.79-.2-1.58-.07-2.37.27.54.62,1.06.79,1.66.05.15-.47.47-.72.72h0Z" fill="#f19aa5" stroke-width="0"></path><path d="m533.44,724.82c.64-6.8-5.44-6.7-9.45-8.38-.02-7.47,3.81-13.9,2.57-20.89.96,0,1.93-.02,2.89-.05,1.73,3.07,2.82,6.31,2.47,9.89-.35.74-.54,1.51-.62,2.32-1.83,1.04-2.55,2,.17,2.74l4.6,2.67c.45,2.42.87,4.82,1.31,7.24-.22,1.66-.47,3.29-.69,4.95-.82.12-1.63.17-2.45.15l-.79-.64h-.02Z" fill="#7e272b" stroke-width="0"></path><path d="m541.72,678.63c4.77-.94,7.59.91,9.67,4.92-4.02.99-7.24-.65-9.67-4.92Z" fill="#7e272b" stroke-width="0"></path><path d="m537.4,720.39c-.45-2.42-.87-4.82-1.31-7.24,2.3-.07,4.7-.22,5.17,2.89.45,2.94-1.26,4.08-3.86,4.35h0Z" fill="#eb656c" stroke-width="0"></path><path d="m551.09,741.93c-.57,2.23-1.76,3.46-4.28,2.84-2.6-.64-2.57-2.65-2.62-4.67,2.37.35,5.17-.99,6.9,1.83h0Z" fill="#eb656c" stroke-width="0"></path><path d="m531.93,705.41c.32-3.59-.77-6.82-2.47-9.89,5.42,2.42,5.84,4.01,2.47,9.89Z" fill="#eb656c" stroke-width="0"></path><path d="m534.23,725.48c.82.02,1.63,0,2.45-.15,1.63.05,3.26.15,4.23,1.78.27,2.03-1.04,2.84-2.67,3.41-2.03-1.14-3.56-2.67-4.03-5.04h.02Z" fill="#eb656c" stroke-width="0"></path><path d="m531.49,710.48c-2.72-.77-2-1.71-.17-2.74l.17,2.74Z" fill="#eb656c" stroke-width="0"></path><path d="m543.68,738.12c-.89-.89-1.81-1.78-2.7-2.7,1.73.07,2.62.96,2.7,2.7Z" fill="#eb656c" stroke-width="0"></path><path d="m627.33,1128.43c.22-1.29.45-2.6.64-3.88,8.18,1.51,15.43,4.95,22.2,10.85-9.35,2.2-15.13-5.71-22.85-6.95v-.02Z" fill="#160000" stroke-width="0"></path><path d="m913.06,817.54c.84-.79,1.68-1.56,2.52-2.35,3.07-1.56,6.13-3.12,9.2-4.67,8.31,2.08,16.62,4.13,24.95,6.21,1.56,3.12,3.51,6.16,2.08,10.71.4,3.44-6.13,4.25-4.82,9.1l-.1.1c-2.42-.77-2.67.59-2.45,2.45l.07-.05c-1.56.12-3.09.25-4.65.37-3.98.27-5.32-2.65-6.63-5.56-1.14-2.52-2.08-5.27-5.79-4.38l-.2-.22c-.17-4.38-2.7-3.14-5.09-2.13-3.04.69-4.3,3.19-5.74,5.56-2.15-.37-3.02-2.13-4.1-3.68.2-.91.37-1.85.57-2.77,4.78-1.65,7.25-4.67,7.42-9.07-4.23.47-4.52,5.14-7.49,6.97l-2.5-.32c-.62-2.74,1.66-4.23,2.72-6.26h.02Z" fill="#f19aa5" stroke-width="0"></path><path d="m927.33,832.55c-1.88,1.43-3.81,2.7-6.65,2.5-1.01-3.93,3.73-3.39,4.55-5.71h1.04l1.04-.12.2.22-.15,3.12h-.02Z" fill="#f19aa5" stroke-width="0"></path><path d="m939.87,839.37c1.56-.12,3.09-.25,4.65-.37-.07,4.15-2.67,2.4-4.7,2-.05-.54-.02-1.09.05-1.63Z" fill="#160000" stroke-width="0"></path><path d="m278.01,167.68c.89-1.41,1.78-1.51,2.7,0-.89,1.58-1.78,1.34-2.7,0Z" fill="#49413f" stroke-width="0"></path><path d="m947.01,836.51c-1.31-4.85,5.19-5.66,4.82-9.1,1.43-4.55-.52-7.59-2.08-10.71,1.51.05,3.02.1,4.52.15,4.62,10.73,2.77,15.73-7.24,19.63l-.02.02Z" fill="#160000" stroke-width="0"></path><path d="m944.47,839.05c-.22-1.85.05-3.24,2.45-2.45.72,2.35-.27,2.99-2.45,2.45Z" fill="#160000" stroke-width="0"></path><path d="m691.05,819.2c-.87,1.31-1.83,2.37-3.63,1.61.07-2.15-1.14-4.55,1.11-6.31,2,.94,1.76,3.09,2.52,4.7Z" fill="#412b2a" stroke-width="0"></path><path d="m476.84,836.8c.1,5.91-3.56,3.26-5.76,5.17.32-4.35,2.37-4.95,5.76-5.17Z" fill="#7e272b" stroke-width="0"></path><path d="m873.65,820.14c-.17,4.67-.35,9.32-.49,14-.2,3.16-.4,6.35-.59,9.52-1.76,2.3-2.08,4.82-.96,7.49-1.98,7.57-1.78,15.16-.17,22.75-.74,3.49-1.21,6.92,1.09,10.09-.54,4.82,1.19,9.77-.64,14.91-1.83.47-3.73.96-5.64,1.46-1.34-1.06-2.6-1.06-3.78.22l-1.04-.1-1.01.27c-4.2-.54-8.04,1.36-12.09,2.03-3.88-.74-5.76-4.52-9.17-5.93-7.49-3.09-15.26-1.68-23.54-1.06-5.12-6.6-12.51-10.9-20.55-16.12,18.62-12.39,30.12-27.87,28.36-50.44.37-3.21.77-6.43,1.14-9.67,16.39.05,32.76-.89,49.13.59h-.02Z" fill="#f19aa5" stroke-width="0"></path><path d="m872.64,884.38c-2.47-3.41-1.98-7.12-1.16-10.88,2.87,3.36,1.09,7.22,1.16,10.88Z" fill="#160000" stroke-width="0"></path><path d="m871.62,851.14c-1.14-2.67-.82-5.19.99-7.49.07,2.55,1.11,5.22-.99,7.49Z" fill="#160000" stroke-width="0"></path><path d="m862.42,900.57c1.19-1.29,2.47-1.29,3.78-.22-1.26.07-2.52.15-3.78.22Z" fill="#160000" stroke-width="0"></path><path d="m722.28,814.99c3.63-1.11,5.02.62,5.09,4.03-5.51,2.74-9.3,8.11-15.31,10.11-2.1-.02-4.23.05-5.12-2.5,3.51-1.68-.49-3.24-.07-4.87,1.61-.87,3.24-1.73,4.85-2.57.64.87,1.29,1.76,2.32,3.16,2.57-2.97,7.64-2.32,8.23-7.34v-.02Z" fill="#160000" stroke-width="0"></path><path d="m695.27,804.81c1.16.25,2.3.47,3.71.77.69,5.17,1.31,10.24-.62,16.47-5.29-5.64-2.92-11.65-3.19-17.14l.1-.12v.02Z" fill="#160000" stroke-width="0"></path><path d="m706.94,826.64c.87,2.52,3.02,2.47,5.12,2.5-2.82,2.4-5.96,4.2-9.69,4.72h.05c-.47-3.63-.1-6.78,4.55-7.22h-.02Z" fill="#160000" stroke-width="0"></path><path d="m707.24,816.77c-1.01,0-2.05-.02-3.07-.05,0-3.86-.69-7.81,1.63-12.17,2.94,4.18,1.34,8.33,1.43,12.21Z" fill="#160000" stroke-width="0"></path><path d="m869.15,724.42l-4.03-4.13c8.48-1.78,11.32-10.26,17.56-14.76,4.85-2.4,8.36-1.14,10.88,3.66,2.62,4.99,1.14,8.51-3.51,11.1-6.4,4.15-13.06,7.12-20.87,4.13h-.02Z" fill="#f19aa5" stroke-width="0"></path><path d="m877.71,737.72c-1.09-2.1-2.2-4.2-3.51-6.68,4.99-1.14,9.89-2.23,14.79-3.34-3.51,3.63-4.01,10.63-11.28,10.01h0Z" fill="#f19aa5" stroke-width="0"></path><path d="m722.28,814.99c-.59,5.02-5.69,4.4-8.23,7.34-1.04-1.41-1.68-2.27-2.32-3.16,1.01-5.44,2.05-10.85,3.09-16.39,3.44,1.11,5.37,3.56,7.1,6.26.12,1.98.27,3.98.4,5.96h-.02Z" fill="#f19aa5" stroke-width="0"></path><path d="m927.28,829.21l-1.04.12h-1.04c-1.38-.25-2.47-.89-3.04-2.27,2.42-1.01,4.95-2.25,5.09,2.13l.02.02Z" fill="#160000" stroke-width="0"></path><path d="m155.59,829.04c.2-14.59.42-29.18.62-43.79,4.4,3.41,4.9,8.33,4.35,13.2-2.52,22.53,4.18,43.62,10.39,64.61,2.94,9.92,2.23,17.48-6.4,24.53-5.79-9.42-10.09-18.72-9-30.31.89-9.32.1-18.82.05-28.24Z" fill="#eb656c" stroke-width="0"></path><path d="m153.64,762.82c4.08.17,6.75,1.71,6.26,6.35-2.15,1.19-3.39,3.14-4.43,5.24-4.9-1.46-5.34-4.95-4.2-9.17.79-.82,1.56-1.63,2.35-2.45l.02.02Z" fill="#eb656c" stroke-width="0"></path><path d="m130.89,757.7c0,1.61.02,3.21.05,4.8-1.9-.15-3.07-1.19-2.77-3.07.2-1.26,1.46-1.73,2.72-1.73Z" fill="#eb656c" stroke-width="0"></path><path d="m125.53,753.82c-.15.25-.3.49-.45.72-.37-.27-.74-.54-1.11-.82.27-.22.57-.67.82-.64.27,0,.49.47.74.74Z" fill="#eb656c" stroke-width="0"></path><path d="m153.64,762.82c-.79.82-1.56,1.63-2.35,2.45-1.46.4-2.89.77-4.38,1.16-1.29-1.09-1.06-2.67-1.19-4.15h-.05c3.14-.54,3.02-6.21,7.44-4.75.17,1.76.35,3.51.49,5.29h.02Z" fill="#7e272b" stroke-width="0"></path><path d="m145.73,762.28c-1.48.64-2.94,1.31-4.45,1.98-3.16-.3-3.16-3.26-4.75-5.79,4.15-.64,7.2.12,9.15,3.81,0,0,.05,0,.05,0Z" fill="#eb656c" stroke-width="0"></path><path d="m781.52,816.5c12.98.69,25.86,2.1,38.55,4.95.02,2.5.05,4.97.1,7.47-3.19,5.24-1.06,11.25-2.5,17.46-4.6,8.85-9.69,17.78-19.19,23.98-6.35,4.15-11.03,10.88-16.44,16.44-1.21,1.24-2.42,2.45-3.61,3.68-8.98,5.29-19.41,7.59-27.64,14.64-3.49,2.99-8.9,3.68-13.92,3.09,1.95-6.58,5.32-12.41,9.03-18.17,6.18-9.59,10.48-20.03,13.13-31.13,1.53-6.4,4.92-11.79,8.33-17.38,4.99-8.16,10.98-15.82,14.19-25.02h-.02Z" fill="#f19aa5" stroke-width="0"></path><path d="m702.35,833.86c3.73-.52,6.87-2.32,9.69-4.72,6.01-2,9.79-7.37,15.31-10.11,3.59.77,4.38-3.04,6.23-3.93h38.23c-3.24,12.76-5.74,16.59-17.68,26.53-16.29-.32-33.16-4.28-49.01-2.67-2.97-1.78-2.72-3.49-2.77-5.07v-.02Z" fill="#f19aa5" stroke-width="0"></path><path d="m820.17,828.92c-.02-2.5-.05-4.97-.1-7.47.57-1.31,1.14-2.62,1.81-4.15,1.06.91,1.85,1.58,2.65,2.27-.37,3.21-.77,6.43-1.14,9.67-1.06-.1-2.15-.2-3.21-.3v-.02Z" fill="#160000" stroke-width="0"></path><path d="m912.84,824.09c2.97-1.81,3.29-6.5,7.49-6.97-.16,4.4-2.64,7.43-7.42,9.07-.2-.69-.22-1.41-.07-2.1Z" fill="#160000" stroke-width="0"></path><circle cx="859.06" cy="683.72" r="1.56" fill="#160000" stroke-width="0"></circle><circle cx="509.7" cy="703.3" r="1.24" fill="#7e272b" stroke-width="0"></circle><circle cx="147.29" cy="686.89" r="1.66" fill="#7e272b" stroke-width="0"></circle><path d="m219.02,572.01c4.97,5.12,1.11,11.37,2.2,16.99-.84,1.71-2,1.41-2.15-.12-.4-4.1-.4-8.26-.54-12.39.17-1.51.35-2.99.52-4.5l-.02.02Z" fill="#412b2a" stroke-width="0"></path><circle cx="242.31" cy="983.65" r="17.56" fill="#9abcec" stroke-width="0"></circle><circle cx="252.25" cy="1006.92" r="17.56" fill="#fa4120" stroke-width="0"></circle></svg>