<svg xmlns="http://www.w3.org/2000/svg" id="Layer_1" width="1200" height="873.46" viewBox="0 0 1200 873.46"><path d="m959.96,369.84c2.61-.23,5.22-.46,8.18-.71.96-1.33,1.76-3.46,3.23-4.22,12.44-6.3,21.19-17.14,31.46-25.98,12.51-10.79,20.21-25.11,21.95-41.95.37-3.44.39-6.8,2.31-9.83,2.13-3.35,2.7-7.06,2.36-10.95-1.44-16.68-3.3-33.18-16.29-45.78-1.86-1.79-2.98-4.33-4.63-6.8-7.1-.92-14.09-1.56-21.24.71-6.85,2.18-14.32,2.04-21.24,2.54-20.35,1.47-40.28,5.64-60.51,7.74-14.6,1.51-29.12,3.35-43.65,4.49-3.39-5.18-1.35-10.26-2.13-15.26,5.22-9.81,9.23-20.35,17.16-28.85,3.44-3.69,6.94-6.9,11.32-9.05,11.2-5.48,22.75-9.44,35.26-11.55,14.09-2.38,28.66-1.05,42.41-6.19,3.37-1.26,7.56-.32,11.36-.34,6.07-.02,11.73-1.03,17.71-2.91,9.53-2.98,19.8-4.4,29.81-4.67,6.8-.18,13.24-1.81,19.89-2.52,16.82-1.83,33.34-6.09,50.43-5.96,11.14.09,21.47,2.73,31.73,7.17,11.52,4.97,22.41,10.77,32.72,17.85,10.22,7.03,17.46,16.61,24.06,26.85,4.26,6.6,6.85,14.14,12.26,20.16,4.26,4.74,4.45,11.57,3.87,17.23-1.24,11.91.3,24.13-5.09,35.72-5.04,10.86-8.29,22.39-17.48,31.09-13.4,12.69-26.05,26.21-41.47,36.59-6,4.03-12.33,6.46-19.98,7.08-10.38.82-20.58,3.96-30.82,6.23-2.57.57-5.13,2.45-7.56,2.25-15.35-1.37-29.99,3.28-44.95,4.99-16.41,1.88-32.76,4.26-48.94,7.88-7.93,1.76-16.11,2.93-23.53-3l.02-.07Z" fill="#f1f3e8" stroke-width="0"></path><path d="m169.62,344.57c-16.7-3.6-30.84-10.38-46.28-12.35-19.73-11.2-43.03-15.17-60.83-30.22-15.65-5.16-24.06-19.43-36.43-28.69-2.66-1.99-3.62-4.77-4.9-7.45-3.35-6.85-6.8-13.61-13.24-18.63,0-6.87-1.86-13.17-4.47-19.61-5.16-12.69-3.37-26.37-2.11-39.48.87-9.16,3.39-18.49,7.56-27.11,11.46-6.83,23.74-12.17,35.31-18.97,11.43-6.71,23.81-11.69,35.03-19.02,11.07-7.24,23.76-11.71,35.12-18.72,11.46-7.03,23.9-12.44,36.06-18.65,3.83,6.16-.55,11.41-1.56,16.57-2.38,12.14-1.95,24.04-.3,36.09,1.12,8.23,3.3,16.18,5.41,24.2,1.9,7.22,4.86,13.45,10.13,18.67,8.84,8.75,16.38,18.6,26.1,26.74,8.82,7.38,18.01,13.72,27.88,19.36,6.9,3.92,13.77,8.25,20.71,11.62,10.93,5.29,22.11,11.07,34.25,13.47,3.76.73,7.31,1.58,10.79,3.07,5.22,2.22,10.43,4.24,16.34,4.15,4.93-.07,9.35,2.09,14.73,5.32-49.19,26.97-97.35,53.36-145.31,79.64h0Z" fill="#f1f2e8" stroke-width="0"></path><path d="m807.21,568.81c2.61.16,5.32-.55,8.04.99.27.87.92,1.92.92,2.96-.18,46.42,4.01,92.75,2.43,139.19-.3,8.43,3.76,16.36,1.44,26.69-61.15,43.6-122.56,89.34-185.22,132.04h-13.4c-1.76-2.45-3.18-1.81-4.42.48l-.07.07c-1.21.27-1.95,1.01-2.2,2.22l-6.94-.11c-.89-2.22-2.84-2.06-4.72-2.02-13.91.41-27.52-1.83-41.06-4.61-.23-1.63.11-3.57-2.57-4.08-1.9.5-1.88,2.29-2.02,3.96-9.85-1.92-20.16-.96-29.79-4.49v-9.16h2.29c3.09-.62,6.9,1.67,9.16-2.27.76,0,1.51-.02,2.27,0,1.24-.27,2.02-1.03,2.31-2.27h0c1.21-.3,1.97-1.05,2.27-2.27,3.28-1.47,2.02-4.45,2.34-6.9,3.37.53,6.3-.73,9.14-2.29,4.35-.76,6.16,4.19,10.06,4.79h11.34c3.51,3.07,6.9,6.05,9.97,8.75,3.94.18,7.33.32,9.21.41,9.03,2.77,6.21,10.63,8.78,15.19,4.31,1.24,6.3-.73,7.42-3.16v-32.28c-2.77-1.9-5.22-3.57-8.25-5.66,3.25-6.07,4.95-12.4,5.84-19.04-2.29-1.24-4.28-2.29-6.26-3.35.44-2.68-1.49-4.58-2.29-6.87,5.04-2.84-1.44-5.89,1.35-10.77,5.82-5.48,4.12-12.9-1.49-19.57,3.09-13.29,6.39-17.23,18.33-22.34l.21,38.95c-2.13-.39-4.24-.8-6.37-1.19-3.3,3.57-4.43,7.79-3.39,12.65h9.76c.6,19.36,1.17,38.7,1.83,58.06.11,2.98-1.12,6.85,3.62,8.27.53-1.44,1.24-2.5,1.21-3.53-.11-32.99.46-66.03-.71-99-1.01-28.5-.78-56.96-1.03-85.44,6.51,3.28,10.7-2.25,15.1-4.74,22.64-12.9,45-26.33,67.29-39.8,29.17-17.62,59.64-32.99,88.14-51.69,3.35-2.2,8.59-1.63,10.04-6.64l.07-.14Z" fill="#a29ca7" stroke-width="0"></path><path d="m621.48,742.95c-11.91,5.11-15.21,9.05-18.33,22.34,5.61,6.67,7.29,14.09,1.49,19.57-2.8,4.88,3.67,7.95-1.35,10.77-.96-3.39-4.03-4.31-6.71-5.61-3.8-1.83-7.42-3.83-9.6-9.26v-22.32c-7.13-6.21-18.49-3.8-22.29-12.83-7.84-1.4-11.8,4.51-16.57,6.44-5.98-.37-9.33-4.49-13.5-6.64-4.03,2.89-4.45,7.97-8.91,10.33-4.67,2.47-7.56,7.29-9.49,12.37-6.21,1.24-8.68,6.71-11.89,11.04-3.55,4.79-6.51,10.06-10.52,13.93-2.45,11.04,1.1,21.4,2.34,31.73,1.1,9.14,5.43,18.51,15.37,22.02,4.83,1.7,9.21,4.1,13.84,6.07-1.56,2.82-2.82,5.73-2.29,9.07-15.01-1.4-30.06-2.52-44.93-5.22-9.65-1.76-19.43-2.73-29.14-4.08-11.2-1.56-22.52-1.95-33.68-4.17-16.96-3.37-34.19-5.34-51.67-7.95-2.63-9.83-3.37-19.87-3.35-30.11.18-56.87.14-113.71.16-170.58,19.15,2.02,38.08,5.48,57.26,7.49,19.87,2.09,39.57,5.75,59.39,8.55,13.43,1.9,27.08,2.7,40.33,5.52,13.72,2.93,27.66,3.85,41.43,6.07,13.75,2.22,27.49,4.74,41.33,6.07,6.16.6,12.12,4.67,18.19,2.22,1.42-2.34.92-4.24.85-6.12.64-.05,1.28-.07,1.9-.07.11,24.45.23,48.87.34,73.32v.02Zm-80.81-29.17c5.11-1.05,7.01-3.62,4.08-8.55-1.15.39-2.22.73-3.28,1.08-.71-2.61-3.83-2.25-5.13-4.15,1.4-.41,2.77-.82,4.24-1.26-1.44-4.7-3.71-8.32-7.88-10.22-1.49,1.65-2.91,3.23-3.78,4.17-5.27-.18-9.51,1.65-12.85-2.02,3.73-.87,8.07,2.09,11.69-1.56-1.01-2.31-2.7-2.63-4.67-2.89-18.63-2.38-37.35-4.42-55.86-7.47-9.67-1.58-19.66-1.26-29.03-4.63-.27-1.1-.53-2.2-.89-3.67-13.77-1.79-27.11-2.31-37.67,10.1-1.97,11.41,1.35,21.95,8.02,32.28,1.97.78,4.35,1.92,6.85,2.63,13.01,3.8,26.67,4.22,39.96,6.37,20,3.23,40.17,5.66,60.1,9.44,13.08,2.5,24.13-2.84,29.1-13.47.55-1.19,1.1-2.38,1.67-3.62-1.74-.96-3.23-1.79-4.7-2.61l.05.02Z" fill="#a39ca7" stroke-width="0"></path><path d="m772.47,522.53c1.47,3.41,4.63,2.38,7.24,2.77,5.68,4.67,12.33,1.19,18.44,2.18,1.49,0,2.98,0,4.47.02,2.25,4.03,6.09,1.72,9.21,2.29h0c.02,2.91-1.03,5.18-5.25,6.99h-22.64c-9.67,6.62-14.78,20.03-29.49,14.55-5.98,4.33-11.94,8.89-19.54,10.24-2.36.41-4.06,2.09-5.57,3.8-4.65,5.34-10.93,7.88-17.32,10.38-6.21,2.43-12.4,4.88-18.56,5.66-1.67,4.28.46,8.41-2.43,12.14-2.68.27-5.64.57-7.74.78-9.07,5.77-16.5,12.3-27.7,11.91-4.72-.16-9.6,3.78-11.98,4.81-4.95,3.53-2.36,7.52-5.25,9.78-4.54,1.83-7.88-.14-10.63-3.8-.6-.8-.55-1.42.48-2.02,2.29-1.79,4.65,1.88,6.85.46,6.23-3.21-.44-7.65.99-10.79,2.02-2.13,6.03-3.28,1.56-6.12,2.36-2.86,5.64-3.96,9.1-4.7.85,1.51,1.67,3.09,4.15.85-1.67-.32-2.93-.57-4.17-.8,5.54-4.74,11.82-8.27,18.51-11.07.25,1.67.02,3.64,2.61,3.73,3.16-2.13.99-3.21-.87-4.33,2.09-2.09,4.54-3.53,7.4-4.24,2.59,3.83,4.83,8.39,11.14,5.68-.69-4.54-3.62-6.55-6.97-8.2,17.55-10.13,35.1-20.28,52.52-30.34-1.35-3.16-3.16-3.46-5.13-3.09-4.28.8-7.31,3.99-10.88,6.07-28.21,16.52-57.51,31.07-85.46,48.02-5.73,3.48-11.32,7.81-18.47,9.55-3.67-1.31-6.99-4.17-10.98-4.65-6.21.46-10.79,3.78-15.01,7.38-5.32-.25-10.29-.16-15.19-.78-30.89-3.87-61.75-7.84-92.61-11.87-27.13-3.55-54.19-7.77-81.38-10.54-10.1-1.03-20.16-4.61-30.57-2.27,1.35-4.12,7.26-4.03,8.02-9.19-5.41-4.17-12.44-3.69-18.79-4.65-5.18-.78-10.08-2.61-15.31-3.09-1.83-.16-1.67-2.2-1.92-3.64,18.58,1.37,36.98,4.51,55.38,7.1,25.55,3.57,51.09,7.08,76.62,10.84,24.77,3.64,49.54,7.4,74.33,10.84,13.54,1.88,27.08,4.63,40.9,2.66,3.3-.23,3.37-5.8,7.56-4.58,15.7,1.4,16.22,1.28,21.01-4.24-1.03-1.24-2.31-2.13-3.92-1.51-5.27,2.04-10.38.69-15.65-.11-18.7-2.89-37.46-5.43-56.2-8.02-22.5-3.12-45-6.09-67.5-9.23-21.03-2.91-42.09-5.61-63.01-9.07-8.55-1.4-17.39-1.31-25.62-4.56,1.6-2.98,4.63-1.35,6.92-2.15,22.48,1.01,44.56,5.5,66.86,8,31.64,3.55,63.1,8.62,94.67,12.85,19.54,2.61,39.27,4.22,58.68,7.68,7.84,1.4,14.02.46,20.51-3.35,23.94-14,47.98-27.84,71.97-41.82,1.15-.66,2.68-1.49,1.67-3.44-5.09-2.54-8.82.94-12.6,3.14-18.7,10.86-37.3,21.86-55.84,32.95-8.62,5.16-17.14,9.16-27.86,6.83-9.99-2.18-20.3-2.96-30.47-4.28-31.62-4.12-63.26-8.23-94.88-12.33-27.49-3.57-55.01-6.9-82.44-10.91-10.15-1.49-20.53-.89-30.5-3.64-.32-.37-.66-.71-1.01-1.05.76-3.18-1.97-6.26-.18-9.37-1.47-1.21-2.86-2.36-4.24-3.51,3.83-.5,7.42.66,11.14,1.26,3.8.6,8.41,2.22,11.04-2.75-.44-.64-.78-1.7-1.26-1.76-9.21-1.51-18.44-2.91-27.68-4.35-.09-.71-.02-1.4.16-2.06,11.85-2.15,23.21,4.15,35.56,2.09,1.05-1.58,3.39-2.61,2.59-6.35-6-.78-12.3-1.81-18.67-2.36-9.74-.85-19.34-2.63-28.89-4.58,4.06-.23,8.11-.48,12.17-.71,2.18-1.24,2.66-3.35,3.14-5.8-4.26-5.04-10.52-1.74-15.53-3.48-1.7-.66-1.65-2.27-1.97-3.69,31.39,3.53,62.46,9.92,94.12,11.09.39,2.93-3.96,3.64-2.89,8.11,51.46,7.38,103.4,14.82,155.55,22.29-1.72,4.83-4.97,4.65-7.93,3.96-6.35-1.47-12.81-1.6-19.2-2.43-40.01-5.09-79.96-10.49-119.95-15.67-5.22-.69-10.24-2.98-15.72-2.02-3.41.6-5.45,2.09-5.48,6.83,11.32,1.6,22.45,3.18,33.61,4.74-3.35,3.48-7.7.71-11.43,1.86-9.81,1.83-19.54-4.86-29.56.6,30.34,5.82,60.95,9.21,91.42,13.7,31.12,4.58,62.44,7.58,93.25,12.81,9.1-6.19,17.89-12.14,26.03-17.69,8.75-2.11,15.67,1.12,22.82,4.58,13.5-3.71,23.87-12.56,34.9-20.39-13.43.94-23.19,10.38-34.21,14.82-6.87-2.5-12.88-6.44-18.93-6.51-14.57-.21-28.59-4.45-43.08-4.63.85-2.18,2.8-1.74,4.47-1.81,3.18-.14,4.28-1.99,4.15-4.9,17.09-9.85,34.16-19.77,51.3-29.56,34.9-19.91,69.84-39.73,104.76-59.6.76,1.47,2.04,1.92,3.57,2.38,13.82,4.15,28.18,4.74,42.32,6.78-3.67,3.41-8.62,4.47-12.85,6.92-22.96,13.31-45.99,26.62-69.63,38.61-18.9,9.58-37.14,20.28-55.7,30.4-4.56,2.47-9.78,4.24-13.4,8.34-1.88,2.13-3.44,4.19.21,7.1,24.95-13.66,50.13-27.45,75.31-41.24,2.13.23,4.4.23,5.29,2.8l-.07-.05c-1.35-.09-2.2.55-2.61,1.81-7.26,6.32-17.02,8.82-24.59,15.24,3.76,4.15,6.76,1.81,9.6.21,11.14-6.3,21.93-13.29,33.41-18.88,8.36-4.08,14.69-12.1,24.75-12.79.11,2.11.18,4.24,2.75,4.99-8.16,4.77-16.36,9.46-24.47,14.3-8.23,4.88-17.25,8.64-24.63,15.63,4.79,3.37,7.31.82,10.29-.94,16.63-9.81,33.41-19.45,50.11-29.14-.48,1.35-.94,2.73-1.37,3.99,2.5,3.6,6.07,5.59,10.93,7.93-5.71,6.64-12.28,10.29-19.06,13.77-1.6.82-4.9,1.63-1.63,4.47-5.52,3.78-14.25,3.23-16.36,12.01,4.33,3.87,7.81.16,11.48-.87.41.5.11,2.18,1.6.99-.57-.34-1.1-.64-1.63-.96,1.86-2.11,3.25-4.83,6.6-4.95l-.05-.07Z" fill="#99999d" stroke-width="0"></path><path d="m376.43,314.46c-4.49,2.15-.57,7.31-3.67,10.15-2.82-16.77-.87-32.4,11.52-48.48,49.17-29.6,102.6-57.56,154.82-87.69,4.51,5.93,2.63,13.17,3.53,19.73,1.63,11.82-.44,23.65-3.57,35.17-5.22-4.51-11.27-1.26-16.31-2.22-3.55,2.2-5.93,4.61-7.7,7.45-.62,1.01.73,1.76,1.76,2.18-1.1,2.86-5.18,3.48-5.38,7.88,0,3.35,2.59,6.28,5.13,9,9.19,9.78,20.05,17.34,32.58,22.16,11.32,4.35,22.75,8.73,35.01,2.11,2.38-1.28,5.96-.55,8.98-.48,4.17.09,8.34.41,12.92.66,14.21-9.55,28.53-19.18,43.08-28.96,6.14,4.65,12.67,5.34,20.35,6.03-2.54-10.13-8.29-16.08-15.81-20.71-3.67-4.56-9.46-6.07-13.79-9.71-.87-2.31-1.83-4.22-1.15-7.19,1.15-4.95,3.44-10.01,1.7-15.35,2.47-4.28,9.28-4.95,9.78-11.2-1.37-.48-2.43-.85-3.48-1.24,2.5-4.77,7.15-3.71,11.25-4.1,16.79,2.52,33.7,4.22,50.52,6.42,13.47,1.76,26.92,3.92,40.44,5.52,15.33,1.81,30.45,5.25,47.45,4.61-3.85,8.84-6.07,16.57-7.68,24.42-15.88,8.84-31.76,17.73-47.66,26.56-34.09,18.95-68.3,37.74-102.26,56.98-6.78,3.85-13.68,5.36-20.78,3.55-12.92-3.28-26.17-4.06-39.23-6.28-19.77-3.35-39.68-5.71-59.48-8.89-18.31-2.93-36.71-5.34-54.97-8.75-15.53-2.89-31.28-5.93-47.11-6.94-10.13-.64-20-4.79-30.08-2.61-4.72,6.46-9.46,12.42-10.75,20.21l.02.05Z" fill="#8d8c96" stroke-width="0"></path><path d="m376.43,314.46c1.28-7.79,6.05-13.75,10.75-20.21,10.08-2.18,19.96,1.97,30.08,2.61,15.83.99,31.57,4.03,47.11,6.94,18.28,3.41,36.66,5.8,54.97,8.75,19.8,3.18,39.73,5.52,59.48,8.89,13.06,2.22,26.3,3,39.23,6.28,7.1,1.81,13.98.3,20.78-3.55,33.93-19.25,68.14-38.03,102.26-56.98,15.9-8.84,31.78-17.71,47.66-26.56,1.58,8.07-3.55,15.53-2.09,23.6v11.16c-3.41,4.42-9.14,3.41-10.29,8.41,3.85,1.74,7.93-.3,11.78,1.88.96,1.7,2.06,3.69,3.18,5.66-.11,2.18-.39,4.24-2.84,5.11-10.59,3.83-19.77,10.33-29.51,15.74-8.16,4.42-16.31,8.82-24.45,13.27-.21.11-.14.71-.21,1.1-11.48,6.71-22.94,13.45-34.41,20.16-2.96.05-5.96-.66-8.78.76-5.32,2.54-5.45,9.9-11.2,12.01-1.83-1.19-3.67-2.38-5.61-3.67-3.09,2.52-7.52,1.35-9.94,4.31-.48,2.7-.92,5.13-1.33,7.56-10.01,5.96-20.03,11.91-29.88,17.78-4.81-3.85-6.64-8.96-9.35-13.4-4.88-8.02-7.49-16.34-2.89-25.82,1.49-3.07,4.03-7.42.62-11.62-9,10.95-10.77,24.65-4.7,35.77,2.59,4.74,5.5,9.3,7.35,16.08-23.94-3.64-46.37-7.08-68.81-10.49-1.97-3.41-6.85-.41-8.96-4.24,6.94-6.85,14.89-12.9,21.13-22.09-10.33-1.05-18.9-1.92-27.36-2.77-7.81,7.79-17.57,12.81-23,22.06-2.2.34-4.06.64-5.93.94-38.36-5.89-76.69-11.78-115.07-17.57-1.44-.21-3,.39-4.51.69-.32.07-.62.44-.82.71-.18.25-.25.62-.37.96.53,2.25,3.02,2.04,4.26,3.39-1.47,3.25-4.49,1.83-6.87,2.27-4.9-1.56-6.69-5.84-8.18-10.01-1.49-4.17-2.2-8.59-3.25-12.92v-22.94h-.02Z" fill="#f8f6ea" stroke-width="0"></path><path d="m663.02,367.66c.44-2.43.87-4.86,1.33-7.56,2.43-2.96,6.85-1.81,9.94-4.31,1.95,1.26,3.78,2.47,5.61,3.67,5.75-2.13,5.89-9.46,11.2-12.01,2.82-1.42,5.82-.71,8.78-.76,3.16,3.53,6.62,2.61,10.1.62,11.04-6.32,22.09-12.67,33.13-19.02,2.31.5,5.43-1.44,6.74,2.2-10.52,4.38-18.97,12.07-30.02,17.12,4.86,2.5,7.68.92,10.75-.85,8.2-4.7,16.57-9.12,26.19-14.37-.46,9.37.05,16.84,4.63,23.3,2.68,4.19,6.85,1.86,10.36,2.29,3.28.39,6.92-.69,9.3,3-1.01,5.89-9.81,2.34-10.47,8.52h.05c-9.35,3.55-18.79,6.83-27.68,11.46-2.73-.25-5.06.57-7.56,1.81-13.98,6.85-26.95,15.53-40.62,22.84-19.75,10.56-39.55,21.01-59.14,31.89-8.87,4.9-17.23,11.04-27.11,14.05-2.52-4.63-5.06-9.26-7.86-14.39,0-4.24.39-8.84-.11-13.36-.5-4.4,5.59-8.94-1.15-14.41-7.45,16.13-6.83,30.43,4.01,43.69-2.5,2.41-4.86.09-6.94.99-4.08-.85-8.11-1.97-12.24-2.52-34.16-4.63-68.37-8.82-102.46-13.84-13.04-1.92-26.49-1.28-39.11-5.98,2.06-5.96,6.42-10.24,10.77-14.5,2.18-2.13,4.56-4.31,1.44-8.68-5.41.76-11.16-.92-16.93-2.41-5.59,4.45-11.34,8.27-16.15,13.04-5.8,5.73-12.33,8.29-20.3,7.72-7.4.41-14.6-2.86-22.13-1.44-.18,1.28-.37,2.36-.53,3.46.78,2.91,2.93,2.57,5.11,2.15l.89-.21.8.44c-.96,2.04-1.99,4.79-4.74,3.25-3.71-2.06-6.51.87-9.28,1.01-4.54-1.97-8.66-3.73-13.17-5.71-.11-2.5-.25-5.11-.39-7.72,1.08-3,4.93-1.35,6.51-3.9.64-3.51,1.21-7.13-.96-9.81-3.28-3.37-6.83-1.95-10.04-2.29-4.15-6.51-1.54-13.75-2.34-20.64-.23-4.42,1.17-8.16,4.95-11.3,7.33,0,15.01-.76,22.5.14,19.89,2.36,39.89,4.56,59.6,7.65,24.59,3.87,49.28,6.74,73.87,10.4,4.86.71,9.6,1.92,14.53,2.45,18.77,1.97,37.55,4.06,56.14,7.24,11.09,1.9,21.68,3.28,30.89-1.97,8.11.87,15.08,4.12,21.84-.69,25.25-10.54,49.1-24.84,53.04-31.8-2.91-1.33-4.93,1.19-7.38,1.79-.89-2.43-3.07-2.18-5.02-2.38-4.65-5.22-8.82-.73-13.13.64l-.02-.02Z" fill="#f3f3e1" stroke-width="0"></path><path d="m658,199.63c-4.1.39-8.75-.66-11.25,4.1-12.46,9.67-24.49,20.16-41.63,21.01-8.73-4.38-17.32-8.98-22.52-17.92-1.31-5.93,5.73-3.44,6.92-6.85,2.86-.92,6.28-1.12,8.52-2.86,8.23-6.35,15.86-5.04,23.97.18,2.06,1.33,5.66,3.32,7.79-1.74-4.93-3.96-11.3-4.95-16.86-7.58-1.31-1.97-3.18-1.9-5.16-1.42-4.26-.55-7.47-3.3-11-5.38-2.52-2.11-5.11-4.03-8.66-3.32-1.33,1.99-1.24,3.64.55,5.73,1.35.23,3.14.5,4.95.8.62,2.5,4.63,3,3.78,6.8-4.7,3.55-10.59,2.68-15.72,3.69-4.03-1.37-7.31-3.14-10.13-6.23-.99-8.27-5.36-16.68-.07-25.02,9.58-4.42,18.83-8.8,28.16-12.99,9.35-4.22,19.32-7.31,27.86-14.37-1.95-1.31-2.73-2.2-3.12-2.04-19.57,7.08-38.17,16.29-56.43,24.77-5.5,7.29-3.92,15.03-3.76,22.55-5.18.07-5.59-4.28-6.6-7.63-1.37-4.61-2.09-9.39-3-13.7-3.07-2.18-5.77-4.08-8.48-5.98,1.92-4.12,4.22-8.13,5.71-12.42,4.49-12.81,14.16-18.74,26.65-22.13,8.39-2.27,16.36-6.05,24.52-9.19,3.71-1.42,5.96-4.22,7.74-7.88-4.72-3.21-9.05-1.19-11.94,1.12-13.84,11.11-33.29,10.56-45.48,23.87-3.18-4.08-5.29-7.26-7.88-9.94-2.89-2.98-6.51-5.25-8.78-8.78,1.81-13.01,9.03-21.42,21.13-23.53,12.62-2.2,23.69-9.42,36.8-10.36-4.54-5.29-9.55-3.87-14.37-2.02-8.87,3.44-17.99,5.87-27.2,8.2-8.52,2.15-14.64,7.79-18.65,15.65-1.54,3-3.02,6.03-4.54,9.03-1.6.16-3.21.3-4.81.46l.07-.05c-.05-1.63-.87-2.34-2.47-2.13-7.9-.85-15.81-2.02-23.32-.21-5.36,4.28-8.52,9.21-8.66,15.74-5.5-7.81,1.1-13.29,3.35-19.34,8.91-4.17,17.37,3.8,26.42-.07v-25.32c3.53-6.76,8.66-8.94,14.94-10.45,11.66-2.82,23.42-1.6,35.1-2.29,2.96-.14,3.35-4.26,4.88-4.22h20.85c7.13,6.94,17.55,9.3,22.77,18.15h11.87c2.86,1.99,5.64,3.92,8.27,5.75.32.89.87,1.65.76,2.29-1.49,7.54,3.87,12.56,7.06,18.15,4.01,7.03,6.37,13.95,7.38,22.23,1.08,8.87.71,18.01,3.55,26.78,1.95,6.03.96,12.07-1.31,18.51-2.89,8.25-7.31,16.34-7.42,24.49,1.97,5.04,7.24,1.54,8.96,5.25l-.05.05Zm-48-16.41c8.71.05,9.1-.41,7.68-8-4.08.73-6.62,2.89-7.68,8Zm2.06-21.45c-4.32,1.18-6.07,3.78-5.25,7.81,3.16-1.63,5.32-3.76,5.25-7.81Z" fill="#e7ba9a" stroke-width="0"></path><path d="m369.78,635.1c-1.92-3.18-5.64-1.28-8.8-3.28v-29.9c3.48-4.72,10.01-2.82,12.58-7.63.14-4.42-5.32-3.8-6.3-7.15,4.24-.11,8.34.44,12.24,2.2,2.25,1.44,1.31,5.38,4.65,6.09,66.58,8.27,133.17,16.54,199.59,24.79,2.06,2.54,4.26,4.61,5.25,7.63,4.7,14.37,6.09,15.24,21.03,14.05-3,5.57-9.55,0-12.99,4.17-1.74,4.51.05,8.75,1.44,12.56-2.43,3.83-4.9,6.55-9.23,6.58-12.3-1.88-24.7-3.09-37.03-4.4-18.79-1.99-37.32-5.43-56.02-7.84-19.38-2.5-38.84-4.86-58.13-8.29-22.61-4.03-45.48-6.46-68.26-9.6l-.02.02Z" fill="#a19ba4" stroke-width="0"></path><path d="m637.59,598.55c4.47,2.84.46,3.99-1.56,6.12-1.42,3.12,5.25,7.56-.99,10.79-2.22,1.42-4.56-2.25-6.85-.46-1.03.6-1.08,1.21-.48,2.02,2.75,3.69,6.07,5.64,10.63,3.8,2.91-2.27.3-6.26,5.25-9.78,2.41-1.03,7.26-4.97,11.98-4.81,11.2.37,18.63-6.16,27.7-11.91,2.09-.21,5.06-.5,7.74-.78,2.91-3.71.78-7.84,2.43-12.14,6.16-.78,12.35-3.23,18.56-5.66,6.39-2.5,12.65-5.02,17.32-10.38,1.51-1.72,3.21-3.39,5.57-3.8,7.61-1.33,13.56-5.91,19.54-10.24,14.71,5.48,19.82-7.93,29.49-14.55h22.64c4.24-1.81,5.27-4.08,5.25-6.99.57.46,1.58.87,1.63,1.4.99,9.16.94,18.4,2.82,26.14-3.51,6.64-10.1,5.38-13.75,9.07-6.85,1.72-11.11,7.74-17.16,10.56-19.87,9.28-37.67,22.04-56.89,32.4-23.21,12.51-46.03,25.71-68.65,39.23-11.25,6.74-22.91,12.92-33.25,21.17,0-8.29.39-16.61-.16-24.86-.53-7.74,1.9-15.97-3.37-23.21-2.98,15.92-.8,31.99-1.88,47.89-.64,0-1.28.05-1.9.07v.07c0-9.35.05-18.7.05-28.04,0-2.54.55-5.38-2.68-6.67,3.41-8.2-2.52-15.88-1.92-24.17,7.9-4.17,14.71-9.46,22.89-12.28v.02Z" fill="#a29ca7" stroke-width="0"></path><path d="m722.11,493.02c-25.18,13.79-50.36,27.59-75.31,41.24-3.67-2.91-2.11-4.97-.21-7.1,3.64-4.1,8.87-5.87,13.4-8.34,18.56-10.13,36.8-20.83,55.7-30.4,23.67-12.01,46.67-25.3,69.63-38.61,4.22-2.45,9.19-3.51,12.85-6.92,1.88-.46,3.6-1.1,3.85-3.69-.82-.41-1.67-1.12-2.63-1.31-13.59-2.47-27.17-4.9-40.78-7.24-2.66-.46-5.34-.25-6.32,3.05-34.92,19.87-69.86,39.68-104.76,59.6-17.14,9.78-34.21,19.7-51.3,29.56-2.82,2.34-6.16,2.22-9.6,2.59-6.28.66-12.05-1.58-17.96-2.61-10.79-1.88-21.74-2.2-32.56-3.94-10.4-1.67-20.83-3.44-31.28-4.9-16.02-2.25-32.26-2.68-48.07-6.67-4.54-1.15-9.62-.18-14.46-.18,5.38,1.67,10.1,4.17,15.47,4.7,15.35,1.54,30.59,4.63,45.96,5.68,12.9.89,25.23,4.61,38.06,5.8,13.86,1.31,27.54,4.67,41.59,4.9,1.42.02,2.82.87,4.24,1.35,14.48.21,28.5,4.45,43.08,4.63,6.05.09,12.05,4.01,18.93,6.51,11.04-4.45,20.78-13.88,34.21-14.82-11.02,7.84-21.4,16.66-34.9,20.39-7.15-3.46-14.09-6.71-22.82-4.58-8.13,5.52-16.91,11.5-26.03,17.69-30.79-5.25-62.12-8.23-93.25-12.81-30.47-4.49-61.08-7.88-91.42-13.7,10.01-5.43,19.75,1.24,29.56-.6,4.24,3.62,9.49,1.88,14.27,2.54,22.52,3.14,45.07,6.07,67.61,9.1,12.42,1.67,24.86,3.09,37.26,4.79,11.64,1.58,23.21,3.64,35.45,4.24,4.83-4.97,12.46-6.32,17.67-12.12-4.79-5.59-10.68-3.69-15.74-3.99-15.44,10.15-23.74,11.91-41.33,7.97-13.38-3-26.99-4.03-40.51-5.91-21.06-2.93-42.16-5.66-63.24-8.48-11.14-1.58-22.29-3.16-33.61-4.74.02-4.74,2.06-6.23,5.48-6.83,5.48-.96,10.49,1.33,15.72,2.02,39.98,5.18,79.94,10.56,119.95,15.67,6.39.82,12.85.96,19.2,2.43,2.96.69,6.21.85,7.93-3.96-52.15-7.47-104.09-14.92-155.55-22.29-1.08-4.47,3.28-5.18,2.89-8.11.87-2.38,3.07-2.04,4.93-2.41,16.47-.25,32.51,3.44,48.6,5.93,19.52,3.02,39.11,5.45,58.7,7.88,12.44,1.56,24.61,5.32,37.81,4.9,1.99-.99,4.51-1.92,6.74-3.35,28.73-18.51,59.57-33.36,88.46-51.62,16.34-10.33,33.86-18.72,50.8-28.14,6.19-3.44,12.9-6.3,16.77-12.72,6.69-.99,12.74,3.02,19.29,1.83h0c1.81,2.59,4.47,2.15,7.03,1.99,13.34,2.29,26.67,4.61,39.18,6.76,2.82,2.45,1.35,3.99.37,5.59.99,3.96,7.56,1.83,7.68,6.8-19.36,8.23-36.73,19.89-54.26,31.25-1.44-.05-2.22.71-2.54,2.04h-.05c-10.06.69-16.38,8.73-24.75,12.81-11.48,5.59-22.27,12.58-33.41,18.88-2.84,1.6-5.84,3.94-9.6-.21,7.58-6.42,17.34-8.91,24.59-15.24,1.28,0,2.2-.53,2.61-1.81l.07.05c9.12-3.62,17.21-9.16,25.71-13.91,16.86-9.37,33.64-18.93,50.27-28.69,2.38-1.4,6.21-2.84,5.18-8.48-29.42,16.43-57.92,32.33-86.45,48.25h0Z" fill="#0e0e12" stroke-width="0"></path><path d="m524.99,106.33c1.6-.16,3.21-.3,4.81-.46-.71,3.64.94,5.84,3.6,8.43,3.78,3.69,9.23,5.89,11.46,11.62-1.37.34-2.41.57-3.41.82-3.99-3.73-8.62-6.03-14.16-6.44-2.7,1.26-5.8,1.81-7.95,4.19-3.77,8.26-4.6,14.24-2.47,17.94,6.32-3.07,1.7-11.18,6.9-14.8,5.42-.75,10.59.41,15.51,3.48,1.44,2.54,2.93,2.5,4.45.07l.05-.05c5.66,10.91,2.75,17.12-11.52,24.63-8.29,1.35-10.72-12.83-21.17-7.33,6.23,9.97,14.85,13.52,25.89,12.35,3.09-2.22,6.12-4.42,9.16-6.6,2.7,1.9,5.38,3.8,8.48,5.98.92,4.31,1.63,9.1,3,13.7,1.01,3.32,1.42,7.7,6.6,7.63-.02,8.59,4.81,13.27,12.3,16.5,4.33,1.86,8.68,1.37,13.04,1.92-1.19,3.41-8.25.92-6.92,6.85-4.81-2.91-9.76-5.64-14.39-8.82-4.19-2.86-5.91-9.37-12.3-9.33-1.6,3.64.6,5.04,2.15,6.48,10.43,9.62,22.04,17.85,31.92,28.21,4.97,5.2,11.82,9.42,20.16,6.37-3.07,3.92-2.5,8.52-2.29,12.97.55,12.72-.85,25.2-2.96,35.67-2.91,5.02-6.92,3.16-10.04,4.65,1.76,1.6,2.82,2.57,3.9,3.53-4.31,1.28-7.95-2.47-12.21-1.65-5.61,3.41-11.82,4.95-18.24,5.82-8.96-4.33-20.55-2.93-27.31-12.6,1.7-12.4,3.07-24.77,5.18-37.05,2.18-12.79,2.31-25.64,2.36-38.54.02-8.57-3.35-16.2-6.32-23.94-.53-1.4-2.04-2.13-3.83-1.33-1.44.96-.96,2.63-1.31,4.06-5.98-7.22-12.12-14.21-20.23-19.27-4.58-2.86-6.55-8.23-9.85-12.35,2.96-1.65,3.07-3.99,1.63-6.71-3.35-6.32-6.67-12.67-10.38-19.68-.09-3.28-1.24-7.54,2.43-11.5,4.93-2.54,10.63-1.65,16.2-1.24,3.83.27,6.78-.21,8.11-4.26v.07Z" fill="#b67676" stroke-width="0"></path><path d="m770.45,426.87c-6.55,1.19-12.6-2.82-19.29-1.83-3.87,6.42-10.59,9.28-16.77,12.72-16.91,9.39-34.46,17.8-50.8,28.14-28.89,18.28-59.76,33.11-88.46,51.62-2.22,1.42-4.74,2.38-6.74,3.35-13.2.41-25.36-3.35-37.81-4.9-19.57-2.45-39.18-4.86-58.7-7.88-16.08-2.5-32.15-6.19-48.6-5.93-5.16-3.32-11.16-1.47-16.63-2.68-19.66-4.35-39.8-5.38-59.5-9-8.48-1.56-17.44.34-25.46-3.76,5.91-1.01,12.05.78,17.69-1.17,2.84-1.65,3.62-3.92,2.8-6.67-1.92-3.41-7.13.05-8.48-4.31,17.32,1.95,34.62,3.9,51.94,5.82,7.56.82,15.17,1.31,22.68,2.34,19.2,2.59,38.33,5.84,57.58,7.97,36.22,4.03,72.43,8.29,109.41,13.68,56.64-31.55,113.9-63.44,171.68-95.64-1.79-1.7-2.57-2.45-3.35-3.18-.82-2.09-4.01-1.44-4.51-3.9,12.42-6.51,23.49-15.4,36.52-20.83.73,2.89,3.9,1.76,6.03,3.78-11.8,4.15-20.3,12.97-30.77,18.35.82,8.18,9.78,3.16,12.53,9.07-6.3,3.48-12.65,6.99-18.97,10.49,1.28,2.84,5.5.92,5.96,4.33l.02.02Z" fill="#98989c" stroke-width="0"></path><path d="m635.5,399.4c-6.76,4.79-13.72,1.56-21.84.69-9.21,5.25-19.77,3.87-30.89,1.97-18.58-3.18-37.37-5.27-56.14-7.24-4.93-.53-9.67-1.72-14.53-2.45-24.59-3.67-49.28-6.53-73.87-10.4-19.7-3.09-39.71-5.29-59.6-7.65-7.49-.89-15.17-.14-22.5-.14-3.78,3.14-5.18,6.87-4.95,11.3-4.38,2.2-.21,7.45-4.01,10.4-1.19-8.59-.55-16.84-.55-25.68,1.08-3.83,3.94-7.49,5.77-11.52,4.7-10.33,11.55-19.27,24.04-21.26,1.05,4.31,1.76,8.75,3.25,12.92,1.49,4.17,3.28,8.45,8.18,10.01,12.46,4.19,25.59,4.88,38.45,6.58,17.94,2.38,35.63,6.16,53.57,8.32,8.64,1.03,17.16,4.15,26.62,2.98-.92-1.95-1.4-2.96-1.88-3.94,2.04-.6,4.4.34,6.37-1.28.07-.96.14-2.02.21-3.09,1.86-.3,3.73-.6,5.93-.94,5.45-9.26,15.19-14.27,23-22.06,8.45.85,17.02,1.72,27.36,2.77-6.21,9.21-14.18,15.24-21.13,22.09,2.11,3.83,6.99.8,8.96,4.24-4.31,1.4-9.23-1.49-13.91,1.21,1.31,1.58,1.99,2.43,2.68,3.28-1.97.89-4.61-.62-6.35,1.92,9.55,2.11,18.97,4.15,28.73,3.16,9.05,4.93,19.27,3.69,28.92,6.42.39-1.83.62-2.91.85-3.99,13.01,1.81,26.05,2.89,39.2,2.34-3.76,3.55-8.29,2.41-12.72,2.2-3.64-.16-7.31-.02-10.95-.02,6.53,1.12,12.4,4.19,18.77,4.35,1.97.21,4.12.05,4.88,2.57l.05-.02Z" fill="#939396" stroke-width="0"></path><path d="m637.59,598.55c-8.18,2.82-15.01,8.11-22.89,12.28-.6,8.29,5.34,15.99,1.92,24.17-1.37,1.65-2.73,3.32-4.1,4.97-1.33.07-2.22.66-2.54,1.99l.07-.09c-14.94,1.21-16.34.32-21.03-14.05-.99-3.05-3.18-5.11-5.25-7.63-66.42-8.25-133.01-16.52-199.59-24.79-3.35-.71-2.41-4.65-4.65-6.09-3.9-1.76-8.02-2.31-12.24-2.2-1.44-1.03-2.41-2.29-1.97-4.19,10.38-2.34,20.46,1.26,30.57,2.27,27.2,2.75,54.26,6.99,81.38,10.54,30.86,4.03,61.73,8,92.61,11.87,4.9.62,9.9.53,15.19.78,4.22-3.57,8.78-6.92,15.01-7.38,3.99.48,7.31,3.35,10.98,4.65,7.15-1.72,12.74-6.07,18.47-9.55,27.98-16.96,57.26-31.53,85.46-48.02,3.57-2.09,6.6-5.29,10.88-6.07,1.99-.37,3.8-.09,5.13,3.09-17.41,10.06-34.96,20.19-52.52,30.34-1.83.11-3.23.96-4.15,2.54-2.86.71-5.32,2.18-7.4,4.24-.69-.14-1.28.07-1.74.6-6.71,2.8-12.97,6.32-18.51,11.07v-.05c-3.44.73-6.71,1.86-9.07,4.7l-.02.02Z" fill="#111114" stroke-width="0"></path><path d="m763.67,405.56c.78.76,1.56,1.49,3.35,3.18-57.79,32.19-115.04,64.09-171.68,95.64-36.98-5.38-73.18-9.65-109.41-13.68-19.25-2.15-38.38-5.41-57.58-7.97-7.54-1.01-15.12-1.49-22.68-2.34-17.32-1.9-34.64-3.87-51.94-5.82-2.61-2.18-6.94-.57-9.6-4.79,7.26-8.66,19.25-9.21,27.7-15.63,4.38-2.27,9.55-3.37,12.9-8.09-18.56-2.59-36.41-5.06-54.23-7.54-2.73-.5-4.97-1.79-6.37-4.28,7.68-6.16,16.27-10.33,26.14-12.6-.09,3.28-3.02,3.18-3.46,5.16-3.39,1.42-7.06,2.47-9.58,7.01,17.05,2.43,33.52,4.74,49.99,7.08,2.11,2.06,4.9,1.54,7.45,1.92-.46,3.57-4.83,5.11-4.7,8.98v-.05c-10.31,5.64-22.13,8.48-31.53,16.54,79.41,9.9,158.3,21.06,238.29,29.08,11.85-6.69,24.08-13.59,36.29-20.46,6.14-.32,9.76-5.32,14.64-8,34.41-18.83,68.81-37.71,103.22-56.55,1.7-.92,3.28-1.9,3.62-4.01.46-1.42,1.49-2.18,2.89-2.54,2.09-.09,4.17-.18,6.26-.27l.02.02Z" fill="#121217" stroke-width="0"></path><path d="m537.05,181.34c.34-1.4-.14-3.09,1.31-4.06,1.79-.82,3.28-.07,3.83,1.33,2.98,7.74,6.35,15.37,6.32,23.94-.05,12.9-.16,25.73-2.36,38.54-2.09,12.28-3.48,24.65-5.18,37.05,6.76,9.65,18.33,8.27,27.31,12.6,6.42-.89,12.62-2.41,18.24-5.82,4.26-.8,7.9,2.93,12.21,1.65,2.27.44,4.54.66,6.62-.66,9.53-6.07,19.64-11.3,27.84-19.29,7.15-5.8,14.87-10.17,25-9.49-6.67-3.25-13.84-3.92-19.93-7.45-1.49-2.43-6.03-.94-6.3-4.95.78-1.31,2.09-1.74,3.53-1.99,5.68,3.09,11.14,7.01,18.19,5.71,7.52,4.63,13.27,10.61,15.81,20.71-7.68-.69-14.21-1.37-20.35-6.03-14.55,9.78-28.87,19.43-43.08,28.96-4.61-.25-8.75-.57-12.92-.66-3.02-.07-6.6-.8-8.98.48-12.26,6.62-23.69,2.25-35.01-2.11-12.53-4.81-23.39-12.37-32.58-22.16-2.57-2.73-5.13-5.66-5.13-9,.23-4.4,4.31-5.02,5.38-7.88,2.93-1.58,4.61-5.04,8.94-5.52,3.96-.8,9,1.31,13.31-1.88,3.14-11.52,5.2-23.35,3.57-35.17-.89-6.55.99-13.79-3.53-19.73.18-.76.11-1.49-.27-2.18.37-1.97.32-3.76-1.79-4.81v-.14Zm-21.45,76.83c6.14,7.58,12.58,12.4,20.32,17.12.92-9.14,1.72-17.18,2.57-25.62-4.83-.27-8.89-.48-12.81-.71-3.35,3.07-6.39,5.84-10.08,9.21Z" fill="#241715" stroke-width="0"></path><path d="m749.86,330.48c-1.28-3.64-4.42-1.67-6.74-2.2-2.04-5.04-5.71-2.09-8.82-1.76.07-.37,0-.99.21-1.1,8.13-4.45,16.29-8.87,24.45-13.27.3,1.63,1.26,2.29,2.96,2.45,5.13.48,9.03-2.52,13.27-4.54.76,2.06,2.8,3,4.45,3.09,11.23.69,19.66,8.75,30.38,11.04,6.12,1.31,11.57,5.38,16.52,9.58-12.81,12.05-25.09,13.68-39.39,4.88-2.57-1.58-4.95-3.12-7.95-4.03-4.61-1.4-8.96-3.62-13.47-3.92-2.61,2.06-1.79,4.54-2.09,6.69-3.99-1.7-.64-6.74-3.92-8.68-3.71-1.63-6.35,2.5-9.85,1.74v.02Z" fill="#b9bcbb" stroke-width="0"></path><path d="m369.78,635.1c22.77,3.12,45.66,5.57,68.26,9.6,19.29,3.44,38.74,5.8,58.13,8.29,18.7,2.41,37.26,5.84,56.02,7.84,12.33,1.31,24.75,2.52,37.03,4.4,9.67,3.69,19.84,4.01,29.99,4.54v-.07c.09,1.88.6,3.78-.82,6.12-6.07,2.45-12.03-1.63-18.19-2.22-13.84-1.35-27.59-3.85-41.33-6.07-13.77-2.22-27.7-3.14-41.43-6.07-13.22-2.82-26.88-3.62-40.33-5.52-19.8-2.82-39.5-6.48-59.39-8.55-19.18-1.99-38.1-5.45-57.26-7.49-1.7-.3-3.73-.02-4.1-3.28,4.15-2.68,9.03-.57,13.4-1.49l.02-.02Z" fill="#f3eef5" stroke-width="0"></path><path d="m791.33,291.3c-1.12-1.97-2.22-3.96-3.18-5.66-3.85-2.18-7.93-.14-11.78-1.88,1.17-4.99,6.9-3.99,10.29-8.41v-11.16c5.09-.94,5.84,3.94,8.8,6.78,22.64-1.6,42.46,7.84,62,18.19,2.09,1.1,2.5,2.61,2.02,5.52-8.32,3.83-18.15,4.45-25.96,9-10.17-7.26-19.68-13.27-31.14-16.36-3.46,1.33-6.32,5.43-11.04,3.94v.02Z" fill="#9a9e9c" stroke-width="0"></path><path d="m381.22,552.48c8.23,3.25,17.07,3.14,25.62,4.56,20.94,3.44,42,6.14,63.01,9.07,22.5,3.12,45,6.12,67.5,9.23,18.74,2.59,37.51,5.16,56.2,8.02,5.29.82,10.4,2.15,15.65.11,1.6-.62,2.89.27,3.92,1.51-4.79,5.52-5.32,5.64-21.01,4.24-13.29-2.25-26.53-5.16-39.91-6.55-14.69-1.56-29.12-4.49-43.85-5.82-17.64-1.58-35.06-5.52-52.63-8-24.7-3.48-49.51-6.19-74.17-10.01-8.29-1.28-17.07-1.1-25.09-4.97.71-1.31,1.24-2.29,1.76-3.25,1.44-.16,2.89-.32,4.33-.48.73.18,1.47.37,2.2.55,5.16,3.69,10.95,1.63,16.47,1.81v-.02Z" fill="#121216" stroke-width="0"></path><path d="m584.57,593.81c-13.82,1.97-27.36-.78-40.9-2.66-24.81-3.44-49.56-7.19-74.33-10.84-25.52-3.76-51.07-7.26-76.62-10.84-18.4-2.59-36.8-5.73-55.38-7.1-1.81-1.21-4.4-.99-6.26-3.94,6.71-3.46,13.56-.11,20.07-.85.57.46,1.1,1.26,1.74,1.35,16.45,2.63,32.97,5.22,49.49,7.1,30.84,3.48,61.45,8.52,92.2,12.51,29.92,3.87,59.73,8.8,90.02,11.91v3.32l-.05.02Z" fill="#141317" stroke-width="0"></path><path d="m626.56,669.79c10.31-8.25,21.97-14.43,33.25-21.17,22.61-13.52,45.46-26.74,68.65-39.23,19.22-10.36,37.05-23.14,56.89-32.4,6.05-2.82,10.31-8.84,17.16-10.56,1.86.21,3.94,0,4.7,2.38-1.44,5.02-6.69,4.45-10.04,6.64-28.5,18.7-58.98,34.07-88.14,51.69-22.32,13.47-44.66,26.9-67.29,39.8-4.4,2.5-8.59,8.02-15.1,4.74-.23-.62-.25-1.26-.07-1.9h0Z" fill="#f1ecf4" stroke-width="0"></path><path d="m757.42,405.81c-1.4.34-2.43,1.1-2.89,2.54-4.86-3.69-8.64.21-12.21,2.27-7.52,4.38-14.82,9.42-22.43,13.34-28.85,14.92-56.14,32.49-84.55,48.14-2.93.09-5.87.16-8.82.25-1.21-1.67-3.23-1.65-4.9-2.31,1.79-3.18,5.11-1.63,7.65-2.5,1.31-.53,3.16.05,3.69-1.95h.05c1.54.25,2.41-.41,2.63-1.95h-.07c4.38-.09,8.04-2.11,11.57-4.4,12.12-7.84,24.65-15.12,37.26-21.95,25.39-13.75,50.13-28.62,75.45-42.48,9.12-4.99,18.15-10.43,26.97-15.65-1.21-3.44-3.21-2.77-5.02-2.57-4.42-1.1-8.82-2.18-13.2-3.25-.3-2.04,1.31-2.68,2.02-3.85h-.05c9.55.53,19.09,1.19,27.61,4.83.99,3.51-1.05,4.83-2.5,6.48-13.04,5.43-24.1,14.32-36.52,20.83-2.54.57-2.52,2.2-1.74,4.17h0Z" fill="#141417" stroke-width="0"></path><path d="m658.55,178.82c.23-.44.23-.89.02-1.35,1.19-.55,1.49-1.54,1.33-2.73.23-.78.48-1.56.71-2.31,1.47-1.15,2.2-2.66,2.22-4.51l.07-.11c2.11-.92,2.02-2.75,1.99-4.58l.14-.25c1.76-.8,2.43-2.25,2.36-4.1,23.14-46.44,46.28-92.91,69.49-139.31.41-.8,1.83-1.1,2.75-1.63,3.02,3,1.33,5.71,0,8.43-14.82,29.92-29.74,59.8-44.45,89.77-10.54,21.49-20.76,43.14-32.54,63.97-1.35-.41-2.7-.85-4.06-1.26l-.05-.02Z" fill="#191d1c" stroke-width="0"></path><path d="m584.57,593.81v-3.32c-30.29-3.14-60.1-8.04-90.02-11.91-30.75-3.99-61.36-9.03-92.2-12.51-16.5-1.86-33.02-4.47-49.49-7.1-.64-.09-1.17-.89-1.74-1.35,3.55-1.15,1.19-8.27,7.1-6.99-.53.99-1.05,1.95-1.76,3.25,8.02,3.87,16.79,3.67,25.09,4.97,24.65,3.83,49.47,6.53,74.17,10.01,17.57,2.47,34.99,6.42,52.63,8,14.73,1.33,29.19,4.26,43.85,5.82,13.38,1.42,26.62,4.31,39.91,6.55-4.19-1.21-4.26,4.35-7.56,4.58h.02Z" fill="#78787c" stroke-width="0"></path><path d="m735.86,109.65c-.8-2.57.16-4.17,2.18-5.87,17.25-14.5,31.64-31.76,46.26-48.76,1.7-1.97,2.96-4.45,3.99-6.85,4.54-10.77,11.52-19.59,20.96-26.37,2.82-2.02,6.03-3.62,7.38-6.92,2.82-6.92,10.43-8.5,14.87-13.68,1.67-1.95,4.97-1.42,7.7.78-2.2,6.97-8.34,10.4-13.77,14.18-11.69,8.13-23.37,16.93-29.49,29.67-5.96,12.4-15.03,21.74-23.67,31.66-8.98,10.33-18.49,20.23-27.77,30.31-2.43,2.63-4.99,5.02-8.64,1.83Z" fill="#1e2220" stroke-width="0"></path><path d="m341.72,486.72c8.02,4.1,16.98,2.2,25.46,3.76,19.7,3.62,39.87,4.65,59.5,9,5.48,1.21,11.48-.64,16.63,2.68-1.86.37-4.06.05-4.93,2.41-31.66-1.17-62.73-7.56-94.12-11.09-.55-.41-1.19-.6-1.88-.55-1.65-1.95-6.44-1.67-4.38-6.23h3.71v.02Z" fill="#1e1e22" stroke-width="0"></path><path d="m455.84,71.41c9.53,12.17,34.62,74.03,34.48,84.07-2.22,0-3.62-1.49-4.31-3.16-10.75-25.57-21.4-51.19-31.94-76.85-.3-.71.82-1.97,1.76-4.06Z" fill="#282a29" stroke-width="0"></path><path d="m524.99,106.33c-1.33,4.06-4.28,4.54-8.11,4.26-5.57-.41-11.3-1.31-16.2,1.24-3.67,3.96-2.52,8.23-2.43,11.5,3.69,7.01,7.01,13.36,10.38,19.68,1.47,2.75,1.33,5.06-1.63,6.71-6.97-9.21-13.47-18.65-16.41-30.04.14-6.55,3.3-11.46,8.66-15.74,7.52-1.81,15.42-.62,23.32.21.82.71,1.65,1.42,2.47,2.13l-.07.05Z" fill="#2e1817" stroke-width="0"></path><path d="m346.83,426.8c.44-1.97,3.37-1.88,3.46-5.16-9.9,2.27-18.47,6.44-26.14,12.6-.25-1.49-.76-3.16.69-4.17,7.15-4.99,12.69-11.48,18.33-18.05,2.36-2.75,5.71-6.16,10.4-5.93,3.21.37,6.76-1.08,10.04,2.29,2.15,2.68,1.6,6.3.96,9.81-1.58,2.57-5.43.89-6.51,3.9-1.37,1.63-2.75,3.23-4.01,4.7h-7.22v.02Z" fill="#bdbbb5" stroke-width="0"></path><path d="m346.44,507.13c9.55,1.95,19.13,3.73,28.89,4.58,6.37.55,12.67,1.58,18.67,2.36.8,3.73-1.51,4.77-2.59,6.35-12.35,2.06-23.71-4.24-35.56-2.09-2.89-1.99-6.39-1.67-9.55-2.59-3.09-.9-6.13-3.22-9.14-6.94,2.68-2.91,6.23-1.01,9.28-1.67h0Z" fill="#101014" stroke-width="0"></path><path d="m749.86,330.48c3.51.76,6.14-3.37,9.85-1.74,3.3,1.95-.07,6.99,3.92,8.68-.27,6.94,3.57,11.91,8.78,17.09-3.96,2.2-7.61,1.01-11.02,1.19-4.56-6.46-5.09-13.93-4.63-23.3-9.62,5.25-17.99,9.65-26.19,14.37-3.07,1.76-5.89,3.35-10.75.85,11.07-5.06,19.52-12.76,30.02-17.12l.02-.02Z" fill="#9c9c9b" stroke-width="0"></path><path d="m781.91,486.19c-16.73,9.69-33.47,19.34-50.11,29.14-2.98,1.76-5.52,4.31-10.29.94,7.38-6.99,16.41-10.72,24.63-15.63,8.11-4.83,16.31-9.53,24.47-14.3,3.87-1.26,6.44-5.45,11-5.04,2.29,1.58,1.31,3.23.32,4.88h-.02Z" fill="#19191d" stroke-width="0"></path><path d="m330.49,438.53c17.83,2.47,35.67,4.97,54.23,7.54-3.35,4.72-8.52,5.82-12.9,8.09-.16-1.1-.34-2.22-.5-3.28-10.91-5.59-23-4.03-34.6-6.26-2.61-1.35-4.61-3.53-6.21-6.12l-.02.02Z" fill="#8f9095" stroke-width="0"></path><path d="m355.69,520.42c9.23,1.42,18.47,2.84,27.68,4.35.5.09.82,1.15,1.26,1.76-2.63,4.99-7.24,3.37-11.04,2.75-3.71-.6-7.31-1.76-11.14-1.26-5.32-1.79-12.03.64-16.31-5.16,2.77-3.6,6.53-1.44,9.51-2.45h.05Z" fill="#262529" stroke-width="0"></path><path d="m677.84,187.14c7.54-9.78,15.01-19.27,25.41-27.45-.07,8.13-2.11,11.32-16.22,25.09-2.02,1.97-4.15,5.98-9.19,2.36Z" fill="#2a2e2d" stroke-width="0"></path><path d="m775.2,310.06c-4.24,2.02-8.13,5.02-13.27,4.54-1.72-.16-2.66-.82-2.96-2.45,9.74-5.41,18.93-11.91,29.51-15.74.64.92,1.31,1.83,2.34,3.28-4.47,4.63-10.7,6.62-15.63,10.4v-.02Z" fill="#383630" stroke-width="0"></path><path d="m765.89,527.48c-3.67,1.01-7.13,4.72-11.48.87,2.11-8.78,10.84-8.23,16.36-12.01,1.42.05,2.82.11,3.69,1.49.39,2.02-1.31,3.14-1.99,4.72-3.35.11-4.74,2.84-6.6,4.95h.02v-.02Z" fill="#222125" stroke-width="0"></path><path d="m364.74,550.67c-.73-.18-1.47-.37-2.2-.55-.69-4.08.82-7.1,4.35-9.19.34.34.66.69,1.01,1.05-.14,1.03-.3,2.04-.48,3.3,2.29.96,4.54,1.92,6.76,2.89-2.25,4.22-6.42,1.24-9.44,2.5h0Z" fill="#99999d" stroke-width="0"></path><path d="m798.16,527.5c-6.12-.99-12.76,2.5-18.44-2.18,6.09,1.1,12.72-2.11,18.44,2.18Z" fill="#a29ca7" stroke-width="0"></path><path d="m523.09,862c-.53-3.35.73-6.26,2.29-9.07h2.29v9.16c-1.54-.02-3.07-.07-4.58-.09Z" fill="#ab99a0" stroke-width="0"></path><path d="m337.98,486.69c-2.06,4.56,2.73,4.28,4.38,6.23-2.86.44-5.96,1.17-7.01-2.68-.53-1.92.3-3.46,2.66-3.55h-.02Z" fill="#98989c" stroke-width="0"></path><path d="m811.83,529.82c-3.12-.57-6.94,1.74-9.21-2.29,3.09.62,6.9-1.51,9.21,2.29Z" fill="#a29ca7" stroke-width="0"></path><path d="m557.46,866.58c.14-1.67.11-3.46,2.02-3.96,2.68.5,2.34,2.45,2.57,4.08-1.54-.05-3.05-.07-4.58-.11Z" fill="#ab99a0" stroke-width="0"></path><path d="m777.49,428.86c-2.59.16-5.25.57-7.03-1.99,2.61-.27,5.36-.99,7.03,1.99Z" fill="#98989c" stroke-width="0"></path><path d="m537.07,181.48c2.11,1.05,2.15,2.84,1.79,4.81-1.95-1.1-2.13-2.86-1.79-4.81Z" fill="#8d8c96" stroke-width="0"></path><path d="m658.55,178.82c1.35.41,2.7.85,4.06,1.26-2.22,2.36-3.53,1.74-4.06-1.26Z" fill="#e7ba9a" stroke-width="0"></path><path d="m664.9,163.19c.05,1.83.11,3.69-1.99,4.58-.18-1.88-.11-3.69,1.99-4.58Z" fill="#e7ba9a" stroke-width="0"></path><path d="m667.39,158.84c.07,1.86-.62,3.3-2.36,4.1.05-1.81.25-3.51,2.36-4.1Z" fill="#e7ba9a" stroke-width="0"></path><path d="m662.83,167.91c0,1.86-.76,3.37-2.22,4.51-.14-1.92-.05-3.76,2.22-4.51Z" fill="#e7ba9a" stroke-width="0"></path><path d="m617.01,871.16c1.24-2.29,2.66-2.93,4.42-.48-1.47.16-2.93.32-4.42.48Z" fill="#a39ca7" stroke-width="0"></path><path d="m603.1,871.33c1.88-.05,3.8-.21,4.72,2.02-1.92.14-3.73.05-4.72-2.02Z" fill="#a39ca7" stroke-width="0"></path><path d="m767.91,481.33c.32-1.33,1.1-2.11,2.54-2.04-.14,1.56-1.03,2.2-2.54,2.04Z" fill="#99999d" stroke-width="0"></path><path d="m659.9,174.74c.16,1.21-.14,2.2-1.33,2.73-.34-1.31.09-2.22,1.33-2.73Z" fill="#e7ba9a" stroke-width="0"></path><path d="m614.76,873.46c.25-1.21,1.01-1.95,2.2-2.22-.21,1.26-.92,2.04-2.2,2.22Z" fill="#a39ca7" stroke-width="0"></path><path d="m516.22,768.1c1.92-5.09,4.81-9.92,9.49-12.37,4.47-2.36,4.88-7.45,8.91-10.33,4.17,2.13,7.52,6.28,13.5,6.64,4.77-1.92,8.73-7.84,16.57-6.44,3.8,9.03,15.17,6.62,22.29,12.83v22.32c2.15,5.43,5.8,7.42,9.6,9.26,2.68,1.31,5.75,2.22,6.71,5.61.8,2.29,2.73,4.19,2.29,6.87-.46,7.1-2.82,13.88-2.57,21.22.21,6.44-4.26,10.36-10.86,10.75-6.39.37-13.11.87-19.22-.57-6.09-1.44-10.61.6-15.47,3-2.84,1.58-5.77,2.82-9.14,2.29-.34-3.35.62-6.8-1.12-10.77-5.5-1.24-11.14-3.37-15.17-10.08,3.05-10.08.34-21.63,3.9-32.81,2.06-6.48,2.29-13.47-2.91-19.02-6.03-1.99-11.34.48-16.79,1.6h0Z" fill="#ab99a0" stroke-width="0"></path><path d="m516.22,768.1c5.45-1.12,10.79-3.6,16.79-1.6,5.2,5.54,4.97,12.53,2.91,19.02-3.55,11.16-.85,22.71-3.9,32.81,4.03,6.71,9.67,8.84,15.17,10.08,1.74,3.96.78,7.42,1.12,10.77-.32,2.45.94,5.45-2.34,6.9-1.24.27-1.99,1.03-2.27,2.25h0c-1.24.3-1.99,1.05-2.31,2.29h-2.27c-3.09.6-6.9-1.65-9.16,2.27h-4.58c-4.63-1.97-9-4.38-13.84-6.07-9.94-3.51-14.27-12.88-15.37-22.02-1.26-10.33-4.79-20.69-2.34-31.73,4.01-3.9,6.94-9.14,10.52-13.93,3.21-4.33,5.68-9.81,11.89-11.04l-.02.02Z" fill="#c1afb5" stroke-width="0"></path><path d="m626.56,669.79c-.18.64-.16,1.28.07,1.9.23,28.48,0,56.96,1.03,85.44,1.15,32.97.6,65.99.71,99,0,1.03-.71,2.09-1.21,3.53-4.74-1.42-3.51-5.29-3.62-8.27-.69-19.36-1.24-38.7-1.83-58.06v-11.46l-.21-38.95c-.11-24.45-.23-48.87-.34-73.32,1.08-15.92-1.1-31.96,1.88-47.89,5.27,7.24,2.84,15.47,3.37,23.21.55,8.25.16,16.57.16,24.86h0Z" fill="#1c171c" stroke-width="0"></path><path d="m557.46,836.89c4.88-2.41,9.37-4.45,15.47-3,6.12,1.44,12.83.94,19.22.57,6.58-.39,11.07-4.31,10.86-10.75-.25-7.33,2.11-14.11,2.57-21.22,1.97,1.05,3.96,2.11,6.26,3.35-.87,6.64-2.57,12.97-5.84,19.04,3.02,2.09,5.48,3.76,8.25,5.66v32.28c-1.12,2.43-3.12,4.4-7.42,3.16-2.54-4.56.27-12.42-8.78-15.19-1.88-.09-5.27-.23-9.21-.41-3.07-2.68-6.46-5.66-9.97-8.75h-11.34c-3.9-.57-5.71-5.54-10.06-4.79v.05Z" fill="#a39ca7" stroke-width="0"></path><path d="m621.68,781.9v11.46h-9.76c-1.02-4.84.11-9.06,3.39-12.65,2.13.39,4.26.78,6.37,1.19Z" fill="#a39ca7" stroke-width="0"></path><path d="m529.97,852.9c2.27-3.92,6.07-1.67,9.16-2.27-2.27,3.96-6.07,1.65-9.16,2.27Z" fill="#ab99a0" stroke-width="0"></path><path d="m543.71,848.34c.27-1.24,1.03-1.99,2.27-2.25-.3,1.21-1.05,1.97-2.27,2.25Z" fill="#ab99a0" stroke-width="0"></path><path d="m541.4,850.61c.3-1.24,1.08-1.99,2.31-2.27-.3,1.24-1.08,1.99-2.31,2.27Z" fill="#ab99a0" stroke-width="0"></path><path d="m516.1,692.86c3.35,3.67,7.58,1.81,12.85,2.02.87-.96,2.29-2.54,3.78-4.17,4.19,1.9,6.46,5.52,7.88,10.22-1.47.44-2.86.85-4.24,1.26-9.26-2.27-18.9-1.97-28.16-3.83-28.66-5.75-57.85-8.04-86.61-13.15-2.34-.41-5.27-.96-7.06,1.97.57,3.07,3.48,2.5,5.27,3.55-1.97,3.37-6.64.07-8.64,3.64-.57,2.2-.64,4.24,2.47,4.74,9.12.21,17.83,2.98,26.74,4.38,30.61,4.79,61.2,9.74,91.81,14.62,2.66,3.21,6.16,1.79,9.42,1.76.71,0,1.4.02,2.09.16-4.97,10.65-16.02,15.97-29.1,13.47-19.96-3.8-40.1-6.21-60.1-9.44-13.29-2.15-26.92-2.57-39.96-6.37-2.5-.73-4.88-1.88-6.85-2.63-6.67-10.36-9.99-20.87-8.02-32.28,10.54-12.42,23.9-11.89,37.67-10.1.37,1.47.62,2.57.89,3.67-1.47.96-3.85.85-4.06,4.9,27.11,4.58,54.62,7.47,81.93,11.64l-.02-.02Zm-96.92,18.51c33.2,5.02,66.49,10.04,99.78,15.05,2.59.39,5.22,1.1,7.79-.18.32-.16.64-.37.82-.66.82-1.28-1.26-.46,2.09-2.06-37.44-9.42-74.88-9.23-110.39-19.32-.14-.05-.46.5-.69.78-.92,1.44-.44,2.89.6,6.39h0Z" fill="#e6e1d7" stroke-width="0"></path><path d="m419.83,690.71c-1.79-1.05-4.7-.48-5.27-3.55,1.76-2.93,4.72-2.38,7.06-1.97,28.76,5.11,57.95,7.4,86.61,13.15,9.26,1.86,18.9,1.56,28.16,3.83,1.28,1.9,4.42,1.54,5.13,4.15v.05c-.96.64-1.9,1.28-2.84,1.92-11.07-2.5-22.48-3.02-33.57-5.04-28.3-5.16-56.87-8.23-85.26-12.56l-.02.02Z" fill="#25211a" stroke-width="0"></path><path d="m419.83,690.71c28.39,4.33,56.96,7.4,85.26,12.56,11.09,2.02,22.5,2.54,33.57,5.04,1.49.16,2.5-.39,2.82-1.92v-.05c1.1-.34,2.15-.71,3.3-1.08,2.93,4.93,1.01,7.49-4.08,8.55-21.29-3.3-42.55-6.69-63.83-9.85-21.08-3.12-41.91-8.11-63.65-9.69.23,2.61.34,3.73.44,4.86-3.09-.5-3.05-2.54-2.47-4.74,1.99-3.55,6.67-.27,8.64-3.64l.02-.02Z" fill="#c7c4bb" stroke-width="0"></path><path d="m413.66,699.09c-.09-1.12-.21-2.25-.44-4.86,21.72,1.58,42.57,6.58,63.65,9.69,21.31,3.16,42.57,6.55,63.83,9.85,1.47.82,2.96,1.65,4.7,2.61-.57,1.26-1.12,2.45-1.67,3.62-.69-.14-1.37-.18-2.09-.16-2.75-2.73-6.09-2.15-9.42-1.76-30.59-4.88-61.18-9.85-91.81-14.62-8.94-1.4-17.62-4.17-26.74-4.38h-.02Z" fill="#1f1c13" stroke-width="0"></path><path d="m516.1,692.86c-27.31-4.17-54.83-7.06-81.93-11.64.21-4.06,2.61-3.94,4.06-4.9,9.37,3.35,19.36,3.02,29.03,4.63,18.54,3.05,37.23,5.09,55.86,7.47,1.97.25,3.64.57,4.67,2.89-3.62,3.64-7.95.71-11.69,1.56Z" fill="#221e1a" stroke-width="0"></path><path d="m374.18,548.15c-2.25-.96-4.49-1.9-6.76-2.89.18-1.26.32-2.27.48-3.3,9.97,2.75,20.35,2.15,30.5,3.64,27.43,4.01,54.94,7.33,82.44,10.91,31.62,4.12,63.26,8.2,94.88,12.33,10.17,1.33,20.48,2.09,30.47,4.28,10.72,2.34,19.25-1.67,27.86-6.83,18.56-11.09,37.14-22.09,55.84-32.95,3.78-2.2,7.52-5.68,12.6-3.14,1.03,1.92-.53,2.77-1.67,3.44-23.97,13.95-48,27.82-71.97,41.82-6.48,3.8-12.67,4.74-20.51,3.35-19.38-3.46-39.11-5.06-58.68-7.68-31.57-4.24-63.03-9.28-94.67-12.85-22.32-2.52-44.38-6.99-66.86-8-4.26-3.32-9.28-1.65-13.95-2.15v.02Z" fill="#131216" stroke-width="0"></path><path d="m456.39,530.41c21.08,2.82,42.18,5.54,63.24,8.48,13.52,1.88,27.13,2.91,40.51,5.91,17.6,3.94,25.89,2.18,41.33-7.97,5.06.3,10.95-1.6,15.74,3.99-5.2,5.8-12.85,7.17-17.67,12.12-12.24-.6-23.78-2.66-35.45-4.24-12.4-1.67-24.84-3.12-37.26-4.79-22.55-3.02-45.09-5.96-67.61-9.1-4.77-.66-10.01,1.08-14.27-2.54,3.73-1.15,8.09,1.63,11.43-1.86h0Z" fill="#848387" stroke-width="0"></path><path d="m587.59,529.59c-1.42-.46-2.82-1.33-4.24-1.35-14.05-.23-27.72-3.6-41.59-4.9-12.83-1.19-25.16-4.93-38.06-5.8-15.37-1.05-30.61-4.15-45.96-5.68-5.36-.53-10.08-3.02-15.47-4.7,4.83,0,9.9-.96,14.46.18,15.81,3.99,32.05,4.42,48.07,6.67,10.45,1.47,20.9,3.23,31.28,4.9,10.84,1.74,21.77,2.04,32.56,3.94,5.91,1.03,11.66,3.25,17.96,2.61,3.44-.37,6.78-.25,9.6-2.59.14,2.93-.96,4.77-4.15,4.9-1.67.07-3.62-.34-4.47,1.81Z" fill="#504f54" stroke-width="0"></path><path d="m722.11,493.02c28.5-15.92,57.03-31.83,86.45-48.25,1.01,5.64-2.8,7.08-5.18,8.48-16.63,9.76-33.41,19.32-50.27,28.69-8.52,4.72-16.59,10.29-25.71,13.91-.89-2.59-3.14-2.59-5.29-2.8v-.02Z" fill="#828185" stroke-width="0"></path><path d="m752.26,433.7c1.01-3.3,3.69-3.51,6.32-3.05,13.61,2.31,27.2,4.77,40.78,7.24.94.18,1.81.87,2.63,1.31-.25,2.59-1.95,3.23-3.85,3.69-14.14-2.04-28.5-2.63-42.32-6.78-1.56-.46-2.82-.92-3.57-2.38v-.02Z" fill="#cacbcc" stroke-width="0"></path><path d="m674.31,577.98c.94-1.58,2.31-2.43,4.15-2.54,3.35,1.65,6.3,3.67,6.97,8.2-6.3,2.73-8.55-1.83-11.14-5.68l.02.02Z" fill="#a29ca7" stroke-width="0"></path><path d="m374.18,548.15c4.67.5,9.71-1.17,13.95,2.15-2.27.8-5.32-.8-6.92,2.15-5.54-.18-11.32,1.88-16.47-1.81,3.02-1.26,7.19,1.72,9.44-2.5h0Z" fill="#78787c" stroke-width="0"></path><path d="m665.17,582.84c.46-.55,1.03-.76,1.74-.6,1.86,1.12,4.03,2.2.87,4.33-2.57-.09-2.36-2.06-2.61-3.73Z" fill="#a29ca7" stroke-width="0"></path><path d="m646.66,593.9c1.24.23,2.5.48,4.17.8-2.47,2.25-3.3.66-4.15-.85v.05h-.02Z" fill="#a29ca7" stroke-width="0"></path><path d="m727.31,495.77c-.41,1.28-1.33,1.79-2.61,1.81.41-1.26,1.26-1.9,2.61-1.81Z" fill="#828185" stroke-width="0"></path><path d="m765.87,527.48c.53.32,1.05.62,1.63.96-1.51,1.19-1.19-.48-1.6-.99h-.02v.02Z" fill="#a29ca7" stroke-width="0"></path><path d="m633.21,266.6c-8.2,8-18.31,13.22-27.84,19.29-2.09,1.33-4.35,1.1-6.62.66-1.05-.96-2.13-1.92-3.9-3.53,3.12-1.49,7.13.37,10.04-4.65,2.11-10.47,3.53-22.96,2.96-35.67-.21-4.45-.78-9.07,2.29-12.97,11.64-1.08,20.58-8.18,30.29-13.59,1.74,5.34-.55,10.4-1.7,15.35-.69,2.98.27,4.88,1.15,7.19-2.68,0-4.61.85-4.42,4.01-1.42.25-2.75.71-3.53,1.99.27,4.01,4.81,2.52,6.3,4.95-8.13,4.86-9.03,7.88-5.04,16.96h.02Z" fill="#e5b998" stroke-width="0"></path><path d="m640.43,216.17c-9.71,5.41-18.65,12.51-30.29,13.59-8.34,3.05-15.19-1.17-20.16-6.37-9.88-10.36-21.49-18.58-31.92-28.21-1.56-1.42-3.76-2.82-2.15-6.48,6.37-.05,8.11,6.46,12.3,9.33,4.63,3.18,9.58,5.89,14.39,8.82,5.2,8.94,13.79,13.54,22.52,17.92,17.12-.85,29.17-11.34,41.63-21.01,1.05.37,2.11.76,3.48,1.24-.5,6.26-7.31,6.9-9.78,11.2l-.02-.02Z" fill="#321510" stroke-width="0"></path><path d="m539.08,243.34c-4.31,3.16-9.35,1.08-13.31,1.88-4.33.48-6.03,3.94-8.94,5.52-1.03-.39-2.38-1.17-1.76-2.18,1.76-2.86,4.15-5.25,7.7-7.45,5.04.96,11.09-2.27,16.31,2.22Z" fill="#aaabb0" stroke-width="0"></path><path d="m635.48,242.72c-.18-3.16,1.74-4.01,4.42-4.01,4.31,3.64,10.13,5.16,13.79,9.71-7.08,1.31-12.51-2.61-18.19-5.71h-.02Z" fill="#e2dee2" stroke-width="0"></path><path d="m635.52,390.33c-13.15.55-26.19-.53-39.2-2.34-7.15-3.23-14.89-1.99-22.34-2.96-2.11-2.09-4.7-2.13-7.4-1.74-7.4-1.42-14.76-3.25-22.41-2.82-.69-.85-1.37-1.7-2.68-3.28,4.67-2.73,9.6.16,13.91-1.21,22.43,3.41,44.84,6.83,68.81,10.49-1.86-6.78-4.77-11.34-7.35-16.08-6.07-11.11-4.31-24.84,4.7-35.77,3.44,4.19.87,8.55-.62,11.62-4.61,9.49-1.99,17.8,2.89,25.82,2.7,4.45,4.54,9.55,9.35,13.4,9.85-5.87,19.87-11.82,29.88-17.78,4.33-1.4,8.48-5.89,13.13-.64-13.54,7.77-27.11,15.56-40.65,23.32v-.05Z" fill="#212019" stroke-width="0"></path><path d="m511.25,369.89c-.07,1.05-.16,2.13-.21,3.09-1.99,1.63-4.33.69-6.37,1.28-14.57-2.2-29.14-4.42-43.74-6.58-22.04-3.23-44.11-6.42-66.17-9.62-1.26-1.35-3.76-1.15-4.26-3.39.11-.34.18-.69.37-.96.21-.3.5-.66.82-.71,1.49-.3,3.07-.89,4.51-.69,38.36,5.8,76.71,11.71,115.07,17.57h-.02Z" fill="#20221a" stroke-width="0"></path><path d="m734.32,326.49c3.12-.3,6.78-3.28,8.82,1.76-11.04,6.35-22.06,12.69-33.13,19.02-3.48,1.99-6.94,2.91-10.1-.62,11.48-6.71,22.94-13.45,34.41-20.16Z" fill="#2f302a" stroke-width="0"></path><path d="m629.27,467.56c-2.54.87-5.87-.69-7.65,2.5-.76.16-1.54.32-2.29.48-10.54-1.37-21.08-2.75-32.1-4.17-4.86,5.41-11.52,8.64-18.86,7.58-16.15-2.34-32.35-4.31-48.41-7.01-28.8-4.83-57.74-8.66-86.61-13.01-3.92-.6-8.45-.34-11.23-4.26,1.7-2.52,4.4-2.29,6.92-2.54,2.66,1.33,5.22,4.08,8.39.78-2.25-3.32-5.41-2.61-8.39-2.59l-.11-.07c1.97-5.06,6.6-1.15,9.6-2.82,15.15,1.35,30.15,3.76,45.27,5.48,35.51,4.01,70.89,9.16,106.34,13.79,1.9.25,4.33,2.36,6.39-3.16-53.62-7.72-106.84-14.41-160-21.49.07-4.74,3-5.18,6.19-5.29,12.6,4.7,26.07,4.06,39.11,5.98,34.09,5.04,68.3,9.23,102.46,13.84,4.12.55,8.16,1.67,12.24,2.52,1.12,2.77,3.69,3.18,6,3.73,3.3-.99,2.77-5.41,6.05-6.26,9.9-3,18.24-9.12,27.11-14.05,19.59-10.86,39.39-21.31,59.14-31.89,13.68-7.31,26.62-15.99,40.62-22.84,2.52-1.24,4.83-2.06,7.56-1.81,1.56,4.97-2.86,5.64-5.52,7.1-26.1,14.53-52.29,28.92-78.47,43.28-16.22,8.91-32.51,17.69-48.73,26.62-1.99,1.1-4.45,1.9-5.77,4.72,2.96.48,5.2.87,7.45,1.24,1.4,1.79,3.23,1.88,5.22,1.37,3.69.23,7.35.44,11.04.66.25.62.62,1.15,1.1,1.6l-.05-.02Zm-187.13-20.39c-.11.55-.21,1.1-.32,1.67,3.21,1.01,6.37,2.43,9.67,2.93,17.57,2.61,35.19,4.86,52.77,7.52,22.48,3.39,45.16,5.34,67.41,10.1,3.39.73,4.63-.76,6.62-4.7-46.15-5.93-91.15-11.73-136.15-17.51v-.02Z" fill="#181714" stroke-width="0"></path><path d="m442.65,431.71c-3.18.11-6.12.55-6.19,5.29,53.18,7.08,106.41,13.77,160,21.49-2.06,5.5-4.49,3.41-6.39,3.16-35.45-4.65-70.82-9.78-106.34-13.79-15.1-1.7-30.13-4.12-45.27-5.48-3.53-2.5-7.17-2.38-10.61-1.05-1.19,2.18-.5,3.18,1.01,3.87l.11.07c.02.62.02,1.21,0,1.83-2.52.23-5.22,0-6.92,2.54-3.16,4.81-7.01,8.59-13.72,9.21-3.9-.14-7.79-3.09-12.53-2.5-2.93.37-4.63-2.04-5.8-4.56v.05c3.92-1.63,6.39-4.56,8.94-8.59-2.22-.21-3.23-.3-4.26-.39-2.54-.39-5.34.14-7.45-1.92,3.67-.3,7.33-.57,10.36-.82,3.25-1.6,4.12-3.92,4.22-6.69,2.09-.96,5.48,0,5.87-3.73-2.18-.99-4.19-1.9-6.21-2.82,7.97.57,14.5-1.97,20.3-7.72,4.81-4.77,10.56-8.59,16.15-13.04,5.75,1.49,11.52,3.18,16.93,2.41,3.12,4.38.73,6.55-1.44,8.68-4.35,4.26-8.71,8.52-10.77,14.5h.02Z" fill="#bcbcb8" stroke-width="0"></path><path d="m635.52,390.33c13.54-7.77,27.11-15.56,40.65-23.32,1.95.21,4.12-.05,5.02,2.38-16.52,9.76-32.93,19.75-50.54,27.47-6.37-.14-12.24-3.21-18.77-4.35,3.64,0,7.31-.14,10.95.02,4.42.21,8.96,1.35,12.72-2.2h-.02Z" fill="#f8f6ea" stroke-width="0"></path><path d="m630.62,396.83c17.62-7.72,34.02-17.71,50.54-27.47,2.47-.6,4.47-3.09,7.38-1.79-3.94,6.97-27.79,21.26-53.04,31.8-.76-2.5-2.91-2.36-4.88-2.57v.02Z" fill="#aeaeab" stroke-width="0"></path><path d="m608.51,451.52c-3.28.82-2.75,5.27-6.05,6.26-2.34-.55-4.88-.96-6-3.73,2.09-.89,4.45,1.42,6.94-.99-10.84-13.27-11.46-27.56-4.01-43.69,6.74,5.48.66,10.01,1.15,14.41.5,4.51.11,9.12.11,13.36,2.8,5.13,5.34,9.76,7.86,14.39h0Z" fill="#3d3d31" stroke-width="0"></path><path d="m390.18,431.5c-1.51-.09-3.05-.16-4.56-.25l-.8-.44-.89.21c-1.7-.71-3.41-1.44-5.11-2.15.16-1.1.32-2.18.53-3.46,7.54-1.4,14.73,1.88,22.13,1.44,2.02.92,4.03,1.83,6.21,2.82-.37,3.76-3.76,2.75-5.87,3.73v.05c-3.57-2.43-7.63-1.99-11.62-1.95h-.02Z" fill="#13150c" stroke-width="0"></path><path d="m546.1,154.24c-3.05,2.2-6.07,4.38-9.16,6.6-11.04,1.17-19.66-2.41-25.89-12.35,10.45-5.5,12.9,8.68,21.17,7.33,14.27-7.54,17.21-13.75,11.52-24.63-.78-1.47-1.54-2.96-2.31-4.42,1.01-.25,2.04-.48,3.41-.82-2.22-5.71-7.68-7.93-11.46-11.62-2.66-2.59-4.31-4.79-3.6-8.43,1.51-3,3-6.03,4.54-9.03,4.01-7.86,10.13-13.5,18.65-15.65,9.21-2.34,18.33-4.77,27.2-8.2,4.81-1.88,9.83-3.28,14.37,2.02-13.11.94-24.17,8.16-36.8,10.36-12.1,2.11-19.32,10.52-21.13,23.53,2.25,3.53,5.89,5.8,8.78,8.78,2.61,2.68,4.7,5.89,7.88,9.94,12.17-13.31,31.64-12.76,45.48-23.87,2.89-2.31,7.22-4.33,11.94-1.12-1.81,3.67-4.06,6.46-7.74,7.88-8.16,3.14-16.13,6.92-24.52,9.19-12.49,3.37-22.16,9.33-26.65,22.13-1.51,4.28-3.78,8.29-5.71,12.42l.02-.02Z" fill="#32150e" stroke-width="0"></path><path d="m589.54,199.97c-4.35-.55-8.71-.07-13.04-1.92-7.52-3.23-12.35-7.9-12.3-16.5-.16-7.52-1.74-15.24,3.76-22.55,18.26-8.48,36.87-17.71,56.43-24.77.41-.14,1.19.73,3.12,2.04-8.55,7.06-18.51,10.15-27.86,14.37-9.33,4.19-18.58,8.57-28.16,12.99-5.29,8.34-.92,16.75.07,25.02,2.8,3.09,6.09,4.88,10.13,6.23,5.13-1.01,11.02-.14,15.72-3.69.85-3.8-3.14-4.31-3.78-6.8,1.05-1.08,2.11-2.15,3.16-3.21,3.53,2.09,6.71,4.81,11,5.38,1.26,2.15,3.16,1.99,5.16,1.42,5.57,2.61,11.94,3.62,16.86,7.58-2.13,5.06-5.73,3.09-7.79,1.74-8.09-5.25-15.74-6.55-23.97-.18-2.25,1.74-5.64,1.95-8.52,2.86l.02-.02Z" fill="#30180d" stroke-width="0"></path><path d="m610,183.22c1.05-5.09,3.62-7.26,7.68-8,1.42,7.58,1.03,8.02-7.68,8Z" fill="#6b4e38" stroke-width="0"></path><path d="m596.78,181.18c-1.05,1.08-2.11,2.15-3.16,3.21-1.79-.3-3.6-.6-4.95-.8-1.79-2.06-1.88-3.73-.55-5.73,3.55-.71,6.14,1.21,8.66,3.32Z" fill="#6e5130" stroke-width="0"></path><path d="m612.06,161.77c.07,4.03-2.09,6.19-5.25,7.81-.81-4.03.94-6.64,5.25-7.81Z" fill="#543624" stroke-width="0"></path><path d="m612.93,187.99c-2.02.55-3.9.73-5.16-1.42,1.99-.48,3.85-.53,5.16,1.42Z" fill="#6b4e38" stroke-width="0"></path><path d="m525.06,106.3c-.82-.71-1.65-1.42-2.47-2.13,1.6-.21,2.43.53,2.47,2.13Z" fill="#b67676" stroke-width="0"></path><path d="m619.23,669.74c-10.15-.53-20.32-.85-29.99-4.54,4.33,0,6.8-2.75,9.23-6.58-1.37-3.8-3.18-8.04-1.44-12.56,3.46-4.15,10.01,1.4,12.99-4.17l-.07.09c1.31-.07,2.15-.76,2.54-1.99,1.37-1.65,2.73-3.32,4.1-4.97,3.21,1.28,2.66,4.12,2.68,6.67,0,9.35-.02,18.7-.05,28.04h0Z" fill="#aeabaa" stroke-width="0"></path><path d="m541.44,126.76c.78,1.47,1.54,2.96,2.31,4.42l-.05.05c-1.49-.02-2.96-.05-4.45-.07-4.9-3.09-10.07-4.25-15.51-3.48-5.2,3.62-.57,11.73-6.9,14.8-2.11-3.7-1.28-9.68,2.47-17.94,2.15-2.38,5.27-2.93,7.95-4.19,5.54.39,10.17,2.7,14.16,6.44v-.02Z" fill="#2f1010" stroke-width="0"></path><path d="m539.24,131.14c1.49.02,2.96.05,4.45.07-1.54,2.41-3,2.47-4.45-.07Z" fill="#32150e" stroke-width="0"></path><path d="m757.42,405.81c-.76-1.95-.8-3.6,1.74-4.17.53,2.45,3.69,1.81,4.51,3.9-2.09.09-4.17.18-6.26.27h0Z" fill="#7e7d81" stroke-width="0"></path><path d="m573.98,385.06c7.45.96,15.19-.27,22.34,2.96-.23,1.08-.46,2.15-.85,3.99-9.62-2.7-19.87-1.49-28.92-6.42l.14-.14,7.29-.41v.02Z" fill="#cac9c3" stroke-width="0"></path><path d="m544.17,380.5c7.63-.44,15.01,1.4,22.41,2.82.23.71.25,1.42.11,2.13l-.14.14c-9.78.99-19.2-1.05-28.73-3.16,1.72-2.52,4.38-1.03,6.35-1.92h0Z" fill="#cccccb" stroke-width="0"></path><path d="m612.5,640c-.39,1.24-1.24,1.92-2.54,1.99.32-1.33,1.21-1.92,2.54-1.99Z" fill="#a19ba4" stroke-width="0"></path><path d="m390.02,451.78c1.17,2.52,2.86,4.93,5.8,4.56,4.74-.6,8.64,2.36,12.53,2.5,6.71-.62,10.59-4.4,13.72-9.21,2.8,3.9,7.31,3.67,11.23,4.26,28.87,4.35,57.81,8.18,86.61,13.01,16.06,2.7,32.28,4.67,48.41,7.01,7.33,1.05,14-2.18,18.86-7.58,11.04,1.44,21.56,2.82,32.1,4.17,1.79,3.05,4.63,1.97,7.22,1.81,2.93-.09,5.87-.16,8.82-.25-.76,1.6-1.54,3.21-2.29,4.81-12.21,6.9-24.45,13.79-36.29,20.46-79.99-8.02-158.87-19.18-238.29-29.08,9.42-8.07,21.22-10.91,31.55-16.54l.02.07Z" fill="#98989d" stroke-width="0"></path><path d="m633.05,476.93c.76-1.6,1.54-3.21,2.29-4.81,28.41-15.63,55.7-33.22,84.55-48.14,7.61-3.94,14.92-8.96,22.43-13.34,3.55-2.09,7.33-5.96,12.21-2.27-.34,2.11-1.95,3.09-3.62,4.01-34.41,18.86-68.81,37.74-103.22,56.55-4.88,2.66-8.48,7.65-14.64,8h0Z" fill="#7e7d81" stroke-width="0"></path><path d="m394.69,442.84c1.03.09,2.04.18,4.26.39-2.57,4.03-5.02,6.99-8.96,8.59-.14-3.87,4.24-5.41,4.7-8.98Z" fill="#98989d" stroke-width="0"></path><path d="m515.6,258.19c3.69-3.37,6.74-6.16,10.08-9.21,3.92.21,7.97.44,12.81.71-.85,8.43-1.65,16.5-2.57,25.62-7.74-4.72-14.18-9.51-20.32-17.12Z" fill="#e8e7eb" stroke-width="0"></path><path d="m633.21,266.6c-3.99-9.07-3.09-12.07,5.04-16.96,6.09,3.53,13.27,4.19,19.93,7.45-10.13-.69-17.83,3.69-25,9.49l.02.02Z" fill="#e6e4de" stroke-width="0"></path><path d="m635.57,463.69c11.43-8.36,22.25-17.57,35.42-23.32,5.82-2.54,9.65-7.97,15.31-11.07,13.79-7.52,27.68-14.98,40.78-23.62,14.14-9.3,29.69-16.27,42.16-26.14,4.58-2.36,9.35,1.26,12.56-2.91,1.83-.23,3.8-.87,5.02,2.57-8.82,5.22-17.85,10.65-26.97,15.65-25.32,13.88-50.06,28.73-75.45,42.48-12.6,6.83-25.16,14.11-37.26,21.95-3.53,2.29-7.19,4.31-11.57,4.42h0Z" fill="#9c9b9f" stroke-width="0"></path><path d="m626.52,472.35c-2.59.16-5.43,1.24-7.22-1.81.76-.16,1.54-.32,2.29-.48,1.7.66,3.71.62,4.9,2.31l.02-.02Z" fill="#7e7d81" stroke-width="0"></path><path d="m628.17,465.96c1.6-.11,3.18-.23,4.79-.34-.53,1.99-2.41,1.42-3.69,1.95-.46-.46-.82-1.01-1.1-1.6h0Z" fill="#98989d" stroke-width="0"></path><path d="m633,465.59c.34-1.37,1.15-2.11,2.63-1.92-.23,1.54-1.08,2.2-2.63,1.92Z" fill="#98989d" stroke-width="0"></path><path d="m419.18,711.35c-1.03-3.51-1.49-4.95-.6-6.39.23-.27.55-.82.69-.78,35.54,10.08,72.98,9.9,110.39,19.32-3.35,1.6-1.26.78-2.09,2.06-.18.27-.53.5-.82.66-2.57,1.28-5.2.57-7.79.18-33.29-5.02-66.58-10.04-99.78-15.05h0Z" fill="#241f19" stroke-width="0"></path><path d="m532.19,718.09c3.32-.39,6.67-.96,9.42,1.76-3.25.02-6.76,1.44-9.42-1.76Z" fill="#a39ca7" stroke-width="0"></path><path d="m541.47,706.36c-.32,1.54-1.33,2.09-2.82,1.92.94-.64,1.88-1.28,2.82-1.92Z" fill="#a39ca7" stroke-width="0"></path><path d="m566.69,385.44c.14-.73.11-1.44-.11-2.13,2.68-.39,5.27-.34,7.4,1.74l-7.29.41v-.02Z" fill="#939396" stroke-width="0"></path><path d="m442.14,447.17c45,5.8,90,11.57,136.15,17.51-2.02,3.96-3.25,5.43-6.62,4.7-22.25-4.77-44.93-6.71-67.41-10.1-17.57-2.66-35.19-4.88-52.77-7.52-3.3-.48-6.44-1.92-9.67-2.93.11-.55.21-1.1.32-1.67v.02Z" fill="#737272" stroke-width="0"></path><path d="m428.99,447.1c.02-.62.02-1.21,0-1.83,2.98-.02,6.16-.73,8.39,2.59-3.16,3.3-5.73.57-8.39-.78v.02Z" fill="#737272" stroke-width="0"></path><path d="m428.88,445.22c-1.51-.69-2.2-1.7-1.01-3.87,3.44-1.33,7.08-1.47,10.61,1.05-2.98,1.67-7.61-2.25-9.6,2.82Z" fill="#737272" stroke-width="0"></path><path d="m611.9,463.92c2.02-.57,3.94-.85,5.22,1.37-1.99.53-3.83.41-5.22-1.37Z" fill="#98989d" stroke-width="0"></path><path d="m390.18,431.5c4.01-.05,8.07-.48,11.64,1.95-3.96-.18-8.29,1.83-11.64-1.95Z" fill="#bcbcb8" stroke-width="0"></path></svg>