<svg xmlns="http://www.w3.org/2000/svg" id="Layer_1" width="1200" height="936.22" viewBox="0 0 1200 936.22"><path d="m209.57,313.59c-3.5,12.1,2.76,20.39,10.51,26.32,2.81,11.12-6.98,11.43-10.86,16.32-1.91,5.07,2.07,10.03.45,15.1-4.41,13.58-19.39,13.46-28.04,21.73-.69,31.21,12.82,69.49,25.37,71.32,1.07-5.03-6.15-4.72-5.65-11.36,24.82-23.35,52.53-44.69,89.35-49.93,26.3-3.74,51.43-11.74,76.51-19.91,6.81-2.22,12.89-4.45,17.91,2.79-4.14,16.79-27.47,21.89-26.94,39.88,29.37,27.09,49.95,58.6,74.23,86.92,6.67,7.81,8.27,18.1,2.69,28.87-3.76,7.29-1.36,17.41-10.29,23.15-3.76.31-8.05.64-11.98.95-4.55,4.69-1.72,11.34-6.07,16.65-16.63,4.03-30.4-2.86-41.43-15.08-16.32-18.1-37.38-17.75-58.43-18.18-3.36,6.53,1.02,9.55,3.69,13.29,23.35,32.83,50.38,62.89,72.87,96.33,4.14,6.15,7.34,12.94,11.27,19.99-5.46,15.7-10.27,31.56-16.63,46.81-2.98,7.15-8.91,13.08-17.87,13.77-13.01,1-26.01,3.03-39,2.81-36.85-.6-73.61,3.31-110.44,1.62-1.02-.05-2.07.62-2.83.86-1.02,2.55.26,3.12,1.93,3.41,16.68,2.24,33.3.64,49.95-.36,35.9-2.38,72.01-.1,107.55-4.72,4.36-3.98,8.43-7.69,12.27-11.17,13.27,1.69,22.51,11.36,24.92,29.06,2.91,21.42,6.81,42.04,21.73,58.89,1.24,1.41,1.93,3.45,2.45,5.31.64,2.24.86,4.62,1.24,6.84-2.12,3.6-4.1,6.96-6,10.15,9.93,19.61,15.87,25.47-21.51,59.51h209.65c.95-.62,1.88-1.24,2.83-1.86-21.73-14.46-21.22-32.21-8.43-50.91-12.67-9.39-10.08-19.08-2.62-27.61,14.34-16.41,18.63-35.78,19.82-56.72.64-11.65,3.88-22.65,15.67-27.8,4.88-.26,7.6,2.6,9.15,5.57,5.15,9.89,14.03,12.1,23.82,12.43,12.63.43,25.27.48,37.9.71,15.01,3.95,30.56.19,45.76,2.53.88,6.22,4.05,11.55,3,17.94-26.39,3.57-52.5-1.07-78.85-2.07,26.8,8.93,54.31,10.77,82.64,8.34.76,11.2,2.07,21.75.74,32.83-7.34,7.24-16.94,10.98-25.97,15.67-9.46,4.93-20.94,3.36-29.75,8.77-1.33,13.27,4.29,20.94,19.06,24.46,32.4,7.74,64.91,6.29,97.26.45,6.77-9.46,5.6-19.37,2.93-28.87-8.34-29.85-10.34-59.55-1.69-89.78,3.5-12.2,4.22-24.99.88-37.52-2.43-9.12-5.38-18.08-8.15-27.16,6.12-13.96,18.22-21.61,29.54-30.04,1.91-.24,3.79-.5,7.34-.95-4.86,30.3-9.58,59.65-14.03,87.47,2.88,7.65,9.65,7.36,14.17,11.27,2.67,7.91,3.38,16.6,3.55,25.16.31,16.13,5.46,29.82,16.56,41.74,12.32,13.22,12.74,19.84,4.29,36.09-1.62,3.1-4.62,5.65-2.93,11.93,13.36,9.12,7.48,21.61-.95,35.97,109.48.43,216.66-3.17,324.31-1.57-2.57,6.98-7.74,4.45-11.51,4.5-46.69.48-93.38.71-140.07,1.07-3.93.02-7.84.6-11.74.91-18.58-.05-37.16-.24-55.72-.12-33.23.19-66.46.5-99.69,1-4.38.07-10.86-1.93-11.22,6.79,68.65.12,137.02-1.19,205.41-2.88,18.58-.05,37.19.14,55.77-.21,17.32-.33,34.73,1.38,51.98-1.45,2.93.67,5.84.88,8.69-.4,2.29.95,5.76-1.05,7.29,3.95-6.5,2.93-13.46,2.74-20.3,2.76-95.43.4-190.83,4-286.26,2.83-19.91-.24-39.42-.1-57.39,9.96-16.96,9.5-35.61,9.81-54.24,9.41-28.06-.62-56.19.52-84.04-4.57-10.12-1.86-20.25-3.19-29.92-7.03-8.91-3.53-18.18-4.41-27.89-4.24-45.14.71-90.45,3.38-135.35.38-36.09-2.43-71.75,2-107.6.31-4-.19-8.58,1.62-13.77-4.5,31.8-1.05,61.58-2.02,91.38-3-3.55-5.79-8.36-4.84-12.67-4.81-22.18.1-44.36.45-66.51.79-2.74.05-5.69,0-8.19.93-31.47,11.6-64.6,17.18-97.45,18.63-34.76,1.52-70.18-1.72-103.12-16.03-9.65-4.19-19.7-7.1-27.66-15.17-15.87-16.1-17.53-23.3-6.5-42.59-.71-1.83-1.43-4.07-2.38-6.17-8.39-18.56-7.53-24.35,6.77-38.9,11.55-11.74,19.03-25.13,18.41-42.09-.55-14.84,5-26.97,16.63-35.71-1.57-11.48-9.24-20.53-7.27-31.71,17.99-8.98,35.9-18.08,53.98-26.87,7.74-3.76,12.01-9.98,14.51-17.79,1.81-5.69.88-10.17-6.15-12.24-7.96,1.93-16.29,4.65-24.82,5.81-15.84,2.19-24.49-3.86-26.85-19.39-1.76-11.65-3.45-23.35-3.67-35.28-.29-14.22,4.76-28.13,1.69-42.38.45-6.69.91-13.41,1.33-20.11,6.1-6.55,14.08-9.7,22.39-12.15,8.12-2.41,16.27-4.69,24.42-7.03,13.44-.29,24.25-8.79,35.47-13.08,3.93,3.53,2.26,8.89,9.6,9.29,3.17-1.21,7.91-3.6,11.67-7.62,2.02-20.2-18.46-19.06-26.18-29.75-27.09,13.05-54.41,17.56-83.95,9.74-9.77-25.42-19.49-50.74-29.21-76.06-1.17.48-2.31.95-3.48,1.43,9.15,28.16,17.89,56.46,30.54,78.21,24.23,9.98,44.02,4.14,63.6,1.55,1.76,7.22,2.05,12.6,1.24,17.72-6.36,2.07-12.34,4-18.29,5.96-6.43.07-12.24,2.36-18.01,4.95-8.1,3.64-16.15,7.77-25.51,6.65-.81-.19-1.55-.07-2.29.31-1.79-3.53-4.72-4.38-8.55-4.62-10.86-.67-20.89-5-31.37-7.5-.43-.86-.86-1.69-1.29-2.55-6.77-23.75-18.91-44.78-33.35-64.53-3.17-4.34-5.76-10.29-13.51-10.34,13.51,16.75,25.56,34.18,32.83,54.81-11.08,7.98-24.63,9.12-35.83,15.58-24.32-1.07-48.93-1.24-67.11-21.53-1.38-1.55-3.24-2.14-5.34-1.91-5.03-2.74-10.79-.45-15.96-1.88,3.45-19.08,16.89-30.02,30.71-40.66,3.12-2.41,6.84-4.57,8.86-7.77,15.79-24.89,39.73-40.14,64.13-54.93,5.03-3.05,9.53-6.91,12.65-9.2,3.98-4.67-.93-10.98,5.93-12.24,5.12-1.33,8.93-4.86,12.96-7.91,19.99-15.2,42.19-26.06,65.79-34.21v-.24c-.57,1.29.24,1.67,1.26,1.86l.17.76.74.19-.05-.07Zm-6.81,61.08c1.33-.12,2.07-.74,1.88-2.17-.64-11.15-3.1-22.96,13.53-27.49-10.48-7.22-14.72-15.22-14.63-26.7-9.79,4-18.29,7.48-26.78,10.93-3.6,19.94,7.1,33.83,17.06,47.98,2.17,3.64,4.29,3.19,6.41-.02l.14-.14c1.36-.12,2.12-.86,2.22-2.24l.14-.14h.02Zm-35.71-2.02c.43.45.86.93,1.31,1.43.57-1.86-.64-1.29-1.52-1.19-5.03-12.63-16.87-19.61-31.47-17.63,9.89,8.27,22.06,10.6,31.68,17.41v-.02Zm105.05,169.44c3.14,20.37,81.37,186.88,90.83,192.24-12.63-24.13-23.89-45.86-30.04-69.7,6.48,8.48,12.29,17.34,18.18,26.13,10.55,15.75,15.79,20.94,23.01,21.56-41.59-52.96-72.32-111.29-102-170.2l.02-.02Zm576.96,336.36c-57.53,9.6-113.94,18.84-171.47,7.58,5.96,8.05,15.22,7.17,23.25,8.29,45.64,6.41,135.35-2.86,148.22-15.87Zm-357.58,32.16c3.45,3.22,7.5,1.83,11.1,1.83,18.96,0,37.9-.26,56.86-.4,3.14,0,6.67-.81,9.41.31,21.63,8.81,43.4.76,67.75,3.12-7.91-7.69-14.51-8.77-21.84-8.67-38.3.5-76.61.74-114.89,1.14-2.81.02-6.29-1.57-8.39,2.67h0Zm-135.73-26.44c-2.88-3.53-4.91-3.29-6.79-3.17-18.13,1.21-36.26,2.29-54.34,3.81-22.89,1.93-45.74,2.12-68.58-.64-15.87-1.93-31.28-5.55-45.83-12.17-2.57,5.76.95,6.19,3.95,7.27,11.86,4.34,23.89,7.98,36.45,9.79,31.97,4.65,63.82,1.74,95.71-1,12.72-1.1,25.56-.76,39.45-3.91l-.02.02Zm-14.39-117.46c-40.95-4.19-81.78,2.62-122.7.76,41,7.46,81.8.5,122.7-.76Zm-195.81-417.35c21.34,2.62,26.73,24.25,42.5,33.92-6.57-16.79-18.8-30.8-18.22-51.6-5.84,6.93-1.33,13.79-5.41,18.58-6.41,1.24-11.41-6.38-18.87-.91Zm130.07,91.69c13.17-7.86,22.73-19.8,34.52-29.23-16.56,3.81-25.85,16.22-34.52,29.23Zm105.46,118.94c6.88,7.31,15.27,7.55,24.15,5.69-6.74-7.12-15.98-4.38-24.15-5.69Zm-37.23-110.22c4.22-5.22,11.74-8.77,9.7-17.13-6.24,4.19-12.46,8.41-9.7,17.13Zm-.02,27.06c3.48-2.31,5.12-4.17,1.57-7.38-4.57.91-5.07,3-1.57,7.38Zm-188.12-134.54c3.95,2.19,5.34,1,5.74-2.38-2.48-1.69-4.24-1.41-5.74,2.38Z" fill="#272727" stroke-width="0"></path><path d="m664.61,433.62c-6.05-14.22-18.03-24.99-24.27-40.09,10.29-4.45,19.13-1.1,27.85,1.6,8.58,2.67,16.98,5.91,26.11,6.24,1.02.5,2.05,1,3.07,1.5.48.6,1.1.88,1.88.81,15.94,14.03,36.69,23.92,41,47.91.12.64,1,1.17,2.07,2.36,15.27.98,17.39,13.65,21.61,25.08-13.34,9.55-19.84,23.23-28.49,34.66,8.86,23.56,19.56,29.09,41.52,22.03,5.98-1.93,11.98-3.84,18.27-5.84,9.5,5.79,21.7,3.36,31.54,10.39,1.19,6.27,2.43,12.79,3.67,19.3-23.65,22.94-44.33,48-68.61,69.53-8.22,7.31-13.2,16.37-13.24,27.97-.05,9.05-.38,18.34-2.29,27.13-4.74,21.87.14,42.21,7.86,62.34-.55,5.31-4.6,4.31-8.03,4.48-26.54,1.24-52.88-2.48-79.37-2.98-15.39-.31-17.51-13.96-22.58-24.06-3.33-6.62-4.07-14.55-7.41-21.18-8.67-17.22-1.79-30.92,8.31-44.5,18.13-24.37,38.95-46.52,57.93-70.18,7.19-8.96,14.89-17.94,15.75-31.71-22.08,4.07-43.59,3.38-60.29,20.15-9.39,9.43-22.7,11.91-35.07,13.36-6.38-3.26-5.43-10.36-10.62-14.58-3.88-1.33-9.39.6-13.89-2.24-12.15-16.75-12.6-42.43,1.21-56.36,18.2-18.32,32.95-39.16,48.07-59.79,4.48-6.12,9.79-11.36,15.79-15.91,7.17,3.24,6.53,13.15,13.79,16.65,1.86-7.19-3.62-16.94-13.15-24.11v.02Zm6.34,290.19c-2.86,4.48-8.29,7.93-6.36,15.01,6.22-2.41,6.38-8.05,8.53-12.36,6.98-14.13,14.36-28.04,20.82-42.4,6.65-14.75,11.96-30.09,18.6-44.81,6.48-14.34,13.82-28.32,21.03-42.33,13.65-26.47,16.89-35.76,14.22-45.98-12.48,31.06-25.35,60.05-42.16,86.83-16.58,26.37-35.09,51.5-52.76,77.18,1.26.86,2.5,1.72,3.76,2.6,13.77-19.32,27.56-38.66,41.33-57.98-6.6,22.63-20.27,41.93-27.01,64.22v.02Zm-48.14-151.46c7.6,1.83,14.51,1.31,20.32-6.81-8.98-1.19-14.48,3.12-20.32,6.81Zm54.17-93.93c2.57,3.65,5.11,3.86,7.6.62-1.83-2.81-4.1-3.1-7.6-.62Z" fill="#272727" stroke-width="0"></path><path d="m757.13,744.78c-.14-1.26-.26-2.53-.4-3.79-7.05-21.8-8.72-43.88-3.88-66.41,1.07-4.98,1.69-10.22,1.38-15.29-.67-11.24,3.91-19.96,11.91-27.18,16.17-14.53,31.56-29.9,45.71-46.38,14.46-16.84,30.66-29.54,54.43-28.09,1.88.12,4.03-.31,3.84-3.53-11.67-3.24-23.06,4-34.85,1.62-3.36-6.84-1.62-15.22-7.27-21.27-4.84-3.41-12.27-1.19-16.96-7.41,23.54,1.93,46.48,3.07,69.15,5.98,8.96,1.14,16.25,1.17,22.63-5.57,7.55-4.79,13.44-12.17,22.51-14.82,4.67,2.79,2.41,8.05,4.57,11.72-2.74,6.43-8.24,10.34-13.1,14.84-4.6,4.26-9.22,8.53-13.82,12.82,5.29,14.05,19.25,18.2,28.63,29.13-31.3,20.11-57.77,45.36-86.73,67.49-27.87,12.89-34.9,27.92-25.25,55.96,4.86,14.1,3.84,27.87.71,42-4.31,19.61-9.24,39.16-4.24,59.58,3,12.24,4.91,24.75,7.6,37.07,1.14,5.19,2,10.1-2.22,15.1-.88.38-2.26,1.26-3.74,1.57-30.66,6.1-61.27,6-91.47-2.33-6.6-1.81-12.65-5.98-14.17-15.41,20.99-3.91,40.78-9.96,57.03-25.01,3.76-25.2-4.65-48.69-11.98-72.32l-.02-.05Z" fill="#272727" stroke-width="0"></path><path d="m923.48,365.28c18.65,13.96,32.16,30.83,28.18,55.84-1.98,12.39-5.38,24.66-9.24,36.61-4.6,14.22-9.39,28.32-10.41,43.64-12.13,6-22.61,14.2-32.49,23.2-7.5,4.69-15.03,7.03-22.89.07-7.65-16.84-4.79-35.4-9.89-53.1,6.15-.33,4.84,7.19,11.46,4.19-1.07-20.7,5.03-41.57,3.86-63.08-5.26,16.91-7.43,34.23-9,51.17-19.44-2.43-32.54,12.94-50.17,17.46,4.14-18.2,4.62-36.3,7.43-54.15,2.45-8.69,3.5-18.13,7.62-25.94,14.36-27.16-7.34-53.57-29.13-59.55-3.86-1.05-7.5-2.45-10.6-6.24-.14-1.31-.62-3.24-.52-5.15.07-1.88.71-3.76,1.07-5.6,5.88-2.48,12.32-.24,18.41-4.24.69-4.53,4.14-8.34,9.55-11.93-8.17-3.45-14.29,5.15-21.99.26,14.89-22.87,27.18-47.57,53.5-59.74,17.56-8.12,35.61-10.03,53.79-1.45.71.33,1.43.64,2.19.91,8.31,2.83,19.08,1.83,23.06,11.89,4.34,10.91,3.69,22.44.62,33.73-1.33,4.93-3.14,9.72-4.72,14.6-1.05-1.05-2.07-2.12-3.12-3.17,2.95-11.05,5.53-22.11,4.6-33.78-.43-5.48-1.38-10.77-6.53-13.05-18.6-8.29-37.42-14.34-58.36-8-26.39,8-40.31,28.51-54.67,51.98,13.86-2.55,25.42-8.17,37.95-7.36,2.48,5.65,4.6,10.67,2.5,17.03-15.29,10.48-34.3,12.72-54.86,19.53,20.32,9.79,39.31,16.34,44.67,37.88.02,1.14.07,2.29.1,3.43.1.4.1.81,0,1.21-.52,1.69.05,2.69,1.83,2.98h0c-.38,2.36-.74,4.74,2.17,6.55,5.72-2.1,11.67-4.29,17.89-6.57-1.5-2.1-2.41-3.33-3.31-4.6.52-.36,1.1-.57,1.74-.62,1.45.5,2.45-.05,3.12-1.38,16.25-4.93,32.49-9.86,48.29-14.67.74-5.03,1.24-8.48,1.74-11.93,3.74,4.41.52,9.98,2.45,14.67,0,1.19.05,2.38.07,3.6-.1,1.57.64,2.53,2.17,2.88h-.12Zm-89.76-57.89c2.07,3.81,4.26,5.31,7.36,1.91.43-.48.29-1.43.45-2.29-2.24-3.38-4.6-3.67-7.81.38Z" fill="#272727" stroke-width="0"></path><path d="m144.68,507.73c.43.86.86,1.69,1.29,2.55-.93,6.17,7.07,5.31,8.12,9.86-3.03,3.43-6.34,6.27-7.53,10.48.07,8.03,3.05,13.86,11.15,16.13-2.26,7.98-8.5,12.63-14.63,18.27-4.62,0-9.36.17-14.1-.02-23.2-.98-45.71,6.93-68.99,5.31-13.91-.98-27.99,1.74-41.66-4.48-6.6-3-6.07-12.24-14.01-11.86-2.02-12.72-.79-24.61-1.31-36.42,4.81-2.14,8.98-5.93,14.98-5,2.76.43,3.98-1.86,4.17-4.48v-.17c7.96-1.52,2.57-9.89,8.17-14.41,10.41,6.22,22.51,10.39,35.21,12.65,12.77,2.29,25.63,5.96,37.71-2.43,8.15.1,16.51-2.45,24.3,1.72,5.5,2.95,11.22,3.1,17.13,2.33v-.02Zm-99.05,23.8c.81-3.14.64-6.03-3.12-9.2-4.55,2.12-11.89-4.79-15.72,4.55-8.84,5.57-3.31,13.91-4.41,20.63,9,9.93,12.84,10.41,22.37,3.22,9.91-5.62,10.43-13.27,1.29-18.87l-.4-.33h0Zm36.83,3.76c3.91-4.84,4.67-10.01,2.48-16.2-5.15-5.91-11.46-9.93-18.77-3.22-7.41,6.81-4.79,13.98,1.1,20.42,5.07,1.19,9.72,1.76,15.22-1h-.02Zm30.3,19.87c6.69-2.91,13.13-5.96,11.86-15.01-.86-6.17-4.69-10.15-10.89-10.55-7.96-.52-12.1,4.26-13.89,11.55,1.14,7.58,5.74,11.72,12.91,14.03v-.02Z" fill="#eae337" stroke-width="0"></path><path d="m162.36,688.8c-18.68-18.1-18.96-40.43-13.86-63.51,4.14-18.72,5.12-37.35,1.55-55.38,4.17-13.03,14.6-19.01,24.06-25.92,8.79-2.07,14.67.36,15.89,10.15-5.72,22.58-4.95,45.45-2.24,68.25,3.48,29.23,17.25,38.04,45.76,30.11,4.65-1.29,9.2-4.17,14.36-1.62-6,17.82-55.29,45.9-77.28,44.55-2.74-2.22-5.48-4.41-8.24-6.62h0Z" fill="#272727" stroke-width="0"></path><path d="m823.31,407.9c-13.13,26.82-31.06,49.95-53.19,70.94-5.65-13.22-10.55-24.87-24.75-31.8-7.43-3.62-11.12-16.22-9.89-26.99,7.53-6.91,11.22-17.15,20.06-23.63,23.39,10.31,46.9,8.41,71.06.05.93,5.03-3.33,7.67-3.26,11.43h-.02Z" fill="#272727" stroke-width="0"></path><path d="m207.41,311.01c-23.63,8.15-45.83,19.01-65.79,34.21-4,3.05-7.84,6.6-12.96,7.91-10.12-8.03-14.77-27.23-9.74-38.95,5.12-11.98,11.84-22.94,20.37-33.23,9.77-2.1,19.94-1.74,30.16-.93,6.81,6.15,15.44,7.6,23.96,9.29,5.72.62,3.43,9.24,9.5,9.53,0,5.72,6.46,3.36,8.34,6.41.55,3.36-3.03,3.57-3.84,5.74v.02Z" fill="#ece638" stroke-width="0"></path><path d="m908.97,554.35c7.07-9.86,16.41-15.36,24.32-23.89,19.75,13.2,37.59,28.23,54.55,43.31-.98,17.41-5.15,22.61-20.89,25.77-16.75-17.27-40.9-26.25-58.01-45.19h.02Z" fill="#282827" stroke-width="0"></path><path d="m157.69,546.77c-8.1-2.29-11.08-8.1-11.15-16.13,1.21-4.22,4.5-7.05,7.53-10.48-1.05-4.55-9.05-3.69-8.12-9.86,10.46,2.5,20.51,6.84,31.37,7.5,3.81.24,6.77,1.1,8.55,4.62-3.62,4.45-8.08-1.43-12.43,1.29-.43,4.03,1.72,8.91-1.74,12.82-5.84,1.83-8.72,7.67-13.98,10.27l-.02-.02Z" fill="#e4492d" stroke-width="0"></path><path d="m171.67,536.51c3.48-3.91,1.33-8.79,1.74-12.82,4.36-2.69,8.81,3.17,12.43-1.29.71-.4,1.48-.5,2.29-.31,1.91,3.41,3.79,6.79,5.69,10.2-.45,6.69-.91,13.41-1.33,20.11-.83.57-1.67,1.17-2.5,1.74-1.21-9.79-7.1-12.22-15.89-10.15-.1-2.72.36-5.62-2.41-7.48h-.02Z" fill="#eae337" stroke-width="0"></path><path d="m827.98,427.12c-3.19,3.1-1.36,7.55-3.12,11.39-3.38,1.91-6.43.24-10.41-1.64,3.76-8.05,7.46-16.01,11.17-23.96,1-1.62,2.02-3.24,3.84-6.12,2.19,7.77-3.24,13.94-1.48,20.37v-.02Z" fill="#272727" stroke-width="0"></path><path d="m921.26,358.8c-1.93-4.72,1.29-10.27-2.45-14.67,2.38-13.27,4.74-26.56,11.2-38.66,1.05,1.05,2.07,2.12,3.12,3.17-5.1,16.46-10.22,32.9-11.86,50.17Z" fill="#5b5456" stroke-width="0"></path><path d="m211.27,10.41c1.31,4.1,1.62,7.5.1,11.03-3.45,2.69-7.27,1.76-11.12.98-3.45-3.84-1.86-7.88-1.29-11.7,4.31-2.43,7.98-2.24,12.34-.33l-.02.02Z" fill="#e4e297" stroke-width="0"></path><path d="m207.41,311.01c.81-2.17,4.36-2.38,3.84-5.74-1.88-3.05-8.34-.69-8.34-6.41,7.5,0,15.87-1.81,18.72,8.22-2.67,5.67-7.48,5.84-12.03,6.5l-.74-.19-.17-.76c.5-1.26-.38-1.57-1.29-1.86v.24h0Z" fill="#ece638" stroke-width="0"></path><path d="m22.17,508.06c-.21,2.62-1.41,4.91-4.17,4.48-5.98-.93-10.15,2.86-14.98,5-7.77-5.86,1.88-6,2.1-9.48h17.06Z" fill="#eae337" stroke-width="0"></path><path d="m193.38,289.34c-8.53-1.69-17.15-3.14-23.96-9.29h15.67c3.69,2.74,7.79,4.38,8.29,9.29Z" fill="#ece638" stroke-width="0"></path><path d="m133.49,588.58c-6.48-5.31-5.65-9.62-.4-13.96,4.79.67,6.67,3.24,7.48,6.88-.79,3.48-3.34,5.07-7.1,7.07h.02Z" fill="#d87059" stroke-width="0"></path><path d="m695.22,386.5c1.36,1.43,2.36,2.98,2.17,5.05-1.91-1.17-2.43-2.95-2.17-5.05Z" fill="#c5c4c4" stroke-width="0"></path><path d="m923.48,365.28c-1.52-.36-2.26-1.31-2.17-2.88.71.95,1.45,1.93,2.17,2.88Z" fill="#5b5456" stroke-width="0"></path><path d="m311.94,94.33l-.64-.45.21-.71c.43.26.57.64.43,1.14v.02Z" fill="#e9e384" stroke-width="0"></path><path d="m378.18,138.07c-.4-.91-.83-1.81-1.24-2.72.4.91.83,1.81,1.24,2.72Z" fill="#d7d2a4" stroke-width="0"></path><path d="m699.84,398.58c.93.74,1.83,1.48,2.76,2.22-.93-.74-1.83-1.48-2.76-2.22Z" fill="#c5c4c4" stroke-width="0"></path><path d="m697.37,402.87c-1.02-.5-2.05-1-3.07-1.5,1.02.5,2.05,1,3.07,1.5Z" fill="#c5c4c4" stroke-width="0"></path><path d="m193.83,377.21c-9.96-14.15-20.65-28.04-17.06-47.98,8.48-3.45,16.98-6.93,26.78-10.93-.1,11.48,4.14,19.49,14.63,26.7-16.63,4.55-14.17,16.37-13.53,27.49-.62.71-1.26,1.43-1.88,2.17l-.14.14c-1.33.14-2.07.91-2.22,2.24,0,0-.14.14-.14.12-2.14,0-4.29,0-6.41.02l-.02.02Zm-.24-38.35c4.98.88,7.24-.21,6.1-6.53-4.5.19-6.93,1.12-6.1,6.53Z" fill="#f5f5f4" stroke-width="0"></path><path d="m145.54,349.34c7.46-5.48,12.43,2.14,18.87.91,4.07-4.76-.43-11.65,5.41-18.58-.57,20.8,11.67,34.8,18.22,51.6-15.77-9.67-21.15-31.33-42.5-33.92Z" fill="#e2e2e0" stroke-width="0"></path><path d="m231.68,510.49c2.19,3.57,6.07,1.48,8.98,2.62-8.15,2.33-16.29,4.62-24.42,7.03-8.31,2.45-16.29,5.6-22.39,12.15-1.91-3.41-3.79-6.79-5.69-10.2,9.36,1.12,17.41-3,25.51-6.65,5.79-2.6,11.58-4.88,18.01-4.95h0Z" fill="#b07872" stroke-width="0"></path><path d="m207.38,310.78c.91.31,1.79.62,1.29,1.86-1.02-.21-1.83-.57-1.29-1.86Z" fill="#ece638" stroke-width="0"></path><path d="m929.98,305.46c-6.46,12.1-8.81,25.39-11.2,38.66-.5,3.45-1.02,6.91-1.74,11.93-15.79,4.79-32.04,9.72-48.29,14.67-1.45-.48-2.5-.05-3.12,1.38-.64.05-1.21.24-1.74.62-6,.05-11.53,1.76-16.75,4.62h0c-.62-1-1.21-1.98-1.83-2.98.1-.4.1-.81,0-1.21,1.76-1.19,1.57-2.33-.1-3.43-5.36-21.51-24.35-28.06-44.67-37.88,20.58-6.81,39.57-9.05,54.86-19.53,2.1-6.36-.02-11.39-2.5-17.03-12.53-.81-24.08,4.81-37.95,7.36,14.39-23.46,28.28-43.97,54.67-51.98,20.92-6.34,39.76-.29,58.36,8,5.15,2.29,6.1,7.58,6.53,13.05.93,11.65-1.64,22.7-4.6,33.78l.05-.05Z" fill="#fefefe" stroke-width="0"></path><path d="m847.18,377.31c5.22-2.86,10.74-4.57,16.75-4.62.91,1.26,1.79,2.5,3.31,4.6-6.19,2.29-12.17,4.48-17.89,6.57-2.91-1.83-2.55-4.19-2.17-6.55h0Z" fill="#6e6b6b" stroke-width="0"></path><path d="m833.72,307.39c3.22-4.05,5.57-3.76,7.81-.38-.14.86,0,1.83-.45,2.29-3.1,3.41-5.29,1.91-7.36-1.91Z" fill="#9d9c9c" stroke-width="0"></path><path d="m82.46,535.29c-5.5,2.76-10.12,2.19-15.22,1-5.88-6.43-8.5-13.6-1.1-20.42,7.31-6.72,13.63-2.69,18.77,3.22,2.19,6.19,1.43,11.36-2.48,16.2h.02Z" fill="#e44f2c" stroke-width="0"></path><path d="m112.76,555.18c-7.17-2.29-11.74-6.43-12.91-14.03,1.81-7.29,5.93-12.08,13.89-11.55,6.19.4,10.03,4.38,10.89,10.55,1.26,9.05-5.17,12.1-11.86,15.01v.02Z" fill="#e34e2b" stroke-width="0"></path><path d="m44.75,550.73c-8.34-6.88-.76-12.67,1.29-18.87,9.15,5.6,8.65,13.24-1.29,18.87Z" fill="#e06b3f" stroke-width="0"></path><path d="m45.63,531.55c-5.67-3.98-11.98-5.41-18.84-4.65,3.84-9.34,11.17-2.43,15.72-4.55,3.76,3.17,3.93,6.07,3.12,9.2Z" fill="#eae337" stroke-width="0"></path><path d="m860.85,469.69c6.34,19.01,4.03,38,10.22,55.96-20.53,2.05-39.59-2.53-58.84-3.53-19.61-1.02-35.8,12.22-54.72,12.34-7.96-4.43-13.1-10.72-17.13-18.8,7.65-10.17,13.36-22.11,24.61-30.44,6.29,5.26,10.98,12.36,19.41,16.53,13.44-.52,25.42-7.81,37.88-13.51,12.55-5.74,24.87-11.96,38.57-18.58v.02Z" fill="#272727" stroke-width="0"></path><path d="m793.46,462.95c5.93-7.34,11.34-14.03,16.91-20.94,4.67.29,9.17.98,13.55,5.84-2.91,13.44.29,29.47-12.53,40.52-6.81-1.38-11.77-3.55-16.56-6.46-2.31-6.1-2.12-12.32-1.38-18.94v-.02Z" fill="#292929" stroke-width="0"></path><path d="m771.07,485.65c6.1-5.81,11.12-10.6,17.13-16.32,2.12,9.31,1.83,17.37,1.21,25.77-9.34,2.88-11.98-5.74-18.34-9.46Z" fill="#292929" stroke-width="0"></path><path d="m794.25,491.87c1.83-3.98,3.91-3.1,6.1-2.05-.45,4.45-2.53,4.55-6.1,2.05Z" fill="#292929" stroke-width="0"></path><path d="m254.31,485.34c6.69-2.72,11.55-4.31,16.25-8.43,6.67,7.84,19.25,8.58,22.61,19.96-1.48,3.67-4.1,5.22-7.15,6.69-4.29-1.91-5.36-7.79-12.27-9.03-5.57-.81-9.86,5.53-16.06,8.19-4.17-5.5-.62-11.62-3.36-17.39h-.02Z" fill="#2e2e2e" stroke-width="0"></path><path d="m193.61,338.86c-.81-5.43,1.6-6.36,6.1-6.53,1.14,6.34-1.14,7.41-6.1,6.53Z" fill="#615f5f" stroke-width="0"></path><path d="m189.42,15.34c-1.88-1.48-2.38-4.72-2.38-7.29C187.04,3.6,190.64,0,195.09,0c1.74,0,3.98-.02,5.34.5" fill="#e9e384" stroke-width="0"></path><polygon points="246.62 58.48 220.17 38.59 220.75 15.03 245.45 32.54 246.62 58.48" fill="#333031" stroke-width="0"></polygon><polygon points="312.39 108.01 286.18 88.31 286.83 61.89 311.86 79.64 312.39 108.01" fill="#333031" stroke-width="0"></polygon><polygon points="380.49 159.41 354.15 139.57 354.89 110.22 379.9 127.99 380.49 159.41" fill="#333031" stroke-width="0"></polygon><polygon points="453.24 214.27 426.78 194.34 427.59 161.82 452.62 179.59 453.24 214.27" fill="#333031" stroke-width="0"></polygon><polygon points="524.54 268.02 497.53 247.7 498.41 212.23 523.45 229.97 524.54 268.02" fill="#333031" stroke-width="0"></polygon><polygon points="596.82 322.57 569.52 301.96 570.47 263.32 595.48 281.09 596.82 322.57" fill="#333031" stroke-width="0"></polygon><polygon points="727.41 420.97 677.4 383.36 678.48 340.03 749.06 390.17 727.41 420.97" fill="#2a2728" stroke-width="0"></polygon><polygon points="214.24 34.11 189.42 15.34 200.43 .5 214.24 10.31 214.24 34.11" fill="#e9e384" stroke-width="0"></polygon><polygon points="281.92 85.11 253.31 63.51 252.17 37.26 281.85 58.34 281.92 85.11" fill="#efe585" stroke-width="0"></polygon><polygon points="347.38 134.47 318.34 112.56 317.63 83.73 347.38 104.86 347.38 134.47" fill="#efe585" stroke-width="0"></polygon><polygon points="419.27 188.69 389.5 166.23 389.5 134.81 419.27 155.94 419.27 188.69" fill="#efe585" stroke-width="0"></polygon><polygon points="489.88 241.93 460.1 219.42 460.1 184.95 489.88 206.08 489.88 241.93" fill="#efe585" stroke-width="0"></polygon><polygon points="560.92 295.51 531.16 273.07 531.16 235.4 560.92 256.53 560.92 295.51" fill="#efe585" stroke-width="0"></polygon><polygon points="663.75 373 607.61 330.67 607.61 289.79 663.75 329.55 663.75 373" fill="#efe585" stroke-width="0"></polygon></svg>