<svg xmlns="http://www.w3.org/2000/svg" id="Layer_1" width="524.24" height="498.92" viewBox="0 0 524.24 498.92"><path d="m443.07,98.71c.74-.82,1.48-1.65,2.39-2.67,5.29,2.36,11.6-1.1,16.79,2.81-1.83,1.42-4.74.82-6.53,3.45,3.6.63,6.24-1.29,9.13-1.72,1.48-.27,1.32-2.35,3.09-2.6,6.34.98,12.93,1.48,19.52.02.94-.21,2.19-.34,2.93.1,6.18,3.69,11.57.63,16.97-1.91,5.56-2.62,11.1-5.27,16.87-7.4v45c-2.14,2.31.07,5.61-2.05,8.3-7.44,2.78-15.71,3.57-23.62,5.77-4.39,1.22-7.73,3.52-9.38,7.9-2.63,0-5.26,0-7.9,0-1.61-2.75-3.9-2.02-6.11-1.08-8.4,3.57-17.22,5.96-25.72,9.32-12.18,4.82-24.77,8.7-36.37,14.81-10.93,5.76-22.64,8.14-34.58,10.2-4.52.78-8.88,2.46-13.31,3.74-.35.03-.69.05-1.04.08-2.94-.8-5.16.99-7.57,2.12-8.1.38-15.91,2.11-23.82,4.79.67.93,1.04,1.44,1.41,1.96-.47.08-.94.16-1.41.23-.99-.02-1.73-.56-2.41-1.2,1.37-2.84.99-5.86.89-8.85.68-.16,1.63.31,1.92-.82-.4-1.47-2.17-1.21-2.89-2.27-1.04-6.46-3.18-12.27-9.42-15.59.05-.86-.44-1.39-1.13-1.79-1.24-2.07,1.32-3.2,1.23-4.99-.31-5.2-1.79-9.98-5.15-14.33-1.44-.28-3.04-.6-4.64-.91-2.79-3.02-6.04-5.15-9.93-6.02-4.03,1.78-7.33,4.74-12.11,5.04.31,6.99-2.21,12.19-8.61,15-1.82-9.7-3.64-19.4-5.46-29.1.13-.64.27-1.29.4-1.96,1.34-.37.73,1.97,2.16,1.77,37.3-7.88,74.61-15.76,112.47-23.76,1.3-1.13,3.04-2.65,4.9-4.28,10.51,3.06,19.8-2.23,29.58-4.25,6.12,4.61,12.34,5.33,16.35-2.27.52-.98,1.41-1.77,2.13-2.64Zm-86.58,82.23c6.81-.64,13.45-2.35,20.19-3.28,7.7-1.06,14.22-4.26,20.31-8.82,2.12-1.59,4.32-3.11,6.91-3.95,14.42-4.64,28.11-11.17,42.28-16.41,9.71-3.59,19.59-7.82,30.37-4.67,1.68-1.15,3.42-1.95,4.64-3.25,3.53-3.76,8.03-4.97,12.88-5.83,7.86-1.4,15.66-3.15,23.47-4.79,1.04-.22,2.45-.05,2.62-2.29-7.01.89-13.68,2.97-20.51,3.95-8.59,1.23-16.48,3.65-22.91,9.76-.21.2-.62.19-1.1.32-3.12-.59-6.44-1.65-9.72-.9-6.8,1.57-13.63,3.11-20.14,5.7-11.12,4.42-21.86,9.83-33.32,13.37-8.2,2.53-15.72,6.26-22.57,11.38-2.18,1.63-4.57,2.48-7.25,3.08-9.74,2.18-19.59,3.73-29.4,5.49-4.44.45-8.9.84-12.96,3.12,5.5-.03,10.9-.61,16.21-1.98Zm52.8-59.6c-2.06,6.31-6.01,11.98-5.46,19.65,4.84-2.04,9.03-2.2,12.43-4,2.11-.07,4.22,1.93,5.84-1.48-4.99-3.69-7.65-9.66-12.81-14.17Zm-67.91,15.48c1.44,2.31,2.64,4.59,5.78,3.85,1.76-.41,2.89-1.64,3.01-3.49.14-2.04-.87-3.62-2.77-4.22-3.07-.97-4.48,1.2-6.02,3.86Zm94.44-22.32c-3.67,1.21-5.65,2.97-6.53,5.45-1.96,1.36-4.46,1.16-5.9,3.92,5.14-.9,9.18-3.26,13.74-5.13-.88-1.28-2.45-2.1-1.3-4.24Zm-38.08,23.68c-3.31-.2-4.83.6-6.02,3.23,2.46-.18,3.93-1,6.02-3.23Zm88.48-16.18c-.1-.29-.12-.72-.33-.84-.47-.27-.93-.03-1.08.46-.07.23.12.68.32.81.47.3.87.08,1.08-.43Zm2-1.71c.29.43.59.44.88,0-.29-.44-.59-.42-.88,0Z" fill="#f6e3d5" stroke-width="0"></path><path d="m59.24,295.79c-3.24,2.08-7.04,1.48-10.55,1.91-11.82,1.45-23.73,2.03-35.51,3.86-3.86.6-7.81.65-11.57.94-1.59-3.73-2.22-102.88-.85-111.42,3.12-2.94,7.42-2.31,11.2-3.11,8.73-1.85,17.55-3.41,26.39-4.65,13.6-1.91,27-4.97,40.63-6.74,4.57-.6,9.63-.63,13.55-3.95,4.27,1.31,8.54,2.62,12.81,3.93l19.94,7.38c.24.46.58.77,1.15.65l-.03-.03c.62,1.85,2.19,2.86,3.56,4.05,3.88,3.38,7.98,6.54,11.6,10.18,6.42,6.45,14.66,8.73,23.03,10.89,3.28,1.86,4.99,5.56,8.49,7.17.57.71,1.36.87,2.2.91,13.06.67,26.13,1.37,39.19,2,2.8.13,5.61.61,8.41.07.58-.11.6-.66.54-1.16-1-1.4-2.95,0-3.96-1.28-.76-2.25.5-4.68-.75-6.86-2.75-1.19-5.93-.76-8.72-2.48-.89-1.92-1.84-3.98-2.76-5.98-2.16-.4-4.1-.76-6.05-1.12-1.1-.52-2.48-.5-3.27-1.64.56-1.23-.3-2.69.91-4.17,3.15-2.24,6.63-4.71,10.31-7.33-2.79-3.46-4.8-7.09-7.88-9.91.09-2.55,1.18-4.84,1.96-7.2,5.25-.07,10.12,3.54,15.74,1.7,1.58-4.5,3.21-8.95,2.52-13.71-4.44-2.28-9.28-1.93-13.46-3.9.36-1.26.72-2.51,1.08-3.77.54-.36,1.04-.93,1.63-1.05,8.44-1.77,16.9-3.45,25.34-5.22,2.43-.51,4.79-1.42,7.23-1.87,9.8-1.77,19.58-3.6,29.18-6.27h-.02c-.24.86-.02,1.6.64,2.2,2.21,8.91,4.03,17.91,5.28,27.01-6.88.25-13.73,1.03-20.64,1.09-4.28.04-8.91-.37-12.56,2.88l-1.25-.44-.15-.31-.17.27c-.29.28-.58.57-.87.85l-.27.19.32.15c.17.4.33.8.5,1.2-3.47,1.4-4.82,3.93-5,7.71-.36,7.79-1.39,15.55-1.74,23.34-.2,4.4-1.26,8.93.67,13.25,0,.3-.1.56-.29.78-.38.07-.51.29-.41.65-1.95,5.31-6.68,4.67-10.88,4.95-7.89.52-15.8.88-23.88,1.32v8.15c-8.03,1.75-16.1,2.47-24.21,3.72-.5,3.12-.97,6.04-1.44,8.93-2.98,1.34-5.81,2.6-8.92,4v12.81c-4.51,2.2-9.13,2.25-13.31,3.88-.87,5.55.42,11.06-.64,16.5-2.07.42-4.02.81-5.96,1.2-2.2.02-4.41.04-6.61.05-3.14-1.87-6.89-.58-9.69-1.97-1.96.13-2.86,1.85-5.13,1.51-1.68-.75-3.9-1.74-6.02-2.68q.57-6.35-2.73-8.64c-2.14.81-3.04,2.35-2.77,3.98.5,2.31,2.53,3,2.58,5.36.48.92-2.24.68-1.64,1.91,1.5,1.79,3.58,1,5.3,1.76-.62.68-.95,1.04-1.29,1.41-19.29,2.16-38.58,4.31-58.19,6.5-2.03-10.39-4.07-20.26-5.84-30.19-1.07-6-3.2-11.84-2.92-18.06,5.35-3.87,10.85-7.57,15.97-12.29-1.03-7.48-2.07-14.99-3.09-22.4-7.17-3.53-14.21-6.31-21.44-9-6.23,4.93-12.73,9.18-18.34,14.4,1.01,7.55,1.97,14.76,2.95,22.08,3.84,2.2,7.71,4.09,11.92,5.08,3.54.83,6.81,2.15,9.79,4.19,2.99,15.23,5.99,30.47,9.07,46.18-16.08,1.84-31.8,3.63-47.8,5.46.79,1.75,1.45,1.69,2.1,1.62,8.57-.94,17.12-2.09,25.72-2.75,6.69-.52,13.27-2.45,20.06-1.59-.02.33-.02.65,0,.98Zm18.26-20.63c1.56,6.1,4.56,8.98,7.81,7.25,3.59-1.91,6.27-5.33,7.61-9.07,1.27-3.55-2.76-6.92-8.01-7.27-3.39,2.15-5.11,5.78-7.41,9.09Z" fill="#f5e2d4" stroke-width="0"></path><path d="m438.18,321.63c.29.15.59.22.92.2.34.2.69.4,1.03.61.75.45,1.5.89,2.26,1.34.24.2.49.41.73.61.38.11.76.22,1.14.33,3.76,2.33,4.89,6.53,7.07,9.98l.04.08c.28.38.56.76.84,1.14-.02.32.04.63.2.92-.05.26-.05.53,0,.79l-.27.27c-3.46.05-6.91.2-10.08.99-4.39,3.44-5.48,7.88-4.86,12.93l.06-.07c-2.48-1.22-4.96-2.44-7.19-3.53-.94-2.39-1.73-4.39-2.52-6.4.22-3.44,1.66-6.84.34-10.33-2.82,5.94-2.54,11.87.38,18.23,6.45,1.19,9.57,6.63,13,11.77.82,1.24,1.87,2.33,2.81,3.48.06.27.13.54.21.81.06.7.11,1.4.17,2.1.25.35.5.71.75,1.06-.02.32.07.6.25.86.39,6.72-.95,13.5.72,20.18-.03,2.21-.05,4.41-.08,6.62-2.81,7.17-2.94,14.77-3.56,22.29-.25,1.31-1.47,2.26-1.34,3.7-.33.4-.67.8-1,1.2,0,0,.03-.03.03-.03-.34.35-.68.69-1.02,1.04v-.02c-1.93,1.2-4.45,1.22-6.13,2.96-1.2,0-2.41,0-3.61-.01-1.16-1.1-2.68-.96-4.1-1.16-.05-.3-.16-.58-.33-.83l-.74-1.17c-.13-1.31-.25-2.62-.38-3.92.1-1.95.21-3.89.31-5.84.03-.6.05-1.19.08-1.79,1.83-5.68.89-11.27-.07-16.89-2.82,2.12-1.71,5.38-3.59,8.24-.79.85-2.6,1.56-3.49,3.24-.34.15-.67.29-1.01.44-.27.26-.54.53-.81.79l-.1.09c-.32.3-.64.6-.95.9l-.05.05c-.4.3-.8.6-1.2.89-1.25,0-2.5.02-3.75.02-1.47-1.35-3.36-.74-5.05-1.05l.06.03c-.46-.8-1.2-1.03-2.06-1l.03.03c-.35-.26-.7-.52-1.06-.78l-.19-.18c-.23-.22-.46-.44-.69-.66-1.93-1.41-3.19-3.3-3.96-5.54,6.98,3.49,10.31,3.11,14.67-1.82-.04-1.29.59-2.8-1.15-4.6-4.13,2.81-9.19,1-13.79,1.65-.72,1.96.09,3.35.3,4.8-.72-.03-1.45-.07-2.17-.1-.38-1.93-.76-3.87-1.18-5.98,1.83-3.75,4.6-6.69,7.83-8.62h5.42c4.31,2.49,6.54,6.71,10.6,8.74-1.86-3.9-5.44-6.28-8.09-9.8,2.97-.61,5.41-.12,7.64.21,1.59,1.1,1.98,3.19,4.05,3.87-1.71-5.51-6-7.92-11.45-6.01-3.15,1.1-6.14,1.08-9.22.88-1.84-1.51-3.63-2.97-5.31-4.35-2.02-8.41-3.48-16.73-4.51-24.91-3.03-3.36-7.01-4.68-10.47-6.4-.78-3.21.03-6.3-1.15-9.26-2.93-3.13-6.47-4.96-11.13-4.72-3.14,2.77-5.22,6.23-6.09,10.44-1.18,5.7-2.46,11.37-3.59,17.08-.87,4.4-1.68,8.83-.48,13.32-1.48-.87-1.68-2.36-1.87-3.86-.88-6.72-1.77-13.44-2.59-19.7,4.63-8.63,2.13-17.03,1.82-25.26-3.93-.89-5.97,1.67-8.72,2.46-1.13-.66-2.26-1.32-3.4-1.99,1.44-4.94-.09-10.83,4.58-15.38,2.55,4.77,3.43,9.7,6.65,13.42-.46-5.38-3.29-9.92-4.73-14.57,7.27-11.68,17.83-15.38,30.51-13.82,1.54,1.46,1.57,3.81,3.79,4.17.32.18.64.37.96.55.66,1.33,1.67,2.27,3.08,2.76.32.27.63.53.95.8.24.16.51.25.8.27.42.33.83.66,1.25.99l-.04-.04c.36.27.71.54,1.07.81l.15.15c.25.23.49.47.74.7.34.12.68.24,1.02.36,2.26,2.16,4.98,3.06,8.07,2.95h.02c3.51,1.63,7.25.89,10.9,1.1v-.05c.33.23.66.46.99.69,1.36.43,2.72.87,4.09,1.3,1.44,1.17,3.19,1.49,4.95,1.78,1.35.41,2.7.83,4.05,1.24l2.03.63c.59.13,1.18.27,1.77.4.9.89,2.05.92,3.2.98l-.03-.02c.45.79,1.21.87,2,.86.28.15.57.21.88.16.58.57,1.29.81,2.1.78Zm-4.68,48.85c-.88-3.19-2.8-3.02-4.01-3.07-9.35-.42-16.79-5.67-24.92-9.31-6.77-3.03-12.26-7.14-16.05-13.53-.76-1.28-1.84-2.36-2.76-3.54-.92-1.18-1.57-2.68-3.46-3.18,6.1,15.15,19.2,21.62,32.63,27.71-4.49,1.02-8.74.36-12.81,2.13,10.32,1.01,20.79-.96,31.37,2.79Zm-8.97,15.66c-1.7-.88-.31-3.79-3.35-4.38.54,3.47.76,6.66,3.03,10.31,2.38-8.53,9.33-11.51,15.1-15.67-5.16.45-9.42,3.37-14.78,9.74Zm-25.99-68.91c-6.14,2.73-12.3,5.53-18.61,8.02,7.39.12,13.12-3.61,18.61-8.02Zm42.26,88.09c-8.51-1.63-11.41-.75-12.96,3.48,2.04.17,3.01-1.88,5.16-2.32,2.03-.31,4.67,1.05,7.8-1.16Zm-76.32-76.49c-2.67,2.18-5.37,4.32-6.45,7.92,3.06-1.83,5.31-4.38,6.45-7.92Z" fill="#f57e70" stroke-width="0"></path><path d="m357.13,376.01c-1.2-4.49-.39-8.92.48-13.32,1.12-5.71,2.41-11.38,3.59-17.08.87-4.21,2.94-7.66,6.09-10.44,4.66-.24,8.2,1.58,11.13,4.72,1.18,2.96.37,6.05,1.15,9.26,3.46,1.72,7.44,3.04,10.47,6.4,1.03,8.18,2.5,16.5,4.51,24.91,1.68,1.38,3.46,2.84,5.31,4.35,3.08.2,6.07.22,9.22-.88,5.46-1.91,9.74.51,11.45,6.01-2.08-.68-2.46-2.77-4.05-3.87-2.24-.33-4.67-.81-7.64-.21,2.65,3.52,6.23,5.9,8.09,9.8-4.06-2.02-6.3-6.25-10.6-8.74h-5.42c-3.23,1.93-6.01,4.87-7.83,8.62.42,2.12.8,4.05,1.18,5.98l-.06.24c-.32-.02-.62.04-.9.18-1.64-1.86-1.72-4.22-2.15-6.3,1.24-4.07,4.74-6.41,7.24-10.24-5.8-2.13-6.49-6.93-7.25-11.8-.92-5.9-2.12-11.75-3.21-17.66q-5.43-3.97-9.81-3.82c-2.09,1.53-3.96,3.39-5.54,5.24-2.01,7.41-2.03,14.46.16,21.71,1.82,6.01,2.7,12.3,3.99,18.47-.48.04-.97.08-1.45.12l.06.06c-.21-.52-.07-1.29-.88-1.33-.71.26-1.19.64-1.22,1.39h0c-.24.33-.48.65-.72.98-.29.15-.42.39-.39.72-.32.43-.64.86-.95,1.29,0,0,.03-.04.03-.04-.52.16-.81.49-.83,1.05-.63.47-1.11,1.04-1.19,1.86-.28.4-.57.79-.85,1.19l-.06.08-.74.85c-.3.18-.43.45-.4.8-.96,1.42-1.91,2.83-2.87,4.25,0,0-.02.03-.02.03-.25.31-.49.61-.74.92-.62.53-1.17,1.1-1.3,1.96l-.86,1.11-.08.11c-.29.3-.58.6-.87.9l-.13.12c-.34.28-.69.56-1.03.84h-.01c-.42.31-.84.61-1.25.91-.59.43-1.18.85-1.77,1.28-.32.27-.64.54-.96.81,0,0-.02.02-.02.02-.4.31-.79.61-1.19.92-.61.4-1.22.79-1.83,1.19-.53.26-1.05.52-1.58.78l-7.42.24c-1.52-.5-2.94-.49-4.1.81l-.93.4c-.29.23-.57.45-.86.68l-.06.04c-.54.07-.97.28-1.15.84l.04-.05c-1.33.23-3.14-.22-2.98,2.11,0,0,.03-.04.03-.04-.21.34-.42.69-.63,1.03-.31.21-.44.5-.39.87-.23.38-.47.76-.7,1.14-.28.17-.4.41-.36.74-.97.9-1.69,1.94-1.88,3.29,0,0,0,0,0,0-.19.31-.39.63-.58.94-.15.32-.3.65-.44.97-.32.36-.65.72-.97,1.08,0,0,0,0,0,0-5.81.88-11.73-.32-17.52.94-3.18-.61-6.33-.13-9.49.19-.63-.07-1.03.22-1.29.77-.35-.01-.6.14-.74.47-.27.23-.54.46-.81.69l-.11.06c-.57.03-.95.3-1.14.84l.08-.06c-.49.33-.97.65-1.46.98-.25-.08-.42,0-.52.25-.59,0-1.03.24-1.31.77-.35,0-.59.15-.73.47l-.88.66-.05.02c-.6.02-.99.3-1.08.92l.02-.03c-1.33,1.51-.83,3.32-.81,5.05-.25,2.48-.59,4.95-.2,7.45-.95,2.44-.84,5-.79,7.55-.31,2.15-.75,4.29-.22,6.46-1.04,2.43-.89,4.99-.77,7.54-.15,1.48-.71,2.94-.22,4.45-1.12,2.43-.57,5.03-.79,7.55-.09,1.21-.18,2.42-.27,3.63-.27.47-.53.94-.8,1.42,0,0-.06.07-.06.07-.32.31-.64.62-.96.93,0,0-.05.04-.05.04-.48.27-.95.54-1.43.82l-.34-.05-.26.22c-.34-.08-.66-.06-.98.08-.54-.08-1.07-.17-1.61-.25-.46-.3-.93-.6-1.39-.9h.01c-.32-.38-.64-.77-.96-1.16.09-.33.01-.61-.23-.84.03-2.65.05-5.3.08-7.95.61-1.81.4-3.65.2-5.49,1.32-2.74.8-5.65.84-8.51.05-.9.1-1.81.15-2.71.69-2.72.82-5.5.84-8.28.05-1.25.1-2.5.16-3.75.99-3.36.82-6.82.89-10.25.44-.8.64-1.61.08-2.44.91-2.79.95-5.66.86-8.55.42-1.82.42-3.65.19-5.49,1.27-3.08.67-6.34.89-9.52.31-.81.4-1.63.07-2.46,1.02-3.11.85-6.33.9-9.54.03-.94.06-1.88.1-2.82,1.2-3.99.9-8.11.97-12.19l.21-.23-.14-.28c1.05-2.75.65-5.63.79-8.47.36-1.48.73-2.95.17-4.46.99-3.12.99-6.32.86-9.54.41-1.14.67-2.29.15-3.47,1.07-3.78,1.08-7.66.92-11.54.22-.25.25-.52.09-.81,1.07-2.65.66-5.43.78-8.17.44-1.83.56-3.67.24-5.53.87-2.51,1.01-5.07.5-7.67,2.34-18.59,2.13-37.11-1.11-56.02-3.77,2.3-7.58,3.46-10.46,6.42-6.03,6.2-13.14,9.2-21.97,7.1-9.73-2.32-19.18-5.3-27.81-10.51l-.2.1c-.06-.63-.47-.87-1.04-.94h0c-.35-.28-.69-.57-1.04-.86l-.11-.11c.11-.52.22-1.03.32-1.55,6.63,2.8,12.1,8.36,20.19,8.58-.38-4.77,2.48-7.72,5.37-10.7.09,4.23-5.63,7.01-2.48,12.04,1.54.62,3.23,1.36,5.33,1.12-1.08-2.24-2.74-3.81-2.95-6.68,3.47-5.46,5.96-11.86,7.89-18.47-4.78-1.63-9.49-1.59-14.38-1.27,2.15-3.02,5.96-2.97,8.15-5.42,1.34-9.18,6.89-17.92,2.66-28.03-1.13,2.27-2.15,4.31-2.63,5.27-.84,2.67,1.32,3.71.38,5.38-.76-.3-1.51-.59-2.23-.88-1.1,1-.93,3.21-3.35,3.35-.1-2.53,2.08-4.01,2.13-6.34-1.69-4.03-4.98-7.53-5.75-12.17,3.2,2.64,4.25,6.67,6.91,9.84,2.22-2.59,2.45-6.62,6.27-7.87,1.67,8.93,3.02,17.6-1.63,25.98,7.78-5.86,12.96-12.78,12.02-22.98-.3-3.2-1.21-6.18-1.93-9.24-2.02-8.54-4.14-17.06-6.17-25.38-2.23-.53-3.59.51-5.01,1.32-.34-.31-.69-.63-1.03-.94,2.91-3.16,4.86-6.9,7.06-10.76-5.87-4.52-11-9.44-16.97-13.32-.17-.4-.33-.8-.5-1.2l-.05-.34c.29-.28.58-.57.87-.85l.32.04,1.25.44c4.94,5.11,10.56,9.37,15.98,13.31,7.43-.37,14.29-1.15,21.18-2.12-.81-4.49-1.56-8.68-2.31-12.86.39-.45.79-.89,1.18-1.34,1.61,2.21.41,5.27,2.43,7.75.77-1.33,1.45-2.52,1.96-3.41,1.52-.73,3.11.46,4.25-1.59.8-3.98,1.72-8.48,2.56-12.68,6.16-4.84,10.5.2,14.77,1.85,2.06.4,3.21-1.45,5.52-.12,3.93,6.72,1.83,14.35.68,21.98,4.57-1.56,4.27-6.14,6.34-9.13.69.4,1.18.93,1.13,1.79-.78,4.24-3.7,7.14-7.05,10.36,5.88,1.79,10.87,4.38,16.47,5.23.72,1.06,2.49.8,2.89,2.27-.29,1.14-1.24.66-1.92.82-6.46-3.39-13.93-4.18-20.45-8.11-1.56,2.89-3.1,5.74-4.95,9.17,8.93,1.24,16.38,5.5,24.51,7.79.68.65,1.42,1.18,2.41,1.2.49.25.98.5,1.47.75.07.27.22.49.44.66l-.03.03c-.23.4-.46.8-.69,1.19-3.23-1.16-6.35-2.77-10.16-2.56-1.15,5.81-2.45,11.47-3.32,17.19-.59,3.9-1.94,7.72-1.12,11.83,1.29,6.51,2.33,13.06,3.48,19.6-.36,1.24,1.58,3.03-.88,3.78-5.55-17.58-5.53-35.22.47-53.11-2.76-.52-4.46-1.63-6.73-1.08-.82,7.27-1.64,14.53-2.44,21.79-.4,3.63-1.53,7.4-.97,10.89,1.75,10.83,2.87,21.74,4.39,32.6-.89,2.94-1.79,5.88-2.68,8.82-2.58-1.02-1.02-2.87-.62-4.2,1.04-3.42,1.21-6.79.69-10.33-1.09-7.39-2.01-14.81-2.89-22.23-.29-2.44-1.38-4.66-.97-7.32,1.09-7.06,1.82-14.18,2.61-21.29.34-3.09,1.1-6.19.25-9.3-1.98-.96-3.83-1.53-6.01-1.33-3.34,3.13-6.19,6.86-9.96,9.72-1.66-.09-3.28-.19-5.3-.3-2.53,13.4-2.09,26.88-3.68,41,2.51-2.61,5.26-1.21,7.42-2.09.99-1.68-.33-3.5,1.04-5.35,1.59-1.17,3.74-1.68,6.01-1.42,2.5,2.51,1.85,5.76,2.65,8.68,1.06,1.38,2.86,2.2,3.49,3.95,2.31,3.88-.05,8.05,1.1,12.13-2.88,1.83-4.22,5.17-7.37,6.31-.92,13.27-1.81,26.26-2.77,40.08,6.55-3.76,13-5.56,18.65-9.08.71.14,1.66-.1,1.74,1.28-1.5.9-3.09,1.84-4.67,2.79-5.48,1.82-10.64,4.35-16.2,7.15.9,9.38-3,18.77.32,28.24.47,1.35.22,2.96-.67,4.29l-.28.02c-.41-.4-.81-.74-1.08.12-1.97,17.01-2.99,34.1-4.09,51.17-.24,2.94-.48,5.89-.73,8.93,13.3,7.75,25.34,18.13,43.2,17.27,1.27-.71,3.73-2.07,6.19-3.44.71.77,1.59,1.04,2.64,1.15,7.28.81,11.93-3.87,15.93-8.57,4.59-5.39,8.13-11.68,12.13-17.57.85-.32,1.53-.88,1.31-1.83-1.12-4.97-2.31-9.92-3.54-15.16-2.11.75-3.8,1.35-5.41,1.92-1.77-.83-3.27-1.66-3.84-3.65,2.06-.63,2.74,1.49,4.36,1.45.67-.25,1.44-.53,2.22-.82.78-.29,1.55-.6,1.91-1.47-1.51-9.7-1.52-18.97,7.21-24.9v-9.41c-2.86-2.49-5.69-3.99-9.26-3.75-2.43,2.72-4.22,5.56-4.81,9.2-.69,4.25-1.82,8.43-2.68,12.65-1.36,6.68-3.18,13.36.08,20.04.39.81,0,1.61-.75,2.16-1.04-1.05-1.26-2.49-1.77-3.8.11-.37-.03-.62-.4-.75-.02-.25-.11-.47-.28-.66Zm-64.85,37.72c-.6,2.7-1.09,5.4-.42,8.27,4.19-.27,7.91-2.48,12.03-1.55-3.82,2.33-8.41,2.24-12.42,3.83-.81,6.22-1.47,12.19-1.27,18.77,1.62-1,2.86-1.53,3.79-2.4,3.8-3.55,8.31-4.31,13.31-4.13,6.27.23,12.55.06,18.72.06,2.18-4.06,3.99-7.45,6-11.21-9.57-1.04-18.22-3.06-25.63-8.61-4.3-3.03-8.76-5.79-13.52-8.23-.84,1.92-.54,3.57-.59,5.19Zm-.99-74.69c-1.57,7.19-1.41,14.54-2.03,21.81-1.53,18.06-2.75,36.16-4.16,54.23-2.01,25.69-4.09,51.38-6.13,77.07-.15,1.84-.37,3.73,2,4.62,4.21-.42,3.36-3.93,3.55-6.47,2.74-36.32,5.38-72.64,8.03-108.96.93-12.75,1.8-25.51,2.7-38.26.23-1.3.57-2.59.67-3.91,1.01-14.26,2.01-28.52,2.96-42.78.57-8.57,1.06-17.14,1.63-26.33-4.03,1.92-5.88,4.37-6.1,8.24-.57,10.12-1.52,20.23-1.88,30.35-.37,10.13-1.96,20.22-1.25,30.39Zm-9.58-78.45c2.51-3.8,4.43-7.61,4.78-12.63.96-13.57.97-27.24,3.5-40.89-3.02-4.37-6.13-8.84-9.17-13.24-3.49-.26-6.35,1.15-9.16,1.57,2.71,16.76,7.5,32.97,5.21,49.97-4.33,5.59-9.85,10.16-14.28,16.39,6.73-.67,12.92.94,19.11-1.18Zm11.66-66.07c4.83.58,8.75-.09,11.38-3.65,2.15-2.91,3.78-6.19,5.69-9.28,1.81-2.92,2.81-5.95,1.75-9.34-1.3-1.48-3.57-1.68-4.73-3.45,2.08-1.57,3.45,1.45,5.27.37.46-3.31.64-6.57-1.99-9.31-5.28,2.91-7.91-3.39-12.37-3.33-1.43.03-2.89.2-4.29,1.2-1.71,4.82-.69,10.56-4.35,15.24-2.76-.59-4.08.96-4.71,4.02,4.85,4.58,1.88,13.27,8.35,17.53Zm-17.95,70.26c-1.61,5.49-3.26,11.12-5.07,17.33,7.18-2.15,13.69-3.98,20.12-6.06,3.67-1.19,4.51-5.75,8.02-7.23,1.92-.89,4.68.81,6.31-2.03-2.89-2.28-7.08-.37-9.79-3.54,4.53-.75,8.49,1.42,13.05,1.23-2.4-5.04-8.03-2.66-10.92-6.4,3.91-.44,6.89,1.55,9.96,1.71,1.02-.93,1.33-1.79.94-2.45-4.67-4.93-10.54-.9-15.48-2.65,4.75-2.05,9.53-2.38,15.04-.84-4.88-6.25-11.02-4.94-16.92-4.84-3.02,4.26-4.67,9.27-7.92,13.11-2.25,1.17-4.84.69-7.34,2.66Zm-14.35-70.2c2.52,10.5,5.48,20.88,7.41,31.46,1.43,7.83,1.59,15.84-5.23,22.08-2.9,2.65-5.29,5.85-7.91,8.79.75.67,1.59.62,1.73,1.44-.32,1.59-2.88,1.16-2.78,3.39,1.92,1.53,4.09,1.28,6.28.48,3.39-7.3,10.48-11.48,14.36-17.59,1.98-14.13-1.68-27.23-3.53-40.53-.63-4.53-2.17-8.22-5.59-11.24-1.65.25-3.15.81-4.74,1.72Zm12.52,69.29c-4.48-.03-8.39-1.01-12.23.31-2.91,6.89-4.51,14.11-9.03,20.11,1.59,2.53,3.08,4.9,4.54,7.22,2.65.24,5.07,1,6.35.54,5.44-9.09,7.5-18.4,10.37-28.18Zm10.97-81.68c-7.1,2.64-14.79,1.27-22.33,3.33-1.06,2.28-3.21,4.18-4.04,7.25,9.73-2.27,19.45-2.68,28.73-5.89-.12-1.92-.02-3.6-2.35-4.69Zm-1.92,10.95c2.14,4.09,6.16,4.36,8.97,6.22,2.8-.24,5.42-.46,7.97-.67,1.42-1.26,2.74-2.43,4.07-3.6-6.01,2.27-11.61,3.15-15.55-3.43-1.84.5-3.41.93-5.46,1.49Zm14,13.03c3.23-2.82,5.89-5.51,8.03-8.93-5.19,4.78-11.02,4.67-17.73,2.3,1.64,2.37,2.84,4.1,4.06,5.85,1.9.26,3.67.51,5.63.78Zm-30.68,84.02c7.03-.54,9.72-5.74,14.47-9.49-4.21,1.52-7.63,2.75-11.3,4.08-.89,1.53-1.87,3.2-3.16,5.41Zm36.72-42.7c.64-1.98.42-3.8-.71-5.53-1.59-.48-2.9-.08-4.09.84-.67,1.39-.28,2.56.58,3.73,1.31.49,2.65,1.04,4.22.96Zm-32.92-54.03c5.4-.85,11.01-1.11,16.06-3.78-5.46.66-10.89,1.44-16.06,3.78Zm22.38,99.02v-14.58c-.43,0-.86,0-1.29,0-1.52,4.88-.06,9.78,1.29,14.58Zm14.69-97.43c-.08.42-.16.84-.24,1.27,2.03.33,4.07.67,6.1,1-1.7-1.83-3.71-2.32-5.86-2.27Z" fill="#2e1b16" stroke-width="0"></path><path d="m152.16,134.24c-8.33.63-16.59-.36-24.87-.98-.18-4.55.27-9.06.95-13.55,2.89-.34,5.84-.35,8.92-1.49-2.72-6.08-5.11-11.97-9.09-17.85-3.9,6.15-7.84,11.51-10.77,17.59,3.01,1.86,6.08.29,8.64,1.66l-1.18,14.01c-18.22-.91-36.43-1.82-54.96-2.75.21-2.95.38-5.38.57-8.04,9.9-16.44,19.9-33.05,29.69-49.31,3.75-.97,6.14,2.79,9.44,1.45,5.69,3.68,11.34,7.43,17.08,11.03,2.93,1.84,5.2,4.7,8.71,5.65,1.55,1.23,3,2.61,4.67,3.66,6.36,3.99,12.15,8.47,16.17,15.04,1.42,2.32,2.84,4.92,5.86,6.4h22.08c-.1,1.12,1.15,2.11.24,3.36-1.5.99-3.3,1.29-5.08,1.67-6.62,1.43-13.24,2.89-19.86,4.34-3.57,1.67-4.8,5.4-7.18,8.11Z" fill="#f46e6c" stroke-width="0"></path><path d="m245.2,366.81c.05-1.26.1-2.51.15-3.77,1.06-1.24,1.73-2.64,1.75-4.31.35-1.68.5-3.35-.08-5.01.25-.02.48.04.69.16,3.05,2.94,3.44,7.85,7.03,10.39.33-.21.65-.41.98-.62-2.38-4.2-4.77-8.39-7.06-12.43-1.34.23-1.43.91-1.59,1.53-.27,0-.53-.02-.79-.06,0-1.14.03-2.28-.87-3.17-.33-1.52-.71-3.01-2.05-4.02-.1-.59-.2-1.19-.31-1.78-.26-.34-.53-.69-.79-1.03-.4-1.66-.8-3.32-1.21-4.98-.02-1.67-.03-3.35-.05-5.02,6.85-4.19,12.97-9.06,15.68-17.1,9.01,1.21,17.18,7.38,27.35,4.11-.46,11.24-3.47,21.7-3.57,32.45,2.72-2.01,1.03-5.32,2.64-7.6.02,4,.04,8,.06,12-.82.91-.87,1.97-.59,3.09-1.04,3.99.94,8.58-2.38,12.13-1.01-1-.52-2.95-2.39-3.76-1.32,2.18-2.18,4.55-3.79,6.2-3.61,2.16-8.04,1.8-11.28,4.59,4.49.41,8.53-1.66,12.6-2.48-2.72,13.92-15.03,20.95-21.85,31.87,3.21-1.31,4.9-4.19,7.11-6.46,6.93-7.14,13.99-14.2,16.88-24.22.58-2.02,1.21-4.16,2.76-5.79-.03,1.63-.06,3.27-.09,4.9-1.03.86-1.36,2.06-1.61,3.3-.43,2.23-1.85,4.25-1.36,6.67-.98,1.56-2.04,3.1-1.6,5.1-.13.65-.25,1.3-.38,1.95-.79.88-.82,1.94-.68,3.03-.12,1.29-.24,2.58-.36,3.87-.87.92-.91,2.04-.76,3.2-.05.35-.1.7-.15,1.04-1.21,2.65-1.71,5.3.01,7.94,1.11.23,1.95.68,1.75,2.04l-.27-.16c-1.99-2.3-2.35.44-3.14,1.15-2.38,2.13-3.57,5.57-6.81,6.61-2.28-1.26-1.08-4.42-3.66-5.36-1.25,2.3,1.11,4.13.57,6.18-4.23,2.6-8.59,1.79-12.01.95-3.72-2.14-3.56-6.61-7.42-7.32l-.13-.12c.09-.27.16-.55.2-.84,1.64-1.86.84-4.03.78-6.1,0-.64,0-1.28,0-1.91l-.03-3.12c-.08-9.24-.16-18.47-.25-27.71.15-1.34.29-2.68.44-4.03.34-.39.68-.78,1.02-1.17l-.02.04c1.2-1.52.76-3.33.92-5.04Zm19.82,33.33c-2.6,1.35-4.39,3.47-5.42,6.29,2.62-1.33,4.49-3.37,5.42-6.29Z" fill="#f57d70" stroke-width="0"></path><path d="m278.28,82.81c2.73-11.5,10.43-19.44,19.3-26.37,7.26-5.68,15.85-8.76,24.95-9.14,10.4-.44,20.51,1.49,29.57,7.26,9.67,6.15,16.99,14.24,21.45,25.3-6.49,2.45-12.93,3.93-19.96,1.31-2.71,4.86-7.35,5.57-11.95,6.48-7.73,1.52-15.43,3.2-23.49,4.89,1.74,1.99,3.93,1,5.37,2.13-1.12.2-2.35.05-3.27.97-2.51-.21-4.94-.76-7.28-1.67.75-.24,1.68.04,2.37-.9-.58-.33-1.1-.83-1.69-.95-7.62-1.48-15.3-2.71-22.86-4.43-4.35-.99-9.41-.53-12.5-4.87Z" fill="#303133" stroke-width="0"></path><path d="m254.22,196.72c1.42-.82,2.78-1.85,5.01-1.32,2.03,8.32,4.15,16.84,6.17,25.38.72,3.06,1.63,6.04,1.93,9.24.95,10.2-4.23,17.12-12.02,22.98,4.65-8.38,3.29-17.05,1.63-25.98-3.83,1.24-4.05,5.28-6.27,7.87-2.66-3.17-3.71-7.2-6.91-9.84.76,4.65,4.06,8.15,5.75,12.17-.06,2.33-2.24,3.81-2.13,6.34,2.42-.14,2.26-2.35,3.35-3.35.73.29,1.47.58,2.23.88.94-1.68-1.22-2.71-.38-5.38.48-.96,1.5-3,2.63-5.27,4.24,10.11-1.31,18.85-2.66,28.03-2.19,2.45-6.01,2.4-8.15,5.42,4.89-.32,9.6-.36,14.38,1.27-1.92,6.6-4.42,13-7.89,18.47.21,2.86,1.87,4.44,2.95,6.68-2.1.25-3.78-.5-5.33-1.12-3.14-5.03,2.57-7.81,2.48-12.04-2.89,2.98-5.74,5.93-5.37,10.7-8.1-.22-13.56-5.78-20.19-8.58l-.26-.21c.13-3.47-3.06-4.34-4.91-6.26-.24-1.97-.37-3.95-.73-5.9-1.43-7.8-1.14-15.26,3.13-22.34,4.33-7.18,8.28-14.6,12.39-21.91,2.48-2.66,4.09-5.91,6.13-8.88,4.06-5.9,6.75-12.85,13.04-17.05Zm-12.19,60.19c-10.7,4.84-14.69,10.01-12.42,15.51,1.94-1.89,1.3-4.74,2.54-6.76,3.11-3.22,7.49-4.87,9.88-8.75Zm11.9-37.78c.27-4.7-.53-9.22-2.3-13.56-.93,4.82.21,9.27,2.3,13.56Zm-9.61,49.86c-4.86,1.72-6.62,3.97-6.43,8.2,2.18-2.77,4.2-5.35,6.43-8.2Z" fill="#f57d70" stroke-width="0"></path><path d="m322.85,250.62c-1.15-6.53-2.18-13.09-3.48-19.6-.82-4.1.53-7.93,1.12-11.83.87-5.72,2.18-11.38,3.32-17.19,3.8-.21,6.93,1.39,10.16,2.56.43.36.86.72,1.28,1.08l.14.17c0,.31-.05.61-.11.91-4.24,1.39-2.56,4.79-2.95,7.49,2.31-2.04,2.49-4.8,2.96-7.47.31.04.61.12.9.23,0,1.18.78,2,1.35,2.91.24.25.48.51.72.76l.09.05c.14,1.58.75,2.95,1.83,4.11.11.36.22.72.33,1.08.23.33.47.67.7,1,.76,2,1.51,3.99,2.27,5.99.24.34.49.67.73,1.01.1.33.19.67.29,1,.24.31.48.63.72.94.04.34.09.67.13,1.01-.07.82.04,1.55.87,1.96h0c.28,1.47.72,2.87,1.75,4.01.07,1.2.77,2.1,1.41,3.04-.05.83.16,1.57.77,2.16-.03.3.04.57.2.83-.03,1.08-.02,2.15.89,2.94.08.36.16.72.25,1.09.24.35.48.7.72,1.06.06.64.12,1.28.18,1.92.27.34.55.68.82,1.02l-.06-.02c.86,4.94,2.58,9.56,4.97,13.95.42,1.01.85,2.03,1.27,3.04.27.36.55.72.82,1.08,0,.32.06.63.21.92.26.38.52.75.78,1.13,0,.79.18,1.48,1.01,1.81.19.73.34,1.47,1.09,1.87l.08.11c.27.42.54.85.81,1.27-.01.3.07.57.24.81.27.31.55.62.82.94h0c.32.36.64.72.97,1.09l-.07-.06c.05.84.25,1.59,1.07,2.02l-.03-.04c.34.69.68,1.38,1.03,2.07.44,1,.88,1.99,1.32,2.99-.1.26-.14.53-.12.81-6.86,1.7-13.69,3.53-20.58,5.06-3.51.78-6.45,2.23-8.64,5.1-4.59-2.02-5.05-6.98-7.58-10.14.24-1.85.44-3.31.64-4.84-2.42-2.85-3.05-6.18-2.78-9.76,2.37,2.45,2.2,6.58,5.67,9.17,0-3.53-2.33-5.47-2.54-8.08,1.18-.28,1.64,1.81,3.56.41-1.57-1.49-2.98-3.01-4.58-4.29-1.53-1.21-2.72-2.44-2.35-4.55,6.14,7.12,15.36,9.36,22.73,14.29,1.12,1.52-.43,3.79,2.56,5.62.02-6.74.61-12.71-1.93-19.59-2.13,4.35,1.32,7.93-.84,11.4-2.13-1.1-4.22-2.08-6.21-3.23-5.67-3.27-12.34-5.2-15.59-11.74-.45-.9-1.36-.75-1.87.25-2.08-2.38-1.96-6.66-6.22-7.15Zm.13-3.91l1.71.47c1.49-5.31,4.01-10.32,4.67-15.88-.45-.14-.89-.28-1.34-.42-1.68,5.28-3.36,10.55-5.04,15.83Zm21.34-3.68c2.31,1.46,3.16,3.54,5.62,3.72-3.01-5.35-5.52-6.61-10.28-5.34,1.37,1.55,3.44,1.03,4.66,1.62Z" fill="#f57d6f" stroke-width="0"></path><path d="m235.06,222.64c-4.12,7.31-8.06,14.73-12.39,21.91-4.27,7.08-4.57,14.54-3.13,22.34.36,1.94.49,3.93.73,5.9-1.33,3.48-3.7,6.18-6.53,8.85-8.89,0-17.73,1.42-26.62,2.26-7.4.7-14.89.86-22.18,2.52-4.09.93-8.31.74-12.37.84-8.17.2-16.01,2.42-24.16,2.69-7.32.24-14.63,1-21.95,2.43-6.2,1.21-12.86.92-19.3,1.45-6.71.55-13.41,1.38-20.12,1.92-1.7.14-2.72,1.03-3.81,2.05-.27-.01-.55-.03-.82-.03-.17-1.23-1.37-2.35-.31-3.9,1.7-.15,3.51-.28,5.31-.48,17.02-1.85,34.06-3.57,51.05-5.61,10.37-1.24,20.82-1.91,31.11-3.79,10.53-1.06,21.07-2.13,30.79-3.11,1.83-1.05,2.35-2.1,3-3.07,9.6-14.51,19.22-29,28.84-43.51,1.38-2.08,2.69-4.09,5.28-5.01,5.9-2.11,11.72-4.42,17.58-6.64Z" fill="#f5e2d4" stroke-width="0"></path><path d="m227.48,282.62c8.63,5.2,18.08,8.19,27.81,10.51,8.83,2.1,15.94-.9,21.97-7.1,2.88-2.96,6.69-4.12,10.46-6.42,3.24,18.91,3.45,37.43,1.11,56.02-.16.13-.34.19-.54.2-.35-1.85-1.46-2.96-3.28-3.37.58-4.95.25-10.03,2.64-15.52-7.23,2.24-13.86,2.3-20.34-.42-1.22-.51-2.52-.83-3.79-1.21-8.82-2.64-17.65-5.27-26.47-7.91-.21.12-.43.14-.67.07,0-.27-.09-.5-.27-.71-.3-.3-.59-.6-.89-.9l-.06-.05c-.3-.3-.6-.6-.9-.9-.49-.75-.97-1.5-1.46-2.25.25-.03.45.04.62.23,1.95.15,3.56,2.16,6.24,1.09-2.09-2.46-4.58-2.92-7.15-3.19-.39-.42-.79-.85-1.18-1.27-.34-.34-.68-.67-1.01-1.01-.71-.88-1.42-1.75-2.13-2.63l-.03-.04c-.65-1.01-1.31-2.02-1.96-3.03.33-3.4-.14-6.9,1.26-10.17Zm18.68,22.25c1.04,1.25,2.19,2.12,4.07,1.4-1.06-2.28-2.57-1.93-4.16-1.3-.03-3.28,2.53-5.73,2.9-8.82q-1.4-2.62-3.61-3.81c-.45,1.86,1.89,2.71,1.61,4.49-1.48,3.44-3.53,6.69-4.5,10.81,2.37-.49,2.22-2.51,3.69-2.77Z" fill="#f57d70" stroke-width="0"></path><path d="m467.29,47.95c-1.47-1.74-3.51-2.64-5.59-3-2.96-.51-4.73-2.18-6.09-4.77.14-4.7-1.37-9.3-1.66-14.12-.29-4.84,1.92-8.07,4.9-10.83,3.74-3.46,8.09-6.27,12.51-9.61,7.02,3.51,14.58,5.85,21.38,9.61.88,7.61,1.69,14.64,2.53,21.88-5.4,5.58-11.9,9.51-17.71,13.49-3.38.49-5.45-2.13-8.23-1.75-.47-.77-1.19-.98-2.03-.91Z" fill="#fef59a" stroke-width="0"></path><path d="m270.25,457.73c.74,1.72,1.47,3.43,2.21,5.15.26.34.51.67.77,1.01.05.66.1,1.31.15,1.97.03,1.67-.5,3.44.9,4.85l.32,1.26c-.19,1.33-.66,2.54-1.4,3.65-.67.12-1.35.25-2.02.37-.32.27-.65.53-.97.8-1.66.27-3.31.53-4.97.8-2.57-1.4-5.31-.33-7.97-.55l-.25-.22c-.26-.27-.53-.55-.79-.82l-.17-.18c-.28-.28-.55-.56-.83-.84l-.15-.16c-.28-.32-.55-.64-.83-.96-.29-1.05-1-1.77-1.9-2.33-.56-.99-1.07-2.01-2.16-2.55l-.14-.18c-.25-.71-.5-1.41-.74-2.12-.1-1.98-.2-3.96-.3-5.95-.22-.24-.45-.48-.67-.72-.07-.18-.1-.37-.1-.56.21-.87.23-1.68-.75-2.13l-.21-.43c1.55-1.37.5-2.73,0-4.09.39-3.22-1.06-5.78-2.93-8.19-.14-.64-.28-1.29-.42-1.93-.2-.36-.41-.71-.61-1.07-.07-.96-.14-1.92-.2-2.88,0-.76-.1-1.48-.85-1.9l-.02-.03c-.05-.83-.22-1.62-.89-2.2.05-.28,0-.55-.11-.8-.37-4.18-1.94-8.06-3.07-12.04.09-2.24,2.19-3.14,3.19-4.77.28-.08.55-.17.81-.29l.13.12c.82,3.68,3.3,6.27,5.66,8.81,4.86,1.42,9.34,1.2,14.16-.15,5.08-1.42,7.86-5.06,11.12-8.45.58,3.93-.76,7.75-.69,11.65-.11,1.65-.22,3.3-.33,4.95-.14.4-.29.79-.43,1.19-.73,2.57-.38,5.21-.56,7.82-.33.09-.65.18-.98.26-5.47-1.17-4.6,4.75-7.62,6.7-1.69.3-3.63.62-5.48.25-3.02-1.78-5.22-4.56-8.86-6.1,3.43,6.53,8.47,8.92,15.4,7.84,1.94-1.16,2.08-3.49,3.62-4.8.24,1.69-.63,3.56.87,5.03.16,1.13.23,2.28,1.03,3.2.14.63.28,1.26.42,1.89.22.27.45.55.67.82Z" fill="#f57d70" stroke-width="0"></path><path d="m203.23,170.7c-.78,2.37-1.87,4.65-1.96,7.2-1.98,7-6.28,13.64-3.34,21.4.79,1.14,2.16,1.12,3.27,1.64-.39.32-.78.63-1.17.95-1.92.53-3.29-1.16-5.19-1.33-3.76,1.12-7.64,2.27-11.52,3.42-.81-.03-1.55.16-2.11.8l.04-.02c-4.9.5-9.58,1.74-14.45,3.66q2.63,1.69,15.22-1.31c4.68-.81,9.36-1.61,14.05-2.42.4.3.79.6,1.19.9-.76.35-1.53.69-2.29,1.04-8.16,1.62-16.32,3.24-24.7,4.91,1.67,3.22,3.81,4.14,6.49,4.09,1.58.18,3.18.48,4.49-.82l.38-.2.42.08c.49.49.84,1,.24,1.8-2.98.7-6.12.06-9.21.35-3.49-1.61-5.21-5.31-8.49-7.17-3.88-5.56-8.75-10.3-13.01-15.54-.71-.87-1.67-1.76-2.69-2.09-7.51-2.45-14.75-5.73-22.48-7.49l.03.03c-.16-.61-.6-.73-1.15-.65l-19.94-7.38c.66-.27,1.32-.54,1.98-.81,3.46,1.11,6.92,2.22,10.38,3.33.2.52.56.63,1.05.42,1.18.35,2.36.33,3.54-.02,6.53-.79,13.05-1.58,19.71-2.39-.55-2.52-1.41-4.23-3.04-6.03-5,.98-10.32.06-15.5,1.41l-7.04.44c-1.36-.47-3.04.32-4.16-1.06,4.39-.55,8.77-1.1,13.31-1.66-.24-1.87-1.04-2.94-2.54-3.61-10.57.75-21.16,1.49-31.75,2.24-1.94-.6-1.14,1.69-2.17,2.05-8.87-3.01-17.74-6.02-26.87-9.13,1.31-2.02,2.44-1.07,3.37-.78,3,.94,6.11,1.71,8.91,3.09,6.48,3.17,13.17,3.64,20.23,2.88,9.39-1,18.85-1.39,28.25-2.31,4.28-.42,8.35-1.93,12.27-3.73,5.43-.73,10.42-2.91,15.48-4.42,1.41-2.18,3.28-3.8,4.27-6.86h-12.81c-3.22-1.17-6.66-.19-9.92-1.01,1.63-1.27,3.61-.52,5.39-.93,6.24-.15,12.47.15,19.04.64,3.76-4.65,6.78-10.69,14.26-10.27,10.09-2,20.17-4.01,30.26-6.01.71.29,1.42.57,2.13.86-10.53,3.35-21.47,4.86-32.21,7.24-2.11.37-4.21.75-6.35,1.13-4.06,4.29-7.22,9.17-10.64,13.82-1.78,2.42-3.95,3.83-6.78,4.63-5.4,1.54-10.75,3.27-16.11,4.92-1.75.28-3.52.52-5.29,1.88,1.1,1.12,1.01,3.15,3.23,3.2,3.77.71,7.54-1.15,11.13-.23,1.97,2.16,2.03,5.24,4.52,6.82,3.59-.34,7.19-.68,10.76-1.02,1.63,1.43,3.12,2.74,5.17,4.54h21.8c2.54,2.97.55,6.21,2.38,8.88,3.21.71,6.56,1.53,10.44.96,1.44-4.9,2.89-9.81,4.34-14.73,1.79-5.39,3.58-10.78,5.36-16.17.35.02.69.03,1.04.05-.98,3.97-1.97,7.93-2.95,11.9Zm-21.63,11.33c-10.4,2.53-20.78,5.05-31.68,7.7,2.34,2.37,3.76,4.62,6.21,6.3,8.74-2.02,17.39-4.64,25.94-7.24.26-2.44.39-4.39-.46-6.76Zm12.03,11.46c-10.84,2.6-21.6,5.18-32.56,7.81.56,2.68,2.51,3.69,4.2,5.1,10.27-2.59,20.47-5.16,30.72-7.74-.59-2.1-.76-3.62-2.37-5.17Zm-67.48-12.04c10.79,5.87,20.62,0,30.75-2.4-10.43-1.9-20.5,1.59-30.75,2.4Zm13.26,4.47c.5.57.66.9.93,1.04,3.24,1.74,6.51,1.96,10.07.77,3.61-1.2,7.41-1.83,11.08-2.85,3.45-.96,7.14-1.1,11.03-2.92-11.91-2.11-22.26,1.84-33.11,3.96Zm51.05,6.64c-5.83-2.41-27.04,1.96-32.68,6.06.41.32.86.94,1.17.88,10.51-2.27,21.01-4.61,31.52-6.94Z" fill="#181f27" stroke-width="0"></path><path d="m278.28,82.81c3.09,4.34,8.15,3.88,12.5,4.87,7.56,1.72,15.24,2.95,22.86,4.43.6.12,1.12.61,1.69.95-.69.94-1.61.66-2.37.9-12.73,3.81-24.39-2.43-36.24-3.47-1.07-1.4.17-2.78-1.37-3.94-3.71-.7-7.73-2.2-12.49-2.07,2.16,9.29,4.22,18.18,6.33,27.07.18.78.68,1.49,1.05,2.27,4.39.9,8.7-.12,13,.03.03.41.06.82.09,1.24-.57.66-1.33.69-2.12.61-2.82-1.3-5.58-1.3-9.04.25,1.25.54,1.82.79,2.39,1.03-.94.81-2.08.86-3.23.88-.36-.01-.73-.03-1.09-.04-.48-.76-1.24-.96-2.06-1.02.01-.29,0-.59-.05-.88.59-.16,1.35-.11,1.29-1.27-.4-.31-.9-.71-1.4-1.11-2.52-10.08-5.04-20.16-7.52-30.07-32.3-6.62-64.04-13.12-95.87-19.64-3.58,3.16-5.44,7.63-9.17,11.08-11.91.97-24.17,1.98-37.54,3.07,6.9,4.46,11.8,9.77,19.12,10.86-.59.95-1.18,1.89-1.77,2.84-3.51-.95-5.78-3.81-8.71-5.65-5.74-3.6-11.39-7.35-17.08-11.03-6.72-4.59-13.43-9.18-20.38-13.93-.37-7.7-.94-15.31-1.03-22.93-.04-3.69-1.06-6.75-3.15-9.69-2.56-3.6-4.87-7.37-7.32-11.11.65-.29,1.15-.58,1.19-.52,5.28,7.08,11.6,13.55,11.29,23.47-.21,6.62.46,13.26.74,19.87,8.22,5.6,16.17,11.02,23.78,16.21,13.48-1.09,26.54-2.15,39.73-3.21,2.01-1.15,2.99-3.33,4.05-4.62v-26.51c.61-.04,1.22-.07,1.83-.11v22.29c2.44.16,2.42-2.38,4.49-2.28,31.32,6.42,63,12.91,95.33,19.54-3.98-16.64-8.15-32.93-13.2-48.98-.72-2.72-1.26-5.5-2.19-8.15-2.85-8.13-5.84-16.21-8.78-24.31,2.57.36,2.72,2.73,3.44,4.43,6.05,14.27,10.05,29.21,14.09,44.12,3,11.05,5.89,22.13,8.91,33.5,4.95.9,9.83,1.78,14.7,2.66.64-.23.99-.68,1.06-1.35-.12-.25-.05-.43.2-.55Z" fill="#231f1f" stroke-width="0"></path><path d="m235.88,0c2.94,8.1,5.93,16.18,8.78,24.31.93,2.65,1.47,5.43,2.19,8.15-.58.98-.83,2.19-2.4,3.13-11.12-2.48-23.36-1.43-34.4-7.35,1.51-3.77,4.85-6.04,7.41-8.94,4.81-5.47,9.65-10.92,14.44-16.41,1.12-1.28,2.48-2.16,3.98-2.89Z" fill="#f48f7f" stroke-width="0"></path><path d="m376.73,397.55c-1.3-6.17-2.17-12.46-3.99-18.47-2.2-7.24-2.17-14.3-.16-21.71,1.58-1.84,3.45-3.71,5.54-5.24q4.38-.15,9.81,3.82c1.09,5.91,2.28,11.76,3.21,17.66.76,4.88,1.45,9.67,7.25,11.8-2.49,3.83-5.99,6.17-7.24,10.24.43,2.08.51,4.44,2.15,6.3.02.27.02.55,0,.82l-2.94.93c-2.58-1.27-5.87.65-8.18-1.82l-.07-.08c-.26-.25-.52-.5-.77-.75-.26-.19-.55-.3-.86-.33-.41-.3-.82-.6-1.22-.91l-.05-.03c-.53-1.08-1.37-1.8-2.47-2.25Zm9.18-39.13c-4.35-.3-8.49-.14-11.78,3.27-.41,2.28-.53,4.41.09,6.54,1.36,1.73,2.78,3.33,4.91,4.27,2.13.22,4.23,0,6.21-1.36,1.81-3.99,2.67-8.08.56-12.72Zm-8.81,23.15c4.46,3.18,7.61,2.4,11.65-2.57-4.04,1.03-7.06,3.52-11.65,2.57Z" fill="#f47e70" stroke-width="0"></path><path d="m376.17,286.55c.39.43.79.85,1.18,1.28.29.34.58.68.88,1.01l-.03-.03,1.05.99h0c.34.33.67.66,1.01.98h0c.33.35.66.69.98,1.03h-.01c.1.62.19,1.25.29,1.88-.07.71-.14,1.43-.21,2.14-8.27-2.25-17.09-1.48-23.34,3.3-8.33,6.38-17.86,13.27-17.26,26.13.02.46-.29.94-.44,1.42-1.39-.18-1.91-1.05-1.99-2.38-.63-9.63-2.77-19.37,2.2-28.56,1.29-1.47,2.58-2.94,4.08-4.64,7.57-1.98,15.37-4.02,23.16-6.08,2.32-.61,4.95,1.26,7.05-.93l.19-.18c.19.66.39,1.31.58,1.97.22.22.43.45.65.67Z" fill="#f47e70" stroke-width="0"></path><path d="m452.28,366.62c-.46-.61-1.09-.87-1.83-.9-.58-.64-1.31-.82-2.14-.73-.99-.47-1.97-1.01-3-.11l.04-.47c-2.15-4.57-6.08-8-8.08-12.67l-.06.07c2.02.41,2.21-.89,2.03-2.32-.46-3.59,1.03-6.33,3.47-8.77,2.53-.29,4.97-.58,7.42-.85,1.22-.13,2.36-.31,2.02-2l.27-.27c.26.08.52.13.79.14l.07.06c.32.34.64.67.96,1.01l-.03-.03c.35.34.69.68,1.04,1.02l-.02-.02c.34.34.68.69,1.02,1.03.08.8.32,1.54.96,2.08-.07,1.7.45,3.08,2.09,3.84v.03c.33.34.64.68.95,1.03h-.01c.33.33.67.68,1,1.03l-.03-.03c.35.33.7.65,1.04.98,0,0,0,0,0,0,.34.31.67.62,1.01.93,0,0,.06.05.06.05.29.28.58.56.88.85,1.5.93,2.08,2.42,2.46,4.04.13,1.41.27,2.81.41,4.32-.49.89-1.02,1.86-1.56,2.82-.41.71-.83,1.42-1.24,2.13-.32.29-.64.58-.96.87,0,0-.04.04-.04.04-.4.3-.79.61-1.19.91-2.27.04-4.55.09-6.82.13-.99-.09-1.97-.18-2.96-.26Z" fill="#f47d70" stroke-width="0"></path><path d="m149.59,283.98c-10.3,1.88-20.74,2.55-31.11,3.79-17,2.03-34.03,3.76-51.05,5.61-1.8.2-3.62.33-5.31.48-1.05,1.54.14,2.67.31,3.9-.14,1.18,0,2.29.74,3.27.09.6.18,1.2.27,1.8-.09,1.13-.11,2.24.75,3.14l.22,1.85c-.14,1.24.07,2.41.74,3.48-.31.9-.02,1.72.32,2.53-.06.84.07,1.63.67,2.28.08.57.16,1.14.23,1.71-.01,1.14.04,2.27.79,3.23.09.59.19,1.19.28,1.78-.2,1.19-.06,2.3.71,3.28.08.57.15,1.14.23,1.71-.07,1.18.06,2.31.77,3.3-.18.26-.15.48.1.68-.07,1.57-.04,3.12.89,4.49.09.51.17,1.03.26,1.54-.11,1.66.57,3.33-.14,4.97h0c-.33,0-.65-.03-.97-.07l.05.05c-.32-.78-.64-1.55-.96-2.33-.08-.56-.16-1.11-.24-1.67.06-1.23.02-2.43-.76-3.48-.11-.84-.22-1.69-.33-2.53.06-.91,0-1.79-.67-2.5l-.31-2.49c.07-1.12-.04-2.2-.75-3.14-.09-.62-.18-1.24-.27-1.87.05-1.15-.06-2.26-.69-3.26-.1-.58-.2-1.16-.3-1.74.06-.91,0-1.8-.68-2.51-.12-1.17-.25-2.33-.37-3.5l-.66-2.21c-.09-.59-.17-1.18-.26-1.77.07-1.17.01-2.32-.72-3.32-.09-.56-.19-1.12-.28-1.69,0-1.2.06-2.42-.71-3.46-.14-1.17-.29-2.34-.43-3.51.07-.54-.09-.91-.69-.98-6.79-.86-13.37,1.07-20.06,1.59-8.59.67-17.15,1.82-25.72,2.75-.66.07-1.32.13-2.1-1.62,16-1.83,31.71-3.62,47.8-5.46-3.09-15.71-6.08-30.95-9.07-46.18.93-.5,1.03-1.88,2.24-2.07-.28,6.22,1.85,12.06,2.92,18.06,1.77,9.93,3.82,19.8,5.84,30.19,19.61-2.19,38.9-4.35,58.19-6.5,7.14-.8,14.34-1.11,21.39-2.62,2.2-.02,4.41-.04,6.61-.05.77.36,1.55.72,2.32,1.09Z" fill="#2f2825" stroke-width="0"></path><path d="m443.07,98.71c-.72.88-1.61,1.66-2.13,2.64-4.02,7.6-10.24,6.88-16.35,2.27-3.81-6.48-3.46-11.77,1.02-15.72,3.53-3.11,7.63-3.54,12.01-1.27,4.8,2.49,6.35,5.9,5.46,12.08Z" fill="#2f3032" stroke-width="0"></path><path d="m320.25,95.62c.91-.92,2.14-.76,3.27-.97,6.34,1.27,12.7,2.44,19,3.85,2.67.6,5.25.68,7.87-.01,9.89-2.63,20.4-3.19,28.94-8.86,7.74,2.5,14.54-.75,21.53-1.43.65-.06,1.28-.39,1.94-.44,7.77-.61,14.47-3.25,18.86-10.32,4.85.3,9.47.16,14.03,1.14-1.77.51-3.81-.3-5.41,1.07h-7.52c.29-.14-.13-.08-.29.16-6.04,8.91-15.85,9.48-25.05,10.97-5.79.94-11.6,3.25-17.55,1.11-14.02,6.89-29.45,8.11-44.19,11.85-12.05,3.06-24.3,5.32-36.46,7.93-.71-.32-1.42-.64-2.13-.97,14.45-3.39,28.89-6.79,44.41-10.43-7.79-1.71-14.52-3.18-21.24-4.66Z" fill="#2c2625" stroke-width="0"></path><path d="m171.01,138.04c-7.48-.43-10.5,5.61-14.26,10.27-6.57-.49-12.8-.78-19.04-.64-.16-.18-.25-.39-.28-.63,2.1-.57,4.32.33,6.72-.68,2.47-3.94,5.86-7.6,8.01-12.12,2.38-2.72,3.62-6.44,7.18-8.11.75,1.05,1.36,2.26,2.28,3.13,3.11,2.94,4.99,7.22,9.38,8.78Z" fill="#7097cd" stroke-width="0"></path><path d="m239.96,329.89c-.32-1.74-.63-3.47-.95-5.21.08-1.4.27-2.82-.72-4.03-.11-.95-.21-1.91-.32-2.86.33-1.43-.04-2.74-.66-4.01,0-.96-.02-1.93-.03-2.89.33-.5.66-.99,1-1.49,5.37,1.81,10.73,3.61,15.85,5.34-1.36,6.51-4.9,10.76-10.34,13.53-1.31.67-2.49,1.6-3.72,2.42l-.1-.12c.05-.23.04-.46,0-.69Z" fill="#f37d6f" stroke-width="0"></path><path d="m240.06,330.7c1.24-.81,2.41-1.75,3.72-2.42,5.44-2.77,8.98-7.02,10.34-13.53-5.12-1.72-10.48-3.53-15.85-5.34-.33-.22-.67-.45-1-.67l.03.03c-.08-.46-.16-.92-.24-1.38,8.82,2.64,17.65,5.27,26.47,7.91,1.27.38,2.57.7,3.79,1.21,6.48,2.72,13.11,2.66,20.34.42-2.4,5.49-2.06,10.57-2.64,15.52l.1.2c-.61.14-.81.53-.71,1.12-.08,1.17-.16,2.34-.24,3.51-.88,1.73-.86,3.57-.71,5.43-.12.62-.23,1.23-.35,1.85-1.61,2.27.09,5.58-2.64,7.6.1-10.75,3.11-21.21,3.57-32.45-10.17,3.27-18.34-2.9-27.35-4.11-2.71,8.03-8.83,12.9-15.68,17.1-.25-.07-.49-.05-.72.06.05-.21-.03-.34-.23-.41,0-.55,0-1.09,0-1.64Z" fill="#3c211b" stroke-width="0"></path><path d="m463.35,69.99c-.71,3.06-1.43,6.12-2.22,9.52,8.39,3.23,17.46-1.18,25.93,2.17,10.45-3.66,21.01-7.36,31.57-11.07.16.45.32.89.48,1.34-9.16,3.99-18.55,7.89-28.2,10.03-9.67,2.14-19.89.25-30.15.21-2.28,4.02-2.02,9.14-4.5,13.19-.36-.08-.71-.16-1.07-.24,1.01-4.29,2.03-8.58,3.11-13.16-4.83-.45-9.44-.87-14.04-1.3,1.66-1.41,3.7-.69,5.56-.97h9.08c1.14-4.03,2.26-7.97,3.37-11.9.84.49.82,1.4,1.07,2.18Z" fill="#272222" stroke-width="0"></path><path d="m356.6,194.96c2.41-1.13,4.62-2.92,7.57-2.12.38.26.76.51,1.14.77l.17.15.8.76s.24.24.24.24c.25.27.51.54.76.81,0,0,.16.19.16.19.25.42.5.83.75,1.25,0,1.2,0,2.4-.01,3.6l-1.05,2.16s.08-.08.08-.08c-.35.36-.71.72-1.06,1.07,0,0,.06-.06.06-.06-.34.36-.69.72-1.03,1.07,0,0,.04-.04.04-.04-.35.35-.7.69-1.05,1.04,0,0,0-.03,0-.03-.98.67-1.95,1.34-2.93,2.01-.99.01-1.98.03-2.97.04-.67-.35-1.34-.69-2.01-1.04l.03.02c-.44-.91-1.12-1.57-2.02-2.01l.02.03c-.31-.77-.63-1.54-.94-2.31,0-.57.02-1.15.02-1.72.33-.97.66-1.95.98-2.92l.89-1.3c.37-.06.57-.27.62-.64.24-.31.49-.63.73-.94Z" fill="#ef5449" stroke-width="0"></path><path d="m340.25,326.68c.16-.47.47-.95.44-1.42-.6-12.86,8.93-19.75,17.26-26.13,6.24-4.78,15.07-5.54,23.34-3.3l.19.09c.21.37.41.74.62,1.11-.06.33.04.6.32.79.23.42.46.84.7,1.27-.07.31.03.56.3.73-.08.56-.16,1.11-.24,1.67-2.23-.35-2.25-2.7-3.79-4.17-12.68-1.55-23.24,2.14-30.51,13.82,1.44,4.65,4.27,9.19,4.73,14.57-3.22-3.73-4.11-8.66-6.65-13.42-4.67,4.55-3.15,10.44-4.58,15.38-1.04.37-1.7-.05-2.12-1Z" fill="#381f19" stroke-width="0"></path><path d="m137.43,147.04c.03.24.12.45.28.63-1.78.41-3.76-.34-5.39.93-17.91-.87-35.81-1.69-53.71-2.66-5.02-.27-10.16.34-15.07-1.16.03-.49.05-.97.08-1.46,24.61,1.24,49.22,2.48,73.82,3.72Z" fill="#352f2f" stroke-width="0"></path><path d="m142.24,149.61h12.81c-.99,3.06-2.86,4.69-4.27,6.86-5.06,1.5-10.06,3.68-15.48,4.42,1.16-4.47,4.52-7.59,6.94-11.28Z" fill="#7197cf" stroke-width="0"></path><path d="m270.25,117.8c.36.01.73.03,1.09.04.44,6.25,2.06,12.26,3.73,18.26,1.82,9.7,3.64,19.4,5.46,29.1.23.52.47,1.05.7,1.57-.39.45-.79.89-1.18,1.34-.55-.77-1.1-1.53-1.66-2.3-1.25-9.1-3.06-18.1-5.28-27.01.08-.82.03-1.6-.64-2.2h.02c-.49-6.03-2.53-11.76-3.39-17.72.38-.36.77-.73,1.15-1.09Z" fill="#382f2c" stroke-width="0"></path><path d="m212.3,469.63c.02-.29-.04-.58-.17-.84.39-.44.78-.89,1.17-1.33.36-.21.71-.42,1.07-.62.34.09.64.02.9-.21.84.04,1.63-.04,2.22-.74.31.11.56.03.77-.22.88.03,1.69-.11,2.35-.76.55-.11,1.11-.23,1.66-.34.83.04,1.6-.11,2.24-.69.59-.1,1.17-.21,1.76-.31.82.13,1.49-.16,2.05-.75.32-.09.64-.18.96-.27.79.01,1.53-.13,2.14-.69.32.13.6.07.84-.18.89.03,1.72-.12,2.4-.76.54-.12,1.08-.24,1.62-.36.8.03,1.56-.1,2.17-.68.33.12.6.04.82-.24.83.02,1.62-.07,2.22-.75.29.13.55.07.76-.17.89.08,1.69-.1,2.29-.82l1.73-.38c.4-.07.79-.13,1.19-.2.98.46.96,1.26.75,2.13-.67.2-1.34.41-2.01.62-.51.21-1.03.41-1.54.62-.48.09-.96.18-1.44.27-.85-.05-1.64.06-2.25.74-.59.12-1.17.24-1.76.36-.53.21-1.05.42-1.58.63-.47.08-.93.16-1.4.25-.78.25-1.56.5-2.34.75,0,0-.36-.04-.36-.04l-.29.21c-.93.02-1.85.11-2.56.82-.49.1-.98.2-1.47.31-.82-.04-1.58.11-2.18.75-.61.11-1.22.23-1.83.34-.48.2-.96.41-1.45.61-.51.09-1.03.19-1.54.28-.88-.09-1.68.05-2.31.73-.57.13-1.13.25-1.7.38-.45.21-.9.41-1.34.62-.55.11-1.1.22-1.65.32-.6-.04-1.1.14-1.44.66-.49,0-.98-.02-1.48-.03Z" fill="#2f2929" stroke-width="0"></path><path d="m374.75,284.09c-2.1,2.19-4.73.32-7.05.93-7.79,2.06-15.59,4.09-23.16,6.08-1.49,1.7-2.78,3.17-4.08,4.64l-.28-.23c-.17-.37-.34-.73-.52-1.1.17-.52.35-1.05.52-1.57,2.19-2.87,5.13-4.32,8.64-5.1,6.89-1.53,13.73-3.36,20.58-5.06l.41.08.4-.1c1.11.48,2.23.75,3.4.22l1.12,1.21Z" fill="#3e251f" stroke-width="0"></path><path d="m107.33,175.75c-.66.27-1.32.54-1.98.81-4.27-1.31-8.54-2.62-12.81-3.93-1.14-.59-2.27-1.18-3.41-1.77,1.03-.36.24-2.65,2.17-2.05,3.18,2.84,6.93,4.02,11.14,3.77,3.28-.2,6.51-1.08,9.84-.74,1.13,1.38,2.81.59,4.16,1.06-2.44,1.31-5.11.83-7.7,1-1.1.07-2.68-.09-1.4,1.84Z" fill="#443c3a" stroke-width="0"></path><path d="m160.22,41.89c-.61.04-1.22.07-1.83.11-1.35-.98-2.75-1.92-3.05-3.75-.33-1.95.77-3.18,2.23-4.11,1.37-.87,2.85-.88,4.21.11,1.56,1.13,1.79,2.79,1.42,4.48-.34,1.55-1.58,2.48-2.98,3.16Z" fill="#ed674e" stroke-width="0"></path><path d="m267.27,446.77c-1.54,1.31-1.68,3.64-3.62,4.8-6.94,1.09-11.97-1.31-15.4-7.84,3.64,1.55,5.84,4.32,8.86,6.1,1.85.37,3.79.05,5.48-.25,3.03-1.95,2.16-7.87,7.62-6.7-.09.59-.18,1.18-.28,1.77l.13-.16c-.33-.02-.6.09-.81.35l-.47-.07-.42.22c-.94.26-1.08,1.01-1.12,1.82l.03-.06Z" fill="#3b1e19" stroke-width="0"></path><path d="m463.35,69.99c-.25-.78-.23-1.69-1.07-2.18,1.67-6.62,3.34-13.24,5.02-19.86.84-.07,1.56.14,2.03.91-1.99,7.04-3.98,14.09-5.97,21.13Z" fill="#433c3c" stroke-width="0"></path><path d="m124.75,133.62l1.18-14.01c.79-.44,1.56-.66,2.3.09-.69,4.49-1.13,9-.95,13.55-.44,2.88-.89,5.75-1.43,9.28-2.83-3.13-.4-6.22-1.11-8.92Z" fill="#452f2e" stroke-width="0"></path><path d="m297.08,110.71c.71.32,1.42.64,2.13.97-5.25,1.33-10.49,2.68-15.88,3.39-.03-.41-.06-.82-.09-1.24,4.49-1.6,9.18-2.27,13.83-3.12Z" fill="#1a1413" stroke-width="0"></path><path d="m464.86,100.58c-2.89.43-5.53,2.34-9.13,1.72,1.79-2.62,4.7-2.02,6.53-3.45.78-.08,1.56-.15,2.11-.21,1.02.68.52,1.34.49,1.94Z" fill="#48514d" stroke-width="0"></path><path d="m274.57,116.96c-.57-.25-1.14-.49-2.39-1.03,3.46-1.54,6.22-1.55,9.04-.25-2.22.43-4.43.85-6.65,1.28Z" fill="#1a1413" stroke-width="0"></path><path d="m449.83,79.71c-1.86.28-3.89-.44-5.56.97-2.49,0-5,.2-7.4-.7,1.77-.43,3.77.33,5.35-1.05,2.55.09,5.17-.42,7.61.78Z" fill="#2c2625" stroke-width="0"></path><path d="m383.23,108.15c-1.7,2.11-4.05,3.19-6.44,4.33.65-2.78,1.14-3.14,6.44-4.33Z" fill="#37393b" stroke-width="0"></path><path d="m442.22,78.93c-1.58,1.38-3.59.61-5.35,1.05-2.2-.11-4.4-.22-6.6-.34,1.6-1.37,3.64-.56,5.41-1.07,2.18.12,4.36.24,6.54.36Z" fill="#272222" stroke-width="0"></path><path d="m240.06,330.7c0,.55,0,1.09,0,1.64-.79-.27-.62-.96-.66-1.55.2-.05.39-.11.57-.2l.1.12Z" fill="#f57d70" stroke-width="0"></path><path d="m267.24,446.83c.04-.81.18-1.56,1.12-1.82-.08.79-.41,1.42-1.12,1.82Z" fill="#f57d70" stroke-width="0"></path><path d="m334.99,203.66l-.32-.29.03-.03c.19,0,.29.1.29.32Z" fill="#f57d6f" stroke-width="0"></path><path d="m278.08,83.36c-.07.67-.42,1.13-1.06,1.35.35-.45.71-.9,1.06-1.35Z" fill="#303133" stroke-width="0"></path><path d="m281.22,166.77c-.23-.52-.47-1.05-.7-1.57,6.4-2.81,8.92-8.01,8.61-15,4.79-.3,8.08-3.26,12.11-5.04,3.89.86,7.14,3,9.93,6.02,1.61.32,3.21.63,4.64.91,3.36,4.35,4.84,9.13,5.15,14.33.09,1.78-2.47,2.92-1.23,4.99-2.07,2.99-1.77,7.58-6.34,9.13,1.15-7.63,3.25-15.26-.68-21.98-2.31-1.33-3.46.52-5.52.12-4.26-1.65-8.61-6.69-14.77-1.85-.85,4.19-1.76,8.7-2.56,12.68-1.14,2.05-2.73.86-4.25,1.59-.51.89-1.2,2.08-1.96,3.41-2.03-2.47-.82-5.54-2.43-7.75Z" fill="#f37e70" stroke-width="0"></path><path d="m353.25,179.8c9.81-1.76,19.66-3.31,29.4-5.49,2.67-.6,5.07-1.45,7.25-3.08,6.85-5.12,14.37-8.85,22.57-11.38,11.46-3.54,22.19-8.95,33.32-13.37,6.51-2.59,13.34-4.14,20.14-5.7,3.27-.75,6.6.31,9.72.9.48-.13.89-.12,1.1-.32,6.42-6.11,14.32-8.54,22.91-9.76,6.83-.98,13.5-3.05,20.51-3.95-.17,2.24-1.58,2.07-2.62,2.29-7.82,1.64-15.61,3.39-23.47,4.79-4.85.87-9.35,2.07-12.88,5.83-1.22,1.3-2.97,2.11-4.64,3.25-10.78-3.15-20.66,1.09-30.37,4.67-14.17,5.24-27.86,11.77-42.28,16.41-2.59.83-4.78,2.36-6.91,3.95-6.08,4.55-12.61,7.75-20.31,8.82-6.74.93-13.38,2.64-20.19,3.28-1.09-.35-2.48.14-3.25-1.14Z" fill="#302924" stroke-width="0"></path><path d="m330.37,200.73c-8.13-2.28-15.57-6.55-24.51-7.79,1.85-3.43,3.39-6.28,4.95-9.17,6.52,3.93,13.99,4.72,20.45,8.11.1,2.99.47,6.01-.89,8.85Z" fill="#f37e6f" stroke-width="0"></path><path d="m409.3,121.34c5.16,4.51,7.82,10.48,12.81,14.17-1.63,3.41-3.74,1.41-5.84,1.48-3.4,1.81-7.6,1.96-12.43,4-.54-7.67,3.4-13.34,5.46-19.65Z" fill="#fded98" stroke-width="0"></path><path d="m330.3,188.79c-5.59-.85-10.59-3.44-16.47-5.23,3.35-3.22,6.27-6.12,7.05-10.36,6.24,3.32,8.37,9.13,9.42,15.59Z" fill="#f37e70" stroke-width="0"></path><path d="m341.39,136.82c1.54-2.66,2.95-4.83,6.02-3.86,1.9.6,2.91,2.18,2.77,4.22-.12,1.85-1.25,3.07-3.01,3.49-3.14.74-4.34-1.54-5.78-3.85Z" fill="#81aedd" stroke-width="0"></path><path d="m435.83,114.5c-1.15,2.14.42,2.96,1.3,4.24-4.56,1.87-8.6,4.22-13.74,5.13,1.44-2.76,3.95-2.56,5.9-3.92.88-2.48,2.86-4.24,6.53-5.45Z" fill="#333b37" stroke-width="0"></path><path d="m353.25,179.8c.77,1.27,2.16.78,3.25,1.14-5.3,1.37-10.7,1.95-16.21,1.98,4.06-2.28,8.52-2.67,12.96-3.12Z" fill="#504a44" stroke-width="0"></path><path d="m397.76,138.18c-2.09,2.23-3.56,3.05-6.02,3.23,1.19-2.62,2.71-3.43,6.02-3.23Z" fill="#5a5d54" stroke-width="0"></path><path d="m486.23,122c-.22.51-.61.73-1.08.43-.21-.13-.39-.58-.32-.81.15-.49.61-.73,1.08-.46.2.12.22.55.33.84Z" fill="#9a8b83" stroke-width="0"></path><path d="m488.23,120.3c.29-.43.59-.44.88,0-.29.44-.59.43-.88,0Z" fill="#413c30" stroke-width="0"></path><path d="m52.32,243.83c-1.21.19-1.31,1.57-2.24,2.07-2.99-2.04-6.26-3.36-9.79-4.19-4.21-.99-8.08-2.88-11.92-5.08-.98-7.32-1.94-14.53-2.95-22.08,5.61-5.22,12.11-9.47,18.34-14.4,7.23,2.69,14.27,5.47,21.44,9,1.02,7.41,2.06,14.91,3.09,22.4-5.12,4.72-10.62,8.41-15.97,12.29Z" fill="#040000" stroke-width="0"></path><path d="m149.59,283.98c-.77-.36-1.55-.72-2.32-1.09,1.94-.39,3.89-.79,5.96-1.2,1.06-5.44-.23-10.95.64-16.5,4.18-1.63,8.8-1.68,13.31-3.88v-12.81c3.12-1.4,5.94-2.66,8.92-4,.47-2.89.94-5.81,1.44-8.93,8.11-1.25,16.18-1.96,24.21-3.72v-8.15c8.08-.44,15.98-.79,23.88-1.32,4.2-.28,8.93.36,10.88-4.95l.4-.19v-.46c.2-.23.3-.49.3-.78,3.34-3.88,5.63-8.46,8.39-12.71,2.01-3.09,4.2-5.87,7.58-7.51.34.31.69.63,1.03.94-6.29,4.2-8.98,11.15-13.04,17.05-2.04,2.96-3.65,6.22-6.13,8.88-5.85,2.23-11.68,4.53-17.58,6.64-2.58.92-3.9,2.94-5.28,5.01-9.61,14.5-19.24,29-28.84,43.51-.64.97-1.16,2.01-3,3.07-9.72.98-20.25,2.05-30.79,3.11Zm39.7-19.03c.73-.38,1.5-.73.88-2.23-8.16.39-16.49-.15-24.76,1.16-2.68,2.17-6.28,1.33-9.18,2.8-1.54,4.86-.5,9.74-.7,15.05,8.77-.99,16.99-1.91,25.17-2.84,2.64-4.24,5.08-8.16,7.52-12.07.35-.62.71-1.24,1.06-1.86Zm10.01-15.02h-30c.25,4.08-.78,7.81.17,11.13h23.1c1.98-4.14,5.14-6.98,6.73-11.13Zm7.44-10.31c-9.82-.8-18.64-1.52-27.5-2.24-.69,2.6-1.23,4.61-.58,6.9h24.2c.59-1.44,2.05-2.47,3.88-4.65Zm-2.77-7.59c2.06,1.1,3.75,2.06,5.87,2.46,2.28-1.99,2.77-5.49,5.92-6.87-4.19-.75-8.1-1.96-12.37-1.59.21,2.12.38,3.91.58,6Zm-2.71,15.43c-7.95-2.54-23.77-1.86-25.79,0h25.79Zm-11.04-11.32c5.99.4,11.95,1.91,17.98.9-5.86-5.52-11.95-1.86-17.98-.9Zm25.75-11.36c2.72,1.33,5.32,2.12,8.57-.78-3.61.33-6.09.56-8.57.78Z" fill="#211a17" stroke-width="0"></path><path d="m253.19,195.77c-3.38,1.64-5.57,4.42-7.58,7.51-2.76,4.26-5.05,8.84-8.39,12.71-1.93-4.32-.87-8.85-.67-13.25.35-7.79,1.38-15.55,1.74-23.34.18-3.78,1.53-6.31,5-7.71,5.97,3.88,11.1,8.8,16.97,13.32-2.2,3.86-4.15,7.61-7.06,10.76Z" fill="#f57d70" stroke-width="0"></path><path d="m278.38,165.81c.55.77,1.1,1.53,1.66,2.3.75,4.19,1.5,8.37,2.31,12.86-6.89.98-13.75,1.76-21.18,2.12-5.42-3.94-11.04-8.21-15.98-13.31,3.65-3.24,8.28-2.84,12.56-2.88,6.91-.06,13.76-.84,20.64-1.09Z" fill="#f47d6f" stroke-width="0"></path><path d="m126.41,184.56c7.74,1.76,14.98,5.04,22.48,7.49,1.02.33,1.99,1.22,2.69,2.09,4.27,5.24,9.13,9.98,13.01,15.54-8.37-2.15-16.62-4.44-23.03-10.89-3.62-3.64-7.72-6.8-11.6-10.18-1.37-1.19-2.94-2.2-3.56-4.05Z" fill="#7097cf" stroke-width="0"></path><path d="m203.23,170.7c.98-3.97,1.97-7.93,2.95-11.9.62-1.34,1.23-2.68,1.85-4.02,4.18,1.97,9.02,1.63,13.46,3.9.69,4.76-.94,9.21-2.52,13.71-5.62,1.85-10.49-1.77-15.74-1.7Z" fill="#7c93b3" stroke-width="0"></path><path d="m173.08,216.86c3.1-.28,6.24.35,9.21-.35.6-.8.24-1.32-.24-1.8,8.44-2.85,17.45-3.44,26.18-6.11-1.38-2.18-1.42-5.43-4.99-3.61-1.17-.14-2.27.09-3.3.66-.67.09-1.34.19-2,.28-.22-.13-.44-.23-.68-.31-.4-.3-.79-.6-1.19-.9,1.33-1.19,3.34-.5,4.87-1.58-.38-.52-.64-.87-.9-1.23.39-.32.78-.63,1.17-.95,1.94.36,3.88.72,6.05,1.12.92,2,1.87,4.06,2.76,5.98,2.79,1.72,5.98,1.29,8.72,2.48,1.25,2.19-.01,4.61.75,6.86,1.01,1.27,2.96-.12,3.96,1.28.06.5.04,1.05-.54,1.16-2.8.55-5.61.07-8.41-.07-13.07-.63-26.13-1.33-39.19-2-.85-.04-1.64-.2-2.2-.91Zm13.13-1.06c9.45,2.51,17.77-.92,26.03-4.62-8.91.19-17.35,2.89-26.03,4.62Zm30.73-3.18c-4.43,1.38-8.55,2.66-12.68,3.94.04.28.09.55.13.83h12.51c.62-1.37.63-2.77.04-4.77Z" fill="#181f27" stroke-width="0"></path><path d="m77.5,275.17c2.3-3.32,4.02-6.94,7.41-9.09,5.25.35,9.28,3.72,8.01,7.27-1.34,3.74-4.02,7.16-7.61,9.07-3.25,1.73-6.24-1.15-7.81-7.25Z" fill="#f9bc94" stroke-width="0"></path><path d="m197.93,199.31c-2.94-7.77,1.35-14.41,3.34-21.4,3.08,2.82,5.09,6.45,7.88,9.91-3.68,2.62-7.16,5.09-10.31,7.33-1.21,1.48-.35,2.94-.91,4.17Z" fill="#7b9dcf" stroke-width="0"></path><path d="m140.66,282.95c-7.05,1.51-14.25,1.82-21.39,2.62.33-.37.67-.73,1.29-1.41-1.72-.75-3.81.03-5.3-1.76-.6-1.22,2.12-.99,1.64-1.91-.05-2.36-2.08-3.05-2.58-5.36-.26-1.63.63-3.17,2.77-3.98q3.29,2.3,2.73,8.64c2.12.94,4.34,1.93,6.02,2.68,2.27.35,3.17-1.38,5.13-1.51,2.8,1.39,6.55.1,9.69,1.97Z" fill="#f5e2d4" stroke-width="0"></path><path d="m208.03,154.78c-.62,1.34-1.23,2.68-1.85,4.02-.35-.02-.69-.03-1.04-.05.09-.66.19-1.31.28-1.97.8-.82.68-1.83.61-2.83.14-.63.27-1.26.41-1.9.7-.84,1.4-1.66,2.67-1.04-.36,1.26-.72,2.51-1.08,3.77Z" fill="#453b38" stroke-width="0"></path><path d="m236.93,216.79v.46s-.41.19-.41.19c-.1-.36.04-.57.41-.65Z" fill="#f57d70" stroke-width="0"></path><polygon points="243.93 169.34 243.61 169.31 243.78 169.03 243.93 169.34" fill="#f47d6f" stroke-width="0"></polygon><polygon points="242.74 170.15 242.79 170.5 242.47 170.34 242.74 170.15" fill="#f47d6f" stroke-width="0"></polygon><path d="m125.29,183.94c.55-.07.99.05,1.15.65-.57.11-.91-.19-1.15-.65Z" fill="#7097cf" stroke-width="0"></path><path d="m433.49,370.48c-10.58-3.75-21.05-1.78-31.37-2.79,4.07-1.77,8.32-1.1,12.81-2.13-13.43-6.09-26.52-12.55-32.63-27.71,1.89.5,2.55,2,3.46,3.18.92,1.19,2,2.27,2.76,3.54,3.79,6.39,9.28,10.5,16.05,13.53,8.12,3.64,15.56,8.88,24.92,9.31,1.21.05,3.13-.12,4.01,3.07Z" fill="#311b16" stroke-width="0"></path><path d="m445.35,364.42l-1.26.55c-.94-1.16-1.99-2.25-2.81-3.48-3.43-5.14-6.55-10.58-13-11.77-2.92-6.36-3.21-12.29-.38-18.23,1.33,3.49-.11,6.89-.34,10.33.79,2.01,1.58,4.02,2.52,6.4,2.23,1.09,4.71,2.31,7.19,3.53,2,4.67,5.93,8.1,8.08,12.67Z" fill="#392118" stroke-width="0"></path><path d="m396.42,401.64c-.21-1.45-1.02-2.84-.3-4.8,4.6-.65,9.65,1.17,13.79-1.65,1.74,1.8,1.11,3.31,1.15,4.6-4.36,4.93-7.68,5.31-14.67,1.82l.03.03Zm1.44-2.78c2.02,3.4,4.75,3.19,7.47,2.76,2.46-.39,2.45-.46,3.71-4.5-3.62,2.94-7.23,1.31-11.18,1.74Z" fill="#41251f" stroke-width="0"></path><path d="m424.52,386.13c5.36-6.36,9.62-9.28,14.78-9.74-5.77,4.16-12.73,7.14-15.1,15.67-2.27-3.65-2.49-6.83-3.03-10.31,3.04.59,1.66,3.5,3.35,4.38Z" fill="#381e18" stroke-width="0"></path><path d="m452.14,337.9c.34,1.69-.8,1.86-2.02,2-2.45.27-4.89.56-7.42.85-2.44,2.43-3.93,5.17-3.47,8.77.18,1.42,0,2.73-2.03,2.32-.62-5.06.47-9.49,4.86-12.93,3.17-.8,6.62-.94,10.08-.99Z" fill="#392118" stroke-width="0"></path><path d="m398.53,317.22c-5.48,4.41-11.22,8.14-18.61,8.02,6.3-2.49,12.46-5.29,18.61-8.02Z" fill="#41231c" stroke-width="0"></path><path d="m440.79,405.31c-3.13,2.22-5.77.85-7.8,1.16-2.15.44-3.12,2.49-5.16,2.32,1.56-4.24,4.45-5.11,12.96-3.48Z" fill="#442722" stroke-width="0"></path><path d="m364.47,328.82c-1.14,3.54-3.39,6.09-6.45,7.92,1.07-3.6,3.78-5.74,6.45-7.92Z" fill="#401e13" stroke-width="0"></path><path d="m315.41,306c6.17,6.73,12.13,13.68,18.58,20.13,5.35,5.35,8.09,12.06,10.99,18.71,1.12,2.57,1.96,5.26,3.18,7.36.31,2.02-.8,3.23-1.16,4.66-.64.08-1.38-.02-1.77.65-4.61,7.99-12.09,13.06-18.98,18.75-.7.58-1.69,1.14-.68,2.73,6.24-4.67,12.34-9.35,17.65-15.01-1.31,5.45-4.31,10.1-7,14.9-3.96.42-7.92.84-12.11,1.29-3.59-3.3-7.24-6.65-10.76-9.89.42-2.13,2.83-3.1,1.89-5.27.1-1.31.19-2.63.29-3.94.51.6.25,1.69,1.63,2.05,2.42-1.1,5.6-1.15,7.98-3.44-2.56-.87-4.84,1-7.41.84,1.91-3.65,5.24-6.24,6.37-10.05-.34-.22-.68-.45-1.02-.67-2.5,3.37-5,6.75-7.5,10.12-.37-.29-.73-.57-1.1-.86,3.29-4.29,5.05-9.27,6.49-14.42-3.9,3.48-4.69,8.71-7.43,12.82-2.87-6.43-8.67-9.23-14.66-11.78.89-1.33,1.15-2.94.67-4.29-3.32-9.47.58-18.86-.32-28.24,5.56-2.8,10.72-5.34,16.2-7.15Z" fill="#f57d70" stroke-width="0"></path><path d="m314.01,274.31c.34,7.04,1.7,13.94,2.85,20.86.38,2.27.98,4.51,1.49,6.76-5.65,3.53-12.09,5.32-18.65,9.08.96-13.82,1.85-26.81,2.77-40.08,3.14-1.14,4.49-4.48,7.37-6.31-1.15-4.08,1.21-8.24-1.1-12.13-.63-1.74-2.43-2.57-3.49-3.95-.8-2.92-.15-6.16-2.65-8.68-2.27-.26-4.42.25-6.01,1.42-1.37,1.85-.04,3.67-1.04,5.35-2.16.89-4.9-.52-7.42,2.09,1.6-14.12,1.15-27.6,3.68-41,2.02.11,3.64.21,5.3.3,3.78-2.86,6.62-6.59,9.96-9.72,2.17-.2,4.02.37,6.01,1.33.85,3.1.09,6.21-.25,9.3-.79,7.11-1.52,14.23-2.61,21.29-.41,2.66.68,4.88.97,7.32.88,7.42,1.8,14.84,2.89,22.23.52,3.54.34,6.91-.69,10.33-.4,1.33-1.95,3.17.62,4.2Z" fill="#f57d6f" stroke-width="0"></path><path d="m334.97,381.02c-4.61,6-11,10.48-14.91,16.91.41,1.96.89,3.56,1.06,5.19.29,2.69,1.77,4.07,4.31,4.75,3.83,1.02,7.61,2.23,11.18,3.29,1.93,3.04,3.7,5.82,5.47,8.59-2.46,1.36-4.92,2.73-6.19,3.44-17.86.85-29.9-9.52-43.2-17.27.25-3.04.49-5.99.73-8.93,1.36-.88,1.71-2.35,2.26-3.74,3.41-8.6,7.61-16.79,12.62-24.57,5.08,4.43,10.17,8.86,15.01,13.08,4.21.71,7.88-.9,11.68-.73Zm-21.62,30.21c1.84-2.01,4.12-3.3,7.01-4.4-4.65-1.38-6.07-.49-7.01,4.4Z" fill="#f57d70" stroke-width="0"></path><path d="m281.71,260.59c-6.2,2.12-12.38.51-19.11,1.18,4.43-6.24,9.95-10.8,14.28-16.39,2.29-16.99-2.5-33.21-5.21-49.97,2.81-.42,5.67-1.83,9.16-1.57,3.04,4.39,6.15,8.87,9.17,13.24-2.53,13.65-2.54,27.32-3.5,40.89-.36,5.01-2.28,8.82-4.78,12.63Z" fill="#f47d6f" stroke-width="0"></path><path d="m293.37,194.53c-6.48-4.26-3.5-12.95-8.35-17.53.63-3.06,1.96-4.62,4.71-4.02,3.66-4.68,2.63-10.43,4.35-15.24,1.4-1.01,2.86-1.18,4.29-1.2,4.47-.07,7.09,6.24,12.37,3.33,2.63,2.74,2.45,6,1.99,9.31-1.82,1.08-3.19-1.94-5.27-.37,1.15,1.78,3.43,1.97,4.73,3.45,1.06,3.39.06,6.43-1.75,9.34-1.91,3.09-3.55,6.37-5.69,9.28-2.63,3.57-6.55,4.24-11.38,3.65Zm2.97-11.48c1.47,1.39,2.87,2.23,5.14,1.5,1.67-2.86,1.19-5.72-.19-9.22-.51,1.02-.89,1.43-.9,1.85-.07,1.78-.03,3.56-.03,5.31-1.21,1.03-2.36-1.4-4.01.56Zm-3.3,3.59c4.33,3.28,6.83,3.03,10.35-1.23-3.72,1.54-6.94,1.99-10.35,1.23Zm7.61-22.78q-4.95.64-6.27,3.79c2.46-.99,4.75-1.68,6.27-3.79Zm4.76,12.71c.52,1.14,1.08,1.88,2.46.37-.52-1.15-1.07-1.9-2.46-.37Zm-10.52-3.34c-1.2-.39-1.4.06-1.53.5-.16.57.24.84.7.96.58.16.83-.26.95-.71.16-.58-.26-.8-.13-.74Z" fill="#f37e70" stroke-width="0"></path><path d="m275.43,264.79c2.5-1.97,5.09-1.49,7.34-2.66,3.25-3.84,4.9-8.85,7.92-13.11,5.9-.09,12.04-1.4,16.92,4.84-5.51-1.54-10.29-1.21-15.04.84,4.94,1.75,10.81-2.29,15.48,2.65.39.66.09,1.52-.94,2.45-3.07-.16-6.05-2.15-9.96-1.71,2.89,3.73,8.51,1.36,10.92,6.4-4.56.19-8.52-1.98-13.05-1.23,2.71,3.17,6.9,1.27,9.79,3.54-1.64,2.84-4.4,1.15-6.31,2.03-3.52,1.48-4.36,6.04-8.02,7.23-6.43,2.08-12.94,3.91-20.12,6.06,1.82-6.2,3.47-11.84,5.07-17.33Z" fill="#f47d70" stroke-width="0"></path><path d="m261.08,194.59c1.59-.91,3.09-1.48,4.74-1.72,3.43,3.02,4.96,6.71,5.59,11.24,1.85,13.3,5.51,26.4,3.53,40.53-3.88,6.11-10.97,10.29-14.36,17.59-2.18.79-4.36,1.05-6.28-.48-.09-2.23,2.46-1.8,2.78-3.39-.14-.82-.98-.77-1.73-1.44,2.61-2.94,5.01-6.14,7.91-8.79,6.82-6.24,6.66-14.25,5.23-22.08-1.93-10.57-4.89-20.96-7.41-31.46Z" fill="#f47e71" stroke-width="0"></path><path d="m372.78,394.77c-3.8-1.36-6.18-4.13-8.09-7.6-1.25-2.28-2.56-4.71-5.12-5.95.75-.55,1.14-1.36.75-2.16-3.26-6.68-1.44-13.36-.08-20.04.86-4.22,1.99-8.4,2.68-12.65.59-3.64,2.38-6.49,4.81-9.2,3.57-.25,6.4,1.25,9.26,3.75v9.41c-8.73,5.93-8.72,15.2-7.21,24.9-.36.87-1.14,1.18-1.91,1.47-.77.29-1.55.57-2.22.82-1.62.04-2.3-2.08-4.36-1.45.57,1.99,2.08,2.82,3.84,3.65,1.61-.57,3.29-1.17,5.41-1.92,1.23,5.24,2.42,10.19,3.54,15.16.22.95-.47,1.51-1.31,1.83Zm-8.63-44.43c1.16,1.48,2.12,2.62,3.68,2.98,6.12-.84,7.51-2.52,7.21-8.91-2.63-1.74-5.65-2.17-8.61-2.2-3.09,2.22-1.9,5.27-2.28,8.14Z" fill="#f37e70" stroke-width="0"></path><path d="m295.26,343.08c-1.82-.85-2.54-2.79-3.97-4.04-.71-10.17.88-20.26,1.25-30.39.37-10.13,1.31-20.23,1.88-30.35.22-3.87,2.07-6.32,6.1-8.24-.57,9.19-1.06,17.77-1.63,26.33-.95,14.26-1.95,28.52-2.96,42.78-.09,1.31-.44,2.6-.67,3.91Z" fill="#f57f71" stroke-width="0"></path><path d="m273.6,263.88c-2.86,9.79-4.92,19.09-10.37,28.18-1.28.46-3.71-.3-6.35-.54-1.46-2.33-2.95-4.69-4.54-7.22,4.52-6,6.12-13.23,9.03-20.11,3.83-1.32,7.75-.35,12.23-.31Z" fill="#f47d70" stroke-width="0"></path><path d="m321.97,254.4c-1.76,3.7-3.52,7.39-5.28,11.09-1.52-10.86-2.64-21.77-4.39-32.6-.56-3.49.57-7.25.97-10.89.8-7.26,1.62-14.52,2.44-21.79,2.28-.55,3.98.56,6.73,1.08-6,17.89-6.03,35.53-.47,53.11Z" fill="#f48072" stroke-width="0"></path><path d="m284.56,182.2c2.33,1.1,2.23,2.78,2.35,4.69-9.28,3.21-19,3.62-28.73,5.89.83-3.07,2.98-4.97,4.04-7.25,7.54-2.06,15.23-.68,22.33-3.33Z" fill="#f27e71" stroke-width="0"></path><path d="m282.64,193.15c2.04-.56,3.62-.99,5.46-1.49,3.94,6.59,9.54,5.7,15.55,3.43-1.32,1.17-2.65,2.34-4.07,3.6-2.55.22-5.16.44-7.97.67-2.81-1.85-6.83-2.13-8.97-6.22Z" fill="#ec7e74" stroke-width="0"></path><path d="m296.64,206.18c-1.96-.27-3.73-.52-5.63-.78-1.22-1.76-2.42-3.48-4.06-5.85,6.71,2.37,12.54,2.48,17.73-2.3-2.14,3.41-4.8,6.11-8.03,8.93Z" fill="#e37b6f" stroke-width="0"></path><path d="m306.39,416.77c-1.59.27-3.17.55-5.06.87-2.75-1.5-5.75-3.07-9.05-3.91.05-1.62-.25-3.28.59-5.19,4.75,2.44,9.21,5.2,13.52,8.23Z" fill="#ef7e72" stroke-width="0"></path><path d="m265.97,290.2c1.3-2.22,2.27-3.88,3.16-5.41,3.68-1.33,7.09-2.56,11.3-4.08-4.75,3.75-7.43,8.95-14.47,9.49Z" fill="#d9786f" stroke-width="0"></path><path d="m302.69,247.5c-1.56.08-2.9-.48-4.22-.96-.87-1.17-1.25-2.34-.58-3.73,1.18-.91,2.5-1.31,4.09-.84,1.13,1.73,1.36,3.55.71,5.53Z" fill="#d8766c" stroke-width="0"></path><path d="m269.77,193.48c5.16-2.34,10.6-3.12,16.06-3.78-5.05,2.67-10.66,2.93-16.06,3.78Z" fill="#be6868" stroke-width="0"></path><path d="m292.14,292.49c-1.35-4.8-2.81-9.69-1.29-14.58.43,0,.86,0,1.29,0v14.58Z" fill="#db7a6e" stroke-width="0"></path><path d="m306.83,195.07c2.15-.05,4.16.44,5.86,2.27-2.03-.33-4.07-.67-6.1-1,.08-.42.16-.84.24-1.27Z" fill="#a15d5a" stroke-width="0"></path><path d="m298.58,345.7c-.36.04-.72.08-1.08.12.27-.86.67-.52,1.08-.12Z" fill="#f57d70" stroke-width="0"></path><path d="m357.81,377.42c-.36-.12-.49-.37-.4-.75.38.13.51.38.4.75Z" fill="#f57e70" stroke-width="0"></path><path d="m201.27,132.03c2.88-.91,1.15-3.88,2.25-5.38,2.11-1.53,4.42-.46,6.45-1.14,1.75-.76.7-2.79,2.04-4.15,3.95-.62,8.2-.06,12.45.19,1.64-.09,1.62-2,3.51-2.89,1.34-.73,4.3,1.55,6.51-2.5-17.3-.07-33.87.11-50.44.6h-22.08c-3.02-1.48-4.44-4.08-5.86-6.4-4.02-6.57-9.81-11.05-16.17-15.04-1.67-1.04-3.12-2.43-4.67-3.66.59-.95,1.18-1.89,1.77-2.84,1.3.88,1.14,2.8,3.09,3.85h5.39c1.85,2.1,3.59,4.08,5.24,5.95,2.91.7,5.83-.17,7.62.54,2.77,1.44,2.5,4.09,4.5,5.13,3.7.5,7.53-.53,10.99.26,2,1.07,2.01,3.37,3.68,4.34,3.07.64,6.29-.67,9.49.71.96,1.6,1.97,3.28,3.08,5.13h13.95c2.13-.52.66-2.9,1.98-3.84.44,1.22.21,2.7,1.64,3.72,1.96,0,4.1,0,6.25,0,9.94,0,19.88-.45,29.82.08,4.1.06,8.21-.02,12.31.22,3.72.21,7.53-.9,11.15.76-10.22.1-20.45.2-30.67.31-1.67.76-2.15,1.67-.33,2.84,2.66.03,5.31.07,7.97.1-1.37,1.29-3.08.78-4.66.81-3.25.05-6.51-.1-9.76,0-1.05.03-3.09-.12-1.54,2.08,6.97.07,13.96,1.54,20.9-.27.04.43.08.86.12,1.29-11.73,2.64-23.45,5.34-35.2,7.9-3.54.77-6.97,2.09-10.65,2.16-.71-.29-1.42-.57-2.13-.86Zm-54.24-34c.32.34.57.33.67-.04.03-.11-.15-.27-.23-.4-1.01-1.92-1.88-4.05-5.23-3.25,1.29,2.14,3.08,2.86,4.79,3.69Zm80.27,25.68h.03c-4.67-.77-9.34-1.53-13.99.1-.05.11-.17.23-.15.33.03.21.13.42.21.63,2.35,1.25,4.74.75,7.14.18,2.24.24,4.48.34,6.7-.19h6.31c0-.35,0-.7,0-1.05h-6.25Zm-21.04,6.86c.77-.22,1.54-.44,2.31-.65l1.68-.26c.93.09,1.8-.08,2.53-.71.48-.09.97-.18,1.45-.27,1.91.28,3.56-.32,5.46-1.54-2.13-.15-3.87-.49-5.5.47-2.98-.53-5.91-.06-8.82.31-.26,1.21-1.21,2.49.89,2.65Zm-46.7-19.27c.93,2.5,2.05,3.58,4.2,3.57,7.76-.04,15.53-.02,23.29-.02.18-2.12-.4-3.35-.82-3.55h-26.67Zm15.6-2.43c-2.63-3.14-6.2-3.6-18.11-2.79-.24.02-.47.34-.82.62.22,1.56,1.13,2.55,2.86,3.16,4.97-.66,10.26.35,16.07-1Zm-23.43-8.07c2.26,3.55,6.19,4.99,7.83,2.91.17-1.23-.53-2.04-1.75-2.91h-6.08Z" fill="#1a1413" stroke-width="0"></path><path d="m128.24,119.7c-.74-.75-1.52-.53-2.3-.09-2.55-1.37-5.63.2-8.64-1.66,2.93-6.07,6.87-11.44,10.77-17.59,3.98,5.88,6.37,11.76,9.09,17.85-3.08,1.14-6.03,1.15-8.92,1.49Z" fill="#628aab" stroke-width="0"></path><path d="m280.23,371.72c-1.55,1.63-2.17,3.77-2.76,5.79-2.89,10.01-9.96,17.07-16.88,24.22-2.21,2.27-3.9,5.15-7.11,6.46,6.81-10.92,19.12-17.95,21.85-31.87-4.08.82-8.11,2.89-12.6,2.48,3.24-2.79,7.67-2.42,11.28-4.59,1.61-1.65,2.47-4.02,3.79-6.2,1.88.81,1.38,2.76,2.39,3.76l.04-.06Z" fill="#3b2119" stroke-width="0"></path><path d="m274.74,414.61l-.51,1.17c-.34.41-.69.83-1.03,1.24-3.26,3.39-6.04,7.03-11.12,8.45-4.82,1.35-9.3,1.57-14.16.15-2.35-2.53-4.83-5.12-5.66-8.81,3.87.71,3.71,5.18,7.42,7.32,3.42.83,7.78,1.65,12.01-.95.54-2.05-1.82-3.88-.57-6.18,2.57.94,1.38,4.1,3.66,5.36,3.24-1.04,4.43-4.48,6.81-6.61.79-.71,1.16-3.44,3.14-1.15Z" fill="#361e18" stroke-width="0"></path><path d="m247.71,353.89c-.21-.38-.43-.76-.64-1.13.16-.63.25-1.3,1.59-1.53,2.29,4.04,4.68,8.23,7.06,12.43-.33.21-.65.41-.98.62-3.59-2.54-3.98-7.45-7.03-10.39Z" fill="#3b1e1a" stroke-width="0"></path><path d="m265.01,400.14c-.93,2.92-2.79,4.96-5.42,6.29,1.03-2.82,2.81-4.94,5.42-6.29Z" fill="#2d1614" stroke-width="0"></path><path d="m242.03,256.9c-2.39,3.88-6.77,5.53-9.88,8.75-1.24,2.03-.6,4.87-2.54,6.76-2.27-5.5,1.72-10.67,12.42-15.51Z" fill="#3b1e15" stroke-width="0"></path><path d="m253.94,219.12c-2.09-4.29-3.23-8.74-2.3-13.56,1.78,4.34,2.57,8.86,2.3,13.56Z" fill="#472722" stroke-width="0"></path><path d="m244.33,268.98c-2.23,2.84-4.25,5.42-6.43,8.2-.19-4.22,1.58-6.47,6.43-8.2Z" fill="#341a12" stroke-width="0"></path><path d="m329.56,258.93c-.16-.39-.32-.77-.48-1.16.51-1,1.42-1.15,1.87-.25,3.25,6.54,9.92,8.47,15.59,11.74,1.99,1.15,4.09,2.13,6.21,3.23,2.17-3.47-1.29-7.05.84-11.4,2.54,6.88,1.95,12.85,1.93,19.59-2.99-1.83-1.44-4.1-2.56-5.62-7.38-4.93-16.59-7.17-22.73-14.29l.03.09c.34-.85-.09-1.41-.7-1.92Z" fill="#46251f" stroke-width="0"></path><path d="m330.46,268.1c-.67-1.77-1.34-3.53-1.99-5.31-.35-.95-.5-1.85.81-2.21.33.09.65.18.98.27l-.03-.09c-.37,2.11.82,3.34,2.35,4.55,1.61,1.27,3.01,2.8,4.58,4.29-1.92,1.39-2.39-.69-3.56-.41.21,2.62,2.54,4.55,2.54,8.08-3.48-2.59-3.31-6.72-5.67-9.17Z" fill="#32211e" stroke-width="0"></path><path d="m322.98,246.72c1.68-5.28,3.36-10.55,5.04-15.83.45.14.89.28,1.34.42-.66,5.56-3.18,10.56-4.67,15.88l-1.71-.47Z" fill="#3a2219" stroke-width="0"></path><path d="m344.32,243.03c-1.23-.59-3.3-.07-4.66-1.62,4.76-1.27,7.28-.01,10.28,5.34-2.46-.18-3.31-2.26-5.62-3.72Z" fill="#3b1e16" stroke-width="0"></path><path d="m335.3,206.75c-.47,2.66-.65,5.43-2.96,7.47.39-2.7-1.29-6.09,2.95-7.49v.02Z" fill="#593329" stroke-width="0"></path><path d="m246.16,304.87c-1.47.27-1.32,2.29-3.69,2.77.97-4.12,3.02-7.37,4.5-10.82.28-1.78-2.07-2.63-1.62-4.49q2.22,1.19,3.61,3.81c-.37,3.09-2.92,5.54-2.9,8.82l.08-.1Z" fill="#2e1b16" stroke-width="0"></path><path d="m233.43,302.88l-1.18-1.09c.09-.34.19-.67.28-1.01,2.57.28,5.06.74,7.15,3.19-2.68,1.07-4.3-.95-6.24-1.09Z" fill="#4e2d28" stroke-width="0"></path><path d="m246.08,304.97c1.59-.64,3.1-.98,4.16,1.3-1.88.73-3.03-.15-4.07-1.4l-.08.1Z" fill="#2e1b16" stroke-width="0"></path><path d="m171.19,140.12c3.39,5.46,8.1,9.89,11.92,15.02,1.66,2.23,3.45,4.36,5.18,6.54,3.89,4.36,6.93,9.46,11.49,13.24-1.45,4.92-2.9,9.83-4.34,14.73-3.88.57-7.23-.25-10.44-.96-1.83-2.67.15-5.92-2.38-8.88h-21.8c-2.06-1.81-3.54-3.11-5.17-4.54-3.56.34-7.17.68-10.76,1.02-2.49-1.57-2.55-4.66-4.52-6.82-3.59-.93-7.36.93-11.13.23.1-1.93,2.2-3.05,2.06-5.07,5.37-1.65,10.71-3.38,16.11-4.92,2.83-.8,5-2.21,6.78-4.63,3.42-4.65,6.58-9.53,10.64-13.82,2.13-.38,4.24-.75,6.35-1.13Z" fill="#6f96cc" stroke-width="0"></path><path d="m181.6,182.03c.85,2.36.72,4.32.46,6.76-8.54,2.6-17.19,5.22-25.94,7.24-2.45-1.68-3.87-3.93-6.21-6.3,10.91-2.65,21.28-5.17,31.68-7.7Z" fill="#7198cf" stroke-width="0"></path><path d="m199.78,174.92c-4.56-3.78-7.6-8.88-11.49-13.24.69-2.9,3.12.59,3.77-.98,3.13-1.34,3.95-4.36,6.01-6.18,2.37-2.09,4.62-4.93,8.37-2.45-.14.63-.27,1.26-.41,1.9-.82.81-.85,1.79-.61,2.83-.09.66-.19,1.31-.28,1.97-1.79,5.39-3.58,10.78-5.36,16.17Z" fill="#f4e2d5" stroke-width="0"></path><path d="m193.64,193.49c1.61,1.56,1.78,3.07,2.37,5.17-10.25,2.58-20.45,5.15-30.72,7.74-1.69-1.41-3.65-2.41-4.2-5.1,10.96-2.63,21.72-5.21,32.56-7.81Z" fill="#7199d1" stroke-width="0"></path><path d="m197.94,205.92c.67-.09,1.34-.19,2-.28,1.2.31,2.35.33,3.3-.66,3.57-1.82,3.61,1.44,4.99,3.61-8.73,2.67-17.74,3.26-26.18,6.11l-.42-.08-.38.2c-1.57-.13-3.06.21-4.49.82-2.68.05-4.82-.87-6.49-4.09,8.38-1.67,16.54-3.29,24.7-4.91,1.08.13,2.08-.11,2.97-.73Z" fill="#f3e5d7" stroke-width="0"></path><path d="m123.48,172.47c5.17-1.34,10.5-.43,15.5-1.41,1.63,1.81,2.49,3.52,3.04,6.03-6.65.81-13.18,1.6-19.71,2.39,1.18-2.06,2.35-4.12,3.58-6.28-.9-.28-1.66-.51-2.41-.74Z" fill="#7298cd" stroke-width="0"></path><path d="m126.16,181.45c10.25-.81,20.32-4.3,30.75-2.4-10.13,2.41-19.96,8.27-30.75,2.4Z" fill="#7499d0" stroke-width="0"></path><path d="m139.42,185.92c10.85-2.12,21.2-6.07,33.11-3.96-3.89,1.82-7.59,1.97-11.03,2.92-3.68,1.02-7.47,1.65-11.08,2.85-3.56,1.18-6.83.97-10.07-.77-.26-.14-.43-.47-.93-1.04Z" fill="#749bd4" stroke-width="0"></path><path d="m190.47,192.56c-10.5,2.33-21,4.67-31.52,6.94-.3.07-.75-.55-1.17-.88,5.64-4.11,26.85-8.47,32.68-6.06Z" fill="#7399d0" stroke-width="0"></path><path d="m123.48,172.47c.75.23,1.51.46,2.41.74-1.23,2.16-2.41,4.22-3.58,6.28-1.18.35-2.36.37-3.54.02-.18-.55-.54-.67-1.05-.42-3.46-1.11-6.92-2.22-10.38-3.33-1.27-1.94.31-1.77,1.4-1.84,2.59-.17,5.26.3,7.7-1l7.04-.44Z" fill="#f3e6db" stroke-width="0"></path><path d="m200.03,201.9c.26.36.52.71.9,1.23-1.53,1.08-3.54.39-4.87,1.58-4.68.81-9.36,1.61-14.05,2.42-.56-.42-1.59.12-1.88-.88.38-.51.75-.99,1.12-1.47,0,0-.04.02-.04.02.87.18,1.56-.13,2.11-.8,3.88-1.15,7.75-2.3,11.52-3.42,1.91.18,3.27,1.86,5.19,1.33Z" fill="#d5cdc3" stroke-width="0"></path><path d="m181.25,204.77c-.37.48-.73.97-1.12,1.47.29,1,1.32.46,1.88.88q-12.59,3-15.22,1.31c4.87-1.93,9.56-3.17,14.45-3.66Z" fill="#7798c5" stroke-width="0"></path><path d="m176.76,215.65c1.44-.61,2.92-.95,4.49-.82-1.31,1.3-2.91,1-4.49.82Z" fill="#342d2b" stroke-width="0"></path><path d="m183.32,203.98c-.55.67-1.23.98-2.11.8.56-.64,1.29-.83,2.11-.8Z" fill="#7798c5" stroke-width="0"></path><path d="m117.72,179.08c.5-.25.86-.13,1.05.42-.49.21-.85.1-1.05-.42Z" fill="#7298cd" stroke-width="0"></path><path d="m197.94,205.92c-.9.63-1.89.87-2.97.73.76-.35,1.53-.69,2.29-1.04.24.08.47.18.68.31Z" fill="#f3e5d7" stroke-width="0"></path><path d="m258.26,118.92c3.31-.72,6.62-1.43,9.92-2.15.82.07,1.58.27,2.06,1.02-.38.36-.77.73-1.15,1.09-5.65.3-10.92,2.63-16.54,3.13-.62-.37-1.72-.15-1.65-1.64,2.19-1.43,5.18.29,7.36-1.45Z" fill="#1a1413" stroke-width="0"></path><path d="m268.02,113.51c.5.4,1,.8,1.4,1.11.06,1.16-.7,1.11-1.29,1.27,0,0,.02.02.02.02-.05-.79-.1-1.59-.14-2.38v-.02Z" fill="#1a1413" stroke-width="0"></path><path d="m385.91,358.42c2.1,4.65,1.25,8.73-.56,12.72-1.98,1.37-4.08,1.58-6.21,1.36-2.12-.94-3.55-2.54-4.91-4.27-.62-2.13-.5-4.26-.09-6.54,3.29-3.42,7.43-3.58,11.78-3.27Zm-2.16,11.39c2.18-3.16,1.38-6.36.83-9.65-3.53,0-6.88-.2-8.86,2.96-.94,3.55.65,5.62,3.4,7.18,1.43.33,2.88.32,4.62-.49Z" fill="#371d18" stroke-width="0"></path><path d="m377.1,381.57c4.59.95,7.61-1.54,11.65-2.57-4.05,4.97-7.19,5.75-11.65,2.57Z" fill="#48251f" stroke-width="0"></path><path d="m340.18,295.51c-.6-.16-.85-.49-.52-1.1.17.37.34.73.52,1.1Z" fill="#f47e70" stroke-width="0"></path><path d="m258.26,118.92c-2.18,1.74-5.17.02-7.36,1.45-.08,1.49,1.03,1.27,1.65,1.64-.97.8-2.11.89-3.3.81-.04-.43-.08-.86-.12-1.29-6.64-1.58-13.38-.62-20.08-.77-.27,0-.55.68-.82,1.04-1.56-2.2.49-2.05,1.54-2.08,3.25-.1,6.51.05,9.76,0,1.58-.03,3.29.48,4.66-.81,4.69,0,9.38.01,14.07.02Z" fill="#1a1413" stroke-width="0"></path><path d="m188.23,266.82c-2.44,3.92-4.88,7.84-7.52,12.07-8.19.92-16.4,1.85-25.17,2.84.2-5.3-.85-10.19.7-15.05,10.66.04,21.33.09,31.99.13Z" fill="#f6e1d4" stroke-width="0"></path><path d="m199.3,249.94c-1.59,4.15-4.75,6.99-6.73,11.13h-23.1c-.95-3.32.08-7.05-.17-11.13h30Z" fill="#f5e2d5" stroke-width="0"></path><path d="m206.74,239.63c-1.83,2.18-3.29,3.21-3.88,4.65h-24.2c-.64-2.29-.11-4.29.58-6.9,8.86.72,17.68,1.44,27.5,2.24Z" fill="#eee0d5" stroke-width="0"></path><path d="m203.97,232.04c-.2-2.09-.38-3.88-.58-6,4.27-.37,8.18.83,12.37,1.59-3.15,1.38-3.64,4.89-5.92,6.87-2.12-.4-3.81-1.36-5.87-2.46Z" fill="#eaddd2" stroke-width="0"></path><path d="m188.23,266.82c-10.66-.04-21.33-.09-31.99-.13,2.9-1.47,6.5-.63,9.18-2.8,1.23,1.7,3.03.9,4.57.93,6.43.12,12.87.11,19.3.14-.35.62-.71,1.24-1.06,1.86Z" fill="#211a17" stroke-width="0"></path><path d="m201.26,247.47h-25.79c2.02-1.86,17.84-2.54,25.79,0Z" fill="#cfc2b6" stroke-width="0"></path><path d="m190.22,236.15c6.02-.96,12.12-4.62,17.98.9-6.03,1.01-11.99-.5-17.98-.9Z" fill="#e4ddd4" stroke-width="0"></path><path d="m189.29,264.96c-6.43-.04-12.87-.03-19.3-.14-1.54-.03-3.34.77-4.57-.93,8.27-1.31,16.6-.77,24.76-1.16.62,1.5-.16,1.85-.88,2.23Z" fill="#cac4c0" stroke-width="0"></path><path d="m215.97,224.79c2.48-.23,4.97-.45,8.57-.78-3.26,2.91-5.86,2.11-8.57.78Z" fill="#e1dcd4" stroke-width="0"></path><path d="m186.21,215.8c8.68-1.74,17.12-4.44,26.03-4.62-8.26,3.71-16.58,7.14-26.03,4.62Z" fill="#e5dfd7" stroke-width="0"></path><path d="m216.94,212.62c.59,2,.58,3.4-.04,4.77h-12.51c-.04-.28-.09-.55-.13-.83,4.13-1.28,8.26-2.57,12.68-3.94Z" fill="#e2ddd3" stroke-width="0"></path><path d="m203.24,204.98c-.94.99-2.09.97-3.3.66,1.03-.57,2.13-.8,3.3-.66Z" fill="#f3e5d7" stroke-width="0"></path><path d="m205.43,156.78c-.24-1.04-.21-2.02.61-2.83.08,1,.19,2.01-.61,2.83Z" fill="#7c93b3" stroke-width="0"></path><path d="m308.28,368.68c.37-3.88,2.22-.25,3.45-.72,1.26-.68,1.72-2.61,3.51-2.94.93,2.17-1.47,3.14-1.89,5.27,3.53,3.24,7.17,6.59,10.76,9.89,4.2-.45,8.16-.87,12.11-1.29.13,1.04-.2,1.8-1.25,2.15-3.8-.17-7.47,1.44-11.68.73-4.84-4.22-9.92-8.65-15.01-13.08Z" fill="#371f1a" stroke-width="0"></path><path d="m343.22,363.98c-5.3,5.66-11.41,10.34-17.65,15.01-1-1.59-.02-2.16.68-2.73,6.88-5.69,14.37-10.76,18.98-18.75.39-.67,1.13-.56,1.77-.65-.14,2.97-2.88,4.55-3.78,7.12Z" fill="#3f211b" stroke-width="0"></path><path d="m330.25,260.85c-.33-.09-.65-.18-.98-.27l.28-1.65c.61.5,1.03,1.07.7,1.92Z" fill="#f57d6f" stroke-width="0"></path><path d="m397.86,398.87c3.95-.43,7.56,1.2,11.18-1.74-1.25,4.04-1.24,4.11-3.71,4.5-2.72.43-5.45.64-7.47-2.76Z" fill="#ea8279" stroke-width="0"></path><path d="m315.52,361.07c.01-.39.03-.77.04-1.16,2.5-3.37,5-6.75,7.5-10.12.34.22.68.45,1.02.67-1.13,3.81-4.46,6.4-6.37,10.05,2.57.17,4.85-1.7,7.41-.84-2.38,2.3-5.55,2.35-7.98,3.44-1.38-.36-1.12-1.45-1.63-2.05Z" fill="#361d12" stroke-width="0"></path><path d="m314.46,359.06c-.58-.37-.91-.9-.94-1.6,2.75-4.1,3.53-9.34,7.43-12.82-1.45,5.15-3.21,10.12-6.49,14.42Z" fill="#41251e" stroke-width="0"></path><path d="m313.34,411.24c.95-4.89,2.37-5.78,7.01-4.4-2.9,1.1-5.17,2.39-7.01,4.4Z" fill="#4f2a20" stroke-width="0"></path><path d="m296.35,183.04c1.64-1.96,2.8.47,4.01-.56,0-1.75-.04-3.53.03-5.31.02-.42.39-.83.9-1.85,1.39,3.5,1.87,6.36.19,9.22-2.27.73-3.66-.11-5.14-1.5Z" fill="#4d2823" stroke-width="0"></path><path d="m293.05,186.63c3.41.76,6.64.31,10.35-1.23-3.52,4.26-6.02,4.51-10.35,1.23Z" fill="#3b2019" stroke-width="0"></path><path d="m300.66,163.85c-1.53,2.11-3.81,2.8-6.27,3.79q1.32-3.15,6.27-3.79Z" fill="#41231b" stroke-width="0"></path><path d="m305.43,176.57c1.39-1.52,1.94-.78,2.46.37-1.38,1.5-1.93.77-2.46-.37Z" fill="#67392d" stroke-width="0"></path><path d="m294.91,173.23c-.13-.05.29.17.13.74-.13.45-.38.87-.95.71-.46-.12-.86-.39-.7-.96.13-.44.33-.89,1.53-.5Z" fill="#512622" stroke-width="0"></path><path d="m364.15,350.34c.38-2.87-.81-5.92,2.28-8.14,2.96.04,5.98.46,8.61,2.2.3,6.4-1.09,8.08-7.21,8.92-1.56-.37-2.52-1.51-3.68-2.99Zm3.65,1.25c4.08-.12,5.84-2,5.4-5.89-2.07-1.17-4.11-1.66-6.49-1.62-.7,2.54-1.59,5.02,1.09,7.51Z" fill="#382117" stroke-width="0"></path><path d="m204.14,99.14c.64,3.91,1.27,7.82,1.91,11.73-1.32.94.15,3.32-1.98,3.84.77-5.15-1.48-9.91-1.94-14.9.52-.67,1.18-.9,2.01-.67Z" fill="#433f39" stroke-width="0"></path><path d="m268.01,113.54c.05.79.1,1.59.14,2.38-.34,0-.65-.09-.94-.25-3.61-1.67-7.43-.55-11.15-.76-4.09-.23-8.2-.16-12.31-.22,6.09-1.05,12.25-.28,18.36-.58,1.97-.1,4,.39,5.89-.56Z" fill="#231f1f" stroke-width="0"></path><path d="m236.55,115.97c-.45.91-1.01,1.8-.33,2.84-1.82-1.17-1.34-2.07.33-2.84Z" fill="#1a1413" stroke-width="0"></path><path d="m147.47,97.58c.08.14.26.3.23.4-.1.37-.35.38-.67.04.14-.15.29-.3.44-.44Z" fill="#8c827f" stroke-width="0"></path><path d="m204.14,99.14c-.82-.23-1.49,0-2.01.67-9.81.31-14.19-8.85-8.83-17.91,5.85-5.36,14.18-3.91,18.22,2.92,2.61,7.74-1.55,11.49-7.39,14.32Z" fill="#fde393" stroke-width="0"></path><path d="m383.75,369.82c-1.74.81-3.19.82-4.62.49-2.74-1.56-4.34-3.63-3.4-7.18,1.98-3.16,5.32-2.96,8.86-2.96.54,3.29,1.34,6.49-.83,9.65Z" fill="#eb7b6f" stroke-width="0"></path><path d="m367.8,351.59c-2.68-2.49-1.79-4.97-1.09-7.51,2.38-.04,4.42.45,6.49,1.62.44,3.89-1.32,5.77-5.4,5.89Z" fill="#ed7e72" stroke-width="0"></path></svg>