<svg xmlns="http://www.w3.org/2000/svg" id="Layer_1" width="1200" height="1079.14" viewBox="0 0 1200 1079.14"><path d="m59.9,753.46c-23.05-43.35-36.15-89.66-40.46-138.44-5.27-59.71,2.4-117.98,20.92-174.85,26.83-82.37,70.9-154.59,129.83-217.83,75.94-81.5,166.95-140.05,271.9-177.06,32.48-11.45,65.77-19.95,99.5-26.94,7.23-1.5,11.81.3,16.19,6.13-10.91,2.37-21.66,4.49-32.28,7.07-128.38,31.07-240.36,91.69-333.24,186.15-63.83,64.91-111.46,140.03-139.73,226.92-11.98,36.85-19.43,74.58-21.78,113.35-4.31,71.16,9.52,138.27,43.66,201.02.87,1.58,1.05,3.88,3.64,4.29.62-2.41-1-3.9-1.83-5.59-17.78-36.72-28.66-75.42-32.97-115.93-8.59-80.75,6.36-157.73,38.24-231.75,32.69-75.91,80.44-141.29,140.58-197.73,88.84-83.37,193.38-137.67,311.11-167.39,10.33-2.61,20.83-4.56,31.13-7.26,5.24-1.37,9.26-.54,12.7,3.65,1.36,1.66,3.11,2.98,5.29,5.03-18.38,3.81-35.87,7.94-53.17,12.86-108.56,30.91-205.8,82.58-289.09,159.14-72.93,67.03-127.69,146.4-159.6,240.7-12.56,37.09-20.14,75.22-22.85,114.37-4.89,70.44,7.56,137.27,40.36,200.04.93,1.77,2,3.47,3.06,5.15.12.19.71.08,1.2.13.79-2.24-.93-3.74-1.72-5.43-18.81-40.8-29.38-83.66-32.05-128.46-5.57-93.45,17.82-180.05,62.78-261.29,49.98-90.3,120.28-161.58,206.3-217.79,74.51-48.68,155.71-81.76,242.02-102.73.98-.24,2.06-.25,2.93-.69,12.1-5.99,20.25-.33,27.37,9.41-22.96,5.47-45.59,11.65-67.92,18.81-101.03,32.41-193.07,81.02-272.24,152.39-72.37,65.25-127.22,142.54-159.34,235.09-12.78,36.8-20.8,74.64-23.75,113.57-5.59,73.7,7.28,143.71,41.67,209.36,16.33,31.19,37.21,59.19,61.9,84.33,1.69,1.73,3.41,3.42,5.09,5.15.27.28,3,2.92,3.18,3.27-1.08.58-4.38-1.9-5.13-2.35-59.98-35.42-109.78-81.25-145.11-141.88-25.58-43.89-40.68-91.21-45.93-141.66-8.64-82.97,7.82-161.64,41.89-237,34.18-75.6,82.77-140.94,143.51-197.23C280.26,87.82,388.47,31.78,511.54,4.22c5.53-1.23,11.36-1.42,16.5-4.22h3.63c1.29,1.46,2.6,2.93,4.19,4.71-12.41,2.88-24.54,5.46-36.55,8.51-113.29,28.73-213.73,81.79-300.14,160.51-76.05,69.29-133.48,151.42-167.01,249.33-17.35,50.68-26.16,102.8-24.45,156.43,1.97,62.02,18.39,119.99,49.94,173.55.29.5.76.88,1.15,1.32,1.95,4.78,5.05,8.78,8.71,12.45-2.54-4.44-5.08-8.89-7.63-13.33h.01,0Zm62.03,58.77l.16.02-.23-.11-.16-.18.22.27h.01Zm-2.37-3.7c-.51-.35-1.02-.69-1.52-1.04-.38-1.06.29-2.66-1.4-2.93.48.88,1,1.84,1.54,2.81.51.35,1,.7,1.51,1.05l.08.27s-.21-.16-.21-.16Zm-43.55-27.77l.18.08-.21-.15c-.82,0-1.25-.4-1.25-1.22-.38-.77-.75-1.55-1.14-2.32-.51-.35-1.02-.7-1.52-1.06-.02-1.28.05-2.61-1.69-3.47.69,1.29,1.26,2.34,1.81,3.38.51.35,1.02.69,1.51,1.04.35.8.71,1.6,1.06,2.4.83.06,1.32.42,1.22,1.33h.01Zm18.12,9.53c.1.13.19.28.29.4.05.06.13.1.21.16-.21-.15-.41-.3-.62-.45-.05-.19-.06-.4-.15-.57-.05-.1-.21-.13-.31-.21.19.22.38.45.57.67h.01Zm4.86,7.31c-1.23-.44-1.52-1.32-1.17-2.49-.41-.34-.83-.67-1.25-1,.41.3.83.6,1.25.92,1.14.52,1.39,1.45,1.17,2.59h0Zm8.26-8.29c.19.54.39,1.1.58,1.65,1.51,2.2,2.24,4.91,4.4,6.69.23.65.07,1.85,1.38.98-.79,1.86.65,2.48,2.06,3.13-.71-1-1.44-2-2.15-3-.21-.68-.02-1.9-1.37-.98.57-3.28-1.81-5.21-3.41-7.51-.18-.57-.38-1.14-.56-1.71-.45-.79-.88-1.57-1.33-2.37-.45-.79-.88-1.56-1.33-2.35-.63-1.73-1.03-3.61-3.15-4.74-.86,2.67,1.29,3.99,2.01,5.78.48.73.97,1.45,1.45,2.18.25.9.33,1.9,1.43,2.26h-.01Zm-15.57-2.56c.16.3.31.6.47.91.11-.19.21-.4.31-.59-.3-.06-.6-.12-.92-.18.39-1.15-.12-2.01-.88-2.79-.38-.5-.42-1.61-1.5-.82.59-1.26.29-2.15-1.09-2.58-.24-.39-.5-.76-.74-1.15-.11.16-.33.31-.31.46.05.67.46.86,1.08.68-.46,1.22.02,2,1.16,2.47.27.71.25,1.96,1.51.8-.74,1.27-.27,2.15.9,2.82h.01Zm-11.32-17.75c.33.85.41,1.85,1.44,2.26.1,1.65,1.23,2.7,2.17,3.87.48,1.33.97,2.66,2.72,3.27,0-1.9-.77-3.04-2.03-3.93.06-1.69-1.27-2.73-1.9-4.1-.45-.76-.9-1.52-1.34-2.29-.45-.77-.88-1.56-1.33-2.34-.53-.77-.38-2.82-1.95-1.73-1.11.76.38,1.95.77,2.92.48.69.96,1.39,1.44,2.08h.01Zm-11.52,2.02c.41-.29.85-.58.83-.59-.29-.5-.62-.97-.96-1.43-.35-.46-.83-.4-.76.04.11.67.54,1.27.88,1.98h0Z" fill="#0202cc" stroke-width="0"></path><path d="m1157.66,374.03c14.47,44.03,20.47,89.29,18.85,135.48-2.17,62-16.56,121.26-42.41,177.63-31.14,67.92-74.84,126.91-128.86,178.36-77.27,73.58-167.62,125.58-267.47,161.9-26.46,9.63-53.44,17.54-80.55,25.08-5.24,1.45-8.76.69-11.82-3.58-1.04-1.45-2.42-2.67-3.88-4.27,2.21-2.03,5.11-2.06,7.65-2.76,84.8-23.59,165.1-57.46,239.15-105.35,74.15-47.96,137.94-106.88,187.61-180.29,42.03-62.11,70.07-129.9,80.98-204.34,10.91-74.58,1.46-146.55-28.7-215.7-.22-.51-.67-.92-1.02-1.38-.52-1.74-.39-3.91-2.87-4.38-.04-.68-.06-1.36-.1-2.03-.11.08-.33.19-.3.25.13.57.31,1.11.48,1.68,1.29,1.23.59,3.81,2.9,4.36.42,6.32,3.75,11.69,5.77,17.47,16.64,47.52,22.78,96.43,19.55,146.59-5.29,82.06-32.25,156.97-75.42,226.35-51.93,83.46-120.71,150.31-202.86,203.7-73.03,47.46-152.21,80.7-236.71,101.57-6.9,1.71-11.52.98-15.14-5.78,5.61-1.49,11.34-3,17.06-4.54,105.89-28.53,202.6-75.45,287.62-145.13,77.74-63.73,139.24-140.23,178.8-233.33,18.84-44.33,30.65-90.5,34.32-138.61,3.67-47.99-1.03-95.12-15.26-141.2-.47-1.54-.98-3.06-1.55-4.55-.11-.29-.62-.41-1.36-.88.36,6.32,2.64,11.9,3.99,17.66,12.01,51.32,12.04,102.84,2.75,154.51-15.56,86.48-54.27,162.36-108.03,230.79-86.53,110.16-197.39,186.24-329.59,231.72-24.93,8.58-50.43,15.15-76.21,20.66-4.02.86-7.01.57-9.09-3.77,11.32-2.76,22.61-5.32,33.8-8.28,113.87-30.04,213.97-85.27,300.56-164.94,58.61-53.91,106.89-115.75,141.49-187.78,23.96-49.86,39.96-102.06,44.79-157.34,8.08-92.53-15.81-176.32-69.6-251.79-11.23-15.75-23.48-30.68-36.73-44.79-1.56-1.66-5.03-5.31-6.22-7.38,8.24,3.38,17.62,10.05,24.89,14.92,76.08,50.96,125.23,121.29,149.71,209.13,7.25,26.02,12.2,52.41,11.15,79.73-.73,18.91-.76,37.88,0,56.79,1.21,29.94-4.1,58.9-11.64,87.57-21.98,83.73-64.01,156.55-121.26,220.91-73.28,82.37-163.74,139.98-264.58,182.45-39.91,16.8-80.94,30.34-122.73,41.66-2.94.8-4.83.51-6.79-1.79-2.73-3.19-5.76-6.15-9.09-9.65,12.29-3.76,24.18-7.3,35.99-11.03,82.71-26.24,161.06-61.61,232.76-110.92,68.56-47.15,127.59-103.82,172.98-173.98,38.36-59.31,64.04-123.6,74.41-193.66,10.34-69.92,4.13-138.25-20.75-204.65-.5-1.15-.18-2.64-1.43-3.47-4.73-14.18-10.83-27.72-18.61-40.48-1.17-2.46-2.35-4.92-3.52-7.38-1.13-.56-1.38-1.48-1.14-2.63l-.17-.15.15.16c1.26.44,1.55,1.33,1.15,2.53,2.04,2.03,2.69,4.74,3.58,7.33,6.9,13.45,11.99,27.67,17.45,41.73.38,1.11.75,2.23,1.13,3.34h-.06,0Zm-36.45-52.81c.36.93.74,1.86,1.1,2.79.17.4.33.81.5,1.21-.19-.36-.38-.74-.57-1.1-.45-.9-1.55-1.55-1-2.79-1.11-.39-1.67-1.1-1.28-2.32-1.23-.38-1.54-1.22-1.23-2.38-1.22-.38-1.49-1.25-1.23-2.38-.64-.08-.73-.4-.38-.9.13.28.25.56.39.83,1.13.41,1.28,1.33,1.23,2.36,1.08.45,1.26,1.37,1.22,2.38,1.04.44,1.15,1.37,1.26,2.3h0Zm10.77-5.75l.16.16-.15-.16c-.6-.08-.79-.34-.33-.85.11.28.21.57.31.85Zm-23.89.77c.21,1.48.41,2.96.62,4.45,1.49,3.28,2.98,6.55,4.46,9.82-1.11-3.44-1.22-7.39-4.46-9.74l-.64-4.42c-1.72-1.09-1.97-3.04-3.06-5.15,1.23,2,2.17,3.52,3.09,5.03h0Zm13.21,39.07c.42-.11.85-.23,1.27-.34-1.66-7.77-4.72-15.04-8.72-21.97,2.48,7.44,4.97,14.88,7.45,22.31h0Z" fill="#0202cc" stroke-width="0"></path><path d="m655.42,338.24c31.61,0,59.92,10.14,85.78,27.9,5.14,3.53,10.32,6.99,15.53,10.42,6.73,4.42,10.38,2.55,14.6-3.51,2.27-3.27,3.87-7.02,5.82-10.53,1.17-2.11,2.24-4.31,3.7-6.21,2.71-3.52,6.46-4.07,10.28-2.3,3.74,1.72,4.11,4.84,3.04,8.66-6.33,22.43-12.63,44.87-18.68,67.38-4.59,17.1-8.4,34.36-10.54,51.96-.51,4.22-1.6,8.34-4.49,11.64-4.72,5.37-11.26,4.1-13.74-2.56-1.54-4.13-1-8.34-.73-12.55,1.28-19.32,2.04-38.59-3.97-57.42-7.15-22.37-18.76-41.45-40.09-52.91-17.92-9.63-36.91-11.08-56.06-4.44-28.25,9.8-40.14,37.08-28.89,65.37,6.81,17.14,18.68,30.86,30.69,44.44,20.56,23.2,43.12,44.56,63.01,68.38,11.88,14.24,23.18,28.89,31.11,45.77,23.27,49.6,5.52,103.22-43.65,127.53-54.73,27.05-109.24,23.6-162.49-5.35-8.67-4.72-16.85-10.26-24.54-16.44-2.42-1.95-4.27-1.96-6.97-.82-17.08,7.26-31.04,18.44-42.36,33.04-1.11,1.43-2.18,2.89-3.38,4.25-3.28,3.7-7.25,4.4-11.37,1.79-4.09-2.59-5.23-6.51-3.27-11,7.08-16.19,14.08-32.4,21.39-48.48,11.48-25.25,19.5-51.84,30.26-77.38,2.18-5.17,4.61-10.24,7.09-15.27,1.34-2.73,3.27-5.09,5.94-6.68,6.27-3.7,12.63-.16,12.53,7.09-.04,2.38-.64,4.78-1.11,7.14-4.85,23.76-5.06,47.33,5.31,69.75,15.2,32.84,42.78,48.85,77.24,54.96,10.36,1.84,20.47.68,30.34-2.58,35.12-11.55,48.79-40.55,38.45-75.41-3.67-12.34-11.08-22.7-18.95-32.67-17.87-22.64-38.16-43.08-58.01-63.93-15.56-16.33-31.32-32.54-42.9-52.07-18.21-30.71-21.26-62.59-3.94-94.6,12.33-22.79,33.27-35.48,57.09-43.8,16.45-5.73,33.42-8.76,50.91-8.61v.04h.01Z" fill="#0202cc" stroke-width="0"></path><path d="m372.15,345.41c37.22,1.43,74.44,1.79,111.67,2.02,12.47.07,24.95-.65,37.42-.9,2.59-.05,5.27.12,7.78.74,4.74,1.16,5.95,4.65,5.75,9.23-.22,4.71-2.79,6.13-6.97,6.48-5.6.47-11.18,1.16-16.74,1.95-22.41,3.17-38.24,14.76-46.1,36.38-6.59,18.16-10.72,37.02-15.47,55.69-12.7,49.83-24.18,99.99-38.68,149.37-5.66,19.26-12.06,38.24-20.33,56.61-14.48,32.17-38.29,53.55-72.08,63.77-32.61,9.87-65.49,12.81-98.59,2.95-20.54-6.11-37.69-17.13-47.63-37.05-12.13-24.28-8.21-53.12,9.84-69.69,12.45-11.43,27.2-14.93,43.66-10.57,18.93,5,32.45,30.48,14.72,49.4-4.54,4.85-8.72,10.01-12.21,15.69-5.64,9.23-5.9,18.67-.6,28.01,5.13,9.03,13.71,12.12,23.5,11.99,21.33-.31,38.32-9.39,51.26-26.22,12.84-16.7,20.3-35.98,26.22-55.85,18.24-61.24,34.8-122.93,49.7-185.07,3.94-16.42,7.57-32.88,10.11-49.58.39-2.58.63-5.2.67-7.8.25-15.98-6.88-25.32-22.39-29.06-4.88-1.17-9.91-1.72-14.82-2.76-6.51-1.38-8.24-3.4-7.8-8.61.39-4.67,3.22-6.94,9.42-7.11,6.23-.16,12.47-.04,18.72-.04v.02h-.01Z" fill="#0202cc" stroke-width="0"></path><path d="m842.47,344.54c22.52.98,45.02,2.02,67.53,2.92,30.4,1.2,60.82.31,91.22.45,3.62.01,7.26-.24,10.82.69,3.77.99,5.66,3.18,5.7,7.34.02,4.23-2.5,5.71-5.84,6.39-4.72.97-9.47,1.91-14.26,2.36-18.49,1.75-31.12,11.74-39.83,27.6-8.48,15.44-13.99,32.05-18.45,48.9-19.41,73.22-40.14,146.11-56.45,220.13-1.56,7.07-2.84,14.19-3.97,21.33-2.41,15.33,4.19,25.21,19.26,29.21,5.67,1.5,11.46,1.92,17.31,2.03,6.46.12,8.92,2.24,9.17,7.14.28,5.43-1.83,7.79-8.58,8.43-8.42.8-16.88.08-25.32-.07-28.38-.52-56.78-.46-85.15-1.27-18.75-.53-37.4.63-56.08,1.62-1.6.08-3.24.13-4.82-.11-5.61-.87-8.42-3.92-8.15-8.63.27-4.65,2.67-6.67,8.67-7.16,19.95-1.67,37.78-8.05,50.85-24.05,8.06-9.87,11.07-22.2,14.87-34.02,11.43-35.62,19.49-72.14,28.49-108.41,11.71-47.21,23.18-94.47,34.73-141.71,1.15-4.69,1.79-9.45,1.71-14.32-.24-14.02-6.57-22.36-20.1-26.59-7.94-2.48-16.22-2.84-24.31-4.39-5.95-1.15-7.73-3.38-7.2-8.95.52-5.44,2.01-6.63,8.53-6.68,3.22-.02,6.45,0,9.67,0v-.15h-.04,0Z" fill="#0202cc" stroke-width="0"></path><path d="m203.4,896.02c37.88,13.37,76.69,22.54,116.7,26.65,39.6,4.08,79.11,3.65,118.57-1.52,117.32-15.43,221.26-62.61,315.32-133.12,3.54-2.65,6.87-5.59,10.39-8.28,1.83-1.39,3.46-4.75,6.25-1.17,2.96,3.79-1.54,4.32-2.89,5.47-34.26,28.98-71.94,52.83-111.61,73.58-55.36,28.96-113.42,50.47-174.82,62.59-42.2,8.32-84.75,12.04-127.77,9.56-6.07-.35-12.22.54-18.17-1.55,5.19.8,10.36,1.79,15.57,2.36,23.45,2.58,46.97,2.89,70.49,1.56,130.91-7.38,247.12-54.01,351.69-131.72,2.58-1.92,5.19-3.86,7.49-6.09,2.24-2.18,3.58-1.81,5.86.24,3.34,3.02,2.63,4.6-.52,7.25-40.07,33.6-84.74,59.77-131.97,81.74-56.32,26.21-115.18,44.15-176.78,52.54-52.75,7.2-105.45,7.13-157.97-2.58-8.57-1.58-17.39-1.75-25.65-4.9,5.78-.06,10.95,2.5,16.39,3.9,25.54,6.53,51.56,10.2,77.78,12.43,29.13,2.47,58.33,2.32,87.42-.29,65.83-5.93,128.92-22.68,189.46-49.12,48.5-21.17,94.24-47.05,135.84-79.93,2.66-2.11,4.49-2.94,6.79.22,1.4,1.92,3.25,3.52,5.37,5.77-67.63,55.16-143.77,93.01-227.34,116.07-83.87,23.13-168.59,27.73-255.23,8.92,2.61,3.39,5.36,3.17,7.65,3.76,53.43,13.84,107.74,18.58,162.72,14.65,70.96-5.08,138.42-23.99,203.16-52.96,43.26-19.36,84.36-42.55,122.21-71.25,2.64-2.01,3.98-1.96,6.3.41,8.13,8.25,8.3,8.24-.9,15.1-83.6,62.36-176.71,102.52-279.83,118.6-75.18,11.72-149.53,7.77-222.48-15.06-44.68-13.99-86.09-34.59-124.43-61.4-.63-.44-1.21-.97-1.77-1.51.25-.24.54-.6.69-.92h.01Zm98.11,43.26c5.98,2.37,14.36,5.66,23.2,7.38.13-.45.25-.88.39-1.33-8.77-2.25-17.55-4.5-23.59-6.05Zm24.38,7.39c.83.44,1.31.82,1.83.94.75.17,2.17.73,1.8-.74-.23-.91-1.74-1.22-3.63-.21h0Zm5.2-18.31l-.27-.12-.04.12h.3Z" fill="#0202cc" stroke-width="0"></path><path d="m877.6,138.14c-25.36-5.73-49.81-6.61-74.24-6.8-32.65-.27-65.09,2.86-97.14,9.12-91.05,17.81-174.81,53-250.9,106.21-11.23,7.85-22.12,16.21-31.87,25.84-4.22,4.17-5.77.9-8.34-1.48-2.81-2.59-3.41-4.26-.11-7.36,28.41-26.64,60.77-47.66,94.66-66.37,62.11-34.31,128.06-58.07,198.08-70.01,34.76-5.93,69.8-8.99,105.14-6.92,1.71.1,3.59.8,6-1.58-9.26-.59-17.65-1.43-26.08-1.62-130.16-2.89-248.72,33.86-357.27,104.7-11.98,7.82-23.28,16.59-33.85,26.23-2.66,2.43-4.59,5.27-8.52.86-4.08-4.57.53-5.61,2.32-7.25,28.58-26.12,60.96-46.62,95.35-64.15,61.76-31.5,126.84-52.82,195.34-63.53,31.46-4.91,63.17-7.08,95.01-6.07,16.56.52,33.09,2.18,49.49,4.27-5.3-1.03-10.56-2.29-15.9-3.02-26.56-3.71-53.27-5.03-80.04-4.15-109.33,3.58-210.28,35.4-304.12,90.87-17.17,10.15-33.4,21.69-48.48,34.83-1.72,1.5-3.22,4.02-5.73.81-2.44-3.11.83-3.77,2.13-4.95,28.93-25.83,62.14-45.02,96.72-62.02,56.29-27.67,115.25-47.38,177.19-57.59,94.26-15.53,186.39-9.29,275.16,28.5,28.79,12.26,55.65,28,81.16,46.08.65.46,6.48,4.69,7.26,5.15-2.55-.81-7.91-3.44-8.94-3.9-44.15-19.91-90.59-30.43-138.77-33.42-92.2-5.73-179.4,14.37-263.06,51.93-56.34,25.29-108.05,57.95-154.69,98.51-2.96,2.58-4.43,2.64-7.23-.07-7.62-7.38-7.8-7.27-.11-14.06,86-75.88,185.68-123.27,298.49-143.32,42.41-7.54,85.06-9.06,127.93-5.49,2.29.19,4.73-1.43,7.95,1.22v-.02h.01Zm-57.78-18.24c9.96,1.92,20.2,1.83,30.33,3.04-10.08-.94-19.95-3.9-30.33-3.04Z" fill="#0202cc" stroke-width="0"></path><path d="m989.47,710.23c.04,10.68-8.67,19.45-19.5,19.62-10.96.17-20.18-8.84-20.11-19.64.08-10.79,8.66-19.04,19.81-19.03,11.14,0,19.77,8.31,19.81,19.06h0Zm-5.25-.19c-.11-8.49-6.65-15.22-14.7-15.09-7.98.13-14.74,7.11-14.8,15.28-.05,8.52,6.85,15.38,15.32,15.22,8.31-.16,14.29-6.64,14.18-15.41h0Z" fill="#0202cc" stroke-width="0"></path><path d="m202.71,896.92c-.47,0-4.63-2.79-4.86-3.31.58-.82,4.96,1.98,5.55,2.4-.15.31-.44.68-.69.92h0Z" fill="#0202cc" stroke-width="0"></path><path d="m978.61,719.79c-3.18,1.36-5.13.53-5.66-2.88-.39-2.46-1.51-4.2-4.23-4.09-3.46.15-1.89,2.89-2.03,4.54-.16,1.84-.38,3.15-2.64,2.99-2.04-.15-1.95-1.57-1.94-3,0-3.21-.28-6.44.11-9.59.28-2.29-2.02-5.78,1.61-6.7,4.21-1.06,8.72-1.5,12.7,1.29,1.27.9,2.02,2.98,1.42,3.68-4.28,4.89.3,9.22.68,13.78h-.01Zm-5.59-13.15c-.19-2.18-1.78-2.46-3.4-2.59-1.97-.16-2.9.64-2.76,2.76.1,1.58.36,2.75,2.3,2.6,1.88-.15,3.57-.52,3.87-2.78h-.01Z" fill="#0202cc" stroke-width="0"></path></svg>