<svg xmlns="http://www.w3.org/2000/svg" id="Layer_1" width="1200" height="1080.06" viewBox="0 0 1200 1080.06"><path d="m1053.73,70.24c-2.96-31.75,7.71-60.65,41.96-67.95,15.01-3.19,30-3.05,44.98.41,30.11,6.98,40.2,28.13,40.12,57.49,0,.49-.25.74-.74.74h-38.3c-.51,0-.77-.25-.81-.75-1.18-19.07-7.62-34.97-31.52-28.48-19.07,5.18-17.89,32.78-6.33,43.14,2.44,2.19,10,6.06,22.66,11.59,24.74,10.84,56.82,20.31,60.86,52.31,3.77,29.76-4.4,57.73-35.32,68.57-20.86,7.31-52.84,8.52-73.17-1.04-23.36-10.99-29.04-35.84-27.43-60.02.03-.41.25-.61.66-.61h39.84c.61,0,.9.31.87.92-.64,14.99.49,29.76,15.45,34.82,37.3,12.62,50.64-35.52,18.53-51.07-30.08-14.56-68.42-18.29-72.33-60.07h0Z" fill="#155a58" stroke-width="0"></path><path d="m1.17,3.83h40.53c.26,0,.46.2.46.46h0v171.1c0,.26.2.46.46.46h0l72.67.09c.26,0,.46.2.46.46h0v32.78c0,.26-.2.46-.46.46H1.26c-.26,0-.46-.2-.46-.46h0L.71,4.29c0-.26.2-.46.46-.46h0Z" fill="#155a58" stroke-width="0"></path><path d="m176.42,175.83l75.26.12c.28,0,.51.23.51.51h0v32.67c0,.28-.23.51-.51.51h-117.03c-.28,0-.51-.21-.51-.49h0V4.33c0-.28.23-.51.51-.51h114.21c.28,0,.51.23.51.51h0l.2,33.1c0,.28-.23.51-.51.51h-72.67c-.28,0-.51.23-.51.51h0l.05,47.23c0,.28.23.51.51.51h0l67.96.25c.28,0,.51.23.51.51h0v32.9c0,.28-.23.51-.51.51h-67.98c-.28,0-.51.23-.51.51h0v54.48c0,.28.23.51.51.51h0Z" fill="#155a58" stroke-width="0"></path><path d="m692.21,143.59V4.96c0-.75.38-1.13,1.13-1.13h36.39c.51,0,.77.26.77.77v204.28c0,.43-.34.77-.77.77h-45.87c-.51,0-.86-.25-1.03-.72l-50.08-141.99c-.08-.17-.28-.25-.44-.17-.11.05-.18.15-.2.28l-.41,141.75c0,.57-.29.86-.86.86h-36.39c-.51,0-.75-.26-.75-.77V4.59c-.02-.51.25-.77.75-.77h46.3c.49,0,.94.31,1.1.78l49.58,139.12c.06.21.28.34.49.28.18-.05.31-.23.29-.41h0Z" fill="#155a58" stroke-width="0"></path><path d="m801.53,175.83l75.27.12c.28,0,.49.21.49.49h0v32.75c0,.28-.21.49-.49.49l-117.05-.03c-.28,0-.49-.21-.49-.49V4.41c-.02-.28.2-.49.48-.49h0l114.43.28c.28,0,.49.21.49.49h0l-.14,32.76c0,.28-.21.49-.49.49h-72.51c-.28,0-.49.21-.49.49h0v47.39c0,.28.21.49.49.49h0l68.01.31c.28,0,.49.21.49.49h0v32.75c0,.28-.21.49-.49.49h-68.02c-.28,0-.49.21-.49.49h0l.03,54.52c0,.28.21.49.49.49h0Z" fill="#155a58" stroke-width="0"></path><path d="m572.96,208.3c-5.9-4.49-7.5-9.54-8.03-17.32-1.03-14.95-1.92-29.89-2.64-44.86-1.03-21.17-8.83-34.68-30.78-37.65-.23-.03-.41-.2-.46-.43-.06-.29.14-.57.43-.63,19.78-4.05,30.68-20.16,32.64-39.55,3.07-30.54-4.94-54.3-36.73-62.21-7.11-1.78-15.39-1.52-23.03-1.58-23.38-.2-46.79-.28-70.24-.26-.63,0-.95.32-.95.95l.08,203.99c0,.6.29.89.89.89h39.97c.51,0,.77-.26.77-.77v-84.79c0-.74.37-1.1,1.1-1.09,25.71.32,44.43-5.23,45.61,29.93.38,11.24.75,22.49,1.13,33.73.25,6.93.71,16.85,4.89,22.67.31.43.72.64,1.26.64l43.65-.29c.23,0,.44-.11.58-.29.26-.34.21-.81-.12-1.07h0Zm-49.85-148.4v8.46c.03,14.09-11.9,25.53-26.61,25.56l-20.68.05c-.52,0-.95-.43-.95-.95l-.09-57.58c0-.52.43-.95.95-.95l20.68-.05c14.72-.03,26.68,11.38,26.71,25.46h0Z" fill="#155a58" stroke-width="0"></path><path d="m1037.59,208.4c-8.05-6.82-7.79-13.64-8.52-25.53-.69-11.25-1.27-22.51-1.76-33.77-.97-22.38-7.16-37.28-31.69-40.67-.11-.02-.2-.09-.23-.21-.05-.15.05-.32.2-.35,31.27-8.34,38.57-39.68,32.19-67.91-5.57-24.73-26.31-35.72-50.45-35.72-26.18,0-52.2-.15-78.05-.54-.86,0-1.29.41-1.29,1.29v203.7c0,.64.32.97.97.97h39.15c.75,0,1.13-.38,1.15-1.13l.49-84.61c0-.49.26-.75.74-.78,25.54-1.98,44.89-3.02,45.85,28.76.38,12.19.8,24.39,1.24,36.58.25,6.68.64,14.76,4.52,20.5.29.43.77.69,1.29.69h43.74c.21,0,.4-.09.54-.25.25-.29.21-.74-.08-1h0Zm-49.63-140.96c0,14.38-11.85,26.05-26.46,26.05h-21.39c-.2,0-.35-.15-.35-.35v-58.32c0-.2.15-.35.35-.35h21.39c14.61,0,26.46,11.67,26.46,26.05v6.93Z" fill="#155a58" stroke-width="0"></path><path d="m418.56,208.5L364.58,4.5c-.11-.4-.46-.67-.87-.67h-50.07c-.41,0-.77.28-.87.67l-53.9,204s-.03.15-.03.23c0,.51.4.9.9.9h41.35c.41,0,.78-.29.87-.71l9.24-41.9c.09-.41.46-.71.87-.71h53.34c.43,0,.8.31.89.72l9.06,41.87c.09.41.46.72.89.72h41.44s.15,0,.23-.03c.49-.12.77-.63.64-1.1Zm-60.3-76.56h-38.95c-.28,0-.49-.23-.49-.49v-.11l19.42-90.48c.06-.26.34-.41.6-.35.17.05.31.18.35.35l19.42,90.48c.06.26-.11.52-.37.58h.02v.02Z" fill="#155a58" stroke-width="0"></path><path d="m838.2,670.38c0-.34-.25-.61-.58-.61-.21,0-.41.09-.52.28-16.31,23.85-33.68,38.95-63.02,44.14-53.93,9.5-110.79-3.07-135.02-57.4-9.52-21.36-15.58-44.43-18.14-69.22-5.23-50.42-6.13-101.67-2.73-153.72,5.15-79,28.58-157.25,121.14-166.61,28.62-2.88,59.34-1.3,86.72,8.16,54.84,18.95,72.54,75.1,71.93,127.76,0,.54-.28.8-.8.8h-82.39c-.55,0-.83-.28-.84-.83-.64-22.72-6.24-46.33-23.16-62.13-14.04-13.12-36.7-13.18-52.23-2.67-14.63,9.89-23.01,30.46-26.45,48.03-9.6,49.03-8.95,100.63-6.73,150.21,1.35,29.85,4.92,83.11,28.74,105.81,13,12.4,31.9,14.64,48.18,7.07,22.23-10.35,35.43-35.83,36.15-59.34.26-8.69.46-25.13.57-49.3,0-.52-.26-.78-.77-.78h-56.31c-.61,0-1.12-.51-1.12-1.12h0l.03-62.17c0-1,.49-1.49,1.49-1.49h139.85c.51,0,.77.26.77.77v233.41c0,.51-.26.77-.77.77h-63.18c-.48,0-.72-.23-.72-.71l-.11-39.09h0Z" fill="#155a58" stroke-width="0"></path><path d="m88.92,522.12v115.32c0,.48.38.86.86.86h160.02c.48.02.86.4.86.87v70.15c0,.48-.38.86-.86.86H1.78c-.48,0-.86-.38-.86-.86l.06-434.05c0-.48.38-.86.86-.86h241.82c.48,0,.86.38.86.86v70.34c0,.48-.38.86-.86.86H89.78c-.48,0-.86.38-.86.86v100.89c0,.48.4.86.87.86l144.67-.18c.48,0,.86.38.86.86v70.12c0,.48-.38.86-.86.86h0l-144.69.54c-.48,0-.86.38-.86.86Z" fill="#155a58" stroke-width="0"></path><path d="m1036.1,638.13h160.69c.29,0,.52.23.52.52h0v71.01c0,.29-.23.52-.52.52h-248.54c-.29,0-.52-.23-.52-.52l.09-434.53c0-.29.23-.52.52-.52l242.36-.2c.29,0,.52.23.52.52h0l-.14,71.01c0,.29-.23.52-.52.52h-154.47c-.29,0-.52.23-.52.52h0v101.55c0,.29.23.52.52.52h0l145.36.14c.29,0,.52.23.52.52h0v70.6c0,.29-.23.52-.52.52h0l-145.36.11c-.29,0-.52.23-.52.52h0v116.14c0,.29.23.52.52.52h0Z" fill="#155a58" stroke-width="0"></path><path d="m586.13,452.92c-2.77-69.65-14.44-153.57-96.29-173.37-21.51-5.2-43.85-5.2-65.86-4.98-41.44.4-83-.84-124.39,0-.43,0-.64.23-.64.67v434.15c0,.43.35.78.78.78,43.98.08,88.01.06,132.07-.02,22.14-.05,38.63-1.26,57.95-6.22,66.18-16.99,87.55-80.07,93.18-140.9,3.57-38.69,4.66-73.62,3.2-110.09h0v-.02Zm-89.91,109.23c-2.91,36.89-14.18,80.65-59.99,82.72-16.33.74-32.27.86-47.83.35-1.12-.05-1.69-.61-1.69-1.73v-303.15c0-.54.26-.83.8-.84,42.74-1.9,88.76-4.35,102.21,46.56,6.79,25.68,7.9,48.31,8.82,77.19,1.06,32.99.28,65.95-2.31,98.9Z" fill="#155a58" stroke-width="0"></path><rect y="768.05" width="1196.92" height="9.96" rx=".8" ry=".8" fill="#155a58" stroke-width="0"></rect><path d="m79.34,860.94v41.12c0,.29-.23.52-.52.52h-8.92c-.29,0-.52-.23-.52-.52h0v-91.71c0-.29.23-.52.52-.52h49.93c.29,0,.52.23.52.52h0v9.8c0,.29-.23.52-.52.52h0l-39.97.38c-.29,0-.52.23-.52.52v27.21c0,.29.23.52.52.52h34.6c.29,0,.52.23.52.52h0v10.07c0,.29-.23.52-.52.52h-34.6c-.29,0-.52.23-.52.52h0Z" fill="#155a58" stroke-width="0"></path><path d="m944.39,841.93c5.11-6.21,11.34-8.88,18.75-8,11.39,1.36,14.99,10.24,15.53,21.14.77,15.51.89,31.04.37,46.6-.02.6-.32.9-.92.9h-7.4c-.66,0-.97-.34-.95-1,.63-18.01.51-33.28-.34-45.82-.44-6.59-3.27-10.46-8.43-11.57-13-2.82-17.11,9.87-17.17,20.07-.09,12.53-.2,25.03-.31,37.56,0,.51-.28.77-.78.77h-7.14c-.8,0-1.2-.4-1.2-1.2v-90.4c0-.77.38-1.15,1.15-1.15h6.9c.77,0,1.15.38,1.15,1.15v30.66c0,.84.26.95.8.29Z" fill="#155a58" stroke-width="0"></path><path d="m714.17,844.08l-4.68.34c-.57.05-.84-.23-.84-.8v-6.96c0-.77.38-1.15,1.15-1.15h4.54c.66,0,1.2-.54,1.2-1.2h0v-15.16c.02-.49.25-.95.64-1.23l7.53-5.41c.57-.41.84-.26.86.44l.26,21.45c0,.61.51,1.1,1.12,1.1h7.24c.51,0,.77.26.77.77v6.9c0,.77-.38,1.15-1.15,1.15h-7.21c-.54,0-.81.26-.81.8-.06,13.02-.08,26-.03,38.95.02,5.75.92,10.47,8.22,8.17.49-.15,1.01.12,1.18.61.02.06.03.12.03.18l.9,8.42c.06.57-.18.92-.74,1.07-14.17,3.86-18.72-3.34-18.76-16.13-.05-13.72-.06-27.41,0-41.04,0-.71-.58-1.29-1.3-1.29h-.11Z" fill="#155a58" stroke-width="0"></path><path d="m274.68,843.45c5.69-9.12,16.68-12.31,26.05-7.02,9.44,5.34,9.05,14.47,9.21,25.94.2,13.05.21,26.12.05,39.22,0,.66-.35,1-1.01,1h-7.27c-.6,0-.89-.29-.89-.89.11-14.03.09-28.04-.08-42.02-.11-8.03-2.5-15.56-11.71-15.96-11.1-.48-14.13,11.73-14.18,20.63-.06,12.46-.08,24.94-.03,37.44,0,.54-.26.8-.8.8h-7.67c-.52,0-.78-.26-.78-.78l.05-65.38c0-.49.25-.75.72-.8l6.22-.55c.54-.05,1.01.35,1.07.89v.09l.03,7.11c0,.31.26.55.57.54.18,0,.35-.09.44-.25h0Z" fill="#155a58" stroke-width="0"></path><path d="m920.91,880.04c-1.36,26.87-36.15,33.42-44.47,7.44-5.43-16.92-5.44-46.91,15.9-52.61,14.32-3.82,25.99,4.88,27.73,19.47.06.52-.17.83-.67.9l-7.3,1.23c-.44.06-.86-.2-1-.61-1.96-6.65-5.46-13.46-13.15-12.71-20.47,2.01-20.22,49.23-1.09,51.28,9.55,1.03,13.78-7.17,15.16-15.67.09-.57.41-.8.97-.72l7.16,1.07c.54.08.8.4.77.94h0Z" fill="#155a58" stroke-width="0"></path><path d="m1070.84,843.17c0,.34.25.6.58.61.25,0,.48-.14.57-.37,3.83-8.63,11.13-13.09,19.53-6.33.44.35.64.94.49,1.49l-2.44,8.8c-.12.44-.38.55-.77.31-10.9-6.78-15.88,3.77-16.47,13.61-.78,13.41-.92,26.83-.41,40.24.03.69-.31,1.04-1.01,1.04h-7.59c-.41,0-.61-.2-.63-.61l-.26-65.71c0-.51.25-.75.75-.75h6.88c.51,0,.77.26.77.77v6.9Z" fill="#155a58" stroke-width="0"></path><path d="m1103.33,862.47c-6.94-11.22.46-26.6,14.15-28.3,14.17-1.76,22.63,4.03,25.4,17.4.11.51-.21,1-.74,1.12h-.03l-7.56,1.33c-.54.09-1.04-.26-1.13-.8v-.08c-1.49-14.53-24.79-12.08-23.36-.46.86,6.94,17.51,10.65,23.26,12.71,14.35,5.15,15.04,24.39,5.03,33.08-4.38,3.8-10.13,5.64-17.23,5.52-11.93-.21-19.15-7.17-21.65-20.88-.09-.51.11-.8.61-.89l7.91-1.52c.44-.09.89.21.97.66v.09c1.24,15.64,23.96,18.24,26.31,3.86,1.61-9.86-15.3-11.8-21.94-14.93-4.78-2.24-8.11-4.88-10-7.93h0Z" fill="#155a58" stroke-width="0"></path><path d="m236.01,894.33c-9.77,16.82-34.66,10.35-34.68-9.32-.03-16.24-.17-32.49-.4-48.78,0-.44.21-.66.64-.67l7.74-.17c.49,0,.74.23.72.72-.09,13.02.06,26,.44,38.97.2,6.27.38,9.75.57,10.47,2.94,11.53,17.22,10.58,22.35,1.69,1.58-2.74,2.45-6.19,2.59-10.35.48-13.48.48-26.98,0-40.49,0-.6.26-.89.86-.89h8.06c.51,0,.77.26.77.77v65.22c0,.6-.31.92-.92.94l-6.47.18c-.55.02-1.01-.41-1.03-.97v-.03l-.03-6.96c0-.35-.28-.66-.63-.66-.25,0-.48.12-.58.34h-.02Z" fill="#155a58" stroke-width="0"></path><path d="m640.68,887.53c.03.09.12.14.21.11.05-.02.09-.06.11-.11l14.99-51.14c.17-.58.57-.87,1.17-.87h7.05c1.03,0,1.4.49,1.1,1.49-7.04,23-13.95,45.59-20.71,67.81-3.51,11.51-6.85,27.46-23.18,24.28-.66-.12-1.15-.67-1.21-1.35l-.83-9.11c-.05-.41.28-.8.69-.83.11,0,.21,0,.32.03,12.08,4.25,17.09-11.38,14.33-20.24-6.33-20.42-12.69-40.81-19.1-61.17-.23-.71.03-1.07.78-1.09l8.03-.28c.63-.02,1.04.28,1.21.89l15.02,51.57h0Z" fill="#155a58" stroke-width="0"></path><path d="m373.24,809.83h-7.99c-.51,0-.77.26-.77.77v31.06c0,.12-.05.23-.14.29-.15.12-.4.09-.52-.06-8.86-11.22-22.61-10.23-30.55.71-9.26,12.76-8.72,32.76-3.33,46.18,6.18,15.35,22.8,21.25,34.48,6.93.11-.11.25-.17.4-.17.28.02.48.25.46.52l-.51,4.86v.15c0,.84.67,1.52,1.5,1.52h6.75c.48,0,.87-.4.87-.87l.05-91.17c0-.48-.23-.71-.71-.71h0Zm-22.38,84.95c-8.31.12-15.19-11.36-15.39-25.62-.2-14.27,6.38-25.92,14.67-26.05,8.31-.12,15.19,11.36,15.39,25.62.2,14.27-6.38,25.92-14.67,26.05h0Z" fill="#155a58" stroke-width="0"></path><path d="m157.67,834.17c-35.98,3.2-30.75,76.97,6.3,69.36,30.98-6.36,28.39-72.44-6.3-69.36Zm1.81,60.62c-9.08.03-16.48-11.53-16.53-25.82-.05-14.29,7.27-25.91,16.34-25.94,9.08-.03,16.48,11.53,16.53,25.82.05,14.29-7.27,25.91-16.34,25.94Z" fill="#155a58" stroke-width="0"></path><path d="m417.45,833.94c-35.18-1.59-37.3,68.34-2.05,69.78,13.14.54,21.52-6.29,25.19-20.5.15-.6-.08-.95-.71-1.04l-8.19-1.17c-.61-.08-1,.18-1.13.78-1.82,8-6.41,12.2-13.74,12.62-11.15.61-16.8-12.48-16.5-21.86,0-.37.2-.55.57-.57l39-.26c.71,0,1.07-.37,1.12-1.07.83-14.98-4.97-35.87-23.56-36.72h0Zm13.58,27.7v.28c0,.23-.18.41-.41.41h-29.22c-.23,0-.41-.18-.41-.41v-.28c0-10.01,6.64-18.14,14.82-18.14h.4c8.19,0,14.82,8.13,14.82,18.14h0Z" fill="#155a58" stroke-width="0"></path><path d="m501.11,809.83h-7.83c-.49,0-.74.25-.74.75l.23,30.92c0,.18-.09.35-.23.44-.26.18-.61.12-.8-.12-3.73-5.29-8.43-7.93-14.12-7.91-30.28,0-31.18,63.84-3.08,69.74,7.56,1.58,13.48-1.12,17.75-8.09.09-.17.28-.28.46-.26.28,0,.49.25.49.52l.03,5.63c0,.75.38,1.13,1.15,1.13h6.68c.64,0,.97-.32.97-.97v-90.82c0-.64-.32-.97-.97-.97h0Zm-22.05,84.92c-8.29.11-15.15-11.38-15.33-25.65s6.41-25.91,14.69-26.02c8.29-.11,15.15,11.38,15.33,25.65.17,14.27-6.41,25.91-14.69,26.02Z" fill="#155a58" stroke-width="0"></path><path d="m598.31,844c-7.37-12.4-22.67-13.25-31.92-2.81-.48.55-.72.46-.72-.28l.05-30.31c0-.52-.26-.78-.77-.78h-7.27c-.83,0-1.5.67-1.5,1.5l.08,90.54c0,.48.23.71.69.71h6.84c.77,0,1.15-.38,1.15-1.15v-5.73c0-.77.23-.84.69-.23,5.75,7.59,12.43,10.07,20.08,7.48,21.68-7.39,22.03-43.11,12.6-58.95h0Zm-19.04,50.77c-8.31-.14-14.87-11.79-14.64-26.05.23-14.26,7.14-25.71,15.45-25.57,8.31.14,14.87,11.79,14.64,26.05-.23,14.26-7.14,25.71-15.45,25.57Z" fill="#155a58" stroke-width="0"></path><path d="m763.85,834.85c-18.4,5.35-20.8,29.31-18.44,44.73,4.58,29.94,43.25,34.19,49.27,3.25.11-.48-.09-.75-.58-.81l-8.02-.98c-.55-.06-.9.17-1.07.71-7.7,24.25-31.32,10.72-30.26-9.14.02-.46.26-.69.72-.69h39.02c.48,0,.74-.23.77-.71,1.04-18.01-8.03-43.16-31.4-36.36h0Zm21.48,26.94v.26c0,.2-.15.35-.35.35l-29.5-.06c-.2,0-.35-.15-.35-.35v-.26c.02-10.06,6.65-18.2,14.82-18.18h.61c8.17,0,14.78,8.17,14.76,18.24h0Z" fill="#155a58" stroke-width="0"></path><path d="m1032.93,837.47c-15.09-10.15-32.27,1.47-36.06,17.2-4.25,17.68-2.04,47.59,22.86,49.01,13.48.78,22.03-6.1,25.65-20.63.14-.54-.08-.86-.61-.94l-7.94-1.1c-.58-.08-.97.15-1.15.71-8.42,24.5-30.95,10.67-30.57-9.14,0-.41.2-.61.61-.61l39.4-.15c.43,0,.66-.23.69-.64.9-12.25-2.53-26.74-12.88-33.7h0Zm2.82,24.25c0,.28-.23.51-.51.51l-28.97.21c-.28,0-.51-.23-.51-.51h0v-.37c-.08-9.92,6.52-18,14.73-18.06h.28c8.2-.06,14.9,7.93,14.98,17.84v.37h0Z" fill="#155a58" stroke-width="0"></path><path d="m858.97,901.94c-4.38-14.75-2.12-33.13-2.77-48.58-.49-11.28-5.17-18.35-16.88-19.33-14.49-1.23-26.75,3.91-28.47,19.81-.05.44.14.69.57.77l6.85,1.27c.66.12,1.3-.29,1.47-.95,4.49-18.44,31.21-14.43,26.92,4.58-.11.48-.41.78-.89.92-16.99,4.78-40.5,3.36-36.67,28.41,2.93,19.19,26.31,18.44,37.1,6.9,1.27-1.36,1.92-1.1,1.96.75.05,1.9.48,3.69,1.3,5.38.21.43.64.71,1.12.71h7.9c.44.03.61-.18.49-.63h0Zm-29.97-6.98c-9.61-.09-13.46-12.4-7.02-18.07,4.14-3.65,18.12-5.58,24.18-7.34.41-.12.63.03.67.46,1.07,12.83-3.31,25.1-17.83,24.96h0Z" fill="#155a58" stroke-width="0"></path><rect x="1163.97" y="889.55" width="10.73" height="13.03" rx=".9" ry=".9" transform="translate(-3.12 4.09) rotate(-.2)" fill="#155a58" stroke-width="0"></rect><rect x="258.9" y="935.33" width="13.43" height="9.2" rx=".8" ry=".8" transform="translate(-675.69 1200.62) rotate(-89.7)" fill="#155a58" stroke-width="0"></rect><rect x="742.38" y="933.38" width="9.2" height="92.72" rx=".4" ry=".4" fill="#155a58" stroke-width="0"></rect><rect x="1004.04" y="933.24" width="9.29" height="13.4" rx=".6" ry=".6" transform="translate(-9.79 10.61) rotate(-.6)" fill="#155a58" stroke-width="0"></rect><path d="m423.06,968.78l.2,43.63c0,1.99,1.63,3.62,3.62,3.62h5.03c.51,0,.78.25.83.74l.89,8.34c.08.69-.25,1.1-.94,1.23-15.5,2.67-18.6-3.85-18.63-17.58-.05-13.41-.11-26.83-.2-40.24,0-.51-.28-.77-.78-.77h-5.11c-.63,0-.95-.32-.95-.95v-6.71c0-.77.38-1.15,1.15-1.15h4.98c.51,0,.77-.26.77-.77v-15.27c0-.37.17-.71.48-.94l7.82-5.75c.6-.44.9-.29.9.46v21.49c0,.51.26.77.77.77h7.85c.64,0,.97.32.97.97v6.7c0,.77-.38,1.15-1.15,1.15h-7.45c-.58,0-1.04.46-1.04,1.04h0Z" fill="#155a58" stroke-width="0"></path><path d="m611.29,957.98v-13.54c.02-1.49.61-2.67,1.81-3.54l6.41-4.75c.66-.48,1-.31,1,.51v21.31c0,.63.32.95.97.95h7.57c.52,0,.8.26.81.78l.29,7.02c.03.54-.38.98-.92,1.01h-7.8c-.66,0-.98.34-.98,1l.2,43.66c0,.63.25,1.24.67,1.69,2.13,2.22,4.66,2.85,7.56,1.9.72-.23,1.12.02,1.2.77l.97,8.28c.06.55-.17.9-.71,1.04-16.82,4.49-18.73-5.79-18.92-18.96-.17-12.79-.18-25.51-.05-38.17,0-.71-.57-1.27-1.27-1.29h-.05l-4.84.12c-.54.02-.8-.23-.8-.77v-7.1c0-.55.46-1,1.01-1h.02l4.78.12c.58.02,1.06-.43,1.07-1.01v-.03h0Z" fill="#155a58" stroke-width="0"></path><path d="m1181.43,936.06h0c-10.3-.03-18.67,10.12-18.72,22.67s8.26,22.77,18.57,22.8,18.67-10.12,18.72-22.67c.05-12.56-8.26-22.77-18.57-22.8Zm-.06,41.59c-8.48,0-15.36-8.42-15.38-18.83h0c-.02-10.41,6.84-18.87,15.32-18.89s15.36,8.42,15.38,18.83h0c.02,10.41-6.84,18.87-15.32,18.89Z" fill="#155a58" stroke-width="0"></path><path d="m103.76,942.15c-7.28-8.4-16.02-8.25-28.51-8.66-7.27-.26-14.61-.32-22.05-.21-.72,0-1.07.37-1.07,1.09v91.23c0,.48.43.86.9.84,21.91-.8,48.86,5.64,58.06-22.43,6.07-18.5,6.06-46.44-7.33-61.86Zm.51,30l-.06,15.58c-.05,15.33-10.5,27.72-23.35,27.67l-17.28-.06c-.97,0-1.75-.78-1.75-1.75h0l.25-67.59c0-.97.78-1.73,1.75-1.73l17.28.06c12.85.05,23.21,12.49,23.16,27.83h0Z" fill="#155a58" stroke-width="0"></path><path d="m1189.56,969.94l-5.32-9.15c-.17-.28-.11-.49.18-.64,5.93-3.28,5.76-13.06-2.07-13.15-2.71-.05-5.49-.06-8.32-.08-.48,0-.86.4-.86.87v22.63c0,.77.38,1.15,1.15,1.15h.87c.6,0,.9-.29.95-.87l.54-7.99c.05-.67.41-1.29.98-1.66,1-.63,2.31-.34,2.94.66,2.1,3.33,3.86,6.35,5.26,9.03.64,1.24,1.76,1.41,3.36.48.54-.31.66-.74.34-1.27Zm-9.11-12.54h0l-3.13.08c-.54,0-.98-.43-1-.97h0l-.12-5.32c-.02-.54.41-1,.95-1.01h.02l3.13-.08c2.59-.06,4.71,1.3,4.75,3.02l.03,1.04c.05,1.73-2.02,3.17-4.61,3.23h-.02Z" fill="#155a58" stroke-width="0"></path><path d="m308.93,1027.42c-23.81-1.9-24.84-37.44-19.27-53.58,8-23.18,40.61-21.82,43.88,4.31.05.37-.12.58-.48.66l-7.37,1.46c-.49.09-.98-.2-1.1-.69-2.07-7.36-5.47-13.52-14.17-12.57-16.5,1.79-15.12,29.93-11.9,40.64,5.06,16.92,25.26,12.03,26.84-5.2.03-.41.41-.72.83-.67h.03l7.59,1.09c.57.08.83.41.77.98-1.46,13.83-10.69,24.76-25.65,23.58Z" fill="#155a58" stroke-width="0"></path><path d="m948.85,966.86c7.25-7.6,12.91-12.1,24.21-7.8,10.18,3.88,11.24,13.46,11.36,22.95.2,14.46.25,28.93.17,43.4,0,.77-.4,1.12-1.17,1.07l-7.5-.44c-.6-.05-.87-.35-.84-.94.66-15.05.57-30.09-.29-45.1-1.13-19.72-24.34-14.69-25.16,2.97-.86,18.53.66,31.21-.66,42.3-.06.48-.34.72-.81.72h-7.51c-.43,0-.64-.21-.64-.64l-.28-65.26c0-.78.38-1.17,1.17-1.17h6.35c.64,0,.97.32.95.97v6.7c-.02.66.21.75.66.28h0Z" fill="#155a58" stroke-width="0"></path><path d="m908.21,967.21c5.79-7.25,10.09-14.55,20.42-6.39.37.29.49.66.37,1.1l-2.42,8.54c-.14.48-.63.74-1.1.6-.02,0-.05,0-.06-.02-13.78-5.17-16.34,6.48-16.48,17.11-.17,12.31-.25,24.65-.23,36.99,0,.55-.28.84-.83.87l-7.33.46c-.69.05-1.04-.29-1.04-1l.03-65.61c0-.63.32-.95.95-.95h6.59c.71,0,1.03.35.98,1.06l-.55,6.96c-.06.84.17.94.71.28h0Z" fill="#155a58" stroke-width="0"></path><path d="m1041.7,966.81c11.13-16.14,34.69-10.61,35.23,10.15.48,18.78.6,35,.35,48.69,0,.57-.31.84-.87.81l-7.36-.35c-.67-.03-1.01-.38-1-1.06.28-16.94.14-31.95-.4-45.04-.84-20.07-25.46-13.89-25.46,2.39,0,14.36-.2,28.73-.58,43.11-.02.63-.34.92-.97.9l-7.28-.25c-.57-.02-.84-.31-.84-.87v-65.63c0-.54.26-.8.78-.78l6.59.09c.58,0,1.06.49,1.06,1.07v6.53c0,.87.25.95.75.23h0Z" fill="#155a58" stroke-width="0"></path><rect x="261" y="958.98" width="9.2" height="67.12" rx=".41" ry=".41" fill="#155a58" stroke-width="0"></rect><rect x="1004.14" y="958.94" width="9.2" height="67.12" rx=".41" ry=".41" transform="translate(-1.73 1.76) rotate(-.1)" fill="#155a58" stroke-width="0"></rect><path d="m170.26,963.46c-9.64-8.85-24.31-7.57-32.67,2.27-11.68,13.78-11.36,46.65,3.74,57.29,15.58,10.99,34.72,2.31,38.04-16.28.11-.57-.14-.9-.72-1l-7.73-1.13c-.48-.06-.78.14-.92.58-7.54,24.18-31.01,11.45-30.45-8.74.02-.6.32-.89.92-.89l38.74-.03c.54,0,.81-.26.83-.8.58-10.95-1.4-23.58-9.78-31.27h0Zm-.12,21.13c0,.87-.71,1.59-1.58,1.61h-.02l-27.07.18c-.87,0-1.58-.71-1.59-1.58v-.15c-.08-9.7,6.55-17.61,14.76-17.68h.49c8.22-.06,14.93,7.76,15.01,17.46v.15h0Z" fill="#155a58" stroke-width="0"></path><path d="m241.07,934.3c0-.46-.38-.84-.86-.84l-7.51.08c-.44,0-.78.37-.8.8l-.12,30.72c0,.12-.05.23-.14.31-.17.14-.41.12-.57-.05-14.55-16.85-32.22-4.25-36.01,13.14-3.16,14.52-2.61,36.3,11.24,45.53,8.89,5.92,19.12,4.6,25.14-4.46.09-.12.23-.2.38-.21.28-.02.52.2.54.48l.2,5.43c.03.78.43,1.17,1.21,1.17h6.15c.78,0,1.17-.38,1.17-1.15v-90.93h-.02Zm-22.92,84.1c-8.31.11-15.19-11.39-15.38-25.68s6.42-25.94,14.73-26.05,15.19,11.39,15.38,25.68c.17,14.29-6.42,25.94-14.73,26.05Z" fill="#155a58" stroke-width="0"></path><path d="m473.81,957.92c-13.14-3.17-25.22,6.81-28.51,19.38-3.83,14.56-3.33,40.07,12.82,47.75,15.48,7.37,30.19-.57,35.17-17,.38-1.27-.09-2.02-1.4-2.24l-7.11-1.17c-.48-.08-.8.11-.97.57-9.15,24.33-31.17,10.84-30.65-9.01,0-.52.28-.78.78-.78l39.09-.14c.64,0,.97-.32.98-.95.43-14.27-4.12-32.53-20.21-36.41h0Zm10.29,26.54v.08c0,.83-.66,1.49-1.49,1.49l-27.26.09c-.83,0-1.49-.66-1.49-1.49v-.08c-.03-9.63,6.61-17.46,14.82-17.49h.46c8.22-.03,14.92,7.76,14.95,17.4h0Z" fill="#155a58" stroke-width="0"></path><path d="m554.02,933.58l-7.71-.44c-.52-.03-.78.21-.78.74l.11,30.74c0,1.04-.32,1.17-1.01.38-13.69-15.73-31.46-4.6-35.57,12.02-2.91,11.79-2.82,27.96,3.39,38.91,7.67,13.49,23.99,16.22,33.33,2.9.05-.06.12-.11.21-.11.14,0,.26.11.25.25l-.11,6.21c0,.51.23.78.74.81l6.45.51h.11c.86,0,1.55-.69,1.55-1.53v-90.36c0-.64-.32-.98-.95-1.01h0Zm-22.14,84.81c-8.31.11-15.18-11.38-15.36-25.65-.17-14.27,6.42-25.91,14.72-26.02,8.31-.11,15.18,11.38,15.36,25.65.17,14.27-6.42,25.91-14.72,26.02Z" fill="#155a58" stroke-width="0"></path><path d="m672.38,958.31c-14.12-4.03-26.64,5.41-30.14,19.3-2.76,10.99-2.44,21.89.98,32.7,8.14,25.79,41.5,21.17,47-3.5,3.63-16.36,2.56-42.7-17.84-48.51Zm-6.22,60.1c-9.06.02-16.43-11.53-16.47-25.79s7.31-25.83,16.37-25.85c9.06-.02,16.43,11.53,16.47,25.79s-7.31,25.83-16.37,25.85Z" fill="#155a58" stroke-width="0"></path><path d="m800.75,958.57c-10.59-3.8-23.24,2.31-28.15,11.87-5.79,11.33-5.98,28.67-1.32,41.06,8.8,23.43,43.74,20.7,46.73-4.68.06-.54-.31-1.03-.84-1.1l-7.73-1.17c-.4-.05-.77.18-.89.55-7.74,24.44-31.08,11.31-30.72-8.83,0-.6.32-.9.92-.9l38.37.43c.89,0,1.36-.43,1.44-1.32,1-13.55-3.37-30.72-17.81-35.9h0Zm7.93,25.95c0,.92-.75,1.67-1.67,1.67l-26.89-.09c-.92,0-1.67-.75-1.67-1.67v-.14c.03-9.57,6.71-17.31,14.95-17.28h.46c8.22.03,14.86,7.8,14.82,17.37v.14h0Z" fill="#155a58" stroke-width="0"></path><path d="m1140.56,958.92h-6.61c-.55,0-1,.44-1.01,1l-.03,5.15c0,.95-.31,1.06-.94.34-6.45-7.5-13.81-9.69-22.11-6.59-20.54,7.7-20.45,44.17-9.37,58.92,7.54,10.06,22.83,11.84,30.55.9.09-.14.26-.21.41-.2.28,0,.48.25.48.51-.2,4.77.17,10.09-1.03,14.29-3.62,12.86-24.54,15.84-26.6,1.06-.08-.57-.52-1.03-1.07-1.1l-7.44-1.12c-.58-.08-.87.17-.87.75-.06,13.18,8.4,19.99,21.03,20.54,20.7.9,25.45-15.93,25.4-33.05-.05-20.16-.05-40.35.02-60.56,0-.55-.28-.83-.83-.83h0Zm-22.77,58.04c-8.45.03-15.35-11.18-15.39-25.05-.05-13.86,6.76-25.13,15.21-25.14,8.45-.03,15.35,11.18,15.39,25.05.05,13.86-6.76,25.13-15.21,25.14Z" fill="#155a58" stroke-width="0"></path><path d="m394.75,1025.35c-.72-3.62-2.07-7.17-2.08-10.76-.09-12.94-.26-25.86-.52-38.79-.18-9.37-4.71-15.13-13.55-17.26-14.81-3.59-29.89,1.76-31.95,18.49-.08.66.37,1.26,1.01,1.36l6.87,1.15c.51.09.81-.12.92-.63,3.66-17.98,29.45-16.14,27.27,3.65-.09.75-.61,1.36-1.33,1.53-8.37,2.08-22.09,3.14-28.68,7.86-11.5,8.25-11.28,30.31,4.09,34.83,10.36,3.05,18.18-1.64,26.09-7.97.48-.37.77-.26.87.32l1.26,6.09c.08.4.43.71.84.71l8.26.18c.52,0,.74-.25.63-.77h0Zm-35.72-8.46c-1.75-.57-3.02-2.22-3.8-5-2.45-8.74,2.04-12.8,10.21-14.5,5.53-1.15,10.98-2.58,16.34-4.31.43-.14.66,0,.67.46.8,15.27-5.03,29.24-23.43,23.35h0Z" fill="#155a58" stroke-width="0"></path><path d="m882.24,1025.07c-3.02-12.34-2.54-25.51-2.53-38.17,0-8.75-.28-14.38-.86-16.89-2.76-11.99-17.28-14.09-27.66-11.8-10.07,2.22-15.76,8.55-17.08,19.03-.08.55.17.87.74.98l7.02,1.24c.44.08.75-.09.92-.52l3.28-8.11c.08-.15.18-.31.34-.41,11.22-7.79,25.71-3.34,23.87,12.48-.06.54-.35.87-.87,1.01-17.28,4.75-41.42,3.68-36.72,29.59,3.51,19.38,27.41,16.33,37.58,4.97.08-.08.17-.12.26-.15.26-.06.52.11.58.38l1.41,6.41c.11.52.58.9,1.12.9h7.88c.63,0,.86-.31.72-.92h0Zm-12.79-19.52c-2.47,10.39-14.26,16.54-23.87,10.72-.54-.32-.95-.77-1.26-1.32-6.15-11.07.46-15.9,10.46-18,5.01-1.06,9.95-2.38,14.81-3.97.48-.14.72.03.74.51.2,4.74-.09,8.77-.87,12.07h0Z" fill="#155a58" stroke-width="0"></path><rect x="1162.33" y="1014.27" width="13.28" height="10.73" rx=".81" ry=".81" transform="translate(137.14 2177.87) rotate(-89.4)" fill="#155a58" stroke-width="0"></rect><rect y="1070.07" width="1196.92" height="10" rx=".86" ry=".86" fill="#155a58" stroke-width="0"></rect></svg>