<svg xmlns="http://www.w3.org/2000/svg" id="Layer_1" width="1608.23" height="209.21" viewBox="0 0 1608.23 209.21"><path d="m103.54,76.34s-.01.05-.02.07l-42.38.11c-.38,0-.57.19-.57.57l.15,55.88c-.59-.05-.9.04-.94.26H1.07c-.58,0-1.05-.47-1.05-1.05H.02C.07,107.5.06,82.62,0,57.54c-.02-8.05.43-14.06,1.36-18.01,2.55-10.91,8.14-19.98,16.77-27.19C50.54-14.76,99.39,5.36,103.17,47.59c.85,9.49.97,19.07.37,28.75Z" fill="#415182" stroke-width="0"></path><path d="m222.47,76.48l-42.39.07c-.35,0-.52.17-.52.51-.03,15.8-.04,31.6-.02,47.39,0,2.51.49,5.5-.27,8.56,0,.07,0,.13.02.19l-15.9-.06-.06-55.95c0-.35-.18-.54-.53-.57-4.33-.33-8.67-.44-13.01-.33-9.77.26-20.02-.48-29.65.73.19.15.23-.06.12-.63-.03-.25-.01-.48.06-.7.08-.25.12-.5.11-.76-.42-21.64-1.61-42.68,14.86-59.62,31.42-32.35,87.41-10.02,87,35.28-.08,8.78-.02,17.41.18,25.89h0Z" fill="#415182" stroke-width="0"></path><path d="m807.98,66.43c3.9-6.43,16.52-5.8,22.83-4.47,8.05,1.7,8.83,9.81,7.57,16.36-1.93,10.11-17.46,8.59-24.61,6.93-8.66-2.01-9.52-12.69-5.79-18.82h0Z" stroke-width="0"></path><path d="m1290.66,79.74c-3-8.05-.29-17.02,9.15-18.03,8.59-.93,20.93-1.89,22.38,8.68.98,7.16-.24,13.99-8.64,15.36-6.55,1.06-19.98,1.83-22.89-6.01Z" stroke-width="0"></path><path d="m1583.58,118.38c.07.12.23.15.35.07.07-.04.11-.12.11-.2v-56.76c0-.33.17-.5.5-.5h23.1c.39,0,.59.2.59.6l-.23,144.42c0,.32-.16.48-.48.48h-7.7c-.29,0-.48-.14-.58-.41l-6.95-18.9c-.18-.5-.42-.53-.72-.09-4.53,6.56-9.26,12.6-16.56,16.28-8.83,4.44-21.21,5.17-31.47,4.58-21.78-1.27-34.69-20.89-37.23-41.22-4.57-36.57,10.39-73.74,54.73-65.33,9.87,1.87,17.49,8.58,22.54,16.98h0Zm-24.96,3.04c-8.87.01-19.14,1.53-22.91,10.74-5.99,14.65-6.3,29.26-.93,43.81,4.26,11.53,16.68,14,27.49,12.72,8.23-.98,14.46-3.13,17.92-10.76,5.57-12.31,4.48-29.42,1.2-42.02-3.1-11.92-11.57-14.5-22.77-14.49h0Z" stroke-width="0"></path><path d="m549.23,65.93c4.06-5.89,17.43-5.45,23.57-3.74,7.79,2.16,8.4,13.28,5.68,18.98-3.12,6.53-17.39,5.43-23.18,4.3-9.27-1.81-10.31-13.41-6.07-19.54Z" stroke-width="0"></path><path d="m445.28,176.97c.06.18.26.27.43.21.1-.03.17-.11.21-.21l40.53-100.95c.14-.35.4-.53.78-.53h39.81c.33,0,.5.17.5.5v131c0,.33-.17.5-.5.5h-25.5c-.33,0-.5-.17-.5-.5v-106.95c0-.16-.12-.28-.28-.28-.12,0-.22.07-.27.18l-41.16,107.03c-.13.35-.39.52-.76.52h-26.19c-.34,0-.57-.16-.69-.47l-41.17-107.04c-.32-.83-.48-.8-.48.09v106.92c0,.33-.17.5-.5.5h-24.75c-.33,0-.5-.17-.5-.5V75.99c0-.33.17-.5.5-.5h39.97c.29,0,.48.13.59.4l39.93,101.08h0Z" stroke-width="0"></path><path d="m103.52,76.41v56.02c0,.35-.19.53-.54.53h-42.26l-.15-55.87c0-.38.19-.57.57-.57,0,0,42.38-.11,42.38-.11Z" fill="#194260" stroke-width="0"></path><path d="m103.54,76.34l16.72.05c.11.57.07.78-.12.63l-.06,55.42c0,.35.17.52.52.53h42.18c.09.44.24.82.47,1.15.19.27.29.58.29.92,0,10.02.65,21.7-.89,30.52-3.85,22.09-19.99,38.82-42.07,42.69-26.11,4.59-52.32-12.47-58.75-38.32-2.57-10.36-1.58-24.58-1.53-36.38,0-.15-.11-.29-.26-.31-.11,0-.19-.02-.26,0,.04-.22.35-.31.94-.26h42.26c.35,0,.53-.19.53-.54v-56.02s.02-.04.03-.07h0Z" fill="#5dcebc" stroke-width="0"></path><path d="m163.39,133.14c.35-.16.14-.21-.61-.16h-42.18c-.35-.02-.52-.19-.52-.54l.06-55.42c9.63-1.21,19.88-.47,29.65-.73,4.34-.11,8.68,0,13.01.33.35.03.53.22.53.57l.06,55.95h0Z" fill="#194260" stroke-width="0"></path><path d="m222.47,76.48l.58,53.02-.27,2.96c-.03.34-.22.51-.56.51l-42.95.04c.76-3.06.27-6.05.27-8.56-.02-15.79,0-31.59.02-47.39,0-.34.17-.51.52-.51l42.39-.07h0Z" fill="#194260" stroke-width="0"></path><path d="m179.29,133.2c0-.06,0-.12-.02-.19l42.95-.04c.34,0,.53-.17.56-.51l.27-2.96v-.69c-.19-17.44-.38-34.89-.57-52.33.75-.01,1.51-.02,2.26-.03h.71l57.84-.21c.07,0,.31.01.51.19.01,0,.25.24.25.57h0v78.64c.01,27.36-19.26,50.15-46.88,53.14-24.76,2.68-48.3-13.7-55.03-37.33-1.15-4.05-1.8-9.63-1.93-16.76-.13-6.98-.14-13.97-.04-20.98,0-.06,0-.21-.1-.34-.16-.19-.47-.21-.77-.17h0Z" fill="#5dcebc" stroke-width="0"></path><path d="m1223.36,179.72c.06.16.23.25.39.19.09-.03.17-.11.2-.2l26.83-102.83c.11-.43.38-.64.82-.64h25.17c.25,0,.46.21.46.45,0,.04,0,.09-.02.13l-38.15,130.66c-.15.51-.48.76-1.01.76h-31.75c-.3,0-.49-.14-.57-.43l-29.34-103.1c-.05-.16-.23-.25-.39-.2-.09.03-.17.1-.2.2l-29.33,103.01c-.09.35-.32.52-.68.52h-32.71c-.33,0-.61-.21-.71-.53l-38.24-130.97c-.09-.33.03-.5.38-.5h27.01c.35,0,.56.17.65.51l26.95,103.23c.13.51.28.52.43,0l31.36-103.6c.02-.09.1-.15.2-.15h31.21c.37,0,.61.18.72.54l30.32,102.94h0Z" stroke-width="0"></path><path d="m591.73,122.97c4.78-17.17,25.25-21.69,40.19-22.49,23.41-1.26,50.64,4.84,51.51,34.09,0,.28-.13.42-.41.42h-21.99c-.32,0-.61-.18-.75-.46-.49-.97-.9-1.95-1.24-2.95-2.2-6.53-6.7-10.48-13.5-11.84-7.41-1.49-14.25-1.4-20.51.27-6.24,1.67-11.28,8.29-9.13,14.72,2.31,6.93,17.35,8.83,27.26,11.06,10.9,2.46,20.75,5.14,30.06,8.52,7.62,2.76,12.13,8.66,13.27,16.84,5.08,36.58-44.2,40.21-67.55,34.86-17.9-4.1-29.39-14.12-30-33.4,0-.41.2-.62.61-.62h23.95c.21,0,.32.1.35.31,2.15,18.34,24.46,19.71,38.19,15.39,6.22-1.96,11.42-6.76,9.34-13.83-.92-3.09-4.19-5.79-7.06-6.72-15.69-5.07-35.31-7.89-51.22-14.18-12.3-4.87-14.54-18.6-11.37-29.99h0Z" stroke-width="0"></path><path d="m698.41,133.89c-1.48-32.44,37.21-35.88,59.33-32.66,19.23,2.8,32.32,12.38,33.63,33.13.03.42-.17.63-.58.63h-22.25c-.35,0-.57-.17-.64-.51-1.77-8.44-6.74-13.4-14.91-14.88-10.08-1.82-27.46-1.92-29.67,10.44-1.13,6.3,3.49,9.69,9.29,11.2,11.68,3.06,24.88,5.72,35.18,8.62,12.98,3.67,24.55,6.66,26.44,21.49,2.64,20.75-13.41,32.02-31.86,35.37-24.92,4.52-65.35.5-65.5-34.28,0-.3.14-.45.44-.45h23.5c.43,0,.67.21.72.63,2.06,16.8,21.28,18.59,34.52,16.06,5.8-1.11,11.87-3.75,13.51-9.73,1.6-5.88-3.04-10.21-8.58-12.18-12.32-4.4-33.09-7.58-49.93-13.81-8.15-3.01-12.26-10.55-12.64-19.07h0Z" stroke-width="0"></path><path d="m1355.17,121.17c.25.61.58.65.97.11,8.87-12.1,19.34-22.25,35.66-19.89.39.06.59.29.59.68l.16,20.34c0,.43-.21.62-.64.57-6.32-.66-12,.37-17.04,3.09-9.57,5.16-10.97,14.88-11.07,24.74-.18,18.73-.28,37.46-.3,56.19,0,.33-.16.49-.48.49h-23.73c-.33,0-.5-.17-.5-.5v-103.75c0-.33.17-.5.5-.5h7.69c.35,0,.58.16.71.48l7.48,17.95h0Z" stroke-width="0"></path><path d="m853.39,133.08c7.94-29.26,39.1-35.09,64.58-30.2,34.26,6.57,39.53,39.74,34.09,68.78-6.07,32.4-36.49,41.42-65.03,35.77-18.95-3.75-30.49-15.07-34.63-33.96-2.97-13.56-2.64-27.02.99-40.39Zm36.43-9.83c-12.15,4.61-14.82,17.12-15.26,28.61-.61,15.83,3.15,32.44,21.35,35.64,3.66.64,9.67.49,13.13-.25,21.79-4.67,22.06-28.51,18.71-45.98-1.45-7.59-5.16-13.08-11.11-16.46-7.2-4.08-19.04-4.52-26.82-1.56Z" stroke-width="0"></path><path d="m987.51,121.4c7.1-9.49,13.28-15.93,25.36-18.5,7.58-1.61,15.22-1.99,22.92-1.14,9.54,1.05,22.59,6.27,26.63,15.83,3.09,7.32,4.66,15.02,4.72,23.09.17,22.11.21,44.22.12,66.33,0,.32-.16.48-.48.48h-23.72c-.28,0-.5-.22-.5-.5-.04-19.87-.05-39.7-.02-59.49.02-10.69-2.63-23.17-15.17-25.34-5.86-1.02-12.41-1.03-17.78.27-12.32,2.98-14.64,15.87-14.61,26.81.05,19.25.07,38.49.06,57.74,0,.34-.17.51-.51.51h-23.74c-.33,0-.5-.17-.5-.5v-103.75c0-.33.17-.5.5-.5h7.67c.34,0,.58.16.71.47l7.54,18.09c.21.51.47.54.8.1h0Z" stroke-width="0"></path><path d="m1409.23,117.18c12.34-15.05,34.63-17.91,52.88-14.81,30.85,5.24,38.95,33.98,36.33,61.22-.03.27-.17.4-.44.4h-72.95c-.29,0-.53.24-.52.54v.06c.19,1.5.38,3.05.58,4.64,2.1,16.61,16.16,24,31.66,20.5,6.36-1.44,10.91-5.05,13.66-10.83.13-.27.34-.41.64-.41h26.22c.25,0,.45.2.45.45,0,.04,0,.08-.01.11-7.02,29-34.95,32.58-60.43,29.04-29.69-4.14-39.86-27.94-39.03-55.19.41-13.37,2.74-25.71,10.96-35.72h0Zm15.15,29.07h46.84c.17,0,.3-.13.3-.3v-3.26c0-12.54-9.59-22.7-21.42-22.7h-4.6c-11.83,0-21.42,10.16-21.42,22.7v3.26c0,.17.13.3.3.3Z" stroke-width="0"></path><rect x="551.04" y="102.74" width="24.74" height="104.74" rx=".27" ry=".27" stroke-width="0"></rect><rect x="810.04" y="102.74" width="25" height="104.76" rx=".26" ry=".26" stroke-width="0"></rect><rect x="1293.54" y="102.74" width="24.76" height="104.74" rx=".26" ry=".26" stroke-width="0"></rect></svg>