<svg xmlns="http://www.w3.org/2000/svg" id="Layer_1" width="1200" height="373.9" viewBox="0 0 1200 373.9"><polygon points="185.33 211.34 56.05 41.36 0 41.36 0 317.46 59.95 317.46 59.95 142.02 193.65 317.46 245.28 317.46 245.28 41.36 185.33 41.36 185.33 211.34" fill="#009f58" stroke-width="0"></polygon><polygon points="583.68 40.45 465.33 318.37 527.24 318.37 610.86 113.41 694.48 318.37 757.95 318.37 639.6 40.45 583.68 40.45" fill="#009f58" stroke-width="0"></polygon><path d="m1112.34,152.16c-47.73-12.22-59.56-18.08-59.56-36.28v-.78c0-13.4,12.23-24.06,35.5-24.06s47.34,10.27,71.79,27.18l31.6-45.78c-27.96-22.5-62.3-35.11-102.48-35.11-56.44,0-96.63,33.16-96.63,83.23v.78c0,54.88,35.89,70.23,91.43,84.4,46.17,11.83,55.66,19.77,55.66,35.11v.78c0,16.13-14.96,26.01-39.8,26.01-31.6,0-57.61-13.01-82.45-33.55l-35.89,42.92c33.16,29.52,75.3,44.22,117.18,44.22,59.56,0,101.31-30.69,101.31-85.57v-.78c-.13-47.99-31.73-68.02-87.66-82.71h0Z" fill="#009f58" stroke-width="0"></path><rect x="362.72" width="7.54" height="373.9" fill="#a3abb7" stroke-width="0"></rect><rect x="861.99" width="7.54" height="373.9" fill="#a3abb7" stroke-width="0"></rect></svg>