<svg xmlns="http://www.w3.org/2000/svg" id="Layer_1" width="1200" height="162.27" viewBox="0 0 1200 162.27"><path d="m270.31,77.93s-22.29-.05-44.94-.59c-18.52-.44-36.98-6.24-51.27-18.49-13.44-11.54-37.12-10.93-37.12-10.93H43.05l-18.64,36.45h112.57s36.5.44,44.94.59c9.93.17,20.49,3.04,30,5.55,7.85,2.07,15.19,7.74,21.27,12.94,13.44,11.54,37.12,10.93,37.12,10.93h74.16l18.77-36.45h-92.93Z" fill="#5e69ff" stroke-width="0"></path><path d="m99.65,36.46s22.29.05,44.94.59c18.52.44,36.98,6.24,51.27,18.49,13.44,11.54,37.12,10.93,37.12,10.93h135.92l18.64-36.45h-154.57s-36.5-.44-44.94-.59c-9.93-.17-20.49-3.04-30-5.55-7.85-2.07-15.19-7.74-21.27-12.94C123.33-.59,99.65,0,99.65,0h-32.1l-18.65,36.45h50.75Z" fill="#5e69ff" stroke-width="0"></path><path d="m263.36,125.24c-18.52-.44-36.98-6.24-51.27-18.49-13.44-11.54-37.12-10.93-37.12-10.93H18.56L0,132.26h174.98s36.5.44,44.94.59c9.93.17,20.49,3.04,30,5.55,7.85,2.07,15.19,7.74,21.27,12.94,13.44,11.54,36.26,10.93,36.26,10.93h12.47l18.42-36.45s-52.31-.05-74.96-.59h-.02Z" fill="#5e69ff" stroke-width="0"></path><path d="m569.15,73.18c0,13.3-5.15,21.88-15.44,25.76l20.54,29.67h-22.28l-17.99-26.47h-12.54v26.47h-18.11V45.64h30.76c12.61,0,21.61,2.18,26.99,6.53s8.07,11.35,8.07,21.01h0Zm-21.82,9.85c2.24-2.06,3.37-5.32,3.37-9.79s-1.16-7.54-3.48-9.2c-2.33-1.66-6.38-2.49-12.19-2.49h-13.58v24.57h13.24c6.19,0,10.41-1.03,12.65-3.08h-.01Z" fill="#28255e" stroke-width="0"></path><path d="m661.32,45.64h18.11v82.97h-18.11v-32.64h-32.27v32.64h-18.11V45.64h18.11v34.66h32.27v-34.66Z" fill="#28255e" stroke-width="0"></path><path d="m790.85,117.16c-8.2,8.19-18.3,12.28-30.29,12.28s-22.09-4.09-30.29-12.28c-8.2-8.19-12.3-18.38-12.3-30.56s4.1-22.38,12.3-30.56c8.2-8.19,18.3-12.28,30.29-12.28s22.09,4.09,30.29,12.28c8.2,8.19,12.3,18.38,12.3,30.56s-4.11,22.38-12.3,30.56Zm-6.15-30.5c0-7.4-2.32-13.71-6.96-18.93s-10.35-7.84-17.12-7.84-12.48,2.61-17.12,7.84c-4.64,5.22-6.96,11.54-6.96,18.93s2.32,13.69,6.96,18.87,10.35,7.78,17.12,7.78,12.48-2.59,17.12-7.78c4.64-5.18,6.96-11.48,6.96-18.87Z" fill="#28255e" stroke-width="0"></path><path d="m903.67,56.51c7.74,7.24,11.61,17.31,11.61,30.21s-3.77,23.11-11.31,30.63-19.06,11.28-34.53,11.28h-27.74V45.65h28.67c14.47,0,25.57,3.62,33.31,10.86h0Zm-13.29,49.32c4.45-4.27,6.68-10.48,6.68-18.63s-2.22-14.42-6.68-18.82c-4.45-4.39-11.28-6.59-20.48-6.59h-10.1v50.45h11.49c8.28,0,14.64-2.14,19.09-6.41h0Z" fill="#28255e" stroke-width="0"></path><path d="m954.16,45.64h18.11v82.97h-18.11V45.64Z" fill="#28255e" stroke-width="0"></path><path d="m1073.25,128.62l-7.54-17.93h-34.01l-7.54,17.93h-19.27l35.05-82.97h17.53l35.05,82.97h-19.27Zm-24.49-58.28l-10.21,24.09h20.31l-10.1-24.09h0Z" fill="#28255e" stroke-width="0"></path><path d="m1181.89,45.64h18.11v82.97h-18.11l-38.65-51.99v51.99h-18.11V45.64h16.95l39.81,53.42v-53.42Z" fill="#28255e" stroke-width="0"></path></svg>