<svg xmlns="http://www.w3.org/2000/svg" id="Layer_1" width="1200" height="230.49" viewBox="0 0 1200 230.49"><path d="m312.38,226.5c48.47,12.88,97.9-6.35,125.47-44.34l-33.5-23.68c-17.84,24.65-49.81,37.11-81.18,28.73l-10.75,39.29h-.05,0Z" fill="#e6d11c" stroke-width="0"></path><path d="m231.76,151.06l39.15-12.83c6.39,19.27,20.57,35.58,39.99,44.48l-17.24,36.93c-29.93-13.67-51.99-38.87-61.9-68.57h0Z" fill="#f0e17d" stroke-width="0"></path><path d="m269.85,95.83c-3.98,14.46-3.29,29.1,1.11,42.4l-39.15,12.83c-6.81-20.62-7.92-43.32-1.76-65.79,6.3-23.12,19.32-42.63,36.42-57.18l27.01,30.72c-11.07,9.41-19.51,22.05-23.58,37.02" fill="#e6b53c" stroke-width="0"></path><path d="m362.56,43.24c-12-3.2-24.09-3.29-35.45-.93l-8.48-39.75c17.51-3.71,36.19-3.52,54.67,1.39,16.54,4.4,31.23,12.19,43.65,22.19l-26.32,31.32c-8.02-6.44-17.47-11.44-28.12-14.22" fill="#e6d11c" stroke-width="0"></path><path d="m404.54,72.06l33.78-23.26c9.27,12.97,15.71,27.75,18.95,43.41l-40.45,7.92c-2.13-10.1-6.3-19.69-12.28-28.08h0Z" fill="#e6b53c" stroke-width="0"></path><path d="m293.39,58.77l-27.01-30.72c14.87-12.65,32.9-21.41,52.26-25.48l8.48,39.75c-12.46,2.64-24.09,8.34-33.68,16.45" fill="#f0e17d" stroke-width="0"></path><path d="m415.89,134.62c3.2-11.63,3.34-23.4.97-34.47l40.45-7.92c3.57,17,3.38,35.07-1.58,52.96-3.75,13.67-9.92,26.04-17.79,36.93l-33.5-23.68c5.1-7,9.13-15.01,11.49-23.82h-.05,0Z" fill="#f0e17d" stroke-width="0"></path><path d="m390.64,57.47l26.32-31.32c8.15,6.63,15.43,14.22,21.41,22.66l-33.78,23.26c-3.94-5.47-8.62-10.29-13.9-14.6h-.05Z" fill="#f0e17d" stroke-width="0"></path><path d="m312.38,226.5c-6.53-1.76-12.79-4.12-18.72-6.86l17.24-36.93c3.89,1.81,7.92,3.34,12.28,4.49l-10.75,39.29h-.05Z" fill="#e6b53c" stroke-width="0"></path><path d="m97.25,173.86c-11.35,8.57-25.67,12.05-42.21,12.05s-35.63-4.49-55.04-18.77l20.71-34.66c13.25,10.98,31.88,15.29,38.09,15.29s10.56-1.81,10.56-5.88-5.14-5.75-10.38-7.37c-5.19-1.39-16.54-5.1-20.71-6.53-4.12-1.62-12.37-4.31-19.65-10.38-7.23-6.12-13.02-14.73-13.02-29.98s8.06-27.15,16.54-34.06c8.71-7.14,22.94-12.23,42.02-12.23s38.46,6.72,50.87,16.96l-17.79,32.62c-10.75-9.41-26.5-13.48-33.92-13.48s-11.58,1.44-11.58,5.75,6.63,5.47,9.92,6.53c3.29,1.02,12,3.48,17,5.1,4.96,1.62,16.54,5.7,23.82,11.82,7.23,6.12,13.48,15.71,13.48,30.58s-7.23,27.94-18.63,36.7" fill="#1e1e1e" stroke-width="0"></path><path d="m242.56,128.41c-10.38,8.15-24.19,11.21-39.71,11.21h-15.29v43.88h-46.75V42.74h62.09c15.52,0,29.38,3.06,39.71,11.21,10.38,8.15,16.12,20.39,16.12,37.3s-5.79,28.96-16.12,37.11m-36.23-48.33c-3.1-2.27-6.21-2.69-11.35-2.69h-7.65v27.57h7.65c5.19,0,8.29-.42,11.35-2.46,3.29-2.22,5.19-5.7,5.19-11.21s-2.09-9.17-5.19-11.21" fill="#1e1e1e" stroke-width="0"></path><path d="m557.21,78.64h-33.73v104.81h-46.75v-104.81h-33.5v-35.86h114.03v35.86h-.05Z" fill="#1e1e1e" stroke-width="0"></path><path d="m671.42,183.45h-95.22V42.78h46.57v102.95h48.65v37.72Z" fill="#1e1e1e" stroke-width="0"></path><path d="m738.24,42.78h-46.75v140.72h46.75V42.78Z" fill="#1e1e1e" stroke-width="0"></path><path d="m905.18,160.01c-11.35,10.19-27.94,25.72-66.21,25.72s-75.52-22.66-75.52-72.61,37.25-72.42,76.54-72.42,55.88,20.43,60,24.46l-31,25.53c-3.1-3.06-12.42-12.23-28.96-12.23s-29.61,12.23-29.61,34.7,13.02,34.66,29.61,34.66,19.65-5.05,19.65-5.05v-10.19h-21.73v-34.06h67.23v61.58h0v-.09h0Z" fill="#1e1e1e" stroke-width="0"></path><path d="m1066.84,183.45h-46.8v-51.99h-38.87v51.99h-46.75V42.78h46.75v50.97h38.87v-50.97h46.8v140.67Z" fill="#1e1e1e" stroke-width="0"></path><path d="m1200,78.64h-33.78v104.81h-46.7v-104.81h-33.55v-35.86h114.03v35.86Z" fill="#1e1e1e" stroke-width="0"></path></svg>