<svg xmlns="http://www.w3.org/2000/svg" id="Layer_1" width="1200.47" height="582.43" viewBox="0 0 1200.47 582.43"><path d="m1186.73,510.13c-7.64,0-13.24,6.12-13.24,13.24s6.12,13.24,13.24,13.24,13.24-6.12,13.24-13.24c.5-7.64-6.12-13.24-13.24-13.24h0Z" fill="none" stroke="#006940" stroke-miterlimit="2.61" stroke-width=".94"></path><path d="m1183.69,517.77v4.58h3.56c1.02,0,2.04-.5,2.54-.5.5-.5.5-1.02.5-2.04,0-.5-.5-1.02-.5-1.52-.5-.5-1.02-.5-2.04-.5h-4.08l.02-.02Zm-2.54-2.04h7.14c1.52,0,2.54.5,3.06,1.02,1.02.5,1.02,1.52,1.02,3.06,0,.5-.5,1.52-.5,2.04-.5.5-1.02,1.02-1.52,1.02.5,0,1.02.5,1.02,1.02.5.5.5,1.02.5,2.04v2.04h0c0,1.02.5,1.52.5,2.04v.5h-3.06s0-.5-.5-.5v-3.06c0-1.02-.5-1.52-.5-2.04-.5-.5-1.02-.5-2.04-.5h-4.08v6.12h-2.54v-14.78h1.52l-.02-.02Z" fill-rule="evenodd" stroke-width="0"></path><path d="m1183.69,517.77v4.58h3.56c1.02,0,2.04-.5,2.54-.5.5-.5.5-1.02.5-2.04,0-.5-.5-1.02-.5-1.52-.5-.5-1.02-.5-2.04-.5h-4.08l.02-.02Zm-2.54-2.04h7.14c1.52,0,2.54.5,3.06,1.02,1.02.5,1.02,1.52,1.02,3.06,0,.5-.5,1.52-.5,2.04-.5.5-1.02,1.02-1.52,1.02.5,0,1.02.5,1.02,1.02.5.5.5,1.02.5,2.04v2.04h0c0,1.02.5,1.52.5,2.04v.5h-3.06l-.5-.5v-3.06c0-1.02-.5-1.52-.5-2.04-.5-.5-1.02-.5-2.04-.5h-4.08v6.12h-2.54v-14.78h1.52l-.02-.02Z" fill="#006940" fill-rule="evenodd" stroke="#006940" stroke-miterlimit="2.61" stroke-width=".35"></path><path d="m1052.27,218.28c-7.64-18.34-13.24-22.92-29.54-25.46-42.28,0-83.52,15.78-123.76,25.98-36.16,5.6-113.58,30.56-141.6.5-7.14-16.8-22.92-18.84-36.68-24.96-8.14-10.18-10.18-23.42-12.74-34.12-18.84-56.54-41.76-141.08-103.4-157.9-66.72-6.62-132.42,2.04-197.63,12.22-57.04,15.78-64.18,73.34-83.02,121.72-1.52,10.7-6.12,33.1-11.72,43.8-5.1,41.26-37.18,19.86-52.46,46.34-14.78,15.78-49.92-7.14-47.36,29.04,11.2,22.92,33.62,28.52,58.58,33.1,23.42,0,58.06-2.04,40.24,36.16-5.1,22.42,7.14,37.7,24.96,52.46.5,0,1.52-.5,2.04-.5,1.52-2.54,1.52-5.1,2.04-7.14,6.12-5.1,18.84,25.98,33.1,23.94.5-1.02,1.02-1.52,1.52-2.54-6.12-18.84,2.04-9.16,19.36-3.56,63.16,3.06,10.7-6.12,25.98-26.48,18.84-1.02,44.82,3.06,64.18,5.1,29.04.5,56.02-3.06,85.06-4.58,20.38,2.54-1.02,19.86.5,33.62,9.16,7.14,33.1-12.22,38.2-4.58,0,22.42,23.42,3.06,38.7,3.06,3.06,4.08-3.56,6.62-3.06,11.2,3.56,0,7.14-.5,10.7-1.52,22.42-13.76,52.46-31.06,40.24-61.12,1.52-24.96,75.38-30.56,91.16-32.6,45.32-1.02,103.4-1.52,149.24,11.2,27,4.58,56.02,12.74,84.04,12.74,21.9-4.08,17.82-12.22,28.52-26.48,20.38-7.14,9.16-71.82,4.58-88.62h0l.02-.02Zm-50.42,76.9c-19.36-3.56-33.62-1.02-46.86-15.78-2.04-3.74-3.4-5.78-4.08-6.12-.5.5-1.02,1.02-1.52,1.52,3.56,31.58,55,14.26,58.58,33.1-6.12,6.12-106.44-14.78-107.46-14.78-62.14-7.14-187.95-17.82-238.37,32.6,0,6.12,17.82,39.22-.5,39.22-4.08-4.08-2.04-18.34-12.22-13.24-1.52,8.66-2.04,12.74-8.14,19.86h-5.6c-4.58-4.58,1.52-15.78-6.12-22.42-8.14,1.52-13.24,22.92-24.96,17.32,0-14.78,10.18-24.96-12.22-31.06-60.6,2.04-117.14,1.52-176.22-2.04-22.42,1.52-17.82,19.86-29.04,29.04-11.2-6.62-7.14-16.8-12.22-23.94-1.02,0-2.54-.5-3.56-.5-5.1,10.18-8.66,20.88-18.34,9.16,3.06-17.32-1.02-16.8-15.28-17.32-12.74-14.26,16.3-21.4-2.54-40.74-15.28-11.2-19.36-19.86-36.68-23.42-11.72,1.52-30.56,5.6-38.2-4.08,1.52-8.66,15.78-5.1,22.92-9.68,11.72-15.28,21.9-17.82,36.68-28.52,25.98-39.72,32.6-89.14,50.42-131.92,11.2-47.88,50.42-44.82,91.68-52.96,46.34-6.12,99.82-12.22,147.2-4.58,20.88,7.64,48.9,70.8,55,90.66,10.7,29.54,18.34,61.12,33.1,90.66,9.68,11.72,18.84,6.12,32.6,14.78,12.22,9.68,18.34,21.9,36.68,25.46,27.5,1.52,56.02-2.04,84.04-4.58,43.8-7.64,86.08-16.8,129.36-31.06,38.7-6.12,47.36-8.14,52.96,34.12,2.54,28.52,4.58,62.64-31.06,41.26h0l-.04-.02Z" fill="#006940" fill-rule="evenodd" stroke-width="0"></path><path d="m525.11,297.22c-44.82-2.54-41.26-20.88-40.74-59.6,8.14-28.52,46.34-21.4,69.78-21.9,28.02,3.56,36.16,59.08,12.74,75.38-13.76,5.6-28.02,6.12-41.76,6.12h-.02Z" fill="#006940" fill-rule="evenodd" stroke-width="0"></path><path d="m612.72,280.92c-28.52-8.14-37.7-51.96-12.74-66.72,9.68-9.68,28.02-18.34,40.74-23.94,20.88-11.2,28.52-6.62,40.24,13.76,5.1,12.22,10.7,27,4.58,41.26-16.3,21.4-46.86,35.66-72.84,35.66h0l.02-.02Z" fill="#006940" fill-rule="evenodd" stroke-width="0"></path><path d="m438.01,279.9c-36.16-5.1-121.22-18.84-91.68-75.88,14.78-20.38,45.84-10.18,68.24-6.62,40.74,9.68,60.1,7.14,56.02,56.54-1.52,3.06-2.54,8.14-3.06,12.74-7.14,14.26-15.78,13.24-29.54,13.24h0l.02-.02Z" fill="#006940" fill-rule="evenodd" stroke-width="0"></path><path d="m961.61,256.98c-14.78-3.06-19.36-11.2-34.12-13.24,0-7.14,24.96-1.02,30.06-.5,7.14,0,36.16-13.24,36.16,3.56-3.06,1.52-7.14.5-8.14,0-8.14,4.08-15.28,10.18-23.94,10.18h-.02Z" fill="#006940" fill-rule="evenodd" stroke-width="0"></path><path d="m474.69,203.5c-33.62-6.12-30.56-44.82-29.04-71.3,5.6-22.42,22.42-20.88,43.3-19.36,28.02,8.14,40.24,77.92,10.18,89.64-8.48.68-16.64,1.02-24.44,1.02h0Z" fill="#006940" fill-rule="evenodd" stroke-width="0"></path><path d="m553.64,203.5c-18.34-2.54-23.42-6.12-27.5-23.42-5.1-38.7-13.76-66.72,32.6-68.24,19.86,4.58,14.26,27.5,20.88,46.34,2.54,27,9.16,45.34-25.98,45.34h0v-.02Z" fill="#006940" fill-rule="evenodd" stroke-width="0"></path><path d="m403.89,186.7c-50.42-4.58-40.74-24.44-31.06-65.7,15.28-16.3,41.76-16.3,59.08-.5,8.14,14.26,8.14,51.44-5.6,63.66-8.14,2.04-15.78,2.54-22.42,2.54h0Z" fill="#006940" fill-rule="evenodd" stroke-width="0"></path><path d="m605.58,181.6c-19.86-11.2-30.56-51.44-13.76-68.24,45.34-24.44,52.46-3.06,66.22,38.7-1.52,21.9-34.64,29.04-52.46,29.54h0Z" fill="#006940" fill-rule="evenodd" stroke-width="0"></path><path d="m507.27,109.28c-25.98-5.6-36.68-39.22-22.42-59.08,42.28-9.16,68.24-21.4,68.24,37.18-5.6,18.34-30.06,20.38-45.84,21.9h.02Z" fill="#006940" fill-rule="evenodd" stroke-width="0"></path><path d="m428.85,105.2c-24.96-1.52-63.66-12.74-29.04-37.7,26.48-5.1,50.94-37.7,72.32-.5,0,32.6-13.24,38.2-43.3,38.2h.02Z" fill="#006940" fill-rule="evenodd" stroke-width="0"></path><path d="m583.18,99.6c-16.3-7.14-22.92-33.62-16.3-48.38,15.28-15.28,64.18,1.52,60.1,28.02-9.16,12.74-28.52,20.38-43.8,20.38h0v-.02Z" fill="#006940" fill-rule="evenodd" stroke-width="0"></path><path d="m10.68,493.83l-.5-37.18s0-3.06-2.54-3.56c-2.54-1.02-7.64-1.52-7.64-5.1s2.54-4.08,3.56-4.58c1.52-.5,7.14-1.02,10.18-6.12,3.06-4.58,4.58-9.16,5.6-10.7.5-1.52,2.04-2.54,4.58-2.54s4.08,1.52,4.08,3.56v11.2s0,3.56,3.06,3.56h4.08s8.14,0,8.14,4.58c0,3.56-3.06,5.6-7.14,5.6s-3.56,0-3.56,0c0,0-3.06,0-3.06,3.56v37.18s0,6.12,5.1,6.12h11.72s4.08.5,4.08-6.12v-64.68s.5-2.54-5.1-3.56c0,0-3.56-.5-3.56-2.04-.5-1.52,0-2.54,0-2.54,0,0,0-1.02,1.02-1.52s17.82-9.16,17.82-9.16c0,0,2.54-1.02,3.56-.5,2.04.5,5.1,2.54,5.1,5.6v27s0,3.06,3.06,2.04,13.76-5.6,22.42-.5c8.66,4.58,11.72,11.2,11.72,15.28v37.7s0,2.04,3.56,4.08c4.08,1.52,5.6,3.56,5.1,5.6,0,2.54-3.06,3.56-5.6,3.56h-22.92s-5.6,0-5.6-3.56c0-1.52,1.02-4.08,3.06-5.1,2.54-1.02,3.06-1.52,3.06-3.06v-38.7s0-4.58-4.58-5.1c-3.06-.5-7.64,0-7.64,0,0,0-5.1,1.02-5.1,5.1v38.7s-.5,2.54,3.06,4.08c2.54,1.02,3.56,2.54,3.56,4.08s-2.54,4.08-5.6,4.08h-35.14s-8.14.5-16.3-3.56c-8.66-4.58-8.66-12.74-8.66-12.74h0l-.04-.04Z" fill="#006940" fill-rule="evenodd" stroke-width="0"></path><path d="m818.48,430.67v86.08s-.5,4.58,5.1,7.14c6.12,2.54,10.18,2.04,10.18,7.64s-9.68,5.6-10.18,5.6h-42.28s-7.64-1.52-7.64-4.58c0-2.54,2.54-5.1,6.12-6.62s9.16-3.06,9.16-7.14v-94.22s0-3.56-2.54-5.1-13.76-6.12-25.46-3.56c-12.22,2.54-16.3,5.6-20.38,11.2-3.56,5.1-5.6,11.2-5.6,19.36,0,7.64,3.56,13.76,9.16,15.78,6.12,2.04,10.7-1.52,11.72-4.08,1.52-2.04,4.58-9.16,8.66-10.18s10.18.5,11.2,7.14c1.02,7.14.5,17.32-10.7,21.4s-23.42,3.06-29.54-.5-13.24-12.22-13.76-23.94c-.5-11.72,3.06-26.48,12.74-35.66,10.7-10.18,24.44-13.76,36.16-13.76,12.22.5,21.4,1.52,32.08,3.56s22.92,5.1,34.12,3.06,16.8-4.58,20.38-7.64c3.06-2.04,4.58-4.08,7.14-5.6,2.54-1.52,4.08-1.52,4.58-.5.5.5,0,2.04-1.02,3.56-1.02,2.04-5.6,9.68-8.14,13.24-3.06,4.08-7.14,10.18-20.88,13.24-12.74,2.54-14.78,2.54-18.34,2.54-2.04,0-2.04,2.54-2.04,2.54h0Z" fill="#006940" fill-rule="evenodd" stroke-width="0"></path><path d="m1068.07,537.63c4.08,0,7.14-3.06,7.14-5.1s-.5-4.58-4.08-6.12c-3.56-1.52-4.58-4.58-4.58-4.58v-104.92c0-4.08-4.58-6.62-6.62-7.14-1.52-.5-4.08,0-4.08,0,0,0-22.92,9.68-23.94,10.18s-1.02,2.04-1.02,2.04c0,0,0,1.52.5,3.06,1.52,2.04,4.58,2.54,4.58,2.54,6.12,1.52,5.6,5.1,5.6,5.1v84.54c0,8.14-5.1,7.64-5.1,7.64h-14.26c-6.62,0-6.62-7.64-6.62-7.64v-49.4c0-4.58,4.08-4.58,4.08-4.58,0,0-.5,0,4.58,0,5.6,0,9.16-1.52,9.16-7.64,0-5.6-9.68-6.12-9.68-6.12h-6.12c-4.08,0-4.08-4.58-4.08-4.58v-14.26c0-2.54-2.04-4.58-5.6-4.58-3.06,0-5.1,1.52-5.6,3.56-1.02,2.04-2.04,7.64-6.12,13.24-3.56,6.12-12.22,7.14-14.26,7.64-2.04.5-4.58,1.52-4.58,6.12s6.62,5.6,10.18,6.12,3.56,4.58,3.56,4.58l.5,49.4s.5,10.7,10.18,15.78c10.18,5.6,20.88,4.58,20.88,4.58h45.32v.5h0l.08.04Z" fill="#006940" fill-rule="evenodd" stroke-width="0"></path><path d="m599.48,472.95v49.92c0,2.04-1.02,2.54-4.08,4.08-3.06,1.52-4.08,4.08-4.08,6.62.5,4.58,7.14,4.58,7.14,4.58h29.04c3.06,0,6.62-1.52,7.14-4.58,0-3.06-2.04-5.1-6.62-7.14-5.1-2.04-4.58-5.1-4.58-5.1v-47.36c0-4.58-1.52-12.74-12.22-18.84-10.7-6.1-29.54-.5-33.1.5,0,0-1.02.5-2.54,1.02-1.02.5-2.54-.5-3.06-1.52-1.02-.5-2.04-2.54-4.58-3.06s-5.6,1.52-5.6,1.52c-19.36,12.22-18.84,12.22-19.86,12.74-1.02.5-1.02,2.04-1.02,2.04v2.54c0,1.52,4.58,2.54,4.58,2.54,5.1,1.52,6.12,4.58,6.12,4.58,0,0,.5,1.02.5,3.56v40.74c0,2.04-.5,3.06-3.56,4.58s-4.08,4.08-4.08,6.12c0,4.58,7.14,4.58,7.14,4.58h24.96c3.06,0,6.62-1.02,7.14-4.08.5-3.06,0-3.56-4.58-6.12-4.58-2.04-4.58-5.1-4.58-5.1v-49.92s0-3.56,4.08-5.6c3.56-2.04,6.12-2.04,10.7-1.52,4.08.5,9.68,3.56,9.68,7.64l-.08.04Z" fill="#006940" fill-rule="evenodd" stroke-width="0"></path><path d="m173.16,490.27c-1.02-1.52-4.08-1.52-6.62.5-1.52,1.02-8.66,8.14-18.34,6.62-8.14-1.02-13.24-5.1-16.8-10.18,0,0-2.54-3.06,1.02-4.58l36.16-15.28s2.54-1.02,3.06-3.56,0-3.56-2.04-6.12c-1.52-2.54-11.2-17.32-29.54-15.28-18.84,2.04-28.52,13.76-31.06,25.98-2.54,12.22,2.04,29.54,14.78,37.18,12.74,7.64,30.06,3.56,36.16.5,6.12-3.06,11.2-8.14,12.22-10.18,2.04-2.04,2.04-4.08,1.02-5.6h-.02Zm-46.86-19.86c-1.02-7.64,0-11.72,4.58-15.28,4.08-3.56,9.16-3.56,14.26-1.52,5.1,2.04,6.62,5.6,7.14,8.66.5,2.54-2.04,3.56-2.04,3.56l-19.86,8.66c-4.08,1.02-4.08-4.08-4.08-4.08h0Z" fill="#006940" fill-rule="evenodd" stroke-width="0"></path><path d="m455.33,514.71c-1.52-2.04-5.6-2.04-8.66.5-1.52,1.52-11.72,10.7-23.94,9.16-10.7-1.52-17.32-6.62-21.9-13.24,0,0-3.56-4.08,1.02-6.12l48.38-20.38s3.06-1.52,3.56-5.1c.5-3.06-.5-5.1-2.54-8.14-2.04-3.56-15.28-23.42-39.22-20.38-24.96,2.54-37.7,18.34-41.26,34.64s3.06,39.22,19.36,49.4c16.8,10.18,40.24,5.1,47.88.5,7.64-4.08,14.78-10.7,16.3-13.24,2.04-3.06,2.54-6.12,1.02-7.64v.04Zm-62.64-26.48c-1.52-9.68,0-15.28,6.62-20.38,5.6-4.58,12.22-4.58,18.84-2.04,6.62,2.54,8.66,7.14,9.68,11.2.5,3.06-2.54,4.58-2.54,4.58l-26.48,11.2c-5.6,2.04-6.12-4.58-6.12-4.58v.02Z" fill="#006940" fill-rule="evenodd" stroke-width="0"></path><path d="m541.92,514.71c-1.52-2.04-5.6-2.04-8.66.5-1.52,1.52-11.72,10.7-23.94,9.16-10.7-1.52-17.32-6.62-21.9-13.24,0,0-3.56-4.08,1.02-6.12l48.38-20.38s3.06-1.52,3.56-5.1c.5-3.06-.5-5.1-2.54-8.14-2.04-3.56-15.28-23.42-39.22-20.38-24.96,2.54-37.7,18.34-41.26,34.64-3.56,16.3,3.06,39.22,19.36,49.4,16.8,10.18,40.24,5.1,47.88.5,7.64-4.08,14.78-10.7,16.3-13.24,2.04-3.06,2.54-6.12,1.02-7.64v.04Zm-62.64-26.48c-1.52-9.68,0-15.28,6.62-20.38,5.6-4.58,12.22-4.58,18.84-2.04,6.62,2.54,8.66,7.14,9.68,11.2.5,3.06-2.54,4.58-2.54,4.58l-26.48,11.2c-5.6,2.04-6.12-4.58-6.12-4.58v.02Z" fill="#006940" fill-rule="evenodd" stroke-width="0"></path><path d="m713.56,514.71c-1.52-2.04-5.6-2.04-8.66.5-1.52,1.52-11.72,10.7-23.94,9.16-10.7-1.52-17.32-6.62-21.9-13.24,0,0-3.56-4.08,1.02-6.12l48.38-20.38s3.06-1.52,3.56-5.1c.5-3.06-.5-5.1-2.54-8.14-2.04-3.56-15.28-23.42-39.22-20.38-24.96,2.54-37.7,18.34-41.26,34.64s3.06,39.22,19.36,49.4c16.8,10.18,40.24,5.1,47.88.5,7.64-4.08,14.78-10.7,16.3-13.24,2.04-3.06,2.54-6.12,1.02-7.64v.04Zm-62.14-26.48c-1.52-9.68,0-15.28,6.62-20.38,5.6-4.58,12.22-4.58,18.84-2.04s8.66,7.14,9.68,11.2c.5,3.06-2.54,4.58-2.54,4.58l-26.48,11.2c-6.12,2.04-6.12-4.58-6.12-4.58v.02Z" fill="#006940" fill-rule="evenodd" stroke-width="0"></path><path d="m1156.19,514.71c-1.52-2.04-5.6-2.04-8.66.5-1.52,1.52-11.72,10.7-23.94,9.16-10.7-1.52-17.32-6.62-21.9-13.24,0,0-3.56-4.08,1.02-6.12l48.38-20.38s3.06-1.52,3.56-5.1c.5-3.06-.5-5.1-2.54-8.14-2.04-3.56-15.28-23.42-39.22-20.38-24.96,2.54-37.7,18.34-41.26,34.64s3.06,39.22,19.36,49.4c16.8,10.18,40.24,5.1,47.88.5,7.64-4.08,14.78-10.7,16.3-13.24,2.04-3.06,2.54-6.12,1.02-7.64h0v.04Zm-62.64-26.48c-1.52-9.68-.5-15.28,6.62-20.38,6.12-4.58,12.22-4.58,18.84-2.04s8.66,7.14,9.68,11.2c.5,3.06-2.54,4.58-2.54,4.58l-26.48,11.2c-5.6,2.04-6.12-4.58-6.12-4.58v.02Z" fill="#006940" fill-rule="evenodd" stroke-width="0"></path><path d="m293.87,410.29s8.14,23.94,8.66,24.96c.5,1.52,1.02,3.06.5,4.58-.5,2.04-2.54,3.56-5.6,4.08-1.52.5-7.14,0-8.66-2.04-1.02-1.52-12.22-21.9-33.62-22.92-21.4-1.02-32.08,8.14-36.68,26.48s-4.58,29.04-3.06,42.28c1.52,13.76,7.64,22.92,12.74,28.52,4.58,5.6,12.74,10.7,22.42,10.7s19.86-1.52,24.96-5.6c5.1-3.56,4.58-5.6,4.58-8.66v-22.42s.5-4.08-4.58-5.1-8.14-.5-9.16-2.04-1.52-3.06-1.52-5.1c0-1.52.5-2.54.5-3.56.5-1.02,1.52-2.54,3.56-2.54h47.36s3.06,0,5.1,1.52c1.52,1.52,1.52,5.1,1.02,6.62-.5,2.04-6.62,5.1-10.7,6.12-3.56,1.02-5.6,1.52-5.6,4.58v50.42s0,14.26-9.16,23.94c-8.66,9.68-23.42,17.32-45.34,17.32s-36.68-8.14-44.32-18.34c0,0-5.6-8.66,2.04-14.78,7.64-6.12,13.76-1.02,15.78,2.54,2.04,3.06,11.2,17.82,20.38,19.86,9.16,2.54,21.9.5,27-6.12,5.1-6.62,7.64-11.2,7.64-24.44,0,0-.5-5.1-5.1-3.56s-28.52,5.6-44.82,0c-15.78-5.6-18.84-7.64-28.02-17.82-9.16-9.68-12.74-27-13.24-36.68-.5-9.16,1.02-30.56,5.1-41.76,5.1-12.74,11.72-20.88,23.42-27.5,11.7-6.62,18.84-7.64,29.54-7.64s20.88,1.02,27,3.56c0,0,1.52.5,2.54-.5s3.56-3.06,3.56-3.06c0,0,1.52-.5,3.06-.5s5.6,1.02,7.64,2.04c2.54,1.02,3.06,2.04,3.06,2.54h0l.02.02Z" fill="#006940" fill-rule="evenodd" stroke-width="0"></path><path d="m355.49,456.13s18.84-18.84,24.96-22.92c10.18-6.12,23.42-4.08,27.5,1.52,4.08,6.12,6.62,21.9-5.6,24.44-7.14,1.52-12.74-5.1-12.74-5.1,0,0-5.1-6.12-13.24-1.02s-16.8,14.78-19.86,24.96c-3.56,10.18-4.08,26.48-4.08,34.64,0,0,.5,10.18,4.08,12.22,3.56,1.52,7.14,2.54,9.16,4.58,1.52,2.04,1.52,4.08,0,5.6-1.52,1.52-4.58,2.04-6.12,2.04h-35.14s-3.06,0-4.08-2.54c-1.02-2.04-1.02-3.56.5-5.1s3.56-2.54,5.6-3.56,4.58-2.04,4.58-4.58v-44.32s0-2.04-1.52-5.1c-1.52-2.04-4.08-2.54-5.6-3.06-1.02-.5-2.54-2.54-2.04-4.58s2.04-2.54,4.08-3.56,13.24-7.64,15.78-8.66,4.08-2.04,5.6-2.04,4.08,1.02,5.1,2.54c1.02,2.04,3.06,3.56,3.06,3.56h0l.02.04Z" fill="#006940" fill-rule="evenodd" stroke-width="0"></path><path d="m923.41,537.63h35.14c1.02,0,4.58,0,6.12-2.04,1.52-1.52,1.52-3.56,0-5.6s-5.6-3.06-9.16-4.58c-4.08-2.04-4.08-12.22-4.08-12.22v-39.22s0-8.14,8.14-9.16c4.58-.5,6.12,2.04,7.64,3.56,1.52,1.02,11.2,5.6,16.8-.5,5.6-6.12,5.6-13.24-.5-17.82-6.12-4.58-23.94-2.54-30.56,5.6,0,0-1.52-1.52-3.06-2.54s-2.54-2.04-5.1-2.04c-1.52,0-4.58.5-7.14,2.04-2.54,1.02-13.76,6.12-15.78,7.14-1.52,1.02-3.06,2.04-3.06,4.58-.5,2.54,1.02,4.58,2.04,5.1,2.04,1.02,5.6,1.02,7.14,3.06,1.02,2.04,1.02,5.1,1.02,5.1v41.26s0,6.12-6.12,6.12c0,0-2.54,0-6.12-2.04-2.04-1.02-7.14-3.56-7.14-9.68v-54.5c0-1.02,0-1.52-1.02-3.06-.5-1.02-2.54-3.06-5.1-4.08-2.04-1.02-4.58-.5-4.58-.5,0,0-16.8,6.12-18.84,6.62-2.54,1.02-3.56,2.54-4.08,4.08s0,3.06,1.02,4.58,3.56,2.54,6.12,3.56,2.54,4.58,2.54,4.58v37.7s-1.02,5.6-6.12,7.64c-5.1,2.54-11.2,2.54-13.76,1.02-2.54-2.04-4.08-4.58-4.08-7.14v-54.5c0-1.02,0-2.04-1.02-3.06-.5-1.02-2.54-2.54-5.1-4.08-2.04-1.02-4.58-.5-4.58-.5,0,0-16.8,6.12-18.84,6.62-2.54,1.02-3.56,2.54-4.08,4.08s0,3.06,1.02,4.58c1.52,1.52,3.56,2.54,6.12,3.56s2.54,4.58,2.54,4.58c0,42.28,0,36.16,0,41.26,0,4.58,1.52,12.74,12.22,18.84,10.7,6.12,26.48,1.02,30.06,0l5.1-2.54c1.02-.5,3.06,1.52,3.56,2.54.5,1.02,2.04,2.04,5.1,2.54,0,0,2.04,0,5.1-1.02s8.66-2.04,10.18-2.54,3.06-1.02,5.1,0,7.14,3.06,9.16,3.06h0l.04-.04Z" fill="#006940" fill-rule="evenodd" stroke-width="0"></path></svg>