<svg xmlns="http://www.w3.org/2000/svg" id="Layer_1" width="2622.07" height="550" viewBox="0 0 2622.07 550"><path d="m627.74,0h1550.93l.26,53.03c0,.31-.15.47-.46.47H628.01c-.23,0-.42-.18-.42-.41h0l.15-53.08h0Z" fill="#ed1b24" stroke-width="0"></path><path d="m2322.41,165.87c-45.72-6.16-81.16,25.75-93.01,67.69-6.63,23.46-7.6,47.2-2.92,71.21,5.83,29.97,23.4,59.88,52.18,72.82,34.67,15.59,70.79,4.83,96.55-21.74.23-.24.46-.23.68.02l11.3,12.67c.25.27.24.54-.02.8-27.73,27.04-62.82,39.35-101.09,30.18-94.98-22.78-105.73-168.41-42.28-225.85,23.04-20.85,50.85-29.19,83.44-25.02,22.79,2.91,41.91,13.46,58.49,29.02.3.28.32.58.05.89l-11.61,13.63c-.28.33-.57.34-.88.03-14-14.1-31.47-23.74-50.88-26.35h0Z" fill="#0a0406" stroke-width="0"></path><path d="m788.74,220.54c-11.7-11.7-23.39-20.56-39.81-23.67-40.42-7.67-62.48,27.44-66.68,62.14-3.95,32.72,3.83,78.86,39.83,91.93,26.66,9.67,49.34-3.89,67.54-22.43.21-.21.42-.2.61.03l30.18,35.84c.24.28.23.55-.03.82-18.75,19.33-39.85,32.43-67.06,35.66-30.87,3.68-61.3-3.06-85.01-23.53-35.62-30.78-43.81-82.64-38.01-127.07,8.21-62.82,55.92-107.79,121.78-101.73,26.25,2.42,48.96,12.85,67.25,32.12.21.23.22.46.03.7l-30.37,39.17c-.06.07-.16.09-.23.04,0,0-.01,0-.02-.02h0Z" fill="#0a0406" stroke-width="0"></path><path d="m0,168.44v-17.41h162.54c.25,0,.46.21.46.46h0v16.26c0,.5-.25.75-.75.75h-71.18s-.06.03-.06.06l-.08,229.97c0,.31-.15.47-.46.47h-18.19c-.35,0-.53-.18-.53-.53v-229.46c0-.29-.23-.52-.52-.52l-71.23-.05h0Z" fill="#0a0406" stroke-width="0"></path><path d="m226,283.58v115.09c0,.18-.15.33-.33.33h-18.59c-.18,0-.33-.15-.33-.33v-247.34c0-.18.15-.33.33-.33h18.59c.18,0,.33.15.33.33h0v113.59c0,.18.15.33.33.33h130.38c.18,0,.33-.15.33-.33h0l.27-113.59c0-.18.15-.33.33-.33h18.28c.18,0,.33.15.33.33v247.34c0,.18-.15.33-.33.33h-18.35c-.18,0-.33-.15-.33-.33h0l-.02-115.09c0-.18-.15-.33-.33-.33h-130.56c-.18,0-.33.15-.33.33h0Z" fill="#0a0406" stroke-width="0"></path><path d="m456.5,283.08v97.84c0,.18.15.33.33.33h131.09c.18,0,.33.15.33.33h0v17.09c0,.18-.15.33-.33.33h-150.1c-.18,0-.33-.15-.33-.33h0l.02-247.34c0-.18.15-.33.33-.33h148.33c.18,0,.33.15.33.33h0v16.84c0,.18-.15.33-.33.33h-129.34c-.18,0-.33.15-.33.33v95.84c0,.18.15.33.33.33h116.12c.18,0,.33.15.33.33h0l-.04,17.09c0,.18-.15.33-.33.33h-116.08c-.18,0-.33.15-.33.33h0Z" fill="#0a0406" stroke-width="0"></path><path d="m907.06,250.51l80.11-.03c.17,0,.31-.14.31-.31l.02-98.11c0-.17.14-.31.31-.31h50.38c.17,0,.31.14.31.31h0v245.88c0,.17-.14.31-.31.31h-50.3c-.17,0-.31-.14-.31-.31l-.34-99.63c0-.17-.14-.31-.31-.31h-79.87c-.17,0-.31.14-.31.31v99.63c0,.17-.14.31-.31.31h-50.88c-.17,0-.31-.14-.31-.31v-245.88c0-.17.14-.31.31-.31h50.88c.17,0,.31.14.31.31v98.14c0,.17.14.31.31.31h0Z" fill="#0a0406" stroke-width="0"></path><path d="m1375,250.41v147.53c0,.17-.14.31-.31.31h-49.38c-.17,0-.31-.14-.31-.31h0v-245.88c0-.17.14-.31.31-.31h46.69c.1,0,.2.05.26.14l93.42,142.35c.09.14.29.18.43.09.09-.06.14-.16.14-.26v-142.01c0-.17.14-.31.31-.31h49.37c.17,0,.31.14.31.31l.05,245.88c0,.17-.14.31-.31.31h-43.38c-.1,0-.2-.05-.26-.14l-96.77-147.87c-.09-.14-.29-.18-.43-.09-.09.06-.14.16-.14.26h0Z" fill="#0a0406" stroke-width="0"></path><path d="m1713.49,294.18l.02-141.93c0-.33.17-.5.5-.5h49.33c.44,0,.66.22.66.66v245.34c0,.33-.17.5-.5.5h-42.93c-.4,0-.71-.17-.94-.51l-96.19-146.87c-.41-.63-.61-.57-.62.18-.4,49.06-.62,97.77-.26,146.62,0,.39-.18.58-.57.58h-48.71c-.52,0-.78-.26-.78-.78v-245.22c0-.33.17-.5.5-.5h46.1c.36,0,.64.15.83.44l93.31,142.07c.03.07.11.09.18.05.04-.03.07-.08.07-.13h0Z" fill="#0a0406" stroke-width="0"></path><path d="m1870.82,251h94.6c.18,0,.32.13.32.31l-.18,45.62c0,.18-.14.32-.32.32h-94.42c-.18,0-.32.14-.32.32v54.11c0,.18.14.32.32.32h108.86c.18,0,.32.14.32.32v45.61c0,.18-.14.32-.32.32h-159.61c-.18,0-.32-.14-.32-.32v-245.86c0-.18.14-.32.32-.32h158.11c.18,0,.32.14.32.32v45.36c0,.18-.14.32-.32.32h-107.36c-.18,0-.32.14-.32.32v52.61c0,.18.14.32.32.32h0Z" fill="#0a0406" stroke-width="0"></path><path d="m2078.85,351.25h99.05c.19,0,.35.16.35.35h0v46.3c0,.19-.16.35-.35.35h-150.3c-.19,0-.35-.16-.35-.35v-245.8c0-.19.16-.35.35-.35h50.55c.19,0,.35.16.35.35h0v198.8c0,.19.16.35.35.35h0Z" fill="#0a0406" stroke-width="0"></path><path d="m2548,151.76c-26-8.06-54.4-5.63-78.08,7.85-52.03,29.61-64.28,98.77-53.19,152.64,9.89,48.03,44.43,88,95.97,90.42,39.7,1.87,74.18-19.37,92.49-54.24,32.31-61.57,20.85-172.48-57.19-196.67Zm-7.9,229.96c-47.79,14.94-88.46-18.92-101.44-63.28-11.51-39.29-8.15-85.84,15.83-120.16,14.94-21.38,39.76-34.58,66.03-33.37,44.08,2.04,71.69,39.5,79.32,79.92,9.35,49.46-3.9,119.42-59.74,136.89h0Z" fill="#0a0406" stroke-width="0"></path><path d="m1206.33,150.45c-.04-.12-.15-.2-.28-.2h-48.52c-.13,0-.24.08-.28.2l-88.11,247.4s-.02.07-.02.11c0,.17.14.3.31.29h50.97c.13,0,.25-.08.29-.2l17.87-53.1c.04-.12.16-.2.29-.2h84.14c.13,0,.24.08.28.2l18.24,53.1c.04.12.15.2.28.2h52.39s.07,0,.11-.02c.16-.06.24-.23.18-.38l-88.14-247.4h0Zm.94,149.04s-.07.02-.11.02h-52.5c-.19,0-.34-.15-.34-.34,0-.04,0-.07.02-.11l26.38-78.35c.06-.18.26-.27.43-.21.1.03.17.11.21.21l26.12,78.35c.06.18-.03.37-.21.43h0Z" fill="#0a0406" stroke-width="0"></path><path d="m2178.52,550H627.91l-.11-52.81c0-.38.31-.69.7-.69h1548.99c.81,0,1.21.4,1.21,1.21l-.18,52.29Z" fill="#ed1b24" stroke-width="0"></path></svg>