<svg xmlns="http://www.w3.org/2000/svg" id="Layer_1" width="1200" height="679.18" viewBox="0 0 1200 679.18"><path d="m529.02,334.44c-11.44-15.25-11.8-33.6-11.8-33.6,0,0,15.27,6.37,23.21,18.57,7.97,12.22,14.9,31.32,14.9,31.32,0,0-14.9-1.05-26.34-16.3m-8.03-215.96s11.35,9.3,19.91,22.87c2.9,4.62,5.14,10.25,6.84,15.67-.5-3.53-.93-6.86-1.25-9.76-1.47-14.22-2.36-26.34-3.25-35.82-.89-9.48-5.91-9.18-14.2-27.53-8.29-18.33-6.21-38.76-6.21-38.76,0,0,21.3,24.26,25.75,39.65,4.44,15.39-.52,20.09-.52,29.24s-.22,19.93,1.86,34.12c2.08,14.22,5.81,37.29,6.11,45.86.22,6.25-2.94,5-3.15-.67-.12-3.39-1.03-9.68-2.14-16.86-4.36-2.4-17.14-10.18-22.61-21.9-11.05-23.72-7.14-36.14-7.14-36.14m37.29,2.78c2.2-15.19,13.25-26.78,13.25-26.78,0,0,3.59,19.89,1.11,33.42-2.48,13.53-13.53,20.97-13.53,20.97,0,0-3.05-12.42-.83-27.61m7.12,242.98c-4.46-18.05-8.87-32.61-11.8-55.3v-.14c-.67-3.65-1.63-7.16-4.03-11.88-4.09-8.07-5.59-10.75-9.12-23.74-3.51-12.99-11.17-11.54-15.95-36.34-4.8-24.79,2.7-39.11,2.7-39.11,0,0,11.56,19.28,14.8,37.13,3.25,17.85-.95,25.71,1.01,35.78,1.96,10.08,5.71,16.98,8.59,22.65.16.32.32.63.5.95-1.63-22.53-.89-53.08,4.42-70.91,6.39-21.54,13.84-43.66,18.49-59.37,4.66-15.73,8.83-31.95,8.83-54.05,0-10.25-3.29-23.19-6.25-34.26-.12-.26-.24-.5-.36-.79-5.18-12.28-12.1-12.91-21.56-39.23-5.36-14.92-6.55-27.57-6.62-35.62h-167.84v44.15h89.99c21.12,0,38.22,17.1,38.22,38.22v257c0,12.22-9.9,22.12-22.1,22.12v23.56h54.98c13.77,0,27.53-2.78,23.07-20.83" fill="#738134" stroke-width="0"></path><path d="m611.02,158.52c-10.37,15.97-25.15,18.05-25.15,18.05,0,0,5.63-19.54,12.73-32.27s21.88-20.13,21.88-20.13c0,0,.89,18.35-9.46,34.35m-.3,61.27c-9.48,20.63-24.91,21.32-28.46,27.81-3.55,6.51-7.5,16.38-9.08,23.09s-2.56,15.77-2.56,19.34c0,2.52-2.24,3.43-2.52.48-.4-3.95.58-13.61,2.36-20.53,1.77-6.92,4.74-13.81,8.87-23.88s-2.54-8.77,11.48-33.44c14-24.67,28.8-28.03,28.8-28.03,0,0,0,15.79-8.87,35.13m-13.09,53.57c-11.23,5.71-20.21,5.16-20.21,5.16,0,0,9.86-17.57,20.69-22.73,11.41-5.45,18.51-3.95,18.51-3.95,0,0-7.76,15.81-19,21.52M562.36.06c3.95,4.56,8.43,11.29,12.83,21.24,11.27,25.41,3.79,43.08,5.67,52.27.14.71.22,1.35.24,1.94.63,2.42,1.23,4.64,1.67,6.13,1.35,4.58,2.48,8.95,3.43,14.34,1.73-5.1,5.32-12.16,11.23-20.65,6.8-9.76,6.21-21.01,15.09-35.82,8.87-14.78,26.64-21.01,26.64-21.01,0,0-3.93,26.88-13.69,40.19-9.76,13.33-17.02,6.39-25.31,18.23-8.29,11.84-12.69,23.21-12.69,27.61,0,.06.22,3.13.22,4.48,0,7.83-1.59,36.38-7.58,54.8-5.99,18.41-12.42,37.75-16.58,61.25-4.13,23.48-4.6,58.49,1.39,81.05,5.99,22.57,7.95,38.22,16.58,56.65.32.69.22,1.01.52,1.65,1.01-2.06,2.04-4.6,5.79-11.72,5.04-9.54.4-16.7,9.01-37.37s21.48-28.76,21.48-28.76c0,0,7.56,10.67-5.57,37.65-10.14,20.81-18.07,23.7-21.52,30.07-3.17,5.85-8.31,10.93-5.22,17.38,6.11,10.87,11.09,13.45,21.86,13.45h48.58v-23.56c-12.22,0-22.1-9.9-22.1-22.12V82.43c0-21.1,17.1-38.22,38.22-38.22h89.99V.06h-200.18,0Z" fill="#738134" stroke-width="0"></path><path d="m723.78,530.15l-34.2,88.8h0c-2.14,5.57-7.76,5.36-9.8.02h0l-33.84-88.82h-39.33v145.05h24.58v-96.32c0-5.67,6.64-7.08,8.67-1.53,0,.02,0,.04.02.06l35.76,97.79h18.03l35.76-97.79s.02-.04.02-.06c2.04-5.55,8.67-4.13,8.67,1.53v96.32h24.58v-145.05h-38.94.02Z" fill="#47331b" stroke-width="0"></path><path d="m447.93,555.18l-15.47-25.09h-34.18l42.21,64.25c9.66,14.5,12.32,26.54,12.32,41.59v39.27h27.61v-48.93c0-11.13-4.38-23.68-12.36-38.02l-20.13-33.1h0v.02Z" fill="#47331b" stroke-width="0"></path><path d="m302.05,530.15v42.8c0,8.27-6.72,14.98-15,14.98h-44.09c-8.29,0-14.98-6.72-14.98-14.98v-42.8h-25.81v145.05h25.81v-48.93c0-8.27,6.72-14.98,14.98-14.98h44.09c8.29,0,15,6.72,15,14.98v48.93h25.81v-145.05h-25.81Z" fill="#47331b" stroke-width="0"></path><path d="m1090.41,585.69c-12.54-2.76-27.37-8.23-26.68-18.57.93-14.1,15.83-16.09,28.15-15.29,15.19.99,22.47,7.06,26.6,12.2l21.28-14.64c-10.73-14.16-26.26-22-46.2-23.31-32.07-2.1-53.91,13.33-55.6,39.35-.85,12.95,4.11,36.06,46.89,45.48,34.97,7.7,34.35,17.24,33.98,22.95-.97,14.74-17.77,20.37-32.99,19.38-21.06-1.39-29.57-13.86-34.67-21.3l-.63-.91-21.26,14.64.56.85c6.19,9.06,20.69,30.27,54.29,32.49,33.22,2.18,58.65-16.09,60.44-43.44,2.46-37.39-38.7-46.45-54.19-49.85" fill="#47331b" stroke-width="0"></path><path d="m886.07,553.5h69.88v-23.35h-88.6c-9.62,0-17.42,7.8-17.42,17.4v110.24c0,9.62,7.8,17.4,17.42,17.4h88.6v-23.35h-69.88c-5.71,0-10.33-4.64-10.33-10.35v-18.68c0-5.71,4.62-10.33,10.33-10.33h37.57v-23.35h-37.57c-5.71,0-10.33-4.62-10.33-10.33v-14.98c0-5.71,4.62-10.33,10.33-10.33" fill="#47331b" stroke-width="0"></path><path d="m481.06,601.34c3.85-33.05,21.64-68.95,51.69-75.25h0c.75-.16,1.59-.34,2.22-.4.73-.1.81.28.81.73-.02.67-.12,1.63-.2,2.4-1.53,14.06-6.82,26.42-17.95,39.39-3.05,3.55-6.78,6.49-11.11,9.9-7.42,5.87-12.83,9.98-24.85,23.66-.63.79-.61.69-.61-.4" fill="#47331b" stroke-width="0"></path><path d="m0,530.15v23.35h33.18c10.85,0,19.64,8.79,19.64,19.64v102.05h27.63v-102.05c0-10.85,8.79-19.64,19.64-19.64h33.16v-23.35H0Z" fill="#47331b" stroke-width="0"></path><path d="m1181.73,539.41v5.26h3.07c1.82,0,2.76-1.25,2.76-2.68,0-1.53-.95-2.58-2.76-2.58h-3.07Zm5.73,7.36l3.07,4.88c.1.2.18.38.18.77,0,.56-.67,1.25-1.43,1.25-.67,0-1.05-.38-1.33-.87l-3.25-5.55h-2.96v5.26c0,.56-.56,1.25-1.33,1.25s-1.43-.67-1.43-1.25v-14.24c0-.77.67-1.43,1.43-1.43h4.11c3.81,0,5.93,2.1,5.93,5.16,0,2.2-.95,3.91-2.96,4.78m-3.53-14.42c-8.31,0-13.19,6.01-13.19,13.19s4.86,13.19,13.19,13.19,13.19-6.01,13.19-13.19-4.86-13.19-13.19-13.19m0,29.04c-9.36,0-16.05-7.08-16.05-15.85s6.7-15.85,16.05-15.85,16.05,6.98,16.05,15.85-6.7,15.85-16.05,15.85" fill="#47331b" stroke-width="0"></path></svg>