<svg xmlns="http://www.w3.org/2000/svg" id="Layer_1" width="1200" height="283.14" viewBox="0 0 1200 283.14"><rect x="293.42" width="10.96" height="283.14" rx=".93" ry=".93" fill="#3a4755" stroke-width="0"></rect><path d="m60.97,110.06h45.67c.51,0,.91.4.91.91v149.35c0,.71-.35,1.02-1.06.93C19.7,249.44-26.04,157.75,15.54,80.65c22.19-41.14,70.33-63.99,118.04-58.33.49.07.84.51.79.99,0,.07-.04.16-.07.24l-4.4,10.5c-.26.58-.69.86-1.33.82-56.06-3.11-100.49,27.38-112.8,82.97-12.79,57.67,21.48,111.57,77.73,127.85.53.15,1.1-.16,1.24-.69.02-.09.04-.18.04-.27v-120.96c0-.6-.31-.91-.91-.91h-45.67c-.51,0-.91-.4-.91-.91v-48.86c0-.6.31-.91.91-.91h112.8c.91,0,1.37.46,1.37,1.37v10.05c0,.91-.46,1.37-1.37,1.37H60.97c-.6,0-.91.31-.91.91v23.29c0,.6.31.91.91.91h0Z" fill="#3a4755" stroke-width="0"></path><path d="m139.52,133.42v126.43c0,.91-.46,1.37-1.37,1.37h-10.5c-.6,0-.91-.31-.91-.91V100.87c0-.31.26-.57.57-.57.16,0,.31.07.42.18l86.75,90.29c.29.31.79.31,1.08,0,.07-.05.11-.13.16-.22,21.59-43.68,12.79-93.98-22.8-127.45-.51-.47-.66-1.21-.4-1.83l4.48-10.7c.18-.44.69-.64,1.13-.46.09.04.16.09.24.15,46.93,41.05,55.66,108.3,20.64,160.06-.4.58-.84.62-1.33.13l-76.89-77.56c-.84-.86-1.26-.68-1.26.51v.02Z" fill="#f58634" stroke-width="0"></path><path d="m1143.98,127.14c23.05-15.29,54.6-6.5,55.7,24.39.38,10.47.42,25.32.13,44.59,0,.79-.4,1.17-1.19,1.17h-11.6c-.86,0-1.28-.42-1.28-1.28.05-14.08.04-28.09-.05-42.05-.16-25.9-29.19-25.59-42.23-9.68-.42.51-.62,1.1-.62,1.74v50.14c0,.75-.38,1.13-1.15,1.13h-11.64c-.91,0-1.37-.46-1.37-1.37v-110.97c0-.91.46-1.37,1.37-1.37h11.64c.77,0,1.15.38,1.15,1.15v41.79c0,.93.38,1.13,1.15.62h0Z" fill="#3a4755" stroke-width="0"></path><path d="m390.12,101.84h-37.23c-.57,0-1.02-.46-1.02-1.02v-11.65c0-.57.46-1.02,1.02-1.02h91.12c.57,0,1.02.46,1.02,1.02v11.65c0,.57-.46,1.02-1.02,1.02h-37.23c-.57,0-1.02.46-1.02,1.02v93.4c0,.57-.46,1.02-1.02,1.02h-12.57c-.57,0-1.02-.46-1.02-1.02v-93.4c0-.57-.46-1.02-1.02-1.02Z" fill="#3a4755" stroke-width="0"></path><path d="m805.35,115.98v80.17c0,.75-.38,1.13-1.13,1.13h-12.11c-.91,0-1.37-.46-1.37-1.37v-106.64c0-.75.38-1.13,1.13-1.13h9.88c.75,0,1.37.29,1.84.9l64.79,81.2c.16.22.46.27.69.11.15-.09.22-.26.2-.42v-80.65c0-.75.38-1.13,1.15-1.13h12.31c.77,0,1.15.38,1.15,1.13v106.86c0,.77-.38,1.15-1.13,1.15h-9.99c-.71,0-1.3-.27-1.75-.84l-64.92-80.72c-.49-.62-.75-.53-.75.26Z" fill="#3a4755" stroke-width="0"></path><path d="m1081.18,121.93h24.66c.91,0,1.37.46,1.37,1.37v10.05c0,.91-.46,1.37-1.37,1.37h-24.64c-.6,0-.9.31-.9.91-.07,12.22-.07,24.39-.02,36.52.09,16.6,15.11,15.13,26.63,11.98.53-.15,1.1.16,1.24.69,0,.04,0,.05.02.09l1.97,10.67c.11.53-.09.9-.6,1.08-18.63,6.92-42.38,2.94-43.18-21.65-.33-10.19-.38-23.29-.18-39.31,0-.66-.31-.99-.99-.99h-16.9c-.91,0-1.37-.46-1.37-1.37v-10.05c0-.91.46-1.37,1.37-1.37h16.9c.6,0,.91-.31.91-.91v-24.42c0-.77.38-1.15,1.15-1.15h11.64c.91,0,1.37.46,1.37,1.37v24.2c0,.6.31.91.91.91h0Z" fill="#3a4755" stroke-width="0"></path><path d="m513.77,159.84c0,22.05-17.88,39.93-39.93,39.93h0c-22.05,0-39.93-17.88-39.93-39.93s17.88-39.93,39.93-39.93,39.93,17.88,39.93,39.93h0Zm-39.66,26.56c14.18-.09,25.57-12.04,25.48-26.65-.11-14.61-11.67-26.4-25.85-26.29-14.18.09-25.57,12.04-25.48,26.65.11,14.61,11.67,26.4,25.85,26.29h0Z" fill="#3a4755" stroke-width="0"></path><path d="m655.19,166.83c4.68,16.02,15.64,22.21,32.86,18.61,4.38-.91,8-3.98,10.83-9.22.31-.57.79-.86,1.44-.86h13.19c.49,0,.88.4.88.88,0,.09,0,.2-.05.29-6.1,17.76-24.48,25.01-41.9,22.16-50.53-8.22-37.63-89.38,15.47-77.32,20.29,4.62,30.2,23.62,28.04,43.27-.09.77-.51,1.15-1.3,1.15h-58.66c-.75-.02-1,.33-.8,1.04Zm.86-12.86l45.05-.15c.11,0,.2-.09.2-.2h0v-.13c-.04-11.31-10.17-20.42-22.67-20.39h-.26c-12.48.04-22.56,9.24-22.52,20.53v.13c0,.11.09.2.2.2h0Z" fill="#3a4755" stroke-width="0"></path><path d="m747.11,130.15c0,.31.24.58.55.58.15,0,.29-.05.4-.15,7.4-6.98,16.22-10.5,26.51-10.56.73,0,1.1.35,1.1,1.08v11.23c0,.84-.42,1.28-1.24,1.33-11.51.62-20.37,5.66-26.56,15.13-.33.51-.51,1.11-.51,1.74v45.83c0,.6-.31.91-.91.91h-12.33c-.6,0-.91-.31-.91-.91v-73.52c0-.6.31-.91.91-.91h12.17c.82,0,1.21.4,1.17,1.22l-.33,7h0Z" fill="#3a4755" stroke-width="0"></path><path d="m979.85,159.84c0,22.05-17.88,39.93-39.93,39.93h0c-22.05,0-39.93-17.88-39.93-39.93s17.88-39.93,39.93-39.93,39.93,17.88,39.93,39.93h0Zm-39.86,26.54c14.18,0,25.67-11.86,25.67-26.47s-11.49-26.47-25.67-26.47-25.67,11.86-25.67,26.47h0c0,14.61,11.49,26.47,25.67,26.47h0Z" fill="#3a4755" stroke-width="0"></path><path d="m1010.63,130.59c7.11-7.05,15.75-10.56,25.9-10.5.84,0,1.26.44,1.26,1.28v11.16c0,.75-.37,1.15-1.11,1.19-11.34.53-20.15,5.48-26.38,14.87-.24.37-.37.79-.37,1.22v46.56c0,.6-.31.91-.91.91h-11.87c-.91,0-1.37-.46-1.37-1.37v-72.85c0-.75.38-1.13,1.15-1.13h11.91c.79,0,1.17.4,1.15,1.19l-.18,7.11c-.02.8.26.93.82.37h0Z" fill="#3a4755" stroke-width="0"></path><path d="m601.07,171.75l18.25-49.41c.09-.24.31-.4.57-.4h14.12c.33,0,.6.27.6.6,0,.07,0,.15-.04.22l-27.86,74.15c-.09.24-.31.38-.57.38h-11.47c-.26,0-.49-.16-.58-.4l-16.39-48.66c-.11-.31-.46-.47-.77-.37-.16.05-.29.2-.37.37l-16.39,48.66c-.09.24-.33.4-.58.4h-11.45c-.26,0-.47-.15-.57-.38l-27.91-74.15c-.13-.31.04-.66.35-.79.07-.04.15-.04.22-.04h14.18c.26,0,.47.16.57.4l18.08,49.52c.13.31.47.47.79.35.16-.05.29-.2.35-.37l16.64-49.5c.09-.24.33-.4.58-.4h11.31c.26,0,.49.16.58.4l16.62,49.39c.11.31.46.47.77.37.16-.05.31-.18.37-.35h0Z" fill="#3a4755" stroke-width="0"></path></svg>