<svg xmlns="http://www.w3.org/2000/svg" id="Layer_1" width="1200.01" height="167.24" viewBox="0 0 1200.01 167.24"><path d="m0,83.62h0c0,46.18,37.44,83.62,83.62,83.62h0V0H0v83.62Z" fill="#e84c2b" stroke-width="0"></path><path d="m100.34,83.62h0c0,46.18,37.44,83.62,83.62,83.62h0V0h-83.62s0,83.62,0,83.62Z" fill="#e84c2b" stroke-width="0"></path><path d="m284.3,0c-46.17,0-83.6,37.45-83.6,83.62h0v83.62h0c46.17,0,83.6-37.45,83.6-83.62h0V0Z" fill="#e84c2b" stroke-width="0"></path><polygon points="466.86 37.08 447.2 107.71 426.5 37.08 407.57 37.08 386.86 107.71 367.33 37.08 347.39 37.08 377.46 133.65 395.98 133.65 416.83 62.95 437.68 133.65 456.22 133.65 486.27 37.08 466.86 37.08" fill="#102952" stroke-width="0"></polygon><path d="m537.37,71.02c-4.88-6.36-12.85-9.85-22.67-9.85-19.37,0-32.89,15.24-32.89,37.04s13.51,37.04,32.84,37.04c9.83,0,17.79-3.49,22.67-9.83v8.31h16.21V62.81h-16.21l.04,8.21h.01Zm-19.33,48.63c-11.06,0-18.78-8.83-18.78-21.48s7.72-21.46,18.78-21.46,18.78,8.61,18.78,21.46-7.54,21.52-18.78,21.52v-.04Z" fill="#102952" stroke-width="0"></path><rect x="568.03" y="31.73" width="17.45" height="101.92" fill="#102952" stroke-width="0"></rect><polygon points="667.96 62.65 645.81 62.65 617.32 95.25 617.32 31.73 599.88 31.73 599.88 133.65 617.32 133.65 617.32 116.59 628.67 104.37 648.83 133.65 669.72 133.65 640.3 92.78 667.96 62.65" fill="#102952" stroke-width="0"></polygon><path d="m701.31,61.05c-20.44,0-35.3,15.56-35.3,37.02s14.57,37.18,35.44,37.18c15.29.42,28.97-9.46,33.37-24.11l.3-.97h-17.59l-.2.47c-2.72,6.04-8.87,9.79-15.48,9.44-10.23,0-17.1-6.08-18.56-16.55h52.68v-.71s.14-2.47.14-5c.08-21.3-14.59-36.76-34.81-36.76h.01Zm0,14.49c8.75-.38,16.34,6,17.47,14.69h-35.15c1.35-8.65,8.93-14.95,17.69-14.69h0Z" fill="#102952" stroke-width="0"></path><path d="m781.91,61.98c-10.94,0-16.78,4.7-19.74,8.57v-7.9h-16.21v71.08h17.43v-37c0-12.28,5.79-18.52,17.18-18.52,1.18.02,2.36.11,3.53.26l.85.12v-16.43h-.69s-1.68-.18-2.35-.18h0Z" fill="#102952" stroke-width="0"></path><path d="m860.35,76.35c-10.86-2.43-20.26-4.52-20.26-12.81,0-7.86,6.26-12.36,17.18-12.36s17.71,6.08,17.85,16.21v.75h17.45v-.87c-.45-19.86-13.96-32.2-35.3-32.2-20.14,0-34.75,12.16-34.75,28.87,0,21.96,17.02,25.63,32.05,28.87,11.33,2.45,21.09,4.56,21.09,14.18,0,8.1-7.01,12.48-19.74,12.48-11.77,0-18.9-5.94-19.59-16.21v-.71h-17.55v.79c.53,15.62,10.37,32.32,36.47,32.32,23.38,0,38.5-11.49,38.5-29.28-.2-22.59-18.58-26.73-33.41-30.05v.02Z" fill="#102952" stroke-width="0"></path><path d="m955.84,71.02c-4.88-6.36-12.83-9.85-22.67-9.85-19.35,0-32.89,15.24-32.89,37.04s13.54,37.04,32.89,37.04c9.85,0,17.79-3.49,22.67-9.83v8.31h16.21V62.81h-16.21s0,8.21,0,8.21Zm-19.31,48.63c-11.06,0-18.8-8.83-18.8-21.48s7.74-21.46,18.8-21.46,18.78,8.61,18.78,21.46-7.56,21.52-18.78,21.52v-.04Z" fill="#102952" stroke-width="0"></path><path d="m1023.42,61.05c-11.91,0-17.99,5.49-20.67,9.04v-7.44h-16.21v71.08h17.45v-41.13c0-10.27,5.84-16.39,15.58-16.39,10.78,0,13.03,8.1,13.03,15.03v42.49h17.45v-44.58c-.04-17.3-10.23-28.1-26.62-28.1h0Z" fill="#102952" stroke-width="0"></path><path d="m1113.68,70.21c-4.8-5.86-12.48-9.16-21.46-9.16-19.37,0-32.89,15.28-32.89,37.16s13.51,37.04,32.89,37.04c9.83,0,17.77-3.49,22.65-9.83v8.31h16.21V31.73h-17.45l.04,38.48h0Zm-18.11,49.48c-11.06,0-18.8-8.83-18.8-21.48s7.56-21.6,18.8-21.6,18.84,8.67,18.84,21.6-7.62,21.48-18.84,21.48Z" fill="#102952" stroke-width="0"></path><path d="m1174.15,90.65c-7.8-1.48-13.96-2.65-13.96-7.58s3.95-7.54,11.14-7.54c7.88,0,11.2,4.84,11.71,9.36v.69h16.76v-.81c-.77-10.94-8.59-23.73-28.06-23.73s-28.37,11.35-28.37,22.57c0,17.04,14.06,19.59,25.35,21.66,8.1,1.48,14.55,2.65,14.55,8.1,0,4.48-4.54,7.15-12.16,7.15-8.51,0-13.82-3.75-14.18-10.01v-.71h-16.92v.81c.47,7.38,4.34,24.54,30.19,24.54,18.11,0,29.81-8.81,29.81-22.45.06-17.14-14.31-19.88-25.85-22.07v.02Z" fill="#102952" stroke-width="0"></path></svg>